<?xml version="1.0" encoding="utf-8"?>
<!-- Generator: Adobe Illustrator 19.0.0, SVG Export Plug-In . SVG Version: 6.00 Build 0)  -->
<svg version="1.1" xmlns="http://www.w3.org/2000/svg" xmlns:xlink="http://www.w3.org/1999/xlink" x="0px" y="0px"
	 viewBox="0 0 304.06 411.02" enable-background="new 0 0 304.06 411.02" xml:space="preserve">
<g id="Layer_1">
	<g id="XMLID_38_">
		<path id="XMLID_61_" fill="none" stroke="#000000" stroke-width="0.5" stroke-miterlimit="10" d="M297.639,411.022H17.059
			C7.676,411.022,0,403.346,0,393.962V18.479C0,8.315,8.316-0.002,18.48-0.002h268.236c9.382,0,17.059,7.677,17.059,17.059v387.828
			C303.775,408.261,301.013,411.022,297.639,411.022"/>
		<path id="XMLID_45_" fill="none" stroke="#000000" stroke-width="0.5" stroke-miterlimit="10" d="M217.937,296.191v-9.91H87.864
			v9.277c-15.072,4.215-26.211,18.108-26.211,34.479c0,19.685,16.105,35.79,35.79,35.79h108.888c19.685,0,35.79-16.106,35.79-35.79
			C242.122,314.41,231.971,301.04,217.937,296.191"/>
		<g id="XMLID_62_">
			<path id="XMLID_42_" fill="none" stroke="#000000" stroke-width="0.5" stroke-miterlimit="10" d="M208.782,96.289
				c0,12.01-9.736,21.747-21.746,21.747c-12.01,0-21.746-9.737-21.746-21.747c0-12.01,9.737-21.746,21.746-21.746
				C199.046,74.543,208.782,84.279,208.782,96.289"/>
		</g>
		<g id="XMLID_63_">
			<path id="XMLID_40_" fill="none" stroke="#000000" stroke-width="0.5" stroke-miterlimit="10" d="M282.306,96.289
				c0,12.01-9.736,21.747-21.746,21.747c-12.01,0-21.746-9.737-21.746-21.747c0-12.01,9.737-21.746,21.746-21.746
				C272.57,74.543,282.306,84.279,282.306,96.289"/>
		</g>
		
			<rect id="XMLID_59_" x="20.171" y="23.111" fill="none" stroke="#000000" stroke-width="0.5" stroke-miterlimit="10" width="79.047" height="30.376"/>
	</g>
	<g id="XMLID_135_">
		<line id="XMLID_83_" fill="none" stroke="#010101" stroke-miterlimit="10" x1="303.519" y1="330.037" x2="242.122" y2="330.037"/>
		<line id="XMLID_5_" fill="none" stroke="#010101" stroke-miterlimit="10" x1="71.883" y1="166.233" x2="76.271" y2="161.843"/>
		<line id="XMLID_2_" fill="none" stroke="#010101" stroke-miterlimit="10" x1="76.271" y1="161.843" x2="71.883" y2="157.453"/>
		<line id="XMLID_8_" fill="none" stroke="#010101" stroke-miterlimit="10" x1="71.883" y1="206.556" x2="76.271" y2="202.166"/>
		<line id="XMLID_7_" fill="none" stroke="#010101" stroke-miterlimit="10" x1="76.271" y1="202.166" x2="71.883" y2="197.776"/>
		<line id="XMLID_10_" fill="none" stroke="#010101" stroke-miterlimit="10" x1="71.772" y1="247.098" x2="76.381" y2="242.487"/>
		<line id="XMLID_9_" fill="none" stroke="#010101" stroke-miterlimit="10" x1="76.381" y1="242.487" x2="71.772" y2="237.876"/>
		<polyline id="XMLID_3_" fill="none" stroke="#010101" stroke-miterlimit="10" points="60.07,128.442 60.07,242.487 89.47,242.487 
					"/>
		<line id="XMLID_19_" fill="none" stroke="#010101" stroke-miterlimit="10" x1="55.7" y1="78.518" x2="60.31" y2="83.126"/>
		<line id="XMLID_18_" fill="none" stroke="#010101" stroke-miterlimit="10" x1="60.31" y1="83.126" x2="64.921" y2="78.518"/>
		<line id="XMLID_11_" fill="none" stroke="#010101" stroke-miterlimit="10" x1="24.781" y1="267.594" x2="20.171" y2="262.985"/>
		<line id="XMLID_6_" fill="none" stroke="#010101" stroke-miterlimit="10" x1="20.171" y1="262.985" x2="15.56" y2="267.594"/>
		<line id="XMLID_60_" fill="none" stroke="#010101" stroke-miterlimit="10" x1="60.077" y1="53.487" x2="60.077" y2="107.986"/>
		<polyline id="XMLID_78_" fill="none" stroke="#010101" stroke-miterlimit="10" points="61.653,330.037 20.171,330.037 
			20.171,118.036 50.069,118.036 		"/>
		<line id="XMLID_4_" fill="none" stroke="#010101" stroke-miterlimit="10" x1="60.31" y1="202.166" x2="89.235" y2="202.166"/>
		<line id="XMLID_12_" fill="none" stroke="#010101" stroke-miterlimit="10" x1="60.31" y1="161.843" x2="89.469" y2="161.843"/>
		<polyline id="XMLID_29_" fill="none" stroke="#000000" stroke-miterlimit="10" points="109.756,202.166 165.395,202.166 
			165.395,217.142 178.187,217.142 		"/>
		<polyline id="XMLID_30_" fill="none" stroke="#000000" stroke-miterlimit="10" points="109.52,242.487 165.395,242.487 
			165.395,226.364 178.181,226.364 		"/>
		<line id="XMLID_31_" fill="none" stroke="#000000" stroke-miterlimit="10" x1="187.084" y1="118.262" x2="187.084" y2="211.728"/>
		<path id="XMLID_32_" fill="none" stroke="#000000" stroke-miterlimit="10" d="M109.52,161.843h74.727h0.082
			c0-1.521,1.233-2.755,2.755-2.755s2.755,1.233,2.755,2.755l48.888,0.001v15.44h12.792"/>
		<polyline id="XMLID_33_" fill="none" stroke="#000000" stroke-miterlimit="10" points="197.109,221.753 238.727,221.753 
			238.727,186.505 251.399,186.505 		"/>
		<line id="XMLID_34_" fill="none" stroke="#000000" stroke-miterlimit="10" x1="260.416" y1="118.262" x2="260.416" y2="171.869"/>
		<polyline id="XMLID_37_" fill="none" stroke="#010101" stroke-miterlimit="10" points="270.441,181.894 282.106,181.894 
			282.106,261.865 248.752,261.865 		"/>
	</g>
	<path id="_x28__x2B__x29_" fill="none" stroke="#010101" stroke-miterlimit="10" d="M55.321,118.036h9.505 M60.073,122.789v-9.506
		 M70.099,118.036c0,5.537-4.489,10.025-10.026,10.025s-10.025-4.488-10.025-10.025c0-5.537,4.488-10.026,10.025-10.026
		S70.099,112.499,70.099,118.036z"/>
	<g id="_x28_3_x29__1_">
		<path id="XMLID_192_" fill="none" stroke="#010101" stroke-miterlimit="10" d="M99.495,247.035v-9.096 M96.441,237.876h6.109
			 M102.55,247.098h-6.109 M102.954,247.035v-9.096 M99.899,237.876h6.109 M106.008,247.098h-6.109 M96.036,247.035v-9.096
			 M92.982,237.876h6.109 M99.091,247.098h-6.109"/>
		<circle id="XMLID_191_" fill="none" stroke="#010101" stroke-miterlimit="10" cx="99.495" cy="242.487" r="10.025"/>
	</g>
	<g id="_x28_2_x29_">
		<path id="XMLID_139_" fill="none" stroke="#010101" stroke-miterlimit="10" d="M102.315,206.935v-9.096 M99.26,197.776h6.109
			 M105.369,206.998H99.26 M96.205,206.935v-9.096 M93.151,197.776h6.109 M99.26,206.998h-6.109"/>
		
			<ellipse id="XMLID_138_" fill="none" stroke="#010101" stroke-miterlimit="10" cx="99.495" cy="202.166" rx="10.261" ry="10.246"/>
	</g>
	<polygon id="XMLID_85_" fill="none" stroke="#000000" stroke-miterlimit="10" points="243.298,259.783 240.452,259.783 
		240.452,258.576 237.163,255.287 237.163,268.442 240.452,265.153 240.452,263.78 243.298,263.78 	"/>
	<g id="_x28_1_x29__1_">
		<line id="XMLID_183_" fill="none" stroke="#010101" stroke-miterlimit="10" x1="99.494" y1="166.391" x2="99.494" y2="157.294"/>
		<line id="XMLID_182_" fill="none" stroke="#010101" stroke-miterlimit="10" x1="96.44" y1="157.232" x2="102.549" y2="157.232"/>
		<line id="XMLID_176_" fill="none" stroke="#010101" stroke-miterlimit="10" x1="102.549" y1="166.454" x2="96.44" y2="166.454"/>
		<circle id="XMLID_175_" fill="none" stroke="#010101" stroke-miterlimit="10" cx="99.495" cy="161.843" r="10.026"/>
	</g>
	<g id="Crossfader">
		<path id="XMLID_74_" fill="none" stroke="#010101" stroke-miterlimit="10" d="M193.297,226.364c-6.213,0-6.213-9.222-10.19-9.222
			h-2.235"/>
		<path id="XMLID_44_" fill="none" stroke="#010101" stroke-miterlimit="10" d="M193.297,217.142c-0.838,0-2.235,0-2.235,0
			c-3.978,0-3.978,9.222-10.19,9.222"/>
		<circle id="XMLID_43_" fill="none" stroke="#010101" stroke-miterlimit="10" cx="187.084" cy="221.753" r="10.026"/>
		<path id="XMLID_72_" fill="none" stroke="#010101" stroke-miterlimit="10" d="M191.062,225.893"/>
		
			<line id="XMLID_88_" fill="none" stroke="#000000" stroke-width="0.3543" stroke-miterlimit="10" x1="187.084" y1="226.857" x2="187.084" y2="221.754"/>
		
			<line id="XMLID_131_" fill="none" stroke="#000000" stroke-width="0.3543" stroke-miterlimit="10" x1="188.502" y1="226.857" x2="188.502" y2="223.605"/>
		
			<line id="XMLID_144_" fill="none" stroke="#000000" stroke-width="0.3543" stroke-miterlimit="10" x1="185.666" y1="226.857" x2="185.666" y2="223.605"/>
		
			<line id="XMLID_148_" fill="none" stroke="#000000" stroke-width="0.3543" stroke-miterlimit="10" x1="184.247" y1="226.857" x2="184.247" y2="225.111"/>
		
			<line id="XMLID_132_" fill="none" stroke="#000000" stroke-width="0.3543" stroke-miterlimit="10" x1="189.921" y1="226.857" x2="189.921" y2="225.38"/>
	</g>
	<g id="Crossfader_1_">
		<path id="XMLID_28_" fill="none" stroke="#010101" stroke-miterlimit="10" d="M266.629,186.505c-6.213,0-6.213-9.222-10.19-9.222
			h-2.235"/>
		<path id="XMLID_27_" fill="none" stroke="#010101" stroke-miterlimit="10" d="M266.629,177.283c-0.838,0-2.235,0-2.235,0
			c-3.978,0-3.978,9.222-10.19,9.222"/>
		<circle id="XMLID_26_" fill="none" stroke="#010101" stroke-miterlimit="10" cx="260.416" cy="181.894" r="10.026"/>
		<path id="XMLID_25_" fill="none" stroke="#010101" stroke-miterlimit="10" d="M264.394,186.033"/>
		
			<line id="XMLID_24_" fill="none" stroke="#000000" stroke-width="0.3543" stroke-miterlimit="10" x1="260.416" y1="186.998" x2="260.416" y2="181.894"/>
		
			<line id="XMLID_23_" fill="none" stroke="#000000" stroke-width="0.3543" stroke-miterlimit="10" x1="261.834" y1="186.998" x2="261.834" y2="183.745"/>
		
			<line id="XMLID_22_" fill="none" stroke="#000000" stroke-width="0.3543" stroke-miterlimit="10" x1="258.998" y1="186.998" x2="258.998" y2="183.745"/>
		
			<line id="XMLID_21_" fill="none" stroke="#000000" stroke-width="0.3543" stroke-miterlimit="10" x1="257.579" y1="186.998" x2="257.579" y2="185.251"/>
		
			<line id="XMLID_20_" fill="none" stroke="#000000" stroke-width="0.3543" stroke-miterlimit="10" x1="263.252" y1="186.998" x2="263.252" y2="185.521"/>
	</g>
	<g id="XMLID_77_">
		<g id="Mic">
			<path id="XMLID_75_" fill="none" stroke="#000000" stroke-miterlimit="10" d="M132.394,40.687L132.394,40.687
				c-1.219,0-2.217-1.109-2.217-2.464V32.83c0-1.355,0.998-2.464,2.217-2.464s2.217,1.109,2.217,2.464v5.393
				C134.611,39.578,133.613,40.687,132.394,40.687"/>
			<path id="XMLID_73_" fill="#010101" d="M135.865,35.552v2.987c0,1.909-1.562,3.471-3.471,3.471c-1.909,0-3.471-1.562-3.471-3.471
				v-2.987h-0.87v3.023c0,2.388,1.953,4.342,4.341,4.342s4.342-1.954,4.342-4.342v-3.023H135.865z"/>
			<rect id="XMLID_71_" x="130.074" y="46.097" fill="#010101" width="4.639" height="0.87"/>
			<rect id="XMLID_36_" x="131.958" y="42.6" fill="#010101" width="0.871" height="3.589"/>
		</g>
		<circle id="XMLID_76_" fill="none" stroke="#010101" stroke-miterlimit="10" cx="132.243" cy="38.299" r="10.026"/>
	</g>
	<g id="XMLID_35_">
		<circle id="XMLID_84_" fill="none" stroke="#010101" stroke-miterlimit="10" cx="238.727" cy="261.865" r="10.025"/>
	</g>
	<path id="XMLID_17_" fill="none" stroke="#000000" stroke-miterlimit="10" d="M115.596,38.202"/>
	<line id="XMLID_79_" fill="none" stroke="#000000" stroke-miterlimit="10" x1="122.218" y1="38.299" x2="99.217" y2="38.299"/>
	
		<line id="XMLID_101_" fill="none" stroke="#000000" stroke-width="0.5" stroke-miterlimit="10" x1="151.887" y1="272.108" x2="151.887" y2="279.195"/>
	
		<line id="XMLID_115_" fill="none" stroke="#000000" stroke-width="0.5" stroke-miterlimit="10" x1="459.804" y1="485.154" x2="473.977" y2="485.154"/>
	<g id="XMLID_134_">
		
			<line id="XMLID_133_" fill="none" stroke="#000000" stroke-width="0.5" stroke-miterlimit="10" x1="151.887" y1="274.936" x2="150.47" y2="276.354"/>
		
			<line id="XMLID_130_" fill="none" stroke="#000000" stroke-width="0.5" stroke-miterlimit="10" x1="151.888" y1="274.936" x2="153.305" y2="276.354"/>
	</g>
	
		<line id="XMLID_163_" fill="none" stroke="#000000" stroke-width="0.5" stroke-miterlimit="10" x1="158.967" y1="279.198" x2="151.887" y2="279.198"/>
	<g id="XMLID_154_">
		
			<line id="XMLID_162_" fill="none" stroke="#000000" stroke-width="0.5" stroke-miterlimit="10" x1="156.136" y1="279.197" x2="154.719" y2="280.614"/>
		
			<line id="XMLID_161_" fill="none" stroke="#000000" stroke-width="0.5" stroke-miterlimit="10" x1="156.136" y1="279.196" x2="154.719" y2="277.779"/>
	</g>
	<path id="XMLID_16_" fill="none" stroke="#000000" stroke-width="0.5" stroke-miterlimit="10" d="M149.273,269.154
		c0.24,0.193,0.218,0.625,0.272,0.894c0.09-0.224,0.047-0.509,0.051-0.745c0.23,0.43,0.286,0.942,0.442,1.387
		c0.339-0.636,0.159-1.406,0.324-2.077c0.295,0.639,0.519,1.289,0.673,1.952c0.41-0.193,0.197-1.863,0.214-2.183
		c0.174,0.271,0.3,0.553,0.376,0.847c0.182-0.346,0.226-0.707,0.131-1.082c0.365,0.859,0.493,1.739,0.908,2.59
		c0.064-0.433-0.032-1.241,0.272-1.646c0.126,0.202,0.191,0.231,0.151-0.039c0.274,0.414,0.35,0.888,0.605,1.315
		c0.058-0.569-0.048-1.204,0.101-1.764c0.019,0.145,0.054,0.287,0.105,0.428c-0.004-0.081,0.019-0.158,0.07-0.23
		c0.168,0.227,0.227,0.337,0.534,0.45"/>
	
		<line id="XMLID_90_" fill="none" stroke="#000000" stroke-width="0.5" stroke-miterlimit="10" x1="160.281" y1="279.198" x2="162.617" y2="279.198"/>
	
		<line id="XMLID_104_" fill="none" stroke="#000000" stroke-width="0.5" stroke-miterlimit="10" x1="161.449" y1="278.03" x2="161.449" y2="280.367"/>
	
		<line id="XMLID_203_" fill="none" stroke="#000000" stroke-width="0.5" stroke-miterlimit="10" x1="144.808" y1="279.198" x2="151.888" y2="279.198"/>
	<g id="XMLID_189_">
		
			<line id="XMLID_202_" fill="none" stroke="#000000" stroke-width="0.5" stroke-miterlimit="10" x1="147.639" y1="279.197" x2="149.056" y2="280.614"/>
		
			<line id="XMLID_190_" fill="none" stroke="#000000" stroke-width="0.5" stroke-miterlimit="10" x1="147.639" y1="279.196" x2="149.056" y2="277.779"/>
	</g>
	
		<line id="XMLID_188_" fill="none" stroke="#000000" stroke-width="0.5" stroke-miterlimit="10" x1="143.494" y1="279.198" x2="141.158" y2="279.198"/>
	
		<line id="XMLID_222_" fill="none" stroke="#000000" stroke-width="0.5" stroke-miterlimit="10" x1="473.99" y1="483.911" x2="466.91" y2="483.911"/>
	<g id="XMLID_219_">
		
			<line id="XMLID_221_" fill="none" stroke="#000000" stroke-width="0.5" stroke-miterlimit="10" x1="471.159" y1="483.909" x2="469.741" y2="485.326"/>
		
			<line id="XMLID_220_" fill="none" stroke="#000000" stroke-width="0.5" stroke-miterlimit="10" x1="471.159" y1="483.909" x2="469.741" y2="482.491"/>
	</g>
	
		<line id="XMLID_218_" fill="none" stroke="#000000" stroke-width="0.5" stroke-miterlimit="10" x1="475.304" y1="483.911" x2="477.64" y2="483.911"/>
	
		<line id="XMLID_217_" fill="none" stroke="#000000" stroke-width="0.5" stroke-miterlimit="10" x1="476.472" y1="482.742" x2="476.472" y2="485.079"/>
	<g id="XMLID_187_">
		<g id="XMLID_237_">
			
				<linearGradient id="XMLID_97_" gradientUnits="userSpaceOnUse" x1="-672.0018" y1="-341.6054" x2="-672.0018" y2="-307.0361" gradientTransform="matrix(0.7071 0.7071 -0.7071 0.7071 457.3733 742.4625)">
				<stop  offset="0" style="stop-color:#FFFFFF"/>
				<stop  offset="0.5" style="stop-color:#010101"/>
			</linearGradient>
			<polygon id="XMLID_238_" fill="url(#XMLID_97_)" points="235.972,37.963 211.528,13.519 211.528,62.407 187.084,37.963 			"/>
		</g>
		
			<linearGradient id="XMLID_98_" gradientUnits="userSpaceOnUse" x1="-654.7172" y1="-324.3208" x2="-654.7172" y2="-358.89" gradientTransform="matrix(0.7071 0.7071 -0.7071 0.7071 457.3733 742.4625)">
			<stop  offset="0" style="stop-color:#FFFFFF"/>
			<stop  offset="0.5" style="stop-color:#010101"/>
		</linearGradient>
		<polygon id="XMLID_236_" fill="url(#XMLID_98_)" points="260.416,37.963 235.972,13.519 235.972,62.407 211.528,37.963 		"/>
	</g>
	<rect id="XMLID_41_" x="153.329" y="92.512" fill="none" width="67.412" height="26.523"/>
	<text id="XMLID_86_" transform="matrix(1 0 0 1 175.0361 99.6024)" font-family="'SourceCodePro-Medium'" font-size="10px">mix1</text>
	<rect id="XMLID_96_" x="117.473" y="312.536" fill="none" width="67.412" height="47.406"/>
	<text id="XMLID_95_" transform="matrix(1 0 0 1 136.1793 319.6258)"><tspan x="0" y="0" font-family="'SourceCodePro-Medium'" font-size="10px">pitch</tspan><tspan x="6" y="12" font-family="'SourceCodePro-Medium'" font-size="10px">and</tspan><tspan x="-15" y="24" font-family="'SourceCodePro-Medium'" font-size="10px">modulation</tspan></text>
	<rect id="XMLID_92_" x="226.71" y="92.512" fill="none" width="67.412" height="26.523"/>
	<text id="XMLID_91_" transform="matrix(1 0 0 1 248.4164 99.6024)" font-family="'SourceCodePro-Medium'" font-size="10px">mix2</text>
	<rect id="XMLID_94_" x="25.988" y="28.426" fill="none" width="67.412" height="26.523"/>
	<text id="XMLID_93_" transform="matrix(1 0 0 1 32.6943 35.5157)"><tspan x="0" y="0" font-family="'SourceCodePro-Medium'" font-size="10px">proximity </tspan><tspan x="9" y="12" font-family="'SourceCodePro-Medium'" font-size="10px">sensor</tspan></text>
</g>
<g id="Layer_2" display="none">
</g>
</svg>
