<?xml version="1.0" encoding="utf-8"?>
<!-- Generator: Adobe Illustrator 19.0.0, SVG Export Plug-In . SVG Version: 6.00 Build 0)  -->
<svg version="1.1" xmlns="http://www.w3.org/2000/svg" xmlns:xlink="http://www.w3.org/1999/xlink" x="0px" y="0px"
	 viewBox="0 0 304.06 411.02" enable-background="new 0 0 304.06 411.02" xml:space="preserve">
<g id="Layer_1">
	<g id="XMLID_38_">
		<path id="XMLID_61_" fill="none" stroke="#000000" stroke-width="0.5" stroke-miterlimit="10" d="M297.639,411.022H17.059
			C7.676,411.022,0,403.346,0,393.962V18.479C0,8.315,8.316-0.002,18.48-0.002h268.236c9.382,0,17.059,7.677,17.059,17.059v387.828
			C303.775,408.261,301.013,411.022,297.639,411.022"/>
		<path id="XMLID_45_" fill="none" stroke="#000000" stroke-width="0.5" stroke-miterlimit="10" d="M217.937,296.191v-9.91H87.864
			v9.277c-15.072,4.215-26.211,18.108-26.211,34.479c0,19.685,16.105,35.79,35.79,35.79h108.888c19.685,0,35.79-16.106,35.79-35.79
			C242.122,314.41,231.971,301.04,217.937,296.191"/>
		<g id="XMLID_62_">
			<path id="XMLID_42_" fill="none" stroke="#000000" stroke-width="0.5" stroke-miterlimit="10" d="M208.782,96.289
				c0,12.01-9.736,21.747-21.746,21.747c-12.01,0-21.746-9.737-21.746-21.747c0-12.01,9.737-21.746,21.746-21.746
				C199.046,74.543,208.782,84.279,208.782,96.289"/>
		</g>
		<g id="XMLID_63_">
			<path id="XMLID_40_" fill="none" stroke="#000000" stroke-width="0.5" stroke-miterlimit="10" d="M282.306,96.289
				c0,12.01-9.736,21.747-21.746,21.747c-12.01,0-21.746-9.737-21.746-21.747c0-12.01,9.737-21.746,21.746-21.746
				C272.57,74.543,282.306,84.279,282.306,96.289"/>
		</g>
		
			<rect id="XMLID_59_" x="20.171" y="23.111" fill="none" stroke="#000000" stroke-width="0.5" stroke-miterlimit="10" width="79.047" height="30.376"/>
	</g>
	<g id="XMLID_135_">
		<line id="XMLID_83_" fill="none" stroke="#010101" stroke-miterlimit="10" x1="303.519" y1="330.037" x2="242.122" y2="330.037"/>
		<line id="XMLID_5_" fill="none" stroke="#010101" stroke-miterlimit="10" x1="71.883" y1="166.233" x2="76.271" y2="161.843"/>
		<line id="XMLID_2_" fill="none" stroke="#010101" stroke-miterlimit="10" x1="76.271" y1="161.843" x2="71.883" y2="157.453"/>
		<line id="XMLID_8_" fill="none" stroke="#010101" stroke-miterlimit="10" x1="71.883" y1="206.556" x2="76.271" y2="202.166"/>
		<line id="XMLID_7_" fill="none" stroke="#010101" stroke-miterlimit="10" x1="76.271" y1="202.166" x2="71.883" y2="197.776"/>
		<line id="XMLID_10_" fill="none" stroke="#010101" stroke-miterlimit="10" x1="71.772" y1="247.098" x2="76.381" y2="242.487"/>
		<line id="XMLID_9_" fill="none" stroke="#010101" stroke-miterlimit="10" x1="76.381" y1="242.487" x2="71.772" y2="237.876"/>
		<polyline id="XMLID_3_" fill="none" stroke="#010101" stroke-miterlimit="10" points="60.07,128.442 60.07,242.487 89.47,242.487 
					"/>
		<line id="XMLID_19_" fill="none" stroke="#010101" stroke-miterlimit="10" x1="55.7" y1="78.518" x2="60.31" y2="83.126"/>
		<line id="XMLID_18_" fill="none" stroke="#010101" stroke-miterlimit="10" x1="60.31" y1="83.126" x2="64.921" y2="78.518"/>
		<line id="XMLID_11_" fill="none" stroke="#010101" stroke-miterlimit="10" x1="24.781" y1="267.594" x2="20.171" y2="262.985"/>
		<line id="XMLID_6_" fill="none" stroke="#010101" stroke-miterlimit="10" x1="20.171" y1="262.985" x2="15.56" y2="267.594"/>
		<line id="XMLID_60_" fill="none" stroke="#010101" stroke-miterlimit="10" x1="60.077" y1="53.487" x2="60.077" y2="107.986"/>
		<polyline id="XMLID_78_" fill="none" stroke="#010101" stroke-miterlimit="10" points="61.653,330.037 20.171,330.037 
			20.171,118.036 50.069,118.036 		"/>
		<line id="XMLID_4_" fill="none" stroke="#010101" stroke-miterlimit="10" x1="60.31" y1="202.166" x2="89.235" y2="202.166"/>
		<line id="XMLID_12_" fill="none" stroke="#010101" stroke-miterlimit="10" x1="60.31" y1="161.843" x2="89.469" y2="161.843"/>
		<polyline id="XMLID_29_" fill="none" stroke="#000000" stroke-miterlimit="10" points="109.756,202.166 165.395,202.166 
			165.395,217.142 178.187,217.142 		"/>
		<polyline id="XMLID_30_" fill="none" stroke="#000000" stroke-miterlimit="10" points="109.52,242.487 165.395,242.487 
			165.395,226.364 178.181,226.364 		"/>
		<line id="XMLID_31_" fill="none" stroke="#000000" stroke-miterlimit="10" x1="187.084" y1="118.262" x2="187.084" y2="211.728"/>
		<path id="XMLID_32_" fill="none" stroke="#000000" stroke-miterlimit="10" d="M109.52,161.843h74.727h0.082
			c0-1.521,1.233-2.755,2.755-2.755s2.755,1.233,2.755,2.755l48.888,0.001v15.44h12.792"/>
		<polyline id="XMLID_33_" fill="none" stroke="#000000" stroke-miterlimit="10" points="197.109,221.753 238.727,221.753 
			238.727,186.505 251.399,186.505 		"/>
		<line id="XMLID_34_" fill="none" stroke="#000000" stroke-miterlimit="10" x1="260.416" y1="118.262" x2="260.416" y2="171.869"/>
		<polyline id="XMLID_37_" fill="none" stroke="#010101" stroke-miterlimit="10" points="270.441,181.894 282.106,181.894 
			282.106,261.865 248.752,261.865 		"/>
	</g>
	<path id="_x28__x2B__x29_" fill="none" stroke="#010101" stroke-miterlimit="10" d="M55.321,118.036h9.505 M60.073,122.789v-9.506
		 M70.099,118.036c0,5.537-4.489,10.025-10.026,10.025s-10.025-4.488-10.025-10.025c0-5.537,4.488-10.026,10.025-10.026
		S70.099,112.499,70.099,118.036z"/>
	<g id="_x28_3_x29__1_">
		<circle id="XMLID_191_" fill="none" stroke="#010101" stroke-miterlimit="10" cx="99.495" cy="242.487" r="10.025"/>
		<rect id="XMLID_100_" x="89.005" y="236.167" fill="none" width="20.528" height="12.64"/>
		<text id="XMLID_102_" transform="matrix(1 0 0 1 94.2208 247.8305)" font-family="'SourceSerifPro-Regular'" font-size="16px">C</text>
	</g>
	<g id="_x28_2_x29_">
		
			<ellipse id="XMLID_138_" fill="none" stroke="#010101" stroke-miterlimit="10" cx="99.495" cy="202.166" rx="10.261" ry="10.246"/>
		<rect id="XMLID_98_" x="89.235" y="195.866" fill="none" width="20.52" height="12.599"/>
		<text id="XMLID_99_" transform="matrix(1 0 0 1 94.463 207.5302)" font-family="'SourceSerifPro-Regular'" font-size="16px">B</text>
	</g>
	<g id="_x28_1_x29__1_">
		<circle id="XMLID_175_" fill="none" stroke="#010101" stroke-miterlimit="10" cx="99.495" cy="161.843" r="10.026"/>
		<rect id="XMLID_89_" x="89.469" y="154.621" fill="none" width="20.051" height="14.444"/>
		<text id="XMLID_97_" transform="matrix(1 0 0 1 94.1832 166.2852)" font-family="'SourceSerifPro-Regular'" font-size="16px">A</text>
	</g>
	<g id="Crossfader">
		<path id="XMLID_74_" fill="none" stroke="#010101" stroke-miterlimit="10" d="M193.297,226.364c-6.213,0-6.213-9.222-10.19-9.222
			h-2.235"/>
		<path id="XMLID_44_" fill="none" stroke="#010101" stroke-miterlimit="10" d="M193.297,217.142c-0.838,0-2.235,0-2.235,0
			c-3.978,0-3.978,9.222-10.19,9.222"/>
		<circle id="XMLID_43_" fill="none" stroke="#010101" stroke-miterlimit="10" cx="187.084" cy="221.753" r="10.026"/>
		<path id="XMLID_72_" fill="none" stroke="#010101" stroke-miterlimit="10" d="M191.062,225.893"/>
		
			<line id="XMLID_88_" fill="none" stroke="#000000" stroke-width="0.3543" stroke-miterlimit="10" x1="187.084" y1="226.857" x2="187.084" y2="221.754"/>
		
			<line id="XMLID_131_" fill="none" stroke="#000000" stroke-width="0.3543" stroke-miterlimit="10" x1="188.502" y1="226.857" x2="188.502" y2="223.605"/>
		
			<line id="XMLID_144_" fill="none" stroke="#000000" stroke-width="0.3543" stroke-miterlimit="10" x1="185.666" y1="226.857" x2="185.666" y2="223.605"/>
		
			<line id="XMLID_148_" fill="none" stroke="#000000" stroke-width="0.3543" stroke-miterlimit="10" x1="184.247" y1="226.857" x2="184.247" y2="225.111"/>
		
			<line id="XMLID_132_" fill="none" stroke="#000000" stroke-width="0.3543" stroke-miterlimit="10" x1="189.921" y1="226.857" x2="189.921" y2="225.38"/>
	</g>
	<g id="Crossfader_1_">
		<path id="XMLID_28_" fill="none" stroke="#010101" stroke-miterlimit="10" d="M266.629,186.505c-6.213,0-6.213-9.222-10.19-9.222
			h-2.235"/>
		<path id="XMLID_27_" fill="none" stroke="#010101" stroke-miterlimit="10" d="M266.629,177.283c-0.838,0-2.235,0-2.235,0
			c-3.978,0-3.978,9.222-10.19,9.222"/>
		<circle id="XMLID_26_" fill="none" stroke="#010101" stroke-miterlimit="10" cx="260.416" cy="181.894" r="10.026"/>
		<path id="XMLID_25_" fill="none" stroke="#010101" stroke-miterlimit="10" d="M264.394,186.033"/>
		
			<line id="XMLID_24_" fill="none" stroke="#000000" stroke-width="0.3543" stroke-miterlimit="10" x1="260.416" y1="186.998" x2="260.416" y2="181.894"/>
		
			<line id="XMLID_23_" fill="none" stroke="#000000" stroke-width="0.3543" stroke-miterlimit="10" x1="261.834" y1="186.998" x2="261.834" y2="183.745"/>
		
			<line id="XMLID_22_" fill="none" stroke="#000000" stroke-width="0.3543" stroke-miterlimit="10" x1="258.998" y1="186.998" x2="258.998" y2="183.745"/>
		
			<line id="XMLID_21_" fill="none" stroke="#000000" stroke-width="0.3543" stroke-miterlimit="10" x1="257.579" y1="186.998" x2="257.579" y2="185.251"/>
		
			<line id="XMLID_20_" fill="none" stroke="#000000" stroke-width="0.3543" stroke-miterlimit="10" x1="263.252" y1="186.998" x2="263.252" y2="185.521"/>
	</g>
	<g id="XMLID_77_">
		<g id="Mic">
			<path id="XMLID_75_" fill="none" stroke="#000000" stroke-miterlimit="10" d="M132.394,40.687L132.394,40.687
				c-1.219,0-2.217-1.109-2.217-2.464V32.83c0-1.355,0.998-2.464,2.217-2.464s2.217,1.109,2.217,2.464v5.393
				C134.611,39.578,133.613,40.687,132.394,40.687"/>
			<path id="XMLID_73_" fill="#010101" d="M135.865,35.552v2.987c0,1.909-1.562,3.471-3.471,3.471c-1.909,0-3.471-1.562-3.471-3.471
				v-2.987h-0.87v3.023c0,2.388,1.953,4.342,4.341,4.342s4.342-1.954,4.342-4.342v-3.023H135.865z"/>
			<rect id="XMLID_71_" x="130.074" y="46.097" fill="#010101" width="4.639" height="0.87"/>
			<rect id="XMLID_36_" x="131.958" y="42.6" fill="#010101" width="0.871" height="3.589"/>
		</g>
		<circle id="XMLID_76_" fill="none" stroke="#010101" stroke-miterlimit="10" cx="132.243" cy="38.299" r="10.026"/>
	</g>
	<g id="XMLID_103_">
		<polygon id="XMLID_85_" fill="none" stroke="#000000" stroke-miterlimit="10" points="241.133,258.957 237.157,258.957 
			237.157,257.27 232.562,252.676 232.562,271.053 237.157,266.459 237.157,264.541 241.133,264.541 		"/>
		<g id="XMLID_35_">
			<circle id="XMLID_84_" fill="none" stroke="#010101" stroke-miterlimit="10" cx="234.748" cy="261.865" r="14.005"/>
		</g>
	</g>
	<path id="XMLID_17_" fill="none" stroke="#000000" stroke-miterlimit="10" d="M115.596,38.202"/>
	<line id="XMLID_79_" fill="none" stroke="#000000" stroke-miterlimit="10" x1="122.218" y1="38.299" x2="99.217" y2="38.299"/>
	<line id="XMLID_101_" fill="none" stroke="#000000" stroke-miterlimit="10" x1="151.887" y1="261.441" x2="151.887" y2="277.415"/>
	
		<line id="XMLID_115_" fill="none" stroke="#000000" stroke-width="0.5" stroke-miterlimit="10" x1="459.804" y1="485.154" x2="473.977" y2="485.154"/>
	<g id="XMLID_134_">
		
			<line id="XMLID_133_" fill="none" stroke="#000000" stroke-miterlimit="10" x1="151.887" y1="267.816" x2="148.692" y2="271.011"/>
		
			<line id="XMLID_130_" fill="none" stroke="#000000" stroke-miterlimit="10" x1="151.888" y1="267.816" x2="155.083" y2="271.011"/>
	</g>
	<line id="XMLID_163_" fill="none" stroke="#000000" stroke-miterlimit="10" x1="167.846" y1="277.423" x2="151.887" y2="277.423"/>
	<g id="XMLID_154_">
		
			<line id="XMLID_162_" fill="none" stroke="#000000" stroke-miterlimit="10" x1="161.464" y1="277.419" x2="158.269" y2="280.614"/>
		
			<line id="XMLID_161_" fill="none" stroke="#000000" stroke-miterlimit="10" x1="161.464" y1="277.419" x2="158.269" y2="274.224"/>
	</g>
	<path id="XMLID_16_" fill="none" stroke="#000000" stroke-miterlimit="10" d="M144.993,254.781c0.54,0.435,0.828,1.345,0.951,1.951
		c0.202-0.506,0.845-1.38,0.853-1.913c0.518,0.97,0.568,2.419,0.92,3.424c0.764-1.434,0.359-3.17,0.731-4.682
		c0.664,1.439,1.169,2.906,1.516,4.401c0.925-0.434,0.445-4.199,0.481-4.921c0.393,0.611,0.978,2.926,1.15,3.588
		c0.411-0.781,0.647-3.108,0.434-3.952c0.822,1.936,0.671,3.756,1.606,5.674c0.144-0.976-0.071-2.796,0.613-3.71
		c0.283,0.456,0.431,0.521,0.341-0.088c0.618,0.934,0.789,2.002,1.364,2.963c0.13-1.282-0.109-2.714,0.228-3.976
		c0.043,0.326,0.122,0.648,0.237,0.964c-0.009-0.183,0.043-0.356,0.157-0.519c0.378,0.512,0.511,0.759,1.204,1.014"/>
	<line id="XMLID_90_" fill="none" stroke="#000000" stroke-miterlimit="10" x1="170.807" y1="277.423" x2="176.074" y2="277.423"/>
	<line id="XMLID_104_" fill="none" stroke="#000000" stroke-miterlimit="10" x1="173.44" y1="274.79" x2="173.44" y2="280.057"/>
	<line id="XMLID_203_" fill="none" stroke="#000000" stroke-miterlimit="10" x1="135.929" y1="277.423" x2="151.888" y2="277.423"/>
	<g id="XMLID_189_">
		
			<line id="XMLID_202_" fill="none" stroke="#000000" stroke-miterlimit="10" x1="142.311" y1="277.419" x2="145.506" y2="280.614"/>
		
			<line id="XMLID_190_" fill="none" stroke="#000000" stroke-miterlimit="10" x1="142.311" y1="277.419" x2="145.506" y2="274.224"/>
	</g>
	<line id="XMLID_188_" fill="none" stroke="#000000" stroke-miterlimit="10" x1="132.968" y1="277.423" x2="127.701" y2="277.423"/>
	
		<line id="XMLID_222_" fill="none" stroke="#000000" stroke-width="0.5" stroke-miterlimit="10" x1="473.99" y1="483.911" x2="466.91" y2="483.911"/>
	<g id="XMLID_219_">
		
			<line id="XMLID_221_" fill="none" stroke="#000000" stroke-width="0.5" stroke-miterlimit="10" x1="471.159" y1="483.909" x2="469.741" y2="485.326"/>
		
			<line id="XMLID_220_" fill="none" stroke="#000000" stroke-width="0.5" stroke-miterlimit="10" x1="471.159" y1="483.909" x2="469.741" y2="482.491"/>
	</g>
	
		<line id="XMLID_218_" fill="none" stroke="#000000" stroke-width="0.5" stroke-miterlimit="10" x1="475.304" y1="483.911" x2="477.64" y2="483.911"/>
	
		<line id="XMLID_217_" fill="none" stroke="#000000" stroke-width="0.5" stroke-miterlimit="10" x1="476.472" y1="482.742" x2="476.472" y2="485.079"/>
	<g id="XMLID_187_">
		<g id="XMLID_237_">
			
				<linearGradient id="XMLID_117_" gradientUnits="userSpaceOnUse" x1="-672.0018" y1="-341.6054" x2="-672.0018" y2="-307.0361" gradientTransform="matrix(0.7071 0.7071 -0.7071 0.7071 457.3733 742.4625)">
				<stop  offset="0" style="stop-color:#FFFFFF"/>
				<stop  offset="0.5" style="stop-color:#010101"/>
			</linearGradient>
			<polygon id="XMLID_238_" fill="url(#XMLID_117_)" points="235.972,37.963 211.528,13.519 211.528,62.407 187.084,37.963 			"/>
		</g>
		
			<linearGradient id="XMLID_118_" gradientUnits="userSpaceOnUse" x1="-654.7172" y1="-324.3208" x2="-654.7172" y2="-358.89" gradientTransform="matrix(0.7071 0.7071 -0.7071 0.7071 457.3733 742.4625)">
			<stop  offset="0" style="stop-color:#FFFFFF"/>
			<stop  offset="0.5" style="stop-color:#010101"/>
		</linearGradient>
		<polygon id="XMLID_236_" fill="url(#XMLID_118_)" points="260.416,37.963 235.972,13.519 235.972,62.407 211.528,37.963 		"/>
	</g>
	<rect id="XMLID_41_" x="153.329" y="92.512" fill="none" width="67.412" height="26.523"/>
	<text id="XMLID_86_" transform="matrix(1 0 0 1 175.0361 99.6024)" font-family="'SourceCodePro-Medium'" font-size="10px">mix1</text>
	<rect id="XMLID_96_" x="117.473" y="312.536" fill="none" width="67.412" height="47.406"/>
	<text id="XMLID_95_" transform="matrix(1 0 0 1 136.1793 319.6258)"><tspan x="0" y="0" font-family="'SourceCodePro-Medium'" font-size="10px">pitch</tspan><tspan x="9" y="12" font-family="'SourceCodePro-Medium'" font-size="10px">//</tspan><tspan x="-15" y="24" font-family="'SourceCodePro-Medium'" font-size="10px">modulation</tspan></text>
	<rect id="XMLID_92_" x="226.71" y="92.512" fill="none" width="67.412" height="26.523"/>
	<text id="XMLID_91_" transform="matrix(1 0 0 1 248.4164 99.6024)" font-family="'SourceCodePro-Medium'" font-size="10px">mix2</text>
	<rect id="XMLID_94_" x="25.988" y="28.426" fill="none" width="67.412" height="26.523"/>
	<text id="XMLID_93_" transform="matrix(1 0 0 1 32.6943 35.5157)"><tspan x="0" y="0" font-family="'SourceCodePro-Medium'" font-size="10px">proximity </tspan><tspan x="9" y="12" font-family="'SourceCodePro-Medium'" font-size="10px">sensor</tspan></text>
</g>
<g id="Layer_2" display="none">
</g>
</svg>
