<?xml version="1.0" encoding="utf-8"?>
<!-- Generator: Adobe Illustrator 19.0.0, SVG Export Plug-In . SVG Version: 6.00 Build 0)  -->
<svg version="1.1" xmlns="http://www.w3.org/2000/svg" xmlns:xlink="http://www.w3.org/1999/xlink" x="0px" y="0px"
	 viewBox="2179 -1194.9 5271.9 2949.9" style="enable-background:new 2179 -1194.9 5271.9 2949.9;" xml:space="preserve">
<style type="text/css">
	.st0{fill:none;stroke:#000000;stroke-width:15;stroke-miterlimit:10;}
	.st1{display:none;}
	.st2{display:inline;}
	.st3{fill:#FFFFFF;stroke:#231F20;stroke-width:0.5;stroke-miterlimit:10;}
	.st4{stroke:#231F20;stroke-width:0.5;stroke-miterlimit:10;}
	.st5{fill:none;stroke:#000000;stroke-width:7;stroke-miterlimit:10;}
	.st6{fill:none;stroke:#231F20;stroke-width:7;stroke-miterlimit:10;}
	.st7{display:inline;fill:none;stroke:#000000;stroke-width:7;stroke-miterlimit:10;}
	.st8{display:inline;fill:none;stroke:#231F20;stroke-width:7;stroke-miterlimit:10;}
	.st9{display:inline;fill:none;stroke:#231F20;stroke-width:2.5;stroke-miterlimit:10;}
	.st10{display:inline;fill:none;stroke:#231F20;stroke-width:5;stroke-miterlimit:10;}
	.st11{fill:none;stroke:#231F20;stroke-width:5;stroke-miterlimit:10;}
	.st12{fill:url(#XMLID_68_);}
	.st13{fill:url(#XMLID_70_);}
	.st14{fill:#231F20;}
	.st15{fill:none;stroke:#231F20;stroke-width:3;stroke-miterlimit:10;}
	.st16{fill:url(#XMLID_80_);}
	.st17{fill:url(#XMLID_81_);}
</style>
<g id="Layer_1">
	<g id="Layer_1_1_">
		
			<image style="display:none;overflow:visible;enable-background:new    ;" width="5312" height="2988" xlink:href="../../../../../../Downloads/20160919_165215.jpg"  transform="matrix(1 0 0 1 2138.9426 -1213.9395)">
		</image>
		
			<image style="display:none;overflow:visible;enable-background:new    ;" width="5312" height="2988" xlink:href="../../../../../../Downloads/20160919_165215.jpg"  transform="matrix(1 0 0 1 2138.9426 -1213.9395)">
		</image>
		<g id="Body">
			<line id="XMLID_2_" class="st0" x1="4762.4" y1="1291.6" x2="4767.4" y2="1504.4"/>
			<path id="XMLID_3_" class="st0" d="M7609.7,1680.1H2706.1c-116.7,0-160.9-76.3-250.8-193c-89.9-116.7-126.2-143.6-78.9-334.5
				c18.9-75.7,575.6-1972.7,575.6-1972.7c3.2-8.6,8.7-19.1,15.1-28.2c6.4-9.1,34.5-47.1,34.5-47.1s-522.9,1836.8-567.5,1992.7
				c-44.6,156,36.2,222.8,125.3,222.8h2183.8c10.6,0,19.2-8.6,19.2-19.1l4-1925c0,0,0-7.2,0-24.8c0-4.4,0-10.3-0.1-16.8
				c-0.2-34,27.3-61.7,61.4-61.7c0.2,0,2678.7,0,2678.9,0H4828.3"/>
			<path id="XMLID_4_" class="st0" d="M2425.8,1449.1c34.2,26.9,94.2,55.3,160.4,55.3c66.3,0,2181.2,0,2181.2,0l0.6,108.9h2841.6"/>
			<path id="XMLID_5_" class="st0" d="M7506.6-991.3H3228.1c0,0-13.5,0-35.2,0c-115.9,0-184.1,70.5-192.3,98.5"/>
		</g>
		<path class="st0" d="M3173.6-840.4l-30.6,125h421.7l26.4-125c0,0-156.9-16.5-227.2-16.5C3293.6-856.9,3173.6-840.4,3173.6-840.4z"
			/>
		<path class="st0" d="M3143-715.4c0,0,96.6-48.1,202.1-48.1c101,0,219.6,48.1,219.6,48.1"/>
		<line class="st0" x1="3350" y1="-845.8" x2="3336.6" y2="-780.4"/>
		<line class="st0" x1="3373.7" y1="-845.8" x2="3360.4" y2="-780.4"/>
		<path class="st0" d="M3337.9-788.2c-2.9-14.2-15.5-24.9-30.5-24.9c-17.2,0-31.1,13.9-31.1,31.1c0,4.9,0,11,0,14.9"/>
		<path class="st0" d="M3448.6-763.5c0-8.5,0-11.6,0-18.5c0-17.2-13.9-31.1-31.1-31.1c-17.2,0-31.1,13.9-31.1,31.1
			c0,3.4-0.1,5.1-0.1,8.3"/>
		<line class="st0" x1="3564.7" y1="-836.1" x2="3461.5" y2="-803.4"/>
		<line class="st0" x1="3188.4" y1="-833.4" x2="3276.2" y2="-808.7"/>
		<path class="st0" d="M4061.2-655.7c52.5,11.3,88.8,49,85.3,94.4c-4.2,55.3-65.8,100.8-137.3,100.8c-71.6,0-124.4-45.5-118-100.8
			c2.9-25.2,17.6-48,39.4-65.3"/>
		<path class="st0" d="M4043.2-647.2c-1.2,11.2-7.6,21.4-17,29c-3.3,2.7-24.5-23.1-28.5-21.1c-4.2,2.1,8.8,31.9,4,33
			s-9.7,1.7-14.7,1.7c-28.5,0-49.1-19.1-46.1-42.6c2.9-23.3,28.1-42,56.2-42C4025.1-689.2,4045.8-670.5,4043.2-647.2z"/>
		<path class="st0" d="M3927.5-559.9l3.6-67.2c0,0-1.3-16.9,15.7-36.4"/>
		<path class="st0" d="M4095-597.6c0,0-27.4-49.9-33.2-58c-6.7-9.2-19.3-33.6-64.7-33.6"/>
		<path class="st0" d="M3940.6-537.4c0,0,17.4,28.9,66.8,28.9s66.8-28.9,66.8-28.9"/>
		<path d="M3928.9-421.7c-0.8,6.3-7.4,11.5-14.8,11.5s-12.7-5.1-11.9-11.5c0.8-6.3,7.4-11.4,14.8-11.4S3929.7-428,3928.9-421.7z"/>
		<path d="M4108.2-421.7c-0.6,6.3-7,11.4-14.3,11.4c-7.3,0-12.7-5.1-12.1-11.4c0.6-6.3,7-11.4,14.3-11.4
			C4103.4-433.1,4108.8-428,4108.2-421.7z"/>
		<path class="st0" d="M4471.4-647.6c-0.9,21.5-25,39-53.8,39c-4.8,0-9.5-0.5-13.9-1.4c-3.4-0.7,12.1-25.7,9-26.9
			c-3.7-1.5-25.9,20.7-29,18.6c-10.4-7.2-16.6-17.6-15.9-29.3c1.3-21.4,25.3-38.6,53.8-38.6C4450.1-686.2,4472.4-669,4471.4-647.6z"
			/>
		<path class="st0" d="M4351.1-572.5l4.7-55.8c0,0-0.9,11,0.7-8.2c1.6-18.9,15.4-49.7,65.1-49.7c49.7,0,65.3,36.5,65.3,36.5
			l25.3,60.5"/>
		<path class="st0" d="M4365.3-537.4c0,0,16.4,27.6,63.4,27.6c46.9,0,67.2-27.6,67.2-27.6"/>
		<path class="st0" d="M4489.6-643.4c39.9,15.4,66.7,47.6,65.6,85.2c-1.6,53.5-59.1,97.6-128.3,97.6c-69.2,0-122.3-44-118.7-97.6
			c2-29.2,20.4-55.1,47.9-72.4"/>
		<path d="M4349.8-420.3c-0.4,6.7-7.4,12.1-15.7,12.1s-14.6-5.4-14.2-12.1c0.4-6.7,7.5-12,15.7-12
			C4343.9-432.4,4350.2-427,4349.8-420.3z"/>
		<path d="M4529.3-420.3c-0.2,6.7-7.3,12.1-15.8,12.1c-8.5,0-15.1-5.4-14.9-12.1c0.3-6.7,7.3-12,15.8-12S4529.5-427,4529.3-420.3z"
			/>
		<path class="st0" d="M4094.2,460.1c97.6,19.6,167,101.4,160.6,200.9l-1.5,23.5c-7.6,118.4-118.3,218-245.8,218h-754.4
			c-127.5,0-210.5-99.6-185.2-218l5-23.5c19.7-91.9,99.9-168.8,193.2-195.4"/>
		<path class="st0" d="M3641,410.8l457.3-0.7l-6.9,51.5c0,0-22.6,78.2-29.5,133.1c-6.9,54.8-7.5,165.4-7.5,165.4h-865
			c0,0,4.8-68.6,27.1-160.2s49.5-130.3,49.5-130.3l15.8-58.1l143.5-0.2"/>
		<path class="st0" d="M3225.3,745.3c84.7-42.9,163.3-69.8,239.7-76.3c10.9-0.9,12.8-13.9,9.9-32.8l-55.2-168.7l18.3-104.7h165.4
			l-16,104.8l78,171.6c0,0,11.9,22.7,34.6,25c22.7,2.4,240.9,26.2,319.6,58.4"/>
		<path class="st0" d="M3257.5,585c28.6-13.8,151.3-53.9,181.8-57.7"/>
		<path class="st0" d="M3603.4,362.7l99,139.3c0,0,7.2,17.9,34.6,17.9c27.4,0,155.1,1.2,298.2,54.9"/>
		<line class="st0" x1="3468.5" y1="536.7" x2="3574.2" y2="536.7"/>
		<line class="st0" x1="3484.4" y1="577.6" x2="3590.1" y2="577.6"/>
		<path class="st0" d="M4989.1-523.2h-152.3c-8.8,0-16,7.2-16,16l-10,1854.3c0,8.8,7.2,16,16,16h341.9l69.3,0.1
			c11.3,0,20.1-9.6,19.2-20.8l-5.6-69.5l-43.8-712c-0.7-18.5-14.4-27.4-40.6-27.1l-125.2-0.7l-36.9-1040.3
			C5005.1-516,4997.9-523.2,4989.1-523.2z"/>
		<path class="st0" d="M5400.4-523.2l-155.5,0.1c-8.4,0-15.1,7.2-14.3,15.6l89.4,1039.5l-49.6-0.5l-1.9,0
			c-19.7,0.1-35.2,16.8-33.9,36.4l1.4,21.1l55.2,757.9c0,8.8,7.2,16,16,16h385.3l41.3-0.1c9.3,0,16.3-8.3,14.9-17.4l-7.3-47.4
			l-107.5-739.5c-2.2-14.8-14.9-25.9-29.9-25.9h-4.5h-51l-131.9-1040C5416.4-516,5409.2-523.2,5400.4-523.2z"/>
		<path class="st0" d="M5664.9,600.4l108.6,745.7c0.1,0.6,0.1,1.2,0.2,1.8c0.5,8.4,7.5,15.1,16,15.1h353.1l74.8-1.9
			c10.7-0.3,18.5-10.1,16.3-20.6l-17.5-84.6L5836.2-506.3c-0.1-0.6-0.2-1.2-0.2-1.9c-0.5-8.4-7.5-15.1-16-15.1h-150.3
			c-2.2,0-4.3,0.5-6.2,1.3c-7.3,3.1-10.8,11.4-8.5,18.9l186.9,1035.8h-168.3c-9.7,0-17.1,8.6-15.7,18.2L5664.9,600.4z"/>
		<path class="st0" d="M6496.8,578.3l223.9,768.8c0,8.8-7.2,16-16,16h-417.3c-8.8,0-16-7.2-16-16l-414-1854.3c0-8.8,7.2-16,16-16
			h141.3c8.8,0,16,7.2,16,16l277.2,1040h157.9c10.5,0,19.8,7,22.7,17.1L6496.8,578.3z"/>
		<path class="st0" d="M6537.6,320.8l68.7,212h-70.3c-12.8,0-22,12.3-18.4,24.6l13.5,45.4l222.2,747.9c0,8.8,7.2,16,16,16h439.3
			c8.8,0,16-7.2,16-16l-310.2-789l-3.7-9.5c-4.6-11.7-15.9-19.4-28.4-19.4l-97.1,0L6418-507.7c0-8.8-7.2-16-16-16h-144.4"/>
		<path id="XMLID_56_" class="st0" d="M7009.1,480.2l23,52.6h-70.3c-12.8,0-22,12.3-18.4,24.6l13.5,45.4l302.2,747.9
			c0,8.8,7.2,16,16,16h459.3c8.8,0,16-7.2,16-16l-399.2-789l-3.7-9.5c-4.6-11.7-23.9-19.4-36.4-19.4l-27.1,0L6807.8-507.7
			c0-8.8-7.2-16-16-16h-130.5"/>
		<path class="st0" d="M5655.1,532.8"/>
		<path class="st0" d="M5655.1,532.8"/>
		<path class="st0" d="M6483.6,532.8"/>
		<path class="st0" d="M6510.3,532.8"/>
		<path class="st0" d="M5079.5,534l4.3-37.8l36.3-167.4c-10.7-275.1-30.1-561.9-56.5-858.1c38.7-21.5,86.7-31,136.2-2.1
			c28.3,299.6,47.9,587.6,57.4,862.2l16.1,167.4l0,32.9"/>
		<path class="st0" d="M5130.2,336.9c36.7-8.3,74.4-7.9,112.9,0"/>
		<path class="st0" d="M5773.2,532.8l6.7-18.1c5-13.5,7.2-28,6.3-42.4l-8.6-143.3c-0.1-1.5-0.3-3-0.5-4.5
			c-45-284.8-94.3-570.3-148.8-856.8c-58.6-26.8-101.5-21.3-141-0.8c58.2,242.5,104.5,533.7,143.7,854.1c0.9,5.1,0.7,10.3-0.4,15.4
			l-34,154.9c-0.4,1.9-1,3.8-1.7,5.6l-13.5,35.9"/>
		<path class="st0" d="M5642.4,338.9c39.2-10.1,80.5-11.4,125,0"/>
		<path class="st0" d="M6492,561.7l28.4-45.6c8.9-14.3,13.8-30.8,14.1-47.6l2.9-140.7c0.1-4.6-0.6-9.2-2-13.5
			c-77.9-286.8-171.4-569.7-281.3-848.6c-56.3-25.4-97.2-14-137.2,0c114.1,272.5,208.4,553.9,279.3,845.7c2.9,8.7,2.7,18.1-0.5,26.7
			l-54.6,147.4c-0.7,1.8-1.4,3.5-2.3,5.2l-22.8,42.2"/>
		<path class="st0" d="M6411,323.7c40.7-5.7,79-8.5,111,0"/>
		<path class="st0" d="M6898.9,323.7c40.7-5.7,78.9-8.5,111,0"/>
		<path class="st0" d="M7418.1,323.7c40.7-5.7,78.9-8.5,111,0"/>
		<path class="st0" d="M6257.6-523.7"/>
		<line class="st0" x1="5098.8" y1="498.7" x2="5254.3" y2="498.7"/>
		<line class="st0" x1="5613.9" y1="498.7" x2="5769.4" y2="498.7"/>
		<line class="st0" x1="6356.1" y1="498.7" x2="6511.6" y2="498.7"/>
		<line class="st0" x1="6825.2" y1="498.7" x2="6980.7" y2="498.7"/>
		<line class="st0" x1="7340.7" y1="498.7" x2="7496.2" y2="498.7"/>
		<path class="st0" d="M5157.5-432.1"/>
		<line class="st0" x1="5010.3" y1="-475.1" x2="5063.6" y2="-529.2"/>
		<line class="st0" x1="5423.4" y1="-468.9" x2="5487.3" y2="-533"/>
		<line class="st0" x1="6048.7" y1="-439.7" x2="6116.9" y2="-534.3"/>
		<path class="st0" d="M6785.2,532.8l26.5-41.8c1.2-1.9,2.2-3.9,3.1-5.9l61.5-145.9c4.2-9.9,4.2-21,0.2-31
			c-117.2-380.9-231.5-649.8-343.9-842.5c40.5-19.6,82.3-23.2,124.1,0c148.1,286.1,268.2,568.5,366.4,848.1c2.8,6.5,3.9,13.7,3,20.7
			l-17,145.7c-0.8,7.2-3.6,14-8,19.8l-25,32.8"/>
		<line class="st0" x1="6532.5" y1="-534.3" x2="6445.8" y2="-428.8"/>
		<path class="st0" d="M7524.6,288c-137.5-302.6-286.4-578.2-451.4-822.4c-51.7-19.3-99.5-20.9-142.4,0
			c189,297.4,354.8,587.7,454.8,858.1l-80.9,162.7l-20.8,46.4"/>
		<line class="st0" x1="6841.8" y1="-433.3" x2="6930.8" y2="-534.3"/>
		<path class="st0" d="M7079-523.7h118.6c5.1,0,9.8,2.8,12.2,7.2l428.2,771.7"/>
		<path class="st0" d="M7590.4,116.9l-355.3-629.6c-2.8-4.9,0.7-11,6.4-11l189,0.4l193,313.4"/>
		<path class="st0" d="M7502,532.8H7400c-13.5,0-22.3,14.3-16.3,26.4l404.5,803.9"/>
		<line class="st0" x1="3439" y1="468.5" x2="3563.8" y2="468.5"/>
		<path class="st0" d="M4677.9-868.2l-31.8,2001.3c-0.7,41.2-34.3,74.3-75.5,74.3H2651.1c-66.5,0-114.8-63.2-97.3-127.3
			l523.7-1926.8c12.8-46.9,55.4-79.5,104-79.5h1439.3C4652.7-926.2,4678.4-900.1,4677.9-868.2z"/>
		<g id="XMLID_50_" class="st1">
			<g id="XMLID_49_" class="st2">
				<path id="XMLID_61_" class="st3" d="M4595.8,1201.3H2641.9c-65.3,0-104.3-53.2-86.8-117.3l527.3-1936.2
					c10.8-39.6,62.4-71.7,114.9-71.7h1384.5c48.4,0,87.6,29.6,87.1,66.1l-29.7,2016.5C4638.8,1182.1,4619.3,1201.3,4595.8,1201.3"/>
				<path id="XMLID_55_" class="st4" d="M4104.6,471.5l5-57h-819l-10.5,53.3c-100.7,24.5-189.6,106.2-211.3,204.9
					c-26.9,122.1,58.5,225,190.5,225h730.2c132,0,246.9-102.8,255.1-225C4250.9,578.5,4191.5,499.7,4104.6,471.5"/>
				<g id="XMLID_62_">
					<path id="XMLID_54_" class="st4" d="M4142.1-531c-5,52.6-63.4,95.8-130.4,95.8c-67,0-115.5-43.3-108.6-95.8
						c6.8-51.7,65-93.1,130.1-93.1C4098.2-624.1,4147-582.8,4142.1-531"/>
					<path id="XMLID_53_" class="st3" d="M4069.2-531c-2.2,20.4-24.9,37.1-50.8,37.1c-25.9,0-44.9-16.6-42.4-37.1
						c2.5-20.3,25.2-36.7,50.8-36.7C4052.4-567.7,4071.4-551.3,4069.2-531"/>
				</g>
				<g id="XMLID_63_">
					<path id="XMLID_52_" class="st4" d="M4546.1-531c-1.7,52.6-57.4,95.8-124.4,95.8c-67,0-118.2-43.3-114.6-95.8
						c3.6-51.7,59.2-93.1,124.3-93.1C4496.4-624.1,4547.8-582.8,4546.1-531"/>
					<path id="XMLID_51_" class="st3" d="M4473.2-531c-0.9,20.4-22.6,37.1-48.5,37.1c-25.9,0-45.9-16.6-44.7-37.1
						c1.2-20.3,22.9-36.7,48.5-36.7S4474.1-551.3,4473.2-531"/>
				</g>
				<polygon id="XMLID_59_" class="st4" points="3574,-711.7 3151.8,-711.7 3183,-834 3597.1,-834 				"/>
			</g>
			<g id="XMLID_135_" class="st2">
				<line id="XMLID_83_" class="st5" x1="4644.6" y1="672.8" x2="4254.6" y2="672.8"/>
				<line id="XMLID_48_" class="st5" x1="3322.5" y1="-212.3" x2="3352.1" y2="-233.2"/>
				<line id="XMLID_47_" class="st5" x1="3352.1" y1="-233.2" x2="3331.3" y2="-254"/>
				<line id="XMLID_46_" class="st5" x1="3280.5" y1="-13.9" x2="3311.2" y2="-36.1"/>
				<line id="XMLID_45_" class="st5" x1="3311.2" y1="-36.1" x2="3289.9" y2="-58.1"/>
				<line id="XMLID_42_" class="st5" x1="3235.1" y1="197.6" x2="3268.4" y2="172.9"/>
				<line id="XMLID_41_" class="st5" x1="3268.4" y1="172.9" x2="3245.6" y2="148.4"/>
				<polyline id="XMLID_40_" class="st5" points="3293.3,-388.3 3169.1,172.9 3348.2,172.9 				"/>
				<line id="XMLID_39_" class="st5" x1="3318.1" y1="-607.3" x2="3338.8" y2="-587.7"/>
				<line id="XMLID_38_" class="st5" x1="3338.8" y1="-587.7" x2="3368.2" y2="-607.3"/>
				<line id="XMLID_19_" class="st5" x1="2919.8" y1="309.5" x2="2897.7" y2="284"/>
				<line id="XMLID_18_" class="st5" x1="2897.7" y1="284" x2="2862.6" y2="309.5"/>
				<line id="XMLID_60_" class="st5" x1="3365.8" y1="-715.5" x2="3313.6" y2="-479.8"/>
				<polyline id="XMLID_78_" class="st5" points="3068.7,672.8 2798.4,672.8 3081.2,-435.2 3247.9,-435.2 				"/>
				<line id="XMLID_15_" class="st5" x1="3216.8" y1="-36.1" x2="3387.8" y2="-36.1"/>
				<line id="XMLID_14_" class="st5" x1="3260.4" y1="-233.2" x2="3428" y2="-233.2"/>
				<polyline id="XMLID_29_" class="st6" points="3509.2,-36.1 3838.3,-36.1 3828.2,40.1 3904.7,40.1 				"/>
				<polyline id="XMLID_30_" class="st6" points="3470.3,172.9 3810.7,172.9 3821.9,87.9 3898.9,87.9 				"/>
				<line id="XMLID_31_" class="st6" x1="4011.8" y1="-434.2" x2="3961.1" y2="12.4"/>
				<path id="XMLID_32_" class="st6" d="M3543.2-233.2h429.5h0.5c0.8-7.2,8.6-13.1,17.3-13.1s15.2,5.8,14.3,13.1l281,0l-5.2,74.2
					h74.3"/>
				<polyline id="XMLID_33_" class="st6" points="4015.3,63.9 4265,63.9 4277.5,-114 4351.6,-114 				"/>
				<line id="XMLID_34_" class="st6" x1="4420.8" y1="-434.2" x2="4408" y2="-185.3"/>
				<polyline id="XMLID_37_" class="st5" points="4463.9,-136.6 4531.9,-136.6 4518.2,277.9 4312,277.9 				"/>
			</g>
			<path id="_x28__x2B__x29_" class="st7" d="M3277.2-435.2h53 M3299-413.8l9.4-42.5 M3359.6-435.2c-5.3,24.9-34.8,45.1-65.9,45.1
				c-31.1,0-51.6-20.3-45.9-45.1c5.7-24.7,35.1-44.5,65.8-44.5C3344.3-479.7,3364.9-459.8,3359.6-435.2z"/>
			<g id="_x28_3_x29__1_" class="st2">
				<path id="XMLID_192_" class="st5" d="M3404.7,197.3l9.1-48.6 M3395.3,148.4h37.1 M3423.3,197.6h-37.3 M3425.8,197.3l9-48.6
					 M3416.3,148.4h37.1 M3444.4,197.6h-37.3 M3383.5,197.3l9.3-48.6 M3374.3,148.4h37.1 M3402.1,197.6h-37.3"/>
				<path id="XMLID_191_" class="st5" d="M3470.3,172.9c-5.3,29.7-37.2,53.9-71.2,53.9s-56.8-24.2-50.9-53.9
					c5.8-29.4,37.6-53.1,71.1-53.1C3452.7,119.8,3475.6,143.5,3470.3,172.9z"/>
			</g>
			<g id="_x28_2_x29_" class="st2">
				<path id="XMLID_139_" class="st5" d="M3460.7-12l8.5-45.8 M3451.3-58.1h36 M3478.8-11.7h-36.3 M3424.5-12l8.7-45.8 M3415.3-58.1
					h36 M3442.5-11.7h-36.3"/>
				<path id="XMLID_138_" class="st5" d="M3509.2-36.1c-5.1,28.6-36.7,51.9-70.4,51.9c-33.8,0-56.5-23.3-50.9-51.9
					c5.6-28.4,37-51.2,70.3-51.2C3491.4-87.2,3514.3-64.4,3509.2-36.1z"/>
			</g>
			<polygon id="XMLID_85_" class="st8" points="4279.1,266.4 4261.5,266.4 4262,259.8 4243,241.9 4237.8,314.2 4259.5,296 
				4260,288.4 4277.6,288.4 			"/>
			<g id="_x28_1_x29__1_" class="st2">
				<line id="XMLID_183_" class="st5" x1="3481.5" y1="-211.6" x2="3489.6" y2="-254.8"/>
				<line id="XMLID_182_" class="st5" x1="3472.2" y1="-255.1" x2="3507.2" y2="-255.1"/>
				<line id="XMLID_176_" class="st5" x1="3499.1" y1="-211.3" x2="3463.8" y2="-211.3"/>
				<path id="XMLID_175_" class="st5" d="M3543.2-233.2c-4.7,26.4-34.6,48-66.6,48s-53.8-21.6-48.6-48c5.1-26.2,34.9-47.3,66.5-47.3
					C3526.1-280.5,3547.9-259.4,3543.2-233.2z"/>
			</g>
			<path id="XMLID_74_" class="st7" d="M3989.9,87.9c-37.4,0-32-47.7-55.8-47.7h-13.4"/>
			<path id="XMLID_44_" class="st7" d="M3995.1,40.1c-5,0-13.4,0-13.4,0c-23.8,0-29.2,47.7-66.6,47.7"/>
			<path id="XMLID_43_" class="st7" d="M4015.3,63.9c-3,28.8-32.6,52.3-66.1,52.3c-33.5,0-57.7-23.5-54.2-52.3
				c3.5-28.6,33-51.5,66-51.5C3994,12.4,4018.4,35.4,4015.3,63.9z"/>
			<path id="XMLID_72_" class="st7" d="M3976.7,85.4"/>
			<line id="XMLID_88_" class="st9" x1="3952.2" y1="90.4" x2="3955.2" y2="63.9"/>
			<line id="XMLID_131_" class="st9" x1="3960.7" y1="90.4" x2="3962.6" y2="73.5"/>
			<line id="XMLID_144_" class="st9" x1="3943.6" y1="90.4" x2="3945.6" y2="73.5"/>
			<line id="XMLID_148_" class="st9" x1="3935.1" y1="90.4" x2="3936.2" y2="81.3"/>
			<line id="XMLID_132_" class="st9" x1="3969.3" y1="90.4" x2="3970.1" y2="82.7"/>
			<path id="XMLID_28_" class="st7" d="M4440.6-114c-36.3,0-34-45.1-57.1-45.1h-13"/>
			<path id="XMLID_27_" class="st7" d="M4442.7-159.1c-4.9,0-13,0-13,0c-23.1,0-25.4,45.1-61.8,45.1"/>
			<path id="XMLID_26_" class="st7" d="M4463.9-136.6c-1.2,27.2-28.5,49.4-61,49.4s-57.5-22.2-55.9-49.4c1.6-27,28.9-48.7,60.9-48.7
				C4440-185.3,4465.1-163.6,4463.9-136.6z"/>
			<path id="XMLID_25_" class="st7" d="M4427.7-116.3"/>
			<line id="XMLID_24_" class="st9" x1="4404.2" y1="-111.6" x2="4405.5" y2="-136.6"/>
			<line id="XMLID_23_" class="st9" x1="4412.5" y1="-111.6" x2="4413.3" y2="-127.5"/>
			<line id="XMLID_22_" class="st9" x1="4395.9" y1="-111.6" x2="4396.7" y2="-127.5"/>
			<line id="XMLID_21_" class="st9" x1="4387.6" y1="-111.6" x2="4388" y2="-120.2"/>
			<line id="XMLID_20_" class="st9" x1="4420.8" y1="-111.6" x2="4421.1" y2="-118.8"/>
			<g id="XMLID_77_" class="st2">
				<g id="Mic">
					<path id="XMLID_75_" class="st6" d="M3759.6-763.8L3759.6-763.8c-6.5,0-11-4.5-10.1-9.9l3.5-21.6c0.9-5.4,6.8-9.8,13.3-9.8
						s11,4.4,10.1,9.8l-3.4,21.6C3772-768.3,3766.1-763.8,3759.6-763.8"/>
					<path id="XMLID_73_" d="M3781.2-784.5l-1.9,12c-1.2,7.7-10.5,14-20.6,14s-17.4-6.3-16.1-14l2-12h-4.6l-2,12.1
						c-1.6,9.6,7.5,17.5,20.2,17.5s24.3-7.9,25.8-17.5l1.9-12.1H3781.2z"/>
					<polygon id="XMLID_71_" points="3743.2,-738.4 3767.9,-738.4 3768.4,-741.9 3743.8,-741.9 					"/>
					<polygon id="XMLID_36_" points="3753.7,-741.5 3758.3,-741.5 3760.7,-756.1 3756,-756.1 					"/>
				</g>
				<path id="XMLID_76_" class="st5" d="M3813.4-773.5c-3.4,22.4-30.1,40.6-59.5,40.6s-50.3-18.2-46.5-40.6
					c3.7-22.2,30.3-40.1,59.4-40.1C3795.9-813.5,3816.7-795.7,3813.4-773.5z"/>
			</g>
			<g id="XMLID_35_" class="st2">
				<path id="XMLID_84_" class="st5" d="M4253.9,223.2c34,0,60,24.4,58.1,54.7c-1.9,30.6-31.4,55.5-65.8,55.5s-60.5-25-58.1-55.5
					C4190.5,247.6,4219.9,223.2,4253.9,223.2z"/>
			</g>
			<path id="XMLID_17_" class="st8" d="M3672.4-773.8"/>
			<line id="XMLID_79_" class="st8" x1="3707.3" y1="-773.5" x2="3585.7" y2="-773.5"/>
			<line id="XMLID_101_" class="st10" x1="3708.2" y1="309.1" x2="3699.5" y2="370.1"/>
			<g id="XMLID_134_" class="st2">
				<line id="XMLID_133_" class="st11" x1="3704.8" y1="333.3" x2="3689.4" y2="345.5"/>
				<line id="XMLID_130_" class="st11" x1="3704.8" y1="333.3" x2="3716.6" y2="345.5"/>
			</g>
			<line id="XMLID_163_" class="st10" x1="3767.5" y1="370.1" x2="3699.5" y2="370.1"/>
			<g id="XMLID_154_" class="st2">
				<line id="XMLID_162_" class="st11" x1="3740.3" y1="370.1" x2="3725" y2="382.4"/>
				<line id="XMLID_161_" class="st11" x1="3740.3" y1="370.1" x2="3728.4" y2="357.8"/>
			</g>
			<path id="XMLID_16_" class="st10" d="M3686.9,283.8c2,1.6,1.3,5.3,1.5,7.6c1.1-1.9,1.1-4.3,1.4-6.4c1.7,3.7,1.6,8,2.5,11.8
				c4-5.4,3.3-12,5.7-17.7c2,5.4,3.4,11,4,16.6c4.2-1.6,4.2-15.9,4.7-18.6c1.3,2.3,2.2,4.7,2.5,7.2c2.2-3,3-6,2.6-9.2
				c2.4,7.3,2.6,14.8,5.5,22.1c1.1-3.7,1.2-10.6,4.6-14c1,1.7,1.5,2,1.5-0.3c2.1,3.5,2.3,7.6,4.2,11.2c1.2-4.9,1-10.3,3.1-15
				c0,1.2,0.2,2.4,0.5,3.6c0.1-0.7,0.4-1.3,0.9-2c1.3,1.9,1.8,2.9,4.6,3.8"/>
			<line id="XMLID_90_" class="st10" x1="3780.1" y1="370.1" x2="3802.6" y2="370.1"/>
			<line id="XMLID_104_" class="st10" x1="3792.7" y1="360" x2="3790" y2="380.2"/>
			<line id="XMLID_203_" class="st10" x1="3631.5" y1="370.1" x2="3699.5" y2="370.1"/>
			<g id="XMLID_189_" class="st2">
				<line id="XMLID_202_" class="st11" x1="3658.7" y1="370.1" x2="3670.5" y2="382.4"/>
				<line id="XMLID_190_" class="st11" x1="3658.7" y1="370.1" x2="3674.1" y2="357.8"/>
			</g>
			<line id="XMLID_188_" class="st10" x1="3618.9" y1="370.1" x2="3596.4" y2="370.1"/>
			<g id="XMLID_187_" class="st2">
				<g id="XMLID_237_">
					
						<linearGradient id="XMLID_68_" gradientUnits="userSpaceOnUse" x1="2660.4055" y1="-837.8663" x2="2660.4055" y2="-1020.6686" gradientTransform="matrix(0.7071 0.7071 0.7071 -0.7071 2955.7258 -3313.0635)">
						<stop  offset="0" style="stop-color:#FFFFFF;stop-opacity:0"/>
						<stop  offset="0.5" style="stop-color:#000000"/>
					</linearGradient>
					<polygon id="XMLID_238_" class="st12" points="4309.1,-774.8 4188.8,-871.6 4170.5,-674.9 4050.6,-774.8 					"/>
				</g>
				
					<linearGradient id="XMLID_70_" gradientUnits="userSpaceOnUse" x1="2751.8071" y1="-929.2671" x2="2751.8071" y2="-746.4648" gradientTransform="matrix(0.7071 0.7071 0.7071 -0.7071 2955.7258 -3313.0635)">
					<stop  offset="0" style="stop-color:#FFFFFF;stop-opacity:0"/>
					<stop  offset="0.5" style="stop-color:#000000"/>
				</linearGradient>
				<polygon id="XMLID_236_" class="st13" points="4438.3,-774.8 4316.1,-871.6 4301.9,-674.9 4179.8,-774.8 				"/>
			</g>
		</g>
	</g>
	<g id="Layer_2">
	</g>
</g>
<g id="Layer_2_1_">
	<g>
		<g id="XMLID_153_">
			<line id="XMLID_206_" class="st5" x1="4646.1" y1="671.1" x2="4246.6" y2="671.1"/>
			<line id="XMLID_205_" class="st5" x1="3324.8" y1="-210.2" x2="3354.4" y2="-231"/>
			<line id="XMLID_204_" class="st5" x1="3354.4" y1="-231" x2="3333.6" y2="-251.7"/>
			<line id="XMLID_186_" class="st5" x1="3283.1" y1="-12.5" x2="3313.7" y2="-34.6"/>
			<line id="XMLID_185_" class="st5" x1="3313.7" y1="-34.6" x2="3292.4" y2="-56.5"/>
			<line id="XMLID_184_" class="st5" x1="3238" y1="198.1" x2="3271.3" y2="173.5"/>
			<line id="XMLID_181_" class="st5" x1="3271.3" y1="173.5" x2="3248.4" y2="149.1"/>
			<polyline id="XMLID_180_" class="st5" points="3295.5,-385.5 3172,173.5 3350.9,173.5 			"/>
			<line id="XMLID_179_" class="st5" x1="3320.1" y1="-603.8" x2="3340.8" y2="-584.2"/>
			<line id="XMLID_178_" class="st5" x1="3340.8" y1="-584.2" x2="3370.1" y2="-603.8"/>
			<line id="XMLID_177_" class="st5" x1="2923.2" y1="309.5" x2="2901" y2="284.1"/>
			<line id="XMLID_174_" class="st5" x1="2901" y1="284.1" x2="2866" y2="309.5"/>
			<line id="XMLID_172_" class="st5" x1="3366.8" y1="-707.9" x2="3315.7" y2="-476.7"/>
			<polyline id="XMLID_171_" class="st5" points="3072.4,671.1 2802.4,671.1 3083.5,-432.2 3250.1,-432.2 			"/>
			<line id="XMLID_170_" class="st5" x1="3219.4" y1="-34.6" x2="3390.3" y2="-34.6"/>
			<line id="XMLID_167_" class="st5" x1="3262.8" y1="-231" x2="3430.2" y2="-231"/>
			<polyline id="XMLID_166_" class="st6" points="3511.6,-34.6 3840.4,-34.6 3830.4,41.3 3906.8,41.3 			"/>
			<polyline id="XMLID_165_" class="st6" points="3472.9,173.5 3812.9,173.5 3824.1,88.8 3901,88.8 			"/>
			<line id="XMLID_160_" class="st6" x1="4013.5" y1="-431.2" x2="3963.1" y2="13.6"/>
			<path id="XMLID_159_" class="st6" d="M3545.4-231h429.1h0.5c0.8-7.2,8.6-13,17.3-13s15.1,5.8,14.3,13l280.7,0l-5.1,73.9h74.3"/>
			<polyline id="XMLID_158_" class="st6" points="4017.3,65 4266.8,65 4279.1,-112.2 4353.1,-112.2 			"/>
			<line id="XMLID_157_" class="st6" x1="4422.2" y1="-431.2" x2="4409.5" y2="-183.2"/>
			<polyline id="XMLID_155_" class="st5" points="4465.4,-134.8 4533.3,-134.8 4519.7,278 4313.8,278 			"/>
		</g>
		<path id="_x28__x2B__x29__1_" class="st5" d="M3279.4-432.2h53 M3301.2-411l9.4-42.4 M3361.8-432.2c-5.3,24.8-34.7,45-65.8,45
			s-51.6-20.2-45.9-45c5.6-24.6,35-44.4,65.7-44.4S3367-456.8,3361.8-432.2z"/>
		<g id="_x28_3_x29__2_">
			<path id="XMLID_147_" class="st5" d="M3472.9,173.5c-5.3,29.6-37.1,53.7-71.1,53.7s-56.7-24.1-50.9-53.7
				c5.7-29.3,37.5-52.9,70.9-52.9C3455.3,120.6,3478.2,144.2,3472.9,173.5z"/>
			<g id="XMLID_327_">
				<path id="XMLID_328_" class="st14" d="M3435,186.8l-2.7,12.4c-3.4,1.5-6.8,2.5-10.2,3.2c-3.4,0.6-6.8,0.9-10.3,0.9
					c-5,0-9.3-0.7-13.1-2.2c-3.8-1.5-6.9-3.5-9.3-6.2c-2.4-2.7-4-5.8-4.9-9.4c-0.9-3.6-0.9-7.6-0.1-12c0.8-4.3,2.4-8.3,4.8-11.9
					c2.3-3.6,5.2-6.8,8.6-9.4c3.4-2.6,7.3-4.7,11.5-6.1c4.3-1.5,8.8-2.2,13.6-2.2c2.6,0,5.5,0.3,8.7,0.8c3.1,0.5,6.2,1.6,9.2,3.2
					l-1.9,12.4h-6.1l-0.1-10.1c-1.5-0.7-3.1-1.3-4.7-1.6c-1.6-0.3-3.2-0.5-4.9-0.5c-3.2,0-6.4,0.5-9.4,1.6c-3.1,1.1-5.8,2.7-8.4,4.8
					c-2.5,2.1-4.7,4.8-6.6,7.9c-1.8,3.2-3.1,6.8-3.9,11c-0.8,4.1-0.9,7.8-0.4,10.9c0.5,3.2,1.6,5.8,3.2,8c1.6,2.2,3.7,3.8,6.3,4.9
					c2.6,1.1,5.6,1.7,8.9,1.7c1.9,0,3.8-0.2,5.9-0.6c2-0.4,4.1-1,6.2-1.8l3.8-9.9L3435,186.8L3435,186.8z"/>
			</g>
		</g>
		<g id="_x28_2_x29__1_">
			<path id="XMLID_143_" class="st5" d="M3511.6-34.6c-5.1,28.5-36.6,51.7-70.3,51.7c-33.7,0-56.5-23.3-50.9-51.7
				c5.5-28.2,37-51,70.2-51C3493.8-85.6,3516.6-62.9,3511.6-34.6z"/>
			<g id="XMLID_322_">
				<path id="XMLID_323_" class="st14" d="M3457.8-61.3c3.3,0,6.1,0.3,8.5,1c2.4,0.6,4.4,1.5,6,2.7c1.5,1.2,2.6,2.6,3.2,4.1
					c0.6,1.6,0.8,3.4,0.4,5.3c-0.5,2.8-2.1,5.4-4.8,7.7c-2.7,2.3-6.7,3.9-12,4.8c3,0.4,5.6,1,7.7,1.8c2.1,0.8,3.7,1.8,4.9,3
					c1.2,1.2,2,2.4,2.4,3.9c0.4,1.4,0.4,3,0.2,4.6c-0.3,1.8-1.1,3.6-2.4,5.4c-1.2,1.8-3,3.3-5.3,4.7c-2.3,1.4-5.1,2.5-8.5,3.4
					c-3.4,0.9-7.4,1.3-12,1.3h-25.9l0.6-3.3l8.9-0.9c0.8-3.4,1.5-6.8,2.1-10.3c0.7-3.5,1.3-7,2-10.5l0.7-3.9c0.7-3.5,1.3-6.9,2-10.3
					c0.6-3.4,1.2-6.8,1.8-10.3l-8.5-0.9l0.6-3.3L3457.8-61.3L3457.8-61.3z M3447.7-57.5c-0.8,3.3-1.5,6.7-2.1,10.1
					c-0.6,3.4-1.3,6.7-1.9,10.2h5c5.7,0,10-0.8,12.9-2.4c2.9-1.6,4.7-4.3,5.4-8c0.7-3.6-0.1-6.2-2.2-7.6c-2.1-1.5-5.6-2.2-10.4-2.2
					H3447.7z M3444.8-11.4c6.3,0,11-0.9,14.3-2.8c3.3-1.9,5.2-4.6,5.9-8.1c0.7-3.8-0.3-6.6-2.8-8.4c-2.6-1.9-7.2-2.8-13.8-2.8h-5.3
					c-0.8,4-1.5,7.8-2.2,11.4c-0.7,3.6-1.3,7.2-1.8,10.8L3444.8-11.4L3444.8-11.4z"/>
			</g>
		</g>
		<g id="_x28_1_x29__2_">
			<path id="XMLID_137_" class="st5" d="M3545.4-231c-4.7,26.3-34.5,47.8-66.5,47.8s-53.8-21.5-48.6-47.8
				c5.1-26.1,34.8-47.1,66.4-47.1C3528.2-278.2,3550.1-257.1,3545.4-231z"/>
			<g id="XMLID_318_">
				<path id="XMLID_319_" class="st14" d="M3514.1-213.1l-0.6,3.1h-25.1l0.6-3.1l9.2-0.9l-2.8-12.5h-21.1l-7.5,12.5l8.7,1l-0.6,3.1
					h-21.2l0.6-3.1l8-1l28.5-46.5h5.5l11,46.8L3514.1-213.1z M3494.6-230.1l-4.9-21.8l-13.3,21.8H3494.6z"/>
			</g>
		</g>
		<g id="Crossfader">
			<path id="XMLID_129_" class="st5" d="M3991.9,88.8c-37.4,0-32-47.6-55.7-47.6h-13.3"/>
			<path id="XMLID_128_" class="st5" d="M3997,41.3c-5,0-13.3,0-13.3,0c-23.8,0-29.2,47.6-66.5,47.6"/>
			<path id="XMLID_127_" class="st5" d="M4017.3,65c-3,28.7-32.6,52.1-66,52.1c-33.4,0-57.7-23.4-54.2-52.1
				c3.5-28.4,33-51.3,65.9-51.3C3996,13.6,4020.3,36.5,4017.3,65z"/>
			<path id="XMLID_126_" class="st5" d="M3978.7,86.4"/>
			<line id="XMLID_125_" class="st15" x1="3954.2" y1="91.4" x2="3957.2" y2="65"/>
			<line id="XMLID_124_" class="st15" x1="3962.8" y1="91.4" x2="3964.7" y2="74.5"/>
			<line id="XMLID_123_" class="st15" x1="3945.7" y1="91.4" x2="3947.6" y2="74.5"/>
			<line id="XMLID_122_" class="st15" x1="3937.2" y1="91.4" x2="3938.2" y2="82.3"/>
			<line id="XMLID_121_" class="st15" x1="3971.3" y1="91.4" x2="3972.2" y2="83.7"/>
		</g>
		<g id="Crossfader_1_">
			<path id="XMLID_120_" class="st5" d="M4442.1-112.2c-36.3,0-34-44.9-57.1-44.9h-13"/>
			<path id="XMLID_119_" class="st5" d="M4444.2-157.1c-4.9,0-13,0-13,0c-23.1,0-25.4,44.9-61.7,44.9"/>
			<path id="XMLID_118_" class="st5" d="M4465.4-134.8c-1.2,27.1-28.4,49.2-60.9,49.2c-32.5,0-57.5-22.1-55.9-49.2
				c1.6-26.9,28.9-48.5,60.9-48.5C4441.5-183.2,4466.5-161.6,4465.4-134.8z"/>
			<path id="XMLID_117_" class="st5" d="M4429.2-114.5"/>
			<line id="XMLID_116_" class="st15" x1="4405.7" y1="-109.8" x2="4407" y2="-134.8"/>
			<line id="XMLID_115_" class="st15" x1="4414" y1="-109.8" x2="4414.8" y2="-125.7"/>
			<line id="XMLID_113_" class="st15" x1="4397.4" y1="-109.8" x2="4398.2" y2="-125.7"/>
			<line id="XMLID_112_" class="st15" x1="4389.1" y1="-109.8" x2="4389.6" y2="-118.4"/>
			<line id="XMLID_111_" class="st15" x1="4422.3" y1="-109.8" x2="4422.6" y2="-117.1"/>
		</g>
		<g id="XMLID_105_">
			<g id="Mic_1_">
				<path id="XMLID_110_" class="st6" d="M3761.2-759.8L3761.2-759.8c-6.5,0-11-4.5-10.1-9.9l3.5-21.6c0.9-5.4,6.8-9.8,13.2-9.8
					s11,4.4,10.1,9.8l-3.4,21.6C3773.6-764.3,3767.6-759.8,3761.2-759.8"/>
				<path id="XMLID_109_" d="M3782.8-780.4l-1.9,12c-1.2,7.7-10.5,14-20.6,14s-17.4-6.3-16.1-14l1.9-12h-4.6l-2,12.1
					c-1.6,9.6,7.5,17.5,20.2,17.5s24.3-7.9,25.7-17.5l1.9-12.1H3782.8z"/>
				<polygon id="XMLID_108_" points="3744.8,-734.4 3769.5,-734.4 3770,-738 3745.4,-738 				"/>
				<polygon id="XMLID_107_" points="3755.3,-737.6 3760,-737.6 3762.3,-752.1 3757.6,-752.1 				"/>
			</g>
			<path id="XMLID_106_" class="st5" d="M3814.9-769.4c-3.4,22.3-30,40.5-59.5,40.5c-29.5,0-50.3-18.2-46.5-40.5
				c3.7-22.1,30.3-40,59.4-40C3797.4-809.4,3818.3-791.6,3814.9-769.4z"/>
		</g>
		<g id="XMLID_103_">
			<polygon id="XMLID_102_" class="st6" points="4267.8,262.1 4243.3,262.1 4244,253 4217.6,228.1 4210.1,328.6 4240.4,303.2 
				4241.2,292.7 4265.8,292.7 			"/>
			<g id="XMLID_99_">
				<path id="XMLID_100_" class="st5" d="M4232.9,202.2c47.3,0,83.5,33.8,80.9,75.8c-2.6,42.6-43.9,77.4-92.1,77.4
					c-48.3,0-84.4-34.9-80.8-77.4C4144.4,235.9,4185.6,202.2,4232.9,202.2z"/>
			</g>
		</g>
		<path id="XMLID_98_" class="st6" d="M3674-769.8"/>
		<line id="XMLID_97_" class="st6" x1="3708.9" y1="-769.4" x2="3587.3" y2="-769.4"/>
		<line id="XMLID_96_" class="st6" x1="3716.1" y1="275.7" x2="3703.5" y2="364.1"/>
		<g id="XMLID_89_">
			<line id="XMLID_94_" class="st6" x1="3711.1" y1="310.7" x2="3688.7" y2="328.4"/>
			<line id="XMLID_92_" class="st6" x1="3711.1" y1="310.7" x2="3728.4" y2="328.4"/>
		</g>
		<line id="XMLID_87_" class="st6" x1="3803.1" y1="364.1" x2="3703.4" y2="364.1"/>
		<g id="XMLID_66_">
			<line id="XMLID_69_" class="st6" x1="3763.3" y1="364.1" x2="3740.8" y2="382.1"/>
			<line id="XMLID_67_" class="st6" x1="3763.3" y1="364.1" x2="3745.8" y2="346.3"/>
		</g>
		<path id="XMLID_64_" class="st6" d="M3679,239.5c3,2.4,4,7.3,4.3,10.6c1.6-2.7,6.3-7.5,6.8-10.4c2.4,5.3,1.6,13.1,2.9,18.6
			c5.8-7.8,4.7-17.2,8.2-25.4c2.9,7.8,4.9,15.7,5.8,23.9c6-2.4,6-22.8,6.8-26.7c1.9,3.3,3.7,15.8,4.3,19.4
			c3.1-4.2,6.4-16.8,5.7-21.4c3.5,10.5,1.2,20.3,5.5,30.8c1.6-5.3,1.7-15.2,6.6-20.1c1.4,2.5,2.2,2.8,2.2-0.5
			c3.1,5.1,3.3,10.9,6.1,16.1c1.8-7,1.4-14.7,4.4-21.5c0,1.8,0.3,3.5,0.7,5.2c0.1-1,0.5-1.9,1.4-2.8c1.9,2.8,2.6,4.1,6.6,5.5"/>
		<line id="XMLID_58_" class="st6" x1="3821.6" y1="364.1" x2="3854.5" y2="364.1"/>
		<line id="XMLID_57_" class="st6" x1="3839.9" y1="349.4" x2="3836.2" y2="378.9"/>
		<line id="XMLID_13_" class="st6" x1="3603.8" y1="364.1" x2="3703.5" y2="364.1"/>
		<g id="XMLID_10_">
			<line id="XMLID_12_" class="st6" x1="3643.6" y1="364.1" x2="3660.9" y2="382.1"/>
			<line id="XMLID_11_" class="st6" x1="3643.6" y1="364.1" x2="3666.2" y2="346.3"/>
		</g>
		<line id="XMLID_9_" class="st6" x1="3585.3" y1="364.1" x2="3552.4" y2="364.1"/>
		<g id="XMLID_1_">
			<g id="XMLID_7_">
				
					<linearGradient id="XMLID_80_" gradientUnits="userSpaceOnUse" x1="2664.2361" y1="-839.7939" x2="2664.2361" y2="-1022.5071" gradientTransform="matrix(0.7071 0.7071 0.7071 -0.7071 2955.7258 -3313.0635)">
					<stop  offset="0" style="stop-color:#FFFFFF"/>
					<stop  offset="0.5" style="stop-color:#000000"/>
				</linearGradient>
				<polygon id="XMLID_8_" class="st16" points="4310.4,-770.8 4190.1,-867.3 4172,-671.2 4052,-770.8 				"/>
			</g>
			
				<linearGradient id="XMLID_81_" gradientUnits="userSpaceOnUse" x1="2755.593" y1="-931.1501" x2="2755.593" y2="-748.437" gradientTransform="matrix(0.7071 0.7071 0.7071 -0.7071 2955.7258 -3313.0635)">
				<stop  offset="0" style="stop-color:#FFFFFF"/>
				<stop  offset="0.5" style="stop-color:#000000"/>
			</linearGradient>
			<polygon id="XMLID_6_" class="st17" points="4439.6,-770.8 4317.3,-867.3 4303.2,-671.2 4181.2,-770.8 			"/>
		</g>
	</g>
</g>
</svg>
