<?xml version="1.0" encoding="utf-8"?>
<!-- Generator: Adobe Illustrator 19.0.0, SVG Export Plug-In . SVG Version: 6.00 Build 0)  -->
<svg version="1.1" id="Layer_1" xmlns="http://www.w3.org/2000/svg" xmlns:xlink="http://www.w3.org/1999/xlink" x="0px" y="0px"
	 viewBox="2552 -1458.34 6063.103 3477.34" style="enable-background:new 2552 -1458.34 6063.103 3477.34;" xml:space="preserve">
<style type="text/css">
	.st0{fill:none;stroke:#000000;stroke-width:15;stroke-miterlimit:10;}
	.st1{fill:none;stroke:#000000;stroke-width:7;stroke-miterlimit:10;}
	.st2{fill:none;stroke:#231F20;stroke-width:7;stroke-miterlimit:10;}
	.st3{fill:none;stroke:#231F20;stroke-width:4;stroke-miterlimit:10;}
	.st4{fill:none;stroke:#000000;stroke-miterlimit:10;}
	.st5{fill:none;stroke:#231F20;stroke-miterlimit:10;}
	.st6{fill:url(#XMLID_41_);}
	.st7{fill:#231F20;}
	.st8{enable-background:new    ;}
	.st9{fill:none;stroke:#000000;stroke-width:10;stroke-miterlimit:10;}
</style>
<g id="XMLID_38_">
	<g id="Body">
		<line id="XMLID_2_" class="st0" x1="5884.909" y1="1508.957" x2="5889.968" y2="1721.718"/>
		<path id="XMLID_3_" class="st0" d="M8732.199,1897.411H3828.642c-116.744,0-160.917-76.303-250.841-193.047
			c-89.924-116.744-126.209-143.563-78.881-334.455c18.931-75.726,575.605-1972.682,575.605-1972.682
			c3.181-8.633,8.724-19.083,15.085-28.17c6.361-9.087,34.531-47.141,34.531-47.141s-522.942,1836.761-567.502,1992.719
			c-44.559,155.958,36.205,222.797,125.323,222.797H5865.72c10.582,0,19.166-8.566,19.188-19.148l4.015-1924.995
			c0,0,0-7.228,0-24.785c0-4.414-0.022-10.273-0.058-16.8c-0.184-34.023,27.339-61.714,61.363-61.747c0.205,0,2678.678,0,2678.879,0
			H5950.837"/>
		<path id="XMLID_4_" class="st0" d="M3548.328,1666.467c34.206,26.854,94.155,55.251,160.415,55.251c66.26,0,2181.225,0,2181.225,0
			l0.621,108.856h2841.61"/>
		<path id="XMLID_5_" class="st0" d="M8629.107-773.995H4350.65c0,0-13.483,0-35.207,0c-115.861,0-184.073,70.547-192.303,98.525"/>
	</g>
	<path id="XMLID_276_" class="st0" d="M4296.127-623.067l-30.567,125.046h421.683l26.398-125.046c0,0-156.922-16.452-227.207-16.452
		C4416.151-639.519,4296.127-623.067,4296.127-623.067z"/>
	<path id="XMLID_275_" class="st0" d="M4265.56-498.021c0,0,96.567-48.091,202.079-48.091c100.962,0,219.604,48.091,219.604,48.091"
		/>
	<line id="XMLID_274_" class="st0" x1="4472.518" y1="-628.461" x2="4459.141" y2="-563.064"/>
	<line id="XMLID_273_" class="st0" x1="4496.289" y1="-628.461" x2="4482.913" y2="-563.064"/>
	<path id="XMLID_272_" class="st0" d="M4460.407-570.903c-2.903-14.187-15.456-24.859-30.501-24.859
		c-17.195,0-31.134,13.939-31.134,31.134c0,4.892,0,10.954,0,14.942"/>
	<path id="XMLID_271_" class="st0" d="M4571.154-546.11c0-8.55-0.005-11.582-0.005-18.519c0-17.195-13.939-31.134-31.134-31.134
		s-31.134,13.939-31.134,31.134c0,3.386-0.058,5.1-0.058,8.311"/>
	<line id="XMLID_270_" class="st0" x1="4687.243" y1="-618.722" x2="4584.001" y2="-586.015"/>
	<line id="XMLID_269_" class="st0" x1="4310.936" y1="-616.059" x2="4398.771" y2="-591.339"/>
	<path id="XMLID_268_" class="st0" d="M5183.761-438.392c52.485,11.265,88.799,49.028,85.315,94.407
		c-4.244,55.283-65.752,100.77-137.319,100.77s-124.363-45.488-118.018-100.77c2.89-25.179,17.583-48.013,39.425-65.277"/>
	<path id="XMLID_267_" class="st0" d="M5165.786-429.877c-1.235,11.172-7.603,21.365-17.01,28.973
		c-3.324,2.688-24.518-23.109-28.509-21.136c-4.206,2.079,8.761,31.883,4.025,33.005s-9.683,1.725-14.732,1.725
		c-28.453,0-49.104-19.126-46.144-42.566c2.938-23.274,28.074-42.02,56.161-42.02
		C5147.664-471.897,5168.36-453.151,5165.786-429.877z"/>
	<path id="XMLID_266_" class="st0" d="M5050.052-342.517l3.644-67.159c0,0-1.264-16.866,15.679-36.41"/>
	<path id="XMLID_265_" class="st0" d="M5217.498-380.267c0,0-27.366-49.884-33.247-58.012c-6.682-9.236-19.348-33.617-64.675-33.617
		"/>
	<path id="XMLID_264_" class="st0" d="M5063.133-320.039c0,0,17.41,28.865,66.766,28.865s66.766-28.865,66.766-28.865"/>
	<path id="XMLID_263_" d="M5051.454-204.377c-0.774,6.327-7.391,11.464-14.778,11.464c-7.387,0-12.727-5.138-11.928-11.464
		c0.797-6.315,7.411-11.426,14.773-11.426C5046.884-215.802,5052.227-210.692,5051.454-204.377z"/>
	<path id="XMLID_262_" d="M5230.723-204.357c-0.606,6.316-7.028,11.445-14.343,11.445s-12.733-5.129-12.103-11.445
		c0.629-6.304,7.049-11.407,14.339-11.407S5231.328-210.662,5230.723-204.357z"/>
	<path id="XMLID_261_" class="st0" d="M5593.979-430.292c-0.943,21.496-25.035,39.026-53.804,39.026
		c-4.837,0-9.491-0.496-13.88-1.422c-3.404-0.719,12.071-25.712,9.023-26.92c-3.747-1.484-25.916,20.701-28.997,18.58
		c-10.399-7.16-16.604-17.631-15.91-29.263c1.274-21.356,25.349-38.567,53.78-38.567
		C5572.624-468.859,5594.916-451.648,5593.979-430.292z"/>
	<path id="XMLID_260_" class="st0" d="M5473.674-355.13l4.732-55.759c0,0-0.9,11.035,0.7-8.247
		c1.569-18.915,15.385-49.723,65.085-49.723c49.701,0,65.276,36.452,65.276,36.452l25.305,60.512"/>
	<path id="XMLID_259_" class="st0" d="M5487.883-320.039c0,0,16.428,27.627,63.367,27.627c46.938,0,67.18-27.627,67.18-27.627"/>
	<path id="XMLID_258_" class="st0" d="M5612.141-426.03c39.911,15.351,66.722,47.589,65.566,85.226
		c-1.645,53.545-59.093,97.589-128.291,97.589s-122.306-44.044-118.674-97.589c1.977-29.151,20.412-55.063,47.871-72.398"/>
	<path id="XMLID_257_" d="M5472.384-203c-0.402,6.666-7.429,12.079-15.694,12.079s-14.615-5.413-14.184-12.079
		c0.431-6.653,7.456-12.036,15.692-12.036C5466.433-215.036,5472.785-209.652,5472.384-203z"/>
	<path id="XMLID_256_" d="M5651.826-203c-0.226,6.666-7.285,12.079-15.767,12.079c-8.481,0-15.149-5.413-14.894-12.079
		c0.256-6.653,7.314-12.036,15.766-12.036S5652.051-209.652,5651.826-203z"/>
	<path id="XMLID_255_" class="st0" d="M5216.709,677.473c97.559,19.561,166.995,101.449,160.617,200.926l-1.509,23.53
		c-7.592,118.424-118.316,217.992-245.843,217.992h-754.379c-127.527,0-210.536-99.568-185.164-217.992l5.041-23.53
		c19.688-91.896,99.896-168.782,193.211-195.388"/>
	<path id="XMLID_254_" class="st0" d="M4763.578,628.098l457.286-0.74l-6.923,51.501c0,0-22.609,78.237-29.461,133.054
		s-7.514,165.389-7.514,165.389H4312.01c0,0,4.815-68.602,27.084-160.25s49.507-130.27,49.507-130.27l15.847-58.104l143.506-0.232"
		/>
	<path id="XMLID_253_" class="st0" d="M4347.876,962.617c84.682-42.937,163.345-69.785,239.732-76.333
		c10.855-0.93,12.839-13.879,9.873-32.825l-55.195-168.741l18.265-104.684h165.41l-15.996,104.791l78.016,171.641
		c0,0,11.927,22.661,34.588,25.047s240.925,26.239,319.643,58.442"/>
	<path id="XMLID_252_" class="st0" d="M4380.079,802.331c28.625-13.847,151.289-53.904,181.794-57.729"/>
	<path id="XMLID_251_" class="st0" d="M4725.961,580.035l98.994,139.272c0,0,7.156,17.89,34.588,17.89s155.051,1.193,298.174,54.864
		"/>
	<line id="XMLID_250_" class="st0" x1="4591.029" y1="754.035" x2="4696.757" y2="754.035"/>
	<line id="XMLID_249_" class="st0" x1="4606.919" y1="794.982" x2="4712.647" y2="794.982"/>
	<path id="XMLID_248_" class="st0" d="M6111.686-305.864h-152.321c-8.8,0-16,7.2-16,16l-10,1854.277c0,8.8,7.2,16,16,16h341.904
		l69.268,0.126c11.252,0.021,20.12-9.576,19.212-20.792l-5.624-69.512l-43.776-712.041c-0.695-18.488-14.366-27.425-40.646-27.079
		l-125.164-0.684l-36.853-1040.296C6127.686-298.664,6120.486-305.864,6111.686-305.864z"/>
	<path id="XMLID_247_" class="st0" d="M6522.971-305.864l-155.527,0.125c-8.438,0.005-15.063,7.229-14.34,15.635l89.384,1039.509
		l-49.586-0.503l-1.917,0.009c-19.699,0.096-35.236,16.785-33.924,36.44l1.41,21.13l55.181,757.932c0,8.8,7.2,16,16,16h385.321
		l41.262-0.052c9.261-0.011,16.333-8.274,14.915-17.426l-7.348-47.412l-107.504-739.487c-2.159-14.85-14.89-25.864-29.896-25.864
		h-4.472h-51.011L6538.971-289.864C6538.971-298.664,6531.771-305.864,6522.971-305.864z"/>
	<path id="XMLID_246_" class="st0" d="M6787.459,817.785l108.584,745.72c0.088,0.605,0.124,1.216,0.159,1.827
		c0.48,8.377,7.482,15.081,15.974,15.081h353.139l74.786-1.865c10.654-0.266,18.468-10.114,16.304-20.55l-17.546-84.621
		L6958.694-288.949c-0.131-0.609-0.188-1.23-0.225-1.852c-0.489-8.368-7.487-15.063-15.973-15.063h-150.32
		c-2.2,0-4.3,0.45-6.213,1.262c-7.258,3.084-10.788,11.385-8.533,18.941l186.88,1035.833h-168.341
		c-9.678,0-17.104,8.586-15.709,18.162L6787.459,817.785z"/>
	<path id="XMLID_245_" class="st0" d="M7619.369,795.597l223.894,768.815c0,8.8-7.2,16-16,16h-417.32c-8.8,0-16-7.2-16-16
		l-414-1854.277c0-8.8,7.2-16,16-16h141.32c8.8,0,16,7.2,16,16l277.165,1040.036h157.941c10.53,0,19.796,6.952,22.741,17.063
		L7619.369,795.597z"/>
	<path id="XMLID_244_" class="st0" d="M7660.103,538.167l68.727,212.005h-70.341c-12.808,0-22.006,12.329-18.357,24.606
		l13.477,45.354l222.239,747.901c0,8.8,7.2,16,16,16h439.321c8.8,0,16-7.2,16-16l-310.182-788.974l-3.744-9.522
		c-4.594-11.685-15.871-19.368-28.426-19.368l-97.083,0.004L7540.502-290.33c0-8.8-7.2-16-16-16H7380.12"/>
	<path id="XMLID_243_" class="st0" d="M8165.897,538.167l-11.272,212.005h-70.341c-12.808,0-22.006,12.329-18.358,24.606
		l13.477,45.354l302.239,747.901c0,8.8,7.2,16,16,16h459.321c8.8,0,16-7.2,16-16l-399.182-788.974l-3.744-9.522
		c-4.594-11.685-23.87-19.368-36.426-19.368l-27.084,0.004L7930.297-290.33c0-8.8-7.2-16-16-16h-130.468"/>
	<path id="XMLID_242_" class="st0" d="M6777.615,750.172"/>
	<path id="XMLID_241_" class="st0" d="M6777.615,750.172"/>
	<path id="XMLID_240_" class="st0" d="M7606.141,750.172"/>
	<path id="XMLID_239_" class="st0" d="M7632.819,750.172"/>
	<path id="XMLID_238_" class="st0" d="M6202.061,751.366l4.292-37.785l36.298-167.375c-10.665-275.082-30.075-561.895-56.464-858.07
		c38.743-21.542,86.715-30.974,136.181-2.084c28.307,299.58,47.909,587.589,57.41,862.171l16.132,167.375l-0.013,32.906"/>
	<path id="XMLID_237_" class="st0" d="M6252.735,554.272c36.728-8.259,74.413-7.874,112.928,0"/>
	<path id="XMLID_236_" class="st0" d="M6895.772,750.172l6.729-18.083c5.035-13.533,7.188-27.969,6.319-42.382l-8.63-143.259
		c-0.091-1.504-0.266-3.003-0.523-4.487c-45.014-284.83-94.328-570.344-148.806-856.825c-58.57-26.845-101.487-21.281-141.022-0.787
		c58.154,242.542,104.487,533.732,143.723,854.131c0.858,5.103,0.729,10.324-0.38,15.379l-33.993,154.857
		c-0.417,1.897-0.969,3.761-1.653,5.578l-13.508,35.878"/>
	<path id="XMLID_235_" class="st0" d="M6764.944,556.289c39.153-10.06,80.48-11.45,125.027,0"/>
	<path id="XMLID_234_" class="st0" d="M7614.553,779.057l28.399-45.627c8.908-14.312,13.791-30.761,14.135-47.615l2.874-140.698
		c0.094-4.599-0.598-9.181-2.045-13.548c-77.919-286.754-171.435-569.668-281.28-848.562c-56.281-25.425-97.214-13.951-137.229,0
		c114.146,272.473,208.379,553.875,279.328,845.72c2.875,8.705,2.707,18.128-0.477,26.725l-54.593,147.4
		c-0.657,1.773-1.437,3.498-2.335,5.162l-22.755,42.158"/>
	<path id="XMLID_233_" class="st0" d="M7533.513,541.063c40.703-5.709,78.95-8.524,111.044,0"/>
	<path id="XMLID_232_" class="st0" d="M8021.475,541.063c40.703-5.709,78.949-8.524,111.043,0"/>
	<path id="XMLID_231_" class="st0" d="M8540.594,541.063c40.702-5.709,78.949-8.524,111.044,0"/>
	<path id="XMLID_230_" class="st0" d="M7380.12-306.33"/>
	<line id="XMLID_229_" class="st0" x1="6221.324" y1="716.07" x2="6376.819" y2="716.07"/>
	<line id="XMLID_228_" class="st0" x1="6736.461" y1="716.07" x2="6891.957" y2="716.07"/>
	<line id="XMLID_227_" class="st0" x1="7478.641" y1="716.07" x2="7634.136" y2="716.07"/>
	<line id="XMLID_226_" class="st0" x1="7947.727" y1="716.07" x2="8103.222" y2="716.07"/>
	<line id="XMLID_225_" class="st0" x1="8463.265" y1="716.07" x2="8618.76" y2="716.07"/>
	<path id="XMLID_224_" class="st0" d="M6280.039-214.775"/>
	<line id="XMLID_223_" class="st0" x1="6132.873" y1="-257.744" x2="6186.188" y2="-311.864"/>
	<line id="XMLID_222_" class="st0" x1="6545.953" y1="-251.596" x2="6609.838" y2="-315.651"/>
	<line id="XMLID_221_" class="st0" x1="7171.263" y1="-222.321" x2="7239.406" y2="-316.993"/>
	<path id="XMLID_220_" class="st0" d="M7907.733,750.172l26.463-41.808c1.194-1.886,2.229-3.868,3.096-5.926l61.488-145.936
		c4.165-9.885,4.231-21.02,0.185-30.954c-117.211-380.853-231.53-649.838-343.875-842.541c40.462-19.6,82.34-23.155,124.138,0
		c148.055,286.084,268.191,568.524,366.372,848.099c2.818,6.523,3.867,13.674,3.042,20.731l-17.041,145.733
		c-0.84,7.183-3.591,14.01-7.967,19.768l-24.951,32.834"/>
	<line id="XMLID_219_" class="st0" x1="7655.091" y1="-316.993" x2="7568.341" y2="-211.451"/>
	<path id="XMLID_218_" class="st0" d="M8647.12,505.377c-137.514-302.619-286.434-578.184-451.388-822.371
		c-51.707-19.276-99.531-20.904-142.399,0c189.031,297.376,354.78,587.685,454.847,858.056l-80.902,162.701l-20.751,46.408"/>
	<line id="XMLID_217_" class="st0" x1="7964.328" y1="-215.977" x2="8053.333" y2="-316.993"/>
	<path id="XMLID_216_" class="st0" d="M8201.585-306.33h118.572c5.085,0,9.77,2.758,12.236,7.204l428.234,771.723"/>
	<path id="XMLID_215_" class="st0" d="M8632.661,165.312l-265.055-460.637c-2.812-4.888,0.726-10.987,6.365-10.972l167.041,0.433
		L8748.97,7.56"/>
	<path id="XMLID_214_" class="st0" d="M8624.513,750.172h-101.938c-13.546,0-22.341,14.272-16.252,26.372l404.539,803.868"/>
	<line id="XMLID_213_" class="st0" x1="4561.558" y1="685.891" x2="4686.344" y2="685.891"/>
	<path id="XMLID_212_" class="st0" d="M5800.426-650.86l-31.767,2001.334c-0.654,41.233-34.267,74.317-75.505,74.317H3773.61
		c-66.474,0-114.771-63.178-97.337-127.324l523.718-1926.849c12.754-46.925,55.357-79.494,103.984-79.494h1439.348
		C5775.219-708.877,5800.933-682.752,5800.426-650.86z"/>
	<g id="XMLID_64_">
		<g id="XMLID_135_">
			<line id="XMLID_83_" class="st1" x1="5773.404" y1="884.85" x2="5371.764" y2="884.85"/>
			<line id="XMLID_15_" class="st1" x1="4445.846" y1="-2.754" x2="4475.588" y2="-23.727"/>
			<line id="XMLID_14_" class="st1" x1="4475.588" y1="-23.727" x2="4454.69" y2="-44.571"/>
			<line id="XMLID_13_" class="st1" x1="4403.779" y1="196.142" x2="4434.524" y2="173.924"/>
			<line id="XMLID_8_" class="st1" x1="4434.524" y1="173.924" x2="4413.147" y2="151.847"/>
			<line id="XMLID_10_" class="st1" x1="4358.246" y1="408.225" x2="4391.667" y2="383.458"/>
			<line id="XMLID_9_" class="st1" x1="4391.667" y1="383.458" x2="4368.691" y2="358.86"/>
			<path id="XMLID_7_" class="st1" d="M4416.585-179.156l-116.307,524.937c-4.599,20.759,11.022,37.676,34.916,37.676h136.505"/>
			<line id="XMLID_19_" class="st1" x1="4441.4" y1="-398.606" x2="4462.17" y2="-378.961"/>
			<line id="XMLID_18_" class="st1" x1="4462.17" y1="-378.961" x2="4491.638" y2="-398.606"/>
			<line id="XMLID_11_" class="st1" x1="4041.696" y1="520.417" x2="4019.492" y2="494.885"/>
			<line id="XMLID_6_" class="st1" x1="4019.492" y1="494.885" x2="3984.238" y2="520.417"/>
			<line id="XMLID_60_" class="st1" x1="4488.431" y1="-503.241" x2="4436.947" y2="-270.87"/>
			<path id="XMLID_78_" class="st1" d="M4191.197,884.85h-221.25c-27.677,0-44.758-20.957-38.191-46.652l263.177-1029.811
				c4.883-19.108,28.011-34.517,51.683-34.517h124.425"/>
			<path id="XMLID_89_" class="st1" d="M4511.477,173.924h-131.003c-23.261,0-38.576-15.99-34.228-35.613l11.665-52.648"/>
			<path id="XMLID_1_" class="st1" d="M4551.712-23.727h-128.708c-22.564,0-37.517-15.071-33.417-33.57l12.522-56.519"/>
			<path id="XMLID_29_" class="st2" d="M4633.289,173.924h290.754c21.826,0,37.532,15.07,35.07,33.749l-3.583,27.182
				c-1.124,8.527,6.034,15.454,15.989,15.454h58.742"/>
			<path id="XMLID_30_" class="st2" d="M4594.294,383.457h308.978c18.042,0,34.352-12.781,36.422-28.485l5.412-41.055
				c1.146-8.699,10.2-15.734,20.223-15.734h59.099"/>
			<line id="XMLID_31_" class="st2" x1="5137.537" y1="-225.116" x2="5086.8" y2="222.503"/>
			<path id="XMLID_32_" class="st2" d="M4667.357-23.73h430.993h0.472c0.837-7.238,8.614-13.094,17.372-13.094
				s15.207,5.856,14.404,13.094l241.239,0.002c22.493,0,39.68,15.091,38.382,33.799l-2.141,30.879
				c-0.37,5.334,4.52,9.665,10.923,9.665h62.998"/>
			<path id="XMLID_33_" class="st2" d="M5141.311,274.163h207.159c23.988,0,44.595-16.725,46.018-37.249l9.104-131.29
				c0.376-5.427,5.906-9.821,12.351-9.821h62.709"/>
			<line id="XMLID_34_" class="st2" x1="5547.899" y1="-225.116" x2="5535.209" y2="24.361"/>
			<path id="XMLID_37_" class="st1" d="M5591.377,73.134h38.16c16.612,0,29.713,11.298,29.26,25.287L5647.442,449
				c-0.708,21.876-21.408,39.706-46.231,39.706h-161.985"/>
		</g>
		<path id="_x28__x2B__x29_" class="st1" d="M4400.425-226.13h53.182 M4422.277-204.757l9.44-42.608 M4483.109-226.13
			c-5.307,24.912-34.927,45.243-66.121,45.243s-51.799-20.331-46.067-45.243c5.689-24.724,35.21-44.633,65.98-44.633
			S4488.376-250.854,4483.109-226.13z"/>
		<g id="_x28_3_x29__1_">
			<path id="XMLID_192_" class="st1" d="M4528.403,407.885l9.152-48.691 M4519.008,358.86h37.226 M4547.083,408.225h-37.482
				 M4549.625,407.885l9.009-48.691 M4540.08,358.86h37.225 M4568.3,408.225h-37.482 M4507.181,407.885l9.296-48.691
				 M4497.931,358.86h37.226 M4525.86,408.225h-37.482"/>
			<path id="XMLID_191_" class="st1" d="M4594.294,383.457c-5.34,29.762-37.35,54.067-71.461,54.067
				c-34.111,0-56.983-24.305-51.134-54.067c5.801-29.517,37.706-53.265,71.31-53.265S4599.591,353.94,4594.294,383.457z"/>
		</g>
		<g id="_x28_2_x29_">
			<path id="XMLID_139_" class="st1" d="M4584.641,198.067l8.518-45.904 M4575.141,151.847h36.148 M4602.773,198.387h-36.39
				 M4548.247,198.067l8.757-45.904 M4538.993,151.847h36.148 M4566.384,198.387h-36.39"/>
			<path id="XMLID_138_" class="st1" d="M4633.289,173.924c-5.138,28.667-36.807,52.076-70.692,52.076
				c-33.89,0-56.759-23.41-51.12-52.076c5.593-28.433,37.162-51.309,70.554-51.309
				C4615.416,122.615,4638.385,145.492,4633.289,173.924z"/>
		</g>
		<polygon id="XMLID_85_" class="st2" points="5406.135,477.255 5388.505,477.255 5388.955,470.628 5369.873,452.638 
			5364.749,525.136 5386.495,506.877 5387.01,499.279 5404.693,499.279 		"/>
		<g id="_x28_1_x29__1_">
			<line id="XMLID_183_" class="st1" x1="4605.448" y1="-1.998" x2="4613.592" y2="-45.325"/>
			<line id="XMLID_182_" class="st1" x1="4596.09" y1="-45.618" x2="4631.21" y2="-45.618"/>
			<line id="XMLID_176_" class="st1" x1="4623.068" y1="-1.696" x2="4587.72" y2="-1.696"/>
			<path id="XMLID_175_" class="st1" d="M4667.357-23.73c-4.75,26.474-34.703,48.09-66.865,48.09
				c-32.162,0-53.983-21.616-48.78-48.09c5.162-26.269,35.021-47.412,66.732-47.412S4672.071-49.998,4667.357-23.73z"/>
		</g>
		<g id="Crossfader">
			<path id="XMLID_74_" class="st1" d="M5115.757,298.182c-37.535,0-32.109-47.873-55.98-47.873h-13.411"/>
			<path id="XMLID_44_" class="st1" d="M5120.93,250.309c-5.029,0-13.41,0-13.41,0c-23.872,0-29.298,47.873-66.833,47.873"/>
			<path id="XMLID_43_" class="st1" d="M5141.311,274.163c-3.024,28.861-32.726,52.432-66.313,52.432s-57.939-23.572-54.421-52.432
				c3.489-28.627,33.123-51.66,66.22-51.66C5119.893,222.503,5144.312,245.536,5141.311,274.163z"/>
			<path id="XMLID_72_" class="st1" d="M5102.527,295.719"/>
			<line id="XMLID_88_" class="st3" x1="5077.93" y1="300.759" x2="5080.944" y2="274.166"/>
			<line id="XMLID_131_" class="st3" x1="5086.502" y1="300.759" x2="5088.405" y2="283.789"/>
			<line id="XMLID_144_" class="st3" x1="5069.358" y1="300.759" x2="5071.302" y2="283.79"/>
			<line id="XMLID_148_" class="st3" x1="5060.786" y1="300.759" x2="5061.842" y2="291.635"/>
			<line id="XMLID_132_" class="st3" x1="5095.074" y1="300.759" x2="5095.93" y2="293.042"/>
		</g>
		<g id="Crossfader_1_">
			<path id="XMLID_28_" class="st1" d="M5568.039,95.804c-36.464,0-34.165-45.188-57.36-45.188h-13.03"/>
			<path id="XMLID_27_" class="st1" d="M5570.098,50.616c-4.886,0-13.03,0-13.03,0c-23.194,0-25.494,45.188-61.957,45.188"/>
			<path id="XMLID_26_" class="st1" d="M5591.377,73.134c-1.153,27.239-28.545,49.481-61.17,49.481
				c-32.625,0-57.749-22.242-56.13-49.481c1.605-27.024,28.966-48.773,61.128-48.773S5592.521,46.11,5591.377,73.134z"/>
			<path id="XMLID_25_" class="st4" d="M5555.033,93.479"/>
			<line id="XMLID_24_" class="st3" x1="5531.451" y1="98.235" x2="5532.728" y2="73.136"/>
			<line id="XMLID_23_" class="st3" x1="5539.778" y1="98.235" x2="5540.574" y2="82.219"/>
			<line id="XMLID_22_" class="st3" x1="5523.123" y1="98.235" x2="5523.958" y2="82.22"/>
			<line id="XMLID_21_" class="st3" x1="5514.796" y1="98.235" x2="5515.255" y2="89.625"/>
			<line id="XMLID_20_" class="st3" x1="5548.105" y1="98.235" x2="5548.458" y2="90.953"/>
		</g>
		<g id="XMLID_77_">
			<g id="Mic">
				<path id="XMLID_75_" class="st2" d="M4884.324-555.434L4884.324-555.434c-6.479,0-11.057-4.482-10.172-9.948l3.506-21.665
					c0.877-5.419,6.862-9.847,13.298-9.847c6.436,0,11.004,4.429,10.147,9.847l-3.424,21.665
					C4896.814-559.916,4890.802-555.434,4884.324-555.434"/>
				<path id="XMLID_73_" d="M4906.02-576.133l-1.888,12.023c-1.21,7.708-10.511,14.029-20.665,14.029
					c-10.154,0-17.433-6.321-16.177-14.029l1.958-12.023h-4.608l-1.991,12.168c-1.579,9.645,7.521,17.56,20.23,17.56
					s24.346-7.915,25.853-17.56l1.901-12.168H4906.02z"/>
				<polygon id="XMLID_71_" points="4867.87,-529.937 4892.625,-529.937 4893.185,-533.482 4868.444,-533.482 				"/>
				<polygon id="XMLID_36_" points="4878.432,-533.108 4883.077,-533.108 4885.404,-547.691 4880.77,-547.691 				"/>
			</g>
			<path id="XMLID_76_" class="st1" d="M4938.266-565.077c-3.395,22.402-30.14,40.679-59.713,40.679
				c-29.573,0-50.461-18.277-46.684-40.679c3.75-22.242,30.433-40.158,59.624-40.158S4941.637-587.319,4938.266-565.077z"/>
		</g>
		<g id="XMLID_35_">
			<path id="XMLID_84_" class="st1" d="M5380.832,433.872c34.094,0,60.242,24.45,58.394,54.838
				c-1.863,30.643-31.442,55.671-66.057,55.671c-34.615,0-60.729-25.028-58.342-55.671
				C5317.193,458.322,5346.739,433.872,5380.832,433.872z"/>
		</g>
		<path id="XMLID_17_" class="st5" d="M4796.799-565.467"/>
		<line id="XMLID_79_" class="st2" x1="4831.869" y1="-565.077" x2="4709.821" y2="-565.077"/>
		<g id="XMLID_39_">
			<line id="XMLID_101_" class="st2" x1="4837.347" y1="484.997" x2="4824.401" y2="575.316"/>
			<g id="XMLID_134_">
				<line id="XMLID_133_" class="st2" x1="4832.197" y1="520.927" x2="4809.474" y2="538.991"/>
				<line id="XMLID_130_" class="st2" x1="4832.201" y1="520.927" x2="4849.746" y2="538.991"/>
			</g>
			<line id="XMLID_163_" class="st2" x1="4925.19" y1="575.363" x2="4824.395" y2="575.363"/>
			<g id="XMLID_154_">
				<line id="XMLID_162_" class="st2" x1="4884.885" y1="575.341" x2="4862.144" y2="593.523"/>
				<line id="XMLID_161_" class="st2" x1="4884.885" y1="575.338" x2="4867.263" y2="557.195"/>
			</g>
			<path id="XMLID_16_" class="st2" d="M4805.763,447.63c3.032,2.436,1.927,7.891,2.206,11.286c1.679-2.836,1.603-6.426,2.089-9.412
				c2.461,5.435,2.312,11.892,3.702,17.526c5.956-8.045,4.828-17.769,8.381-26.231c2.997,8.055,4.98,16.273,5.949,24.652
				c6.153-2.436,6.173-23.521,6.986-27.561c1.97,3.417,3.228,6.978,3.773,10.685c3.2-4.37,4.469-8.917,3.81-13.641
				c3.596,10.83,3.823,21.945,8.152,32.7c1.688-5.475,1.792-15.677,6.811-20.792c1.412,2.551,2.284,2.917,2.208-0.492
				c3.127,5.23,3.354,11.214,6.191,16.604c1.837-7.189,1.474-15.21,4.585-22.268c0.011,1.825,0.252,3.624,0.723,5.396
				c0.087-1.026,0.553-1.995,1.398-2.906c1.966,2.865,2.604,4.245,6.746,5.673"/>
			<line id="XMLID_90_" class="st2" x1="4943.891" y1="575.363" x2="4977.158" y2="575.363"/>
			<line id="XMLID_104_" class="st2" x1="4962.546" y1="560.405" x2="4958.499" y2="590.348"/>
			<line id="XMLID_203_" class="st2" x1="4723.603" y1="575.363" x2="4824.398" y2="575.363"/>
			<g id="XMLID_189_">
				<line id="XMLID_202_" class="st2" x1="4763.915" y1="575.341" x2="4781.443" y2="593.523"/>
				<line id="XMLID_190_" class="st2" x1="4763.915" y1="575.338" x2="4786.738" y2="557.195"/>
			</g>
			<line id="XMLID_188_" class="st2" x1="4704.902" y1="575.363" x2="4671.635" y2="575.363"/>
		</g>
		
			<linearGradient id="XMLID_41_" gradientUnits="userSpaceOnUse" x1="4295.4907" y1="431.0696" x2="4470.8423" y2="431.0696" gradientTransform="matrix(4.489659e-11 1 -1 4.489659e-11 5996.2822 -4947.3999)">
			<stop  offset="0" style="stop-color:#000000"/>
			<stop  offset="0.5" style="stop-color:#FFFFFF"/>
			<stop  offset="1" style="stop-color:#000000"/>
		</linearGradient>
		<polygon id="XMLID_12_" class="st6" points="5560.689,-476.558 5560.69,-476.558 5680.599,-565.467 5569.61,-651.909 
			5569.609,-651.909 5449.826,-565.467 		"/>
		<path id="XMLID_50_" class="st7" d="M5056.182-204.757c-0.71,5.666-7.006,10.267-14.062,10.267
			c-7.055,0-12.18-4.601-11.448-10.267c0.731-5.657,7.024-10.235,14.058-10.235C5051.763-214.992,5056.891-210.414,5056.182-204.757
			z"/>
		<path id="XMLID_66_" class="st7" d="M5230.945-204.757c-0.56,5.666-6.734,10.267-13.79,10.267s-12.302-4.601-11.72-10.267
			c0.581-5.657,6.752-10.235,13.786-10.235C5226.255-214.992,5231.504-210.414,5230.945-204.757z"/>
		<path id="XMLID_69_" class="st7" d="M5469.684-204.757c-0.354,5.666-6.362,10.267-13.417,10.267
			c-7.056,0-12.469-4.601-12.093-10.267c0.376-5.657,6.382-10.235,13.416-10.235
			C5464.623-214.992,5470.038-210.414,5469.684-204.757z"/>
		<path id="XMLID_70_" class="st7" d="M5642.005-204.757c-0.207,5.666-6.093,10.267-13.149,10.267
			c-7.055,0-12.589-4.601-12.361-10.267c0.228-5.657,6.114-10.235,13.147-10.235
			C5636.676-214.992,5642.211-210.414,5642.005-204.757z"/>
	</g>
</g>
<g class="st8">
	<path d="M2730.466-605.118h17.6c2.88,0,5.532,0.268,7.96,0.801c2.426,0.533,4.533,1.439,6.32,2.72c1.787,1.28,3.173,2.947,4.16,5
		c0.986,2.054,1.48,4.6,1.48,7.64c0,2.88-0.507,5.388-1.52,7.521c-1.014,2.134-2.414,3.907-4.2,5.319
		c-1.787,1.414-3.894,2.454-6.32,3.12c-2.427,0.668-5.054,1-7.88,1h-8.32v19.2h-9.28V-605.118z M2747.346-579.437
		c7.68,0,11.52-3.173,11.52-9.521c0-3.306-0.96-5.586-2.88-6.84c-1.92-1.253-4.8-1.88-8.64-1.88h-7.6v18.24h7.6V-579.437z"/>
	<path d="M2780.945-592.078h7.6l0.8,8.88h0.24c2.026-3.199,4.466-5.64,7.32-7.319c2.853-1.681,5.986-2.521,9.4-2.521
		c1.6,0,2.973,0.12,4.12,0.36c1.146,0.24,2.306,0.653,3.48,1.24l-1.92,7.76c-1.28-0.427-2.414-0.732-3.4-0.92
		c-0.987-0.187-2.228-0.28-3.72-0.28c-2.72,0-5.333,0.773-7.84,2.32s-4.774,4.24-6.8,8.08v21.68h-9.28L2780.945-592.078
		L2780.945-592.078z"/>
	<path d="M2821.825-572.397c0-3.253,0.546-6.16,1.64-8.721c1.093-2.56,2.546-4.72,4.36-6.479c1.812-1.76,3.92-3.106,6.32-4.04
		c2.4-0.933,4.88-1.4,7.44-1.4s5.04,0.468,7.44,1.4c2.4,0.934,4.506,2.28,6.32,4.04c1.812,1.76,3.267,3.92,4.36,6.479
		c1.092,2.561,1.64,5.468,1.64,8.721s-0.547,6.159-1.64,8.72c-1.094,2.56-2.548,4.72-4.36,6.479c-1.813,1.761-3.92,3.094-6.32,4
		s-4.88,1.36-7.44,1.36s-5.04-0.454-7.44-1.36s-4.507-2.239-6.32-4c-1.814-1.76-3.268-3.92-4.36-6.479
		C2822.371-566.238,2821.825-569.145,2821.825-572.397z M2831.344-572.397c0,3.947,0.906,7.107,2.72,9.479
		c1.812,2.374,4.32,3.561,7.52,3.561s5.706-1.187,7.52-3.561c1.812-2.372,2.72-5.532,2.72-9.479c0-4-0.908-7.187-2.72-9.561
		c-1.814-2.372-4.32-3.56-7.52-3.56s-5.708,1.188-7.52,3.56C2832.251-579.584,2831.344-576.397,2831.344-572.397z"/>
	<path d="M2882.944-573.198l-13.28-18.88h10l5.12,7.44c0.64,1.067,1.333,2.174,2.08,3.32c0.746,1.147,1.492,2.279,2.24,3.399h0.32
		c0.586-1.12,1.227-2.267,1.92-3.439c0.692-1.173,1.333-2.293,1.92-3.36l4.64-7.36h9.68l-13.36,19.84l14.32,19.44h-10l-5.68-7.76
		c-0.748-1.066-1.534-2.213-2.36-3.44c-0.827-1.226-1.64-2.399-2.44-3.52h-0.32c-0.748,1.174-1.454,2.333-2.12,3.479
		c-0.667,1.147-1.374,2.334-2.12,3.561l-5.12,7.68h-9.68L2882.944-573.198z"/>
	<path d="M2918.383-592.078h26.24v39.28h-9.2v-32h-17.04V-592.078z M2939.343-598.958c-1.868,0-3.428-0.56-4.68-1.68
		c-1.254-1.12-1.88-2.612-1.88-4.48c0-1.866,0.626-3.372,1.88-4.52c1.252-1.146,2.812-1.72,4.68-1.72c1.92,0,3.492,0.573,4.72,1.72
		c1.227,1.147,1.84,2.653,1.84,4.52c0,1.868-0.614,3.36-1.84,4.48C2942.836-599.518,2941.263-598.958,2939.343-598.958z"/>
	<path d="M2962.542-592.078h6.96l0.72,5.04h0.24c0.906-1.706,2.013-3.132,3.32-4.279c1.306-1.146,3.08-1.721,5.32-1.721
		c3.84,0,6.24,2.188,7.2,6.561c0.906-1.866,2.066-3.427,3.48-4.681c1.413-1.252,3.212-1.88,5.4-1.88c2.772,0,4.92,1.08,6.44,3.24
		s2.28,5.214,2.28,9.16v27.84h-8.72v-27.12c0-3.466-1.094-5.2-3.28-5.2c-1.068,0-2,0.4-2.8,1.2s-1.574,2.027-2.32,3.68v27.44h-7.2
		v-27.12c0-3.466-1.12-5.2-3.36-5.2c-1.067,0-1.974,0.4-2.72,1.2c-0.747,0.8-1.494,2.027-2.24,3.68v27.44h-8.72L2962.542-592.078
		L2962.542-592.078z"/>
	<path d="M3012.462-592.078h26.24v39.28h-9.2v-32h-17.04V-592.078z M3033.422-598.958c-1.868,0-3.428-0.56-4.68-1.68
		c-1.254-1.12-1.88-2.612-1.88-4.48c0-1.866,0.626-3.372,1.88-4.52c1.252-1.146,2.812-1.72,4.68-1.72c1.92,0,3.492,0.573,4.72,1.72
		c1.227,1.147,1.84,2.653,1.84,4.52c0,1.868-0.614,3.36-1.84,4.48C3036.914-599.518,3035.341-598.958,3033.422-598.958z"/>
	<path d="M3067.981-584.798h-10.48v-6.88l10.88-0.4l1.2-10.72h7.6v10.72h17.92v7.28h-17.92v16.16c0,3.254,0.667,5.64,2,7.16
		c1.333,1.52,3.68,2.279,7.04,2.279c1.707,0,3.252-0.146,4.64-0.439c1.386-0.293,2.72-0.68,4-1.16l1.76,6.72
		c-1.76,0.588-3.708,1.107-5.84,1.561c-2.134,0.452-4.4,0.68-6.8,0.68c-2.988,0-5.494-0.4-7.52-1.2
		c-2.028-0.8-3.667-1.933-4.92-3.399c-1.253-1.467-2.16-3.24-2.72-5.32s-0.84-4.372-0.84-6.88L3067.981-584.798L3067.981-584.798z"
		/>
	<path d="M3108.54-544.238c0.532,0.106,1.092,0.16,1.68,0.16c2.506,0,4.506-0.627,6-1.88c1.493-1.254,2.64-2.867,3.44-4.84
		l0.96-2.48l-17.6-38.8h9.2l8.08,19.28c0.746,1.76,1.466,3.628,2.16,5.6c0.692,1.975,1.413,3.948,2.16,5.92h0.32
		c0.586-1.866,1.226-3.786,1.92-5.76c0.692-1.973,1.36-3.893,2-5.76l7.12-19.28h8.72l-16.4,41.04c-0.854,2.24-1.8,4.24-2.84,6
		s-2.254,3.267-3.64,4.521c-1.388,1.252-2.987,2.212-4.8,2.88c-1.814,0.666-3.894,1-6.24,1c-1.067,0-2.08-0.067-3.04-0.2
		c-0.96-0.134-1.813-0.334-2.56-0.6l1.76-7.2C3107.472-544.478,3108.006-544.346,3108.54-544.238z"/>
	<path d="M3203.979-565.838c1.973,1.76,4.2,3.188,6.68,4.28c2.48,1.094,5,1.64,7.561,1.64c3.199,0,5.626-0.612,7.279-1.84
		c1.653-1.227,2.48-2.853,2.48-4.88c0-1.066-0.214-1.973-0.64-2.72c-0.428-0.747-1.028-1.4-1.801-1.96
		c-0.773-0.561-1.707-1.08-2.8-1.561c-1.094-0.479-2.28-0.96-3.56-1.439l-7.12-3.12c-1.388-0.533-2.748-1.2-4.08-2
		c-1.334-0.801-2.534-1.761-3.6-2.88c-1.068-1.12-1.92-2.427-2.561-3.921c-0.64-1.492-0.96-3.199-0.96-5.119
		c0-2.08,0.453-4.013,1.36-5.801c0.906-1.786,2.161-3.346,3.76-4.68c1.6-1.332,3.506-2.372,5.72-3.12
		c2.213-0.746,4.652-1.12,7.32-1.12c3.2,0,6.252,0.601,9.16,1.8c2.906,1.2,5.452,2.814,7.64,4.841l-4.8,5.92
		c-1.76-1.387-3.601-2.48-5.521-3.28s-4.08-1.2-6.479-1.2c-2.72,0-4.867,0.548-6.44,1.641c-1.573,1.094-2.359,2.6-2.359,4.52
		c0,1.014,0.239,1.88,0.72,2.6c0.479,0.721,1.133,1.36,1.96,1.921c0.826,0.56,1.786,1.054,2.88,1.479
		c1.093,0.428,2.227,0.88,3.4,1.36l6.88,2.96c1.652,0.64,3.172,1.388,4.56,2.239c1.387,0.854,2.587,1.841,3.601,2.961
		c1.012,1.119,1.8,2.413,2.359,3.88c0.561,1.467,0.84,3.159,0.84,5.08c0,2.134-0.439,4.134-1.319,6
		c-0.88,1.867-2.147,3.507-3.8,4.92c-1.654,1.413-3.681,2.533-6.08,3.359c-2.4,0.826-5.12,1.24-8.16,1.24
		c-3.68,0-7.2-0.667-10.561-2c-3.359-1.332-6.347-3.227-8.959-5.68L3203.979-565.838z"/>
	<path d="M3245.898-572.397c0-3.2,0.572-6.08,1.72-8.641c1.146-2.56,2.652-4.732,4.521-6.52c1.866-1.786,4.013-3.146,6.439-4.08
		c2.427-0.933,4.92-1.4,7.48-1.4c2.933,0,5.532,0.468,7.8,1.4c2.267,0.934,4.173,2.214,5.72,3.84
		c1.547,1.628,2.721,3.588,3.521,5.88c0.8,2.294,1.2,4.8,1.2,7.521c0,0.907-0.04,1.76-0.12,2.56s-0.174,1.44-0.28,1.92h-28.56
		c0.319,3.521,1.706,6.228,4.159,8.12c2.453,1.894,5.467,2.84,9.04,2.84c2.026,0,3.92-0.28,5.681-0.84
		c1.76-0.56,3.546-1.347,5.359-2.36l3.12,5.761c-2.134,1.333-4.507,2.427-7.12,3.279s-5.359,1.28-8.239,1.28
		c-2.988,0-5.788-0.468-8.4-1.4c-2.613-0.932-4.88-2.279-6.8-4.04c-1.92-1.76-3.44-3.906-4.561-6.439
		C3246.457-566.25,3245.898-569.145,3245.898-572.397z M3275.818-576.158c0-3.04-0.8-5.426-2.399-7.159
		c-1.601-1.733-3.975-2.601-7.12-2.601c-2.668,0-5.04,0.827-7.12,2.48s-3.388,4.08-3.92,7.279h20.559V-576.158z"/>
	<path d="M3294.536-592.078h7.601l0.72,5.92h0.32c1.866-1.866,3.933-3.479,6.2-4.84c2.266-1.359,4.92-2.04,7.96-2.04
		c4.532,0,7.866,1.374,10,4.12c2.132,2.748,3.199,6.68,3.199,11.8v24.32h-9.279v-23.12c0-3.2-0.548-5.532-1.641-7
		c-1.094-1.466-3-2.2-5.72-2.2c-1.92,0-3.627,0.454-5.12,1.36c-1.493,0.907-3.147,2.294-4.96,4.16v26.8h-9.28L3294.536-592.078
		L3294.536-592.078z"/>
	<path d="M3344.297-563.758c2.239,1.548,4.572,2.76,7,3.64c2.426,0.88,5.16,1.32,8.2,1.32c3.092,0,5.359-0.44,6.8-1.32
		c1.439-0.88,2.16-2.012,2.16-3.399c0-1.387-0.935-2.547-2.801-3.48c-1.867-0.933-4.8-1.933-8.8-3
		c-1.867-0.479-3.68-1.066-5.439-1.76c-1.761-0.692-3.308-1.492-4.641-2.4c-1.334-0.906-2.399-1.946-3.2-3.12
		c-0.8-1.172-1.199-2.506-1.199-4c0-3.466,1.492-6.292,4.479-8.479c2.986-2.187,7.28-3.28,12.88-3.28c3.2,0,6.213,0.534,9.04,1.601
		c2.826,1.067,5.253,2.268,7.28,3.6l-4.24,5.68c-1.76-1.172-3.64-2.12-5.64-2.84s-4.12-1.08-6.36-1.08
		c-3.04,0-5.174,0.414-6.399,1.24c-1.228,0.827-1.841,1.854-1.841,3.08c0,0.693,0.28,1.32,0.841,1.88
		c0.56,0.561,1.332,1.067,2.319,1.521c0.986,0.453,2.146,0.894,3.48,1.319c1.332,0.428,2.8,0.828,4.399,1.2
		c2.293,0.588,4.36,1.24,6.2,1.96s3.413,1.534,4.72,2.44c1.307,0.907,2.32,1.974,3.04,3.199c0.721,1.228,1.08,2.641,1.08,4.24
		c0,1.708-0.399,3.294-1.199,4.76c-0.801,1.468-1.975,2.748-3.521,3.841c-1.548,1.094-3.468,1.96-5.76,2.6
		c-2.294,0.64-4.934,0.96-7.92,0.96c-3.681,0-7.2-0.588-10.561-1.76c-3.359-1.173-6.268-2.612-8.72-4.32L3344.297-563.758z"/>
	<path d="M3386.296-572.397c0-3.253,0.546-6.16,1.64-8.721c1.093-2.56,2.546-4.72,4.36-6.479c1.812-1.76,3.92-3.106,6.319-4.04
		c2.4-0.933,4.881-1.4,7.44-1.4s5.04,0.468,7.44,1.4c2.399,0.934,4.506,2.28,6.319,4.04c1.812,1.76,3.267,3.92,4.36,6.479
		c1.093,2.561,1.64,5.468,1.64,8.721s-0.547,6.159-1.64,8.72c-1.094,2.56-2.548,4.72-4.36,6.479c-1.813,1.761-3.92,3.094-6.319,4
		c-2.4,0.906-4.881,1.36-7.44,1.36s-5.04-0.454-7.44-1.36c-2.399-0.906-4.507-2.239-6.319-4c-1.814-1.76-3.268-3.92-4.36-6.479
		C3386.842-566.238,3386.296-569.145,3386.296-572.397z M3395.816-572.397c0,3.947,0.906,7.107,2.721,9.479
		c1.812,2.374,4.319,3.561,7.52,3.561s5.706-1.187,7.52-3.561c1.812-2.372,2.721-5.532,2.721-9.479c0-4-0.908-7.187-2.721-9.561
		c-1.813-2.372-4.319-3.56-7.52-3.56s-5.707,1.188-7.52,3.56C3396.722-579.584,3395.816-576.397,3395.816-572.397z"/>
	<path d="M3439.495-592.078h7.6l0.8,8.88h0.24c2.026-3.199,4.466-5.64,7.32-7.319c2.853-1.681,5.986-2.521,9.399-2.521
		c1.601,0,2.973,0.12,4.12,0.36c1.146,0.24,2.307,0.653,3.48,1.24l-1.92,7.76c-1.28-0.427-2.414-0.732-3.4-0.92
		c-0.987-0.187-2.228-0.28-3.72-0.28c-2.721,0-5.334,0.773-7.84,2.32c-2.508,1.547-4.774,4.24-6.801,8.08v21.68h-9.279
		L3439.495-592.078L3439.495-592.078z"/>
</g>
<g class="st8">
	<path d="M2775.185-1289.938c0-4.267,0.613-8.093,1.84-11.48c1.226-3.386,2.92-6.252,5.08-8.6c2.16-2.346,4.72-4.133,7.68-5.36
		c2.96-1.226,6.172-1.84,9.64-1.84c3.2,0,6.052,0.668,8.56,2c2.506,1.334,4.612,2.854,6.32,4.561l-5.2,5.76
		c-1.28-1.28-2.708-2.307-4.28-3.08c-1.574-0.772-3.374-1.16-5.4-1.16c-2.188,0-4.188,0.44-6,1.32c-1.814,0.88-3.36,2.134-4.64,3.76
		c-1.28,1.628-2.28,3.614-3,5.96c-0.72,2.348-1.08,4.987-1.08,7.92c0,2.987,0.36,5.668,1.08,8.04c0.72,2.374,1.732,4.374,3.04,6
		c1.306,1.628,2.88,2.88,4.72,3.76c1.84,0.881,3.88,1.32,6.12,1.32c2.133,0,4.04-0.452,5.72-1.36c1.68-0.906,3.266-2.186,4.76-3.84
		l5.12,5.681c-2.134,2.453-4.534,4.333-7.2,5.64c-2.667,1.307-5.654,1.96-8.96,1.96c-3.36,0-6.494-0.588-9.4-1.76
		c-2.907-1.173-5.44-2.906-7.6-5.2c-2.16-2.293-3.854-5.12-5.08-8.48C2775.798-1281.778,2775.185-1285.618,2775.185-1289.938z"/>
	<path d="M2827.824-1303.219h7.6l0.8,8.88h0.24c2.026-3.199,4.466-5.64,7.32-7.319c2.853-1.681,5.986-2.521,9.4-2.521
		c1.6,0,2.973,0.12,4.12,0.36c1.146,0.24,2.306,0.653,3.48,1.24l-1.92,7.76c-1.28-0.427-2.414-0.732-3.4-0.92
		c-0.987-0.187-2.228-0.28-3.72-0.28c-2.72,0-5.333,0.773-7.84,2.32s-4.774,4.24-6.8,8.08v21.68h-9.28L2827.824-1303.219
		L2827.824-1303.219z"/>
	<path d="M2868.704-1283.538c0-3.253,0.546-6.16,1.64-8.721c1.093-2.56,2.546-4.72,4.36-6.479c1.812-1.76,3.92-3.106,6.32-4.04
		c2.4-0.933,4.88-1.4,7.44-1.4s5.04,0.468,7.44,1.4c2.4,0.934,4.506,2.28,6.32,4.04c1.812,1.76,3.267,3.92,4.36,6.479
		c1.092,2.561,1.64,5.468,1.64,8.721s-0.547,6.159-1.64,8.72c-1.094,2.56-2.548,4.72-4.36,6.479c-1.813,1.761-3.92,3.094-6.32,4
		s-4.88,1.36-7.44,1.36s-5.04-0.454-7.44-1.36s-4.507-2.239-6.32-4c-1.814-1.76-3.268-3.92-4.36-6.479
		C2869.25-1277.379,2868.704-1280.285,2868.704-1283.538z M2878.224-1283.538c0,3.947,0.906,7.107,2.72,9.479
		c1.812,2.374,4.32,3.561,7.52,3.561s5.706-1.187,7.52-3.561c1.812-2.372,2.72-5.532,2.72-9.479c0-4-0.908-7.187-2.72-9.561
		c-1.814-2.372-4.32-3.56-7.52-3.56s-5.708,1.188-7.52,3.56C2879.13-1290.725,2878.224-1287.538,2878.224-1283.538z"/>
	<path d="M2920.783-1274.898c2.24,1.548,4.573,2.76,7,3.64c2.426,0.88,5.16,1.32,8.2,1.32c3.092,0,5.36-0.44,6.8-1.32
		s2.16-2.012,2.16-3.399c0-1.387-0.934-2.547-2.8-3.48c-1.868-0.933-4.8-1.933-8.8-3c-1.867-0.479-3.68-1.066-5.44-1.76
		c-1.76-0.692-3.308-1.492-4.64-2.4c-1.333-0.906-2.4-1.946-3.2-3.12c-0.8-1.172-1.2-2.506-1.2-4c0-3.466,1.493-6.292,4.48-8.479
		c2.986-2.187,7.28-3.28,12.88-3.28c3.2,0,6.212,0.534,9.04,1.601c2.827,1.067,5.253,2.268,7.28,3.6l-4.24,5.68
		c-1.76-1.172-3.64-2.12-5.64-2.84s-4.12-1.08-6.36-1.08c-3.04,0-5.173,0.414-6.4,1.24c-1.228,0.827-1.84,1.854-1.84,3.08
		c0,0.693,0.28,1.32,0.84,1.88c0.56,0.561,1.333,1.067,2.32,1.521c0.986,0.453,2.146,0.894,3.48,1.319
		c1.333,0.428,2.8,0.828,4.4,1.2c2.292,0.588,4.36,1.24,6.2,1.96c1.84,0.72,3.413,1.534,4.72,2.44
		c1.306,0.907,2.32,1.974,3.04,3.199c0.72,1.228,1.08,2.641,1.08,4.24c0,1.708-0.4,3.294-1.2,4.76
		c-0.8,1.468-1.974,2.748-3.52,3.841c-1.547,1.094-3.467,1.96-5.76,2.6c-2.294,0.64-4.934,0.96-7.92,0.96
		c-3.68,0-7.2-0.588-10.56-1.76c-3.36-1.173-6.268-2.612-8.72-4.32L2920.783-1274.898z"/>
	<path d="M2967.822-1274.898c2.24,1.548,4.573,2.76,7,3.64c2.426,0.88,5.16,1.32,8.2,1.32c3.092,0,5.36-0.44,6.8-1.32
		s2.16-2.012,2.16-3.399c0-1.387-0.934-2.547-2.8-3.48c-1.868-0.933-4.8-1.933-8.8-3c-1.867-0.479-3.68-1.066-5.44-1.76
		c-1.76-0.692-3.308-1.492-4.64-2.4c-1.333-0.906-2.4-1.946-3.2-3.12c-0.8-1.172-1.2-2.506-1.2-4c0-3.466,1.493-6.292,4.48-8.479
		c2.986-2.187,7.28-3.28,12.88-3.28c3.2,0,6.212,0.534,9.04,1.601c2.827,1.067,5.253,2.268,7.28,3.6l-4.24,5.68
		c-1.76-1.172-3.64-2.12-5.64-2.84s-4.12-1.08-6.36-1.08c-3.04,0-5.173,0.414-6.4,1.24c-1.228,0.827-1.84,1.854-1.84,3.08
		c0,0.693,0.28,1.32,0.84,1.88c0.56,0.561,1.333,1.067,2.32,1.521c0.986,0.453,2.146,0.894,3.48,1.319
		c1.333,0.428,2.8,0.828,4.4,1.2c2.292,0.588,4.36,1.24,6.2,1.96c1.84,0.72,3.413,1.534,4.72,2.44
		c1.306,0.907,2.32,1.974,3.04,3.199c0.72,1.228,1.08,2.641,1.08,4.24c0,1.708-0.4,3.294-1.2,4.76
		c-0.8,1.468-1.974,2.748-3.52,3.841c-1.547,1.094-3.467,1.96-5.76,2.6c-2.294,0.64-4.934,0.96-7.92,0.96
		c-3.68,0-7.2-0.588-10.56-1.76c-3.36-1.173-6.268-2.612-8.72-4.32L2967.822-1274.898z"/>
	<path d="M3050.222-1312.419c-1.44-0.586-2.84-1.012-4.2-1.279c-1.36-0.267-2.84-0.4-4.44-0.4c-3.04,0-5.24,0.734-6.6,2.2
		c-1.36,1.468-2.04,3.588-2.04,6.36v2.319h14.96v7.28h-14.96v32h-9.12v-32h-10.88v-6.88l10.88-0.4v-2.16
		c0-2.292,0.32-4.426,0.96-6.399s1.64-3.666,3-5.08c1.36-1.412,3.092-2.521,5.2-3.32c2.106-0.8,4.6-1.2,7.48-1.2
		c2.133,0,4.173,0.188,6.12,0.561c1.946,0.374,3.8,0.907,5.56,1.6L3050.222-1312.419z"/>
	<path d="M3058.301-1274.498c0-2.187,0.506-4.12,1.52-5.801c1.012-1.68,2.612-3.105,4.8-4.279c2.186-1.173,4.986-2.133,8.4-2.88
		c3.413-0.747,7.546-1.28,12.4-1.601c-0.16-2.24-0.96-4.08-2.4-5.52c-1.44-1.44-3.76-2.16-6.96-2.16c-2.24,0-4.44,0.413-6.6,1.24
		c-2.16,0.827-4.253,1.8-6.28,2.92l-3.36-6.16c2.4-1.387,5.146-2.641,8.24-3.76c3.093-1.12,6.32-1.681,9.68-1.681
		c5.492,0,9.68,1.454,12.56,4.36c2.88,2.907,4.32,7.107,4.32,12.6v23.28h-7.52l-0.72-4.88h-0.24c-2.08,1.6-4.388,2.974-6.92,4.12
		c-2.534,1.146-5.134,1.72-7.8,1.72c-1.92,0-3.68-0.28-5.28-0.84c-1.6-0.561-2.987-1.347-4.16-2.36
		c-1.174-1.013-2.08-2.226-2.72-3.64C3058.621-1271.231,3058.301-1272.791,3058.301-1274.498z M3067.181-1275.219
		c0,1.761,0.68,3.04,2.04,3.84c1.36,0.801,3.026,1.2,5,1.2c1.972,0,3.88-0.439,5.72-1.319c1.84-0.881,3.667-2.04,5.48-3.48v-8.32
		c-3.52,0.268-6.454,0.628-8.8,1.08c-2.348,0.454-4.214,1.027-5.6,1.721c-1.387,0.693-2.374,1.479-2.96,2.359
		C3067.473-1277.259,3067.181-1276.285,3067.181-1275.219z"/>
	<path d="M3103.901-1283.538c0-3.2,0.48-6.08,1.44-8.641c0.96-2.56,2.252-4.72,3.88-6.479c1.626-1.761,3.48-3.12,5.56-4.08
		s4.24-1.44,6.48-1.44c2.346,0,4.36,0.414,6.04,1.24c1.68,0.827,3.32,1.96,4.92,3.4l-0.4-6.641v-14.24h9.28v56.48h-7.6l-0.72-4.56
		h-0.24c-1.547,1.547-3.347,2.854-5.4,3.92c-2.054,1.065-4.2,1.6-6.44,1.6c-2.507,0-4.8-0.468-6.88-1.4
		c-2.08-0.932-3.854-2.279-5.32-4.04c-1.467-1.76-2.6-3.906-3.4-6.439C3104.3-1277.391,3103.901-1280.285,3103.901-1283.538z
		 M3113.42-1283.618c0,4.268,0.827,7.507,2.48,9.72c1.652,2.214,4,3.32,7.04,3.32c3.253,0,6.213-1.573,8.88-4.721v-17.68
		c-1.388-1.332-2.774-2.267-4.16-2.8c-1.388-0.532-2.8-0.8-4.24-0.8c-1.387,0-2.68,0.293-3.88,0.88s-2.253,1.428-3.16,2.52
		c-0.908,1.094-1.628,2.44-2.16,4.04C3113.687-1287.538,3113.42-1285.698,3113.42-1283.618z"/>
	<path d="M3151.659-1283.538c0-3.2,0.573-6.08,1.72-8.641c1.146-2.56,2.652-4.732,4.52-6.52c1.866-1.786,4.012-3.146,6.44-4.08
		c2.426-0.933,4.92-1.4,7.48-1.4c2.933,0,5.532,0.468,7.8,1.4c2.266,0.934,4.172,2.214,5.72,3.84c1.546,1.628,2.72,3.588,3.52,5.88
		c0.8,2.294,1.2,4.8,1.2,7.521c0,0.907-0.04,1.76-0.12,2.56s-0.174,1.44-0.28,1.92h-28.56c0.32,3.521,1.707,6.228,4.16,8.12
		c2.453,1.894,5.466,2.84,9.04,2.84c2.026,0,3.92-0.28,5.68-0.84c1.76-0.56,3.546-1.347,5.36-2.36l3.12,5.761
		c-2.133,1.333-4.507,2.427-7.12,3.279c-2.614,0.853-5.36,1.28-8.24,1.28c-2.987,0-5.788-0.468-8.4-1.4
		c-2.614-0.932-4.88-2.279-6.8-4.04c-1.92-1.76-3.44-3.906-4.56-6.439C3152.219-1277.391,3151.659-1280.285,3151.659-1283.538z
		 M3181.579-1287.299c0-3.04-0.8-5.426-2.4-7.159s-3.974-2.601-7.12-2.601c-2.667,0-5.04,0.827-7.12,2.48s-3.388,4.08-3.92,7.279
		L3181.579-1287.299L3181.579-1287.299z"/>
	<path d="M3247.418-1316.259h9.36v23.761h0.24l18.64-23.761h10.32l-16.08,20.4l17.84,31.92h-10.32l-13.04-24.64l-7.6,9.359v15.28
		h-9.36L3247.418-1316.259L3247.418-1316.259z"/>
	<path d="M3294.377-1303.219h7.601l0.72,5.92h0.32c1.866-1.866,3.933-3.479,6.2-4.84c2.266-1.359,4.92-2.04,7.96-2.04
		c4.532,0,7.866,1.374,10,4.12c2.132,2.748,3.199,6.68,3.199,11.8v24.32h-9.279v-23.12c0-3.2-0.548-5.532-1.641-7
		c-1.094-1.466-3-2.2-5.72-2.2c-1.92,0-3.627,0.454-5.12,1.36c-1.493,0.907-3.147,2.294-4.96,4.16v26.8h-9.28L3294.377-1303.219
		L3294.377-1303.219z"/>
	<path d="M3339.096-1283.538c0-3.253,0.546-6.16,1.64-8.721c1.093-2.56,2.546-4.72,4.36-6.479c1.812-1.76,3.92-3.106,6.319-4.04
		c2.4-0.933,4.881-1.4,7.44-1.4s5.04,0.468,7.44,1.4c2.399,0.934,4.506,2.28,6.319,4.04c1.812,1.76,3.267,3.92,4.36,6.479
		c1.093,2.561,1.64,5.468,1.64,8.721s-0.547,6.159-1.64,8.72c-1.094,2.56-2.548,4.72-4.36,6.479c-1.813,1.761-3.92,3.094-6.319,4
		c-2.4,0.906-4.881,1.36-7.44,1.36s-5.04-0.454-7.44-1.36c-2.399-0.906-4.507-2.239-6.319-4c-1.814-1.76-3.268-3.92-4.36-6.479
		C3339.642-1277.379,3339.096-1280.285,3339.096-1283.538z M3348.616-1283.538c0,3.947,0.906,7.107,2.721,9.479
		c1.812,2.374,4.319,3.561,7.52,3.561s5.706-1.187,7.52-3.561c1.812-2.372,2.721-5.532,2.721-9.479c0-4-0.908-7.187-2.721-9.561
		c-1.813-2.372-4.319-3.56-7.52-3.56s-5.707,1.188-7.52,3.56C3349.522-1290.725,3348.616-1287.538,3348.616-1283.538z"/>
	<path d="M3388.456-1320.419h9.28v14.561l-0.32,6.88c1.707-1.6,3.627-2.866,5.761-3.8c2.132-0.933,4.266-1.4,6.399-1.4
		c2.561,0,4.826,0.468,6.801,1.4c1.972,0.934,3.652,2.268,5.039,4c1.387,1.733,2.44,3.827,3.16,6.28
		c0.721,2.453,1.08,5.199,1.08,8.239c0,3.36-0.479,6.36-1.439,9c-0.96,2.641-2.254,4.868-3.88,6.681
		c-1.628,1.813-3.494,3.199-5.601,4.159c-2.107,0.961-4.28,1.44-6.52,1.44c-1.868,0-3.814-0.454-5.84-1.36
		c-2.028-0.906-3.895-2.212-5.601-3.92h-0.24l-0.8,4.32h-7.28v-56.48H3388.456z M3397.736-1274.179c1.44,1.334,2.933,2.268,4.48,2.8
		c1.546,0.534,2.933,0.801,4.16,0.801c2.772,0,5.092-1.133,6.96-3.4c1.866-2.267,2.8-5.64,2.8-10.12c0-3.946-0.721-7.013-2.16-9.2
		c-1.44-2.186-3.76-3.279-6.96-3.279c-1.494,0-3.014,0.373-4.561,1.12s-3.119,1.947-4.72,3.6L3397.736-1274.179L3397.736-1274.179z"
		/>
	<path d="M3438.215-1274.898c2.239,1.548,4.572,2.76,7,3.64c2.426,0.88,5.16,1.32,8.2,1.32c3.092,0,5.359-0.44,6.8-1.32
		c1.439-0.88,2.16-2.012,2.16-3.399c0-1.387-0.935-2.547-2.801-3.48c-1.867-0.933-4.8-1.933-8.8-3
		c-1.867-0.479-3.68-1.066-5.439-1.76c-1.761-0.692-3.308-1.492-4.641-2.4c-1.334-0.906-2.399-1.946-3.2-3.12
		c-0.8-1.172-1.199-2.506-1.199-4c0-3.466,1.492-6.292,4.479-8.479c2.986-2.187,7.28-3.28,12.88-3.28c3.2,0,6.213,0.534,9.04,1.601
		c2.826,1.067,5.253,2.268,7.28,3.6l-4.24,5.68c-1.76-1.172-3.64-2.12-5.64-2.84s-4.12-1.08-6.36-1.08
		c-3.04,0-5.174,0.414-6.399,1.24c-1.228,0.827-1.841,1.854-1.841,3.08c0,0.693,0.28,1.32,0.841,1.88
		c0.56,0.561,1.332,1.067,2.319,1.521c0.986,0.453,2.146,0.894,3.48,1.319c1.332,0.428,2.8,0.828,4.399,1.2
		c2.293,0.588,4.36,1.24,6.2,1.96s3.413,1.534,4.72,2.44c1.307,0.907,2.32,1.974,3.04,3.199c0.721,1.228,1.08,2.641,1.08,4.24
		c0,1.708-0.399,3.294-1.199,4.76c-0.801,1.468-1.975,2.748-3.521,3.841c-1.548,1.094-3.468,1.96-5.76,2.6
		c-2.294,0.64-4.934,0.96-7.92,0.96c-3.681,0-7.2-0.588-10.561-1.76c-3.359-1.173-6.268-2.612-8.72-4.32L3438.215-1274.898z"/>
</g>
<g class="st8">
	<path d="M6387.151-1313.211h9.36v23.761h0.24l18.64-23.761h10.32l-16.08,20.4l17.84,31.92h-10.32l-13.039-24.64l-7.601,9.359v15.28
		h-9.36V-1313.211z"/>
	<path d="M6432.51-1280.491c0-3.2,0.572-6.08,1.721-8.641c1.146-2.56,2.652-4.732,4.52-6.52c1.866-1.786,4.012-3.146,6.439-4.08
		c2.427-0.933,4.92-1.4,7.48-1.4c2.933,0,5.532,0.468,7.8,1.4c2.267,0.934,4.173,2.214,5.72,3.84
		c1.547,1.628,2.721,3.588,3.521,5.88c0.8,2.294,1.2,4.8,1.2,7.521c0,0.907-0.041,1.76-0.12,2.56c-0.08,0.8-0.174,1.44-0.28,1.92
		h-28.561c0.32,3.521,1.707,6.228,4.16,8.12c2.453,1.894,5.467,2.84,9.041,2.84c2.025,0,3.92-0.28,5.68-0.84s3.546-1.347,5.359-2.36
		l3.12,5.761c-2.134,1.333-4.507,2.427-7.12,3.279s-5.359,1.28-8.24,1.28c-2.986,0-5.787-0.468-8.399-1.4
		c-2.614-0.932-4.88-2.279-6.8-4.04c-1.92-1.76-3.44-3.906-4.561-6.439C6433.071-1274.343,6432.51-1277.238,6432.51-1280.491z
		 M6462.43-1284.251c0-3.04-0.8-5.426-2.4-7.159s-3.973-2.601-7.119-2.601c-2.668,0-5.041,0.827-7.12,2.48
		c-2.08,1.653-3.388,4.08-3.921,7.279L6462.43-1284.251L6462.43-1284.251z"/>
	<path d="M6483.31-1252.332c0.532,0.106,1.093,0.16,1.68,0.16c2.507,0,4.507-0.627,6-1.88c1.493-1.254,2.64-2.867,3.44-4.84
		l0.959-2.48l-17.6-38.8h9.2l8.08,19.28c0.746,1.76,1.466,3.628,2.16,5.6c0.692,1.975,1.413,3.948,2.159,5.92h0.32
		c0.586-1.866,1.227-3.786,1.92-5.76c0.693-1.973,1.36-3.893,2-5.76l7.121-19.28h8.719l-16.399,41.04c-0.854,2.24-1.8,4.24-2.84,6
		s-2.254,3.267-3.64,4.521c-1.389,1.252-2.988,2.212-4.801,2.88c-1.813,0.666-3.894,1-6.24,1c-1.066,0-2.08-0.067-3.039-0.2
		c-0.961-0.134-1.814-0.334-2.561-0.6l1.76-7.2C6482.243-1252.571,6482.776-1252.439,6483.31-1252.332z"/>
	<path d="M6530.909-1271.851c2.24,1.548,4.572,2.76,7,3.64c2.426,0.88,5.16,1.32,8.2,1.32c3.093,0,5.36-0.44,6.8-1.32
		s2.16-2.012,2.16-3.399c0-1.387-0.934-2.547-2.8-3.48c-1.868-0.933-4.8-1.933-8.8-3c-1.867-0.479-3.68-1.066-5.44-1.76
		c-1.76-0.692-3.308-1.492-4.64-2.4c-1.334-0.906-2.4-1.946-3.2-3.12c-0.8-1.172-1.2-2.506-1.2-4c0-3.466,1.492-6.292,4.48-8.479
		c2.986-2.187,7.279-3.28,12.88-3.28c3.2,0,6.212,0.534,9.04,1.601c2.826,1.067,5.252,2.268,7.279,3.6l-4.24,5.68
		c-1.76-1.172-3.639-2.12-5.639-2.84s-4.121-1.08-6.361-1.08c-3.039,0-5.173,0.414-6.399,1.24c-1.228,0.827-1.84,1.854-1.84,3.08
		c0,0.693,0.28,1.32,0.84,1.88c0.56,0.561,1.333,1.067,2.32,1.521c0.985,0.453,2.146,0.894,3.479,1.319
		c1.333,0.428,2.801,0.828,4.4,1.2c2.293,0.588,4.359,1.24,6.199,1.96c1.841,0.72,3.413,1.534,4.721,2.44
		c1.307,0.907,2.32,1.974,3.04,3.199c0.72,1.228,1.08,2.641,1.08,4.24c0,1.708-0.399,3.294-1.2,4.76
		c-0.8,1.468-1.974,2.748-3.52,3.841c-1.548,1.094-3.468,1.96-5.76,2.6c-2.295,0.64-4.935,0.96-7.92,0.96
		c-3.681,0-7.201-0.588-10.561-1.76c-3.36-1.173-6.268-2.612-8.721-4.32L6530.909-1271.851z"/>
</g>
<line class="st9" x1="4425.002" y1="-570.351" x2="3546.29" y2="-570.351"/>
<line class="st9" x1="5115.962" y1="-437.75" x2="5115.962" y2="-1282.113"/>
<polyline class="st9" points="6026.662,902.098 6026.662,-1282.113 6309.788,-1282.113 "/>
<polyline class="st9" points="3546.29,-1282.113 5532.057,-1282.113 5539.787,-1282.113 5539.787,-436.35 "/>
<line class="st9" x1="4462.403" y1="677.8" x2="3546.29" y2="677.8"/>
<g class="st8">
	<path d="M2869.183,643.332h17.6c2.88,0,5.532,0.268,7.96,0.801c2.426,0.533,4.533,1.439,6.32,2.72c1.787,1.28,3.173,2.947,4.16,5
		c0.986,2.054,1.48,4.6,1.48,7.64c0,2.88-0.507,5.388-1.52,7.521c-1.014,2.134-2.414,3.907-4.2,5.319
		c-1.787,1.414-3.894,2.454-6.32,3.12c-2.427,0.668-5.054,1-7.88,1h-8.32v19.2h-9.28V643.332z M2886.063,669.013
		c7.68,0,11.52-3.173,11.52-9.521c0-3.306-0.96-5.586-2.88-6.84c-1.92-1.253-4.8-1.88-8.64-1.88h-7.6v18.24h7.6V669.013z"/>
	<path d="M2915.983,656.372h26.24v39.28h-9.2v-32h-17.04V656.372z M2936.943,649.492c-1.868,0-3.428-0.56-4.68-1.68
		c-1.254-1.12-1.88-2.612-1.88-4.48c0-1.866,0.626-3.372,1.88-4.52c1.252-1.146,2.812-1.72,4.68-1.72c1.92,0,3.492,0.573,4.72,1.72
		c1.227,1.147,1.84,2.653,1.84,4.52c0,1.868-0.614,3.36-1.84,4.48C2940.435,648.933,2938.862,649.492,2936.943,649.492z"/>
	<path d="M2971.502,663.652h-10.48v-6.88l10.88-0.4l1.2-10.72h7.6v10.72h17.92v7.28h-17.92v16.16c0,3.254,0.667,5.64,2,7.16
		c1.333,1.52,3.68,2.279,7.04,2.279c1.707,0,3.252-0.146,4.64-0.439c1.386-0.293,2.72-0.68,4-1.16l1.76,6.72
		c-1.76,0.588-3.708,1.107-5.84,1.561c-2.134,0.452-4.4,0.68-6.8,0.68c-2.988,0-5.494-0.4-7.52-1.2
		c-2.028-0.8-3.667-1.933-4.92-3.399c-1.253-1.467-2.16-3.24-2.72-5.32s-0.84-4.372-0.84-6.88L2971.502,663.652L2971.502,663.652z"
		/>
	<path d="M3009.181,676.053c0-3.253,0.6-6.16,1.8-8.721c1.2-2.56,2.812-4.72,4.84-6.479c2.026-1.76,4.4-3.106,7.12-4.04
		c2.72-0.933,5.572-1.4,8.56-1.4c3.2,0,6.012,0.534,8.44,1.601c2.426,1.067,4.466,2.373,6.12,3.92l-4.4,5.76
		c-1.547-1.227-3.107-2.16-4.68-2.8c-1.574-0.641-3.24-0.96-5-0.96c-3.948,0-7.147,1.188-9.6,3.56
		c-2.454,2.374-3.68,5.561-3.68,9.561c0,1.974,0.32,3.76,0.96,5.359c0.64,1.601,1.533,2.974,2.68,4.12
		c1.146,1.147,2.52,2.027,4.12,2.64c1.6,0.614,3.36,0.921,5.28,0.921c2.24,0,4.28-0.427,6.12-1.28s3.533-1.866,5.08-3.04l3.84,5.92
		c-2.24,1.974-4.748,3.454-7.52,4.44c-2.773,0.985-5.574,1.479-8.4,1.479c-3.094,0-5.96-0.454-8.6-1.36s-4.934-2.239-6.88-4
		c-1.948-1.76-3.468-3.92-4.56-6.479C3009.727,682.212,3009.181,679.306,3009.181,676.053z"/>
	<path d="M3056.941,639.172h9.28v14.561l-0.56,8.4c1.812-1.812,3.853-3.387,6.12-4.721c2.266-1.332,4.92-2,7.96-2
		c4.533,0,7.866,1.374,10,4.12c2.133,2.748,3.2,6.68,3.2,11.8v24.32h-9.28v-23.12c0-3.2-0.547-5.532-1.64-7
		c-1.094-1.466-3-2.2-5.72-2.2c-1.92,0-3.627,0.454-5.12,1.36c-1.494,0.907-3.147,2.294-4.96,4.16v26.8h-9.28V639.172z"/>
	<path d="M3159.258,708.452h-7.92l26.32-69.6h7.92L3159.258,708.452z"/>
	<path d="M3244.457,643.332h9.44l14,29.44l4.88,11.12h0.24c-0.214-2.721-0.48-5.641-0.8-8.76c-0.32-3.12-0.48-6.146-0.48-9.08
		v-22.721h8.88v52.32h-9.44l-14-29.52l-4.88-11.04h-0.24c0.212,2.773,0.48,5.68,0.8,8.72s0.48,6.027,0.48,8.96v22.88h-8.88V643.332z
		"/>
	<path d="M3289.817,676.053c0-3.253,0.546-6.16,1.64-8.721c1.093-2.56,2.546-4.72,4.36-6.479c1.812-1.76,3.92-3.106,6.32-4.04
		c2.4-0.933,4.88-1.4,7.44-1.4s5.04,0.468,7.44,1.4c2.4,0.934,4.506,2.28,6.32,4.04c1.812,1.76,3.267,3.92,4.36,6.479
		c1.092,2.561,1.64,5.468,1.64,8.721s-0.547,6.159-1.64,8.72c-1.094,2.56-2.548,4.72-4.36,6.479c-1.813,1.761-3.92,3.094-6.32,4
		s-4.88,1.36-7.44,1.36s-5.04-0.454-7.44-1.36s-4.507-2.239-6.32-4c-1.814-1.76-3.268-3.92-4.36-6.479
		C3290.363,682.212,3289.817,679.306,3289.817,676.053z M3299.337,676.053c0,3.947,0.906,7.107,2.72,9.479
		c1.812,2.374,4.32,3.561,7.52,3.561s5.706-1.187,7.52-3.561c1.812-2.372,2.72-5.532,2.72-9.479c0-4-0.908-7.187-2.72-9.561
		c-1.814-2.372-4.32-3.56-7.52-3.56s-5.708,1.188-7.52,3.56C3300.243,668.866,3299.337,672.053,3299.337,676.053z"/>
	<path d="M3339.336,656.372h26.24v39.28h-9.2v-32h-17.04V656.372z M3360.296,649.492c-1.868,0-3.428-0.56-4.68-1.68
		c-1.254-1.12-1.88-2.612-1.88-4.48c0-1.866,0.626-3.372,1.88-4.52c1.252-1.146,2.812-1.72,4.68-1.72c1.92,0,3.492,0.573,4.72,1.72
		c1.227,1.147,1.84,2.653,1.84,4.52c0,1.868-0.614,3.36-1.84,4.48C3363.788,648.933,3362.216,649.492,3360.296,649.492z"/>
	<path d="M3388.935,684.692c2.24,1.548,4.573,2.76,7,3.64c2.426,0.88,5.16,1.32,8.2,1.32c3.092,0,5.36-0.44,6.8-1.32
		s2.16-2.012,2.16-3.399c0-1.387-0.934-2.547-2.8-3.48c-1.868-0.933-4.8-1.933-8.8-3c-1.867-0.479-3.68-1.066-5.44-1.76
		c-1.76-0.692-3.308-1.492-4.64-2.4c-1.333-0.906-2.4-1.946-3.2-3.12c-0.8-1.172-1.2-2.506-1.2-4c0-3.466,1.493-6.292,4.48-8.479
		c2.986-2.187,7.28-3.28,12.88-3.28c3.2,0,6.212,0.534,9.04,1.601c2.827,1.067,5.253,2.268,7.28,3.6l-4.24,5.68
		c-1.76-1.172-3.64-2.12-5.64-2.84s-4.12-1.08-6.36-1.08c-3.04,0-5.173,0.414-6.4,1.24c-1.228,0.827-1.84,1.854-1.84,3.08
		c0,0.693,0.28,1.32,0.84,1.88c0.56,0.561,1.333,1.067,2.32,1.521c0.986,0.453,2.146,0.894,3.48,1.319
		c1.333,0.428,2.8,0.828,4.4,1.2c2.292,0.588,4.36,1.24,6.2,1.96c1.84,0.72,3.413,1.534,4.72,2.44
		c1.306,0.907,2.32,1.974,3.04,3.199c0.72,1.228,1.08,2.641,1.08,4.24c0,1.708-0.4,3.294-1.2,4.76
		c-0.8,1.468-1.974,2.748-3.52,3.841c-1.547,1.094-3.467,1.96-5.76,2.6c-2.294,0.64-4.934,0.96-7.92,0.96
		c-3.68,0-7.2-0.588-10.56-1.76c-3.36-1.173-6.268-2.612-8.72-4.32L3388.935,684.692z"/>
	<path d="M3431.654,676.053c0-3.2,0.573-6.08,1.72-8.641c1.146-2.56,2.652-4.732,4.52-6.52c1.866-1.786,4.012-3.146,6.44-4.08
		c2.426-0.933,4.92-1.4,7.48-1.4c2.933,0,5.532,0.468,7.8,1.4c2.266,0.934,4.172,2.214,5.72,3.84c1.546,1.628,2.72,3.588,3.52,5.88
		c0.8,2.294,1.2,4.8,1.2,7.521c0,0.907-0.04,1.76-0.12,2.56s-0.174,1.44-0.28,1.92h-28.56c0.32,3.521,1.707,6.228,4.16,8.12
		c2.453,1.894,5.466,2.84,9.04,2.84c2.026,0,3.92-0.28,5.68-0.84s3.546-1.347,5.36-2.36l3.12,5.761
		c-2.133,1.333-4.507,2.427-7.12,3.279c-2.614,0.853-5.36,1.28-8.24,1.28c-2.987,0-5.788-0.468-8.4-1.4
		c-2.614-0.932-4.88-2.279-6.8-4.04c-1.92-1.76-3.44-3.906-4.56-6.439C3432.215,682.2,3431.654,679.306,3431.654,676.053z
		 M3461.574,672.292c0-3.04-0.8-5.426-2.4-7.159s-3.974-2.601-7.12-2.601c-2.667,0-5.04,0.827-7.12,2.48
		c-2.08,1.653-3.388,4.08-3.92,7.279h20.56V672.292z"/>
</g>
</svg>
