<?xml version="1.0" encoding="utf-8"?>
<!-- Generator: Adobe Illustrator 19.0.0, SVG Export Plug-In . SVG Version: 6.00 Build 0)  -->
<svg version="1.1" id="Layer_1" xmlns="http://www.w3.org/2000/svg" xmlns:xlink="http://www.w3.org/1999/xlink" x="0px" y="0px"
	 viewBox="1486.899 -1722.34 6063.103 3477.34" style="enable-background:new 1486.899 -1722.34 6063.103 3477.34;"
	 xml:space="preserve">
<style type="text/css">
	.st0{fill:none;stroke:#000000;stroke-width:15;stroke-miterlimit:10;}
	.st1{display:none;}
	.st2{display:inline;}
	.st3{fill:#FFFFFF;stroke:#231F20;stroke-width:0.5;stroke-miterlimit:10;}
	.st4{stroke:#231F20;stroke-width:0.5;stroke-miterlimit:10;}
	.st5{fill:none;stroke:#000000;stroke-width:7;stroke-miterlimit:10;}
	.st6{fill:none;stroke:#231F20;stroke-width:7;stroke-miterlimit:10;}
	.st7{display:inline;fill:none;stroke:#000000;stroke-width:7;stroke-miterlimit:10;}
	.st8{display:inline;fill:none;stroke:#231F20;stroke-width:7;stroke-miterlimit:10;}
	.st9{display:inline;fill:none;stroke:#231F20;stroke-width:2.5;stroke-miterlimit:10;}
	.st10{display:inline;fill:none;stroke:#231F20;stroke-width:5;stroke-miterlimit:10;}
	.st11{fill:none;stroke:#231F20;stroke-width:5;stroke-miterlimit:10;}
	.st12{fill:url(#XMLID_68_);}
	.st13{fill:url(#XMLID_70_);}
	.st14{fill:#231F20;}
	.st15{fill:none;stroke:#231F20;stroke-width:3;stroke-miterlimit:10;}
	.st16{fill:url(#XMLID_80_);}
	.st17{fill:url(#XMLID_81_);}
	.st18{fill:none;}
	.st19{font-family:'SourceCodePro-Semibold';}
	.st20{font-size:70px;}
	.st21{letter-spacing:-1;}
	.st22{fill:none;stroke:#000000;stroke-width:10;stroke-miterlimit:10;}
</style>
<g id="Layer_1_2_">
	<g id="Layer_1_1_">
		
			<image style="display:none;overflow:visible;enable-background:new    ;" width="5312" height="2988" xlink:href="../../../../../../Downloads/20160919_165215.jpg"  transform="matrix(1 0 0 1 2192.7444 -1276.8999)">
		</image>
		
			<image style="display:none;overflow:visible;enable-background:new    ;" width="5312" height="2988" xlink:href="../../../../../../Downloads/20160919_165215.jpg"  transform="matrix(1 0 0 1 2192.7444 -1276.8999)">
		</image>
		<g id="Body">
			<line id="XMLID_2_" class="st0" x1="4816.202" y1="1228.64" x2="4821.202" y2="1441.44"/>
			<path id="XMLID_3_" class="st0" d="M7663.502,1617.14H2759.902c-116.7,0-160.9-76.3-250.8-193
				c-89.9-116.7-126.2-143.6-78.9-334.5c18.9-75.7,575.6-1972.7,575.6-1972.7c3.2-8.6,8.7-19.1,15.1-28.2
				c6.4-9.1,34.5-47.1,34.5-47.1s-522.9,1836.8-567.5,1992.7c-44.6,156,36.2,222.8,125.3,222.8h2183.8c10.6,0,19.2-8.6,19.2-19.1
				l4-1925c0,0,0-7.2,0-24.8c0-4.4,0-10.3-0.1-16.8c-0.2-34,27.3-61.7,61.4-61.7c0.2,0,2678.7,0,2678.9,0h-2678.3"/>
			<path id="XMLID_4_" class="st0" d="M2479.602,1386.14c34.2,26.9,94.2,55.3,160.4,55.3c66.3,0,2181.2,0,2181.2,0l0.6,108.9h2841.6
				"/>
			<path id="XMLID_5_" class="st0" d="M7560.402-1054.26h-4278.5c0,0-13.5,0-35.2,0c-115.9,0-184.1,70.5-192.3,98.5"/>
		</g>
		<path class="st0" d="M3227.402-903.36l-30.6,125h421.7l26.4-125c0,0-156.9-16.5-227.2-16.5
			C3347.402-919.86,3227.402-903.36,3227.402-903.36z"/>
		<path class="st0" d="M3196.802-778.36c0,0,96.6-48.1,202.1-48.1c101,0,219.6,48.1,219.6,48.1"/>
		<line class="st0" x1="3403.802" y1="-908.76" x2="3390.402" y2="-843.36"/>
		<line class="st0" x1="3427.501" y1="-908.76" x2="3414.201" y2="-843.36"/>
		<path class="st0" d="M3391.701-851.16c-2.9-14.2-15.5-24.9-30.5-24.9c-17.2,0-31.1,13.9-31.1,31.1c0,4.9,0,11,0,14.9"/>
		<path class="st0" d="M3502.402-826.46c0-8.5,0-11.6,0-18.5c0-17.2-13.9-31.1-31.1-31.1c-17.2,0-31.1,13.9-31.1,31.1
			c0,3.4-0.1,5.1-0.1,8.3"/>
		<line class="st0" x1="3618.501" y1="-899.06" x2="3515.302" y2="-866.36"/>
		<line class="st0" x1="3242.201" y1="-896.36" x2="3330.001" y2="-871.66"/>
		<path class="st0" d="M4115.001-718.66c52.5,11.3,88.8,49,85.3,94.4c-4.2,55.3-65.8,100.8-137.3,100.8
			c-71.6,0-124.4-45.5-118-100.8c2.9-25.2,17.6-48,39.4-65.3"/>
		<path class="st0" d="M4097.001-710.16c-1.2,11.2-7.6,21.4-17,29c-3.3,2.7-24.5-23.1-28.5-21.1c-4.2,2.1,8.8,31.9,4,33
			s-9.7,1.7-14.7,1.7c-28.5,0-49.1-19.1-46.1-42.6c2.9-23.3,28.1-42,56.2-42C4078.902-752.16,4099.602-733.46,4097.001-710.16z"/>
		<path class="st0" d="M3981.302-622.86l3.6-67.2c0,0-1.3-16.9,15.7-36.4"/>
		<path class="st0" d="M4148.802-660.56c0,0-27.4-49.9-33.2-58c-6.7-9.2-19.3-33.6-64.7-33.6"/>
		<path class="st0" d="M3994.402-600.36c0,0,17.4,28.9,66.8,28.9c49.4,0,66.8-28.9,66.8-28.9"/>
		<path d="M3982.701-484.66c-0.8,6.3-7.4,11.5-14.8,11.5s-12.7-5.1-11.9-11.5c0.8-6.3,7.4-11.4,14.8-11.4
			S3983.501-490.96,3982.701-484.66z"/>
		<path d="M4162.002-484.66c-0.6,6.3-7,11.4-14.3,11.4c-7.3,0-12.7-5.1-12.1-11.4c0.6-6.3,7-11.4,14.3-11.4
			C4157.202-496.06,4162.602-490.96,4162.002-484.66z"/>
		<path class="st0" d="M4525.202-710.56c-0.9,21.5-25,39-53.8,39c-4.8,0-9.5-0.5-13.9-1.4c-3.4-0.7,12.1-25.7,9-26.9
			c-3.7-1.5-25.9,20.7-29,18.6c-10.4-7.2-16.6-17.6-15.9-29.3c1.3-21.4,25.3-38.6,53.8-38.6S4526.202-731.96,4525.202-710.56z"/>
		<path class="st0" d="M4404.902-635.46l4.7-55.8c0,0-0.9,11,0.7-8.2c1.6-18.9,15.4-49.7,65.1-49.7s65.3,36.5,65.3,36.5l25.3,60.5"
			/>
		<path class="st0" d="M4419.102-600.36c0,0,16.4,27.6,63.4,27.6c46.9,0,67.2-27.6,67.2-27.6"/>
		<path class="st0" d="M4543.402-706.36c39.9,15.4,66.7,47.6,65.6,85.2c-1.6,53.5-59.1,97.6-128.3,97.6c-69.2,0-122.3-44-118.7-97.6
			c2-29.2,20.4-55.1,47.9-72.4"/>
		<path d="M4403.602-483.26c-0.4,6.7-7.4,12.1-15.7,12.1s-14.6-5.4-14.2-12.1s7.5-12,15.7-12
			C4397.702-495.36,4404.002-489.96,4403.602-483.26z"/>
		<path d="M4583.102-483.26c-0.2,6.7-7.3,12.1-15.8,12.1s-15.1-5.4-14.9-12.1c0.3-6.7,7.3-12,15.8-12
			S4583.302-489.96,4583.102-483.26z"/>
		<path class="st0" d="M4148.001,397.14c97.6,19.6,167,101.4,160.6,200.9l-1.5,23.5c-7.6,118.4-118.3,218-245.8,218h-754.4
			c-127.5,0-210.5-99.6-185.2-218l5-23.5c19.7-91.9,99.9-168.8,193.2-195.4"/>
		<path class="st0" d="M3694.802,347.84l457.3-0.7l-6.9,51.5c0,0-22.6,78.2-29.5,133.1c-6.9,54.8-7.5,165.4-7.5,165.4h-865
			c0,0,4.8-68.6,27.1-160.2s49.5-130.3,49.5-130.3l15.8-58.1l143.5-0.2"/>
		<path class="st0" d="M3279.102,682.34c84.7-42.9,163.3-69.8,239.7-76.3c10.9-0.9,12.8-13.9,9.9-32.8l-55.2-168.7l18.3-104.7h165.4
			l-16,104.8l78,171.6c0,0,11.9,22.7,34.6,25c22.7,2.4,240.9,26.2,319.6,58.4"/>
		<path class="st0" d="M3311.302,522.04c28.6-13.8,151.3-53.9,181.8-57.7"/>
		<path class="st0" d="M3657.201,299.74l99,139.3c0,0,7.2,17.9,34.6,17.9c27.4,0,155.1,1.2,298.2,54.9"/>
		<line class="st0" x1="3522.302" y1="473.74" x2="3628.001" y2="473.74"/>
		<line class="st0" x1="3538.201" y1="514.64" x2="3643.902" y2="514.64"/>
		<path class="st0" d="M5042.902-586.16h-152.3c-8.8,0-16,7.2-16,16l-10,1854.3c0,8.8,7.2,16,16,16h341.9l69.3,0.1
			c11.3,0,20.1-9.6,19.2-20.8l-5.6-69.5l-43.8-712c-0.7-18.5-14.4-27.4-40.6-27.1l-125.2-0.7l-36.9-1040.3
			C5058.902-578.96,5051.702-586.16,5042.902-586.16z"/>
		<path class="st0" d="M5454.202-586.16l-155.5,0.1c-8.4,0-15.1,7.2-14.3,15.6l89.4,1039.5l-49.6-0.5h-1.9
			c-19.7,0.1-35.2,16.8-33.9,36.4l1.4,21.1l55.2,757.9c0,8.8,7.2,16,16,16h385.3l41.3-0.1c9.3,0,16.3-8.3,14.9-17.4l-7.3-47.4
			l-107.5-739.5c-2.2-14.8-14.9-25.9-29.9-25.9h-4.5h-51l-131.9-1040C5470.202-578.96,5463.002-586.16,5454.202-586.16z"/>
		<path class="st0" d="M5718.702,537.44l108.6,745.7c0.1,0.6,0.1,1.2,0.2,1.8c0.5,8.4,7.5,15.1,16,15.1h353.1l74.8-1.9
			c10.7-0.3,18.5-10.1,16.3-20.6l-17.5-84.6l-380.2-1762.2c-0.1-0.6-0.2-1.2-0.2-1.9c-0.5-8.4-7.5-15.1-16-15.1h-150.3
			c-2.2,0-4.3,0.5-6.2,1.3c-7.3,3.1-10.8,11.4-8.5,18.9l186.9,1035.8h-168.3c-9.7,0-17.1,8.6-15.7,18.2L5718.702,537.44z"/>
		<path class="st0" d="M6550.602,515.34l223.9,768.8c0,8.8-7.2,16-16,16h-417.3c-8.8,0-16-7.2-16-16l-414-1854.3c0-8.8,7.2-16,16-16
			h141.3c8.8,0,16,7.2,16,16l277.2,1040h157.9c10.5,0,19.8,7,22.7,17.1L6550.602,515.34z"/>
		<path class="st0" d="M6591.402,257.84l68.7,212h-70.3c-12.8,0-22,12.3-18.4,24.6l13.5,45.4l222.2,747.9c0,8.8,7.2,16,16,16h439.3
			c8.8,0,16-7.2,16-16l-310.2-789l-3.7-9.5c-4.6-11.7-15.9-19.4-28.4-19.4h-97.1l-367.2-1040.5c0-8.8-7.2-16-16-16h-144.4"/>
		<path id="XMLID_56_" class="st0" d="M7062.902,417.24l23,52.6h-70.3c-12.8,0-22,12.3-18.4,24.6l13.5,45.4l302.2,747.9
			c0,8.8,7.2,16,16,16h459.3c8.8,0,16-7.2,16-16l-399.2-789l-3.7-9.5c-4.6-11.7-23.9-19.4-36.4-19.4h-27.1l-476.2-1040.5
			c0-8.8-7.2-16-16-16h-130.5"/>
		<path class="st0" d="M5708.902,469.84"/>
		<path class="st0" d="M5708.902,469.84"/>
		<path class="st0" d="M6537.402,469.84"/>
		<path class="st0" d="M6564.102,469.84"/>
		<path class="st0" d="M5133.302,471.04l4.3-37.8l36.3-167.4c-10.7-275.1-30.1-561.9-56.5-858.1c38.7-21.5,86.7-31,136.2-2.1
			c28.3,299.6,47.9,587.6,57.4,862.2l16.1,167.4v32.9"/>
		<path class="st0" d="M5184.002,273.94c36.7-8.3,74.4-7.9,112.9,0"/>
		<path class="st0" d="M5827.002,469.84l6.7-18.1c5-13.5,7.2-28,6.3-42.4l-8.6-143.3c-0.1-1.5-0.3-3-0.5-4.5
			c-45-284.8-94.3-570.3-148.8-856.8c-58.6-26.8-101.5-21.3-141-0.8c58.2,242.5,104.5,533.7,143.7,854.1c0.9,5.1,0.7,10.3-0.4,15.4
			l-34,154.9c-0.4,1.9-1,3.8-1.7,5.6l-13.5,35.9"/>
		<path class="st0" d="M5696.202,275.94c39.2-10.1,80.5-11.4,125,0"/>
		<path class="st0" d="M6545.802,498.74l28.4-45.6c8.9-14.3,13.8-30.8,14.1-47.6l2.9-140.7c0.1-4.6-0.6-9.2-2-13.5
			c-77.9-286.8-171.4-569.7-281.3-848.6c-56.3-25.4-97.2-14-137.2,0c114.1,272.5,208.4,553.9,279.3,845.7c2.9,8.7,2.7,18.1-0.5,26.7
			l-54.6,147.4c-0.7,1.8-1.4,3.5-2.3,5.2l-22.8,42.2"/>
		<path class="st0" d="M6464.802,260.74c40.7-5.7,79-8.5,111,0"/>
		<path class="st0" d="M6952.702,260.74c40.7-5.7,78.9-8.5,111,0"/>
		<path class="st0" d="M7471.902,260.74c40.7-5.7,78.9-8.5,111,0"/>
		<path class="st0" d="M6311.402-586.66"/>
		<line class="st0" x1="5152.602" y1="435.74" x2="5308.102" y2="435.74"/>
		<line class="st0" x1="5667.702" y1="435.74" x2="5823.202" y2="435.74"/>
		<line class="st0" x1="6409.902" y1="435.74" x2="6565.402" y2="435.74"/>
		<line class="st0" x1="6879.002" y1="435.74" x2="7034.502" y2="435.74"/>
		<line class="st0" x1="7394.502" y1="435.74" x2="7550.002" y2="435.74"/>
		<path class="st0" d="M5211.302-495.06"/>
		<line class="st0" x1="5064.102" y1="-538.06" x2="5117.402" y2="-592.16"/>
		<line class="st0" x1="5477.202" y1="-531.86" x2="5541.102" y2="-595.96"/>
		<line class="st0" x1="6102.502" y1="-502.66" x2="6170.702" y2="-597.26"/>
		<path class="st0" d="M6839.002,469.84l26.5-41.8c1.2-1.9,2.2-3.9,3.1-5.9l61.5-145.9c4.2-9.9,4.2-21,0.2-31
			c-117.2-380.9-231.5-649.8-343.9-842.5c40.5-19.6,82.3-23.2,124.1,0c148.1,286.1,268.2,568.5,366.4,848.1c2.8,6.5,3.9,13.7,3,20.7
			l-17,145.7c-0.8,7.2-3.6,14-8,19.8l-25,32.8"/>
		<line class="st0" x1="6586.302" y1="-597.26" x2="6499.602" y2="-491.76"/>
		<path class="st0" d="M7578.402,225.04c-137.5-302.6-286.4-578.2-451.4-822.4c-51.7-19.3-99.5-20.9-142.4,0
			c189,297.4,354.8,587.7,454.8,858.1l-80.9,162.7l-20.8,46.4"/>
		<line class="st0" x1="6895.602" y1="-496.26" x2="6984.602" y2="-597.26"/>
		<path class="st0" d="M7132.802-586.66h118.6c5.1,0,9.8,2.8,12.2,7.2l428.2,771.7"/>
		<path class="st0" d="M7644.202,53.94l-355.3-629.6c-2.8-4.9,0.7-11,6.4-11l189,0.4l193,313.4"/>
		<path class="st0" d="M7555.802,469.84h-102c-13.5,0-22.3,14.3-16.3,26.4l404.5,803.9"/>
		<line class="st0" x1="3492.802" y1="405.54" x2="3617.602" y2="405.54"/>
		<path class="st0" d="M4731.702-931.16l-31.8,2001.3c-0.7,41.2-34.3,74.3-75.5,74.3h-1919.5c-66.5,0-114.8-63.2-97.3-127.3
			l523.7-1926.8c12.8-46.9,55.4-79.5,104-79.5h1439.3C4706.502-989.16,4732.202-963.06,4731.702-931.16z"/>
		<g id="XMLID_50_" class="st1">
			<g id="XMLID_49_" class="st2">
				<path id="XMLID_61_" class="st3" d="M4649.602,1138.34h-1953.9c-65.3,0-104.3-53.2-86.8-117.3l527.3-1936.2
					c10.8-39.6,62.4-71.7,114.9-71.7h1384.5c48.4,0,87.6,29.6,87.1,66.1l-29.7,2016.5
					C4692.602,1119.14,4673.102,1138.34,4649.602,1138.34"/>
				<path id="XMLID_55_" class="st4" d="M4158.402,408.54l5-57h-819l-10.5,53.3c-100.7,24.5-189.6,106.2-211.3,204.9
					c-26.9,122.1,58.5,225,190.5,225h730.2c132,0,246.9-102.8,255.1-225C4304.702,515.54,4245.302,436.74,4158.402,408.54"/>
				<g id="XMLID_62_">
					<path id="XMLID_54_" class="st4" d="M4195.902-593.96c-5,52.6-63.4,95.8-130.4,95.8c-67,0-115.5-43.3-108.6-95.8
						c6.8-51.7,65-93.1,130.1-93.1C4152.002-687.06,4200.802-645.76,4195.902-593.96"/>
					<path id="XMLID_53_" class="st3" d="M4123.001-593.96c-2.2,20.4-24.9,37.1-50.8,37.1c-25.9,0-44.9-16.6-42.4-37.1
						c2.5-20.3,25.2-36.7,50.8-36.7S4125.202-614.26,4123.001-593.96"/>
				</g>
				<g id="XMLID_63_">
					<path id="XMLID_52_" class="st4" d="M4599.902-593.96c-1.7,52.6-57.4,95.8-124.4,95.8s-118.2-43.3-114.6-95.8
						c3.6-51.7,59.2-93.1,124.3-93.1C4550.202-687.06,4601.602-645.76,4599.902-593.96"/>
					<path id="XMLID_51_" class="st3" d="M4527.002-593.96c-0.9,20.4-22.6,37.1-48.5,37.1s-45.9-16.6-44.7-37.1
						c1.2-20.3,22.9-36.7,48.5-36.7S4527.902-614.26,4527.002-593.96"/>
				</g>
				<polygon id="XMLID_59_" class="st4" points="3627.802,-774.66 3205.602,-774.66 3236.802,-896.96 3650.902,-896.96 				"/>
			</g>
			<g id="XMLID_135_" class="st2">
				<line id="XMLID_83_" class="st5" x1="4698.402" y1="609.84" x2="4308.402" y2="609.84"/>
				<line id="XMLID_48_" class="st5" x1="3376.302" y1="-275.26" x2="3405.902" y2="-296.16"/>
				<line id="XMLID_47_" class="st5" x1="3405.902" y1="-296.16" x2="3385.102" y2="-316.96"/>
				<line id="XMLID_46_" class="st5" x1="3334.302" y1="-76.86" x2="3365.001" y2="-99.06"/>
				<line id="XMLID_45_" class="st5" x1="3365.001" y1="-99.06" x2="3343.701" y2="-121.06"/>
				<line id="XMLID_42_" class="st5" x1="3288.902" y1="134.64" x2="3322.201" y2="109.94"/>
				<line id="XMLID_41_" class="st5" x1="3322.201" y1="109.94" x2="3299.402" y2="85.44"/>
				<polyline id="XMLID_40_" class="st5" points="3347.102,-451.26 3222.902,109.94 3402.001,109.94 				"/>
				<line id="XMLID_39_" class="st5" x1="3371.902" y1="-670.26" x2="3392.602" y2="-650.66"/>
				<line id="XMLID_38_" class="st5" x1="3392.602" y1="-650.66" x2="3422.001" y2="-670.26"/>
				<line id="XMLID_19_" class="st5" x1="2973.602" y1="246.54" x2="2951.501" y2="221.04"/>
				<line id="XMLID_18_" class="st5" x1="2951.501" y1="221.04" x2="2916.402" y2="246.54"/>
				<line id="XMLID_60_" class="st5" x1="3419.602" y1="-778.46" x2="3367.402" y2="-542.76"/>
				<polyline id="XMLID_78_" class="st5" points="3122.501,609.84 2852.201,609.84 3135.001,-498.16 3301.701,-498.16 				"/>
				<line id="XMLID_15_" class="st5" x1="3270.602" y1="-99.06" x2="3441.602" y2="-99.06"/>
				<line id="XMLID_14_" class="st5" x1="3314.201" y1="-296.16" x2="3481.802" y2="-296.16"/>
				<polyline id="XMLID_29_" class="st6" points="3563.001,-99.06 3892.102,-99.06 3882.001,-22.86 3958.501,-22.86 				"/>
				<polyline id="XMLID_30_" class="st6" points="3524.102,109.94 3864.501,109.94 3875.701,24.94 3952.701,24.94 				"/>
				<line id="XMLID_31_" class="st6" x1="4065.602" y1="-497.16" x2="4014.902" y2="-50.56"/>
				<path id="XMLID_32_" class="st6" d="M3597.001-296.16h429.5h0.5c0.8-7.2,8.6-13.1,17.3-13.1s15.2,5.8,14.3,13.1h281l-5.2,74.2
					h74.3"/>
				<polyline id="XMLID_33_" class="st6" points="4069.102,0.94 4318.802,0.94 4331.302,-176.96 4405.402,-176.96 				"/>
				<line id="XMLID_34_" class="st6" x1="4474.602" y1="-497.16" x2="4461.802" y2="-248.26"/>
				<polyline id="XMLID_37_" class="st5" points="4517.702,-199.56 4585.702,-199.56 4572.002,214.94 4365.802,214.94 				"/>
			</g>
			<path id="_x28__x2B__x29_" class="st7" d="M3331.001-498.16h53 M3352.802-476.76l9.4-42.5 M3413.402-498.16
				c-5.3,24.9-34.8,45.1-65.9,45.1c-31.1,0-51.6-20.3-45.9-45.1c5.7-24.7,35.1-44.5,65.8-44.5
				C3398.102-542.66,3418.701-522.76,3413.402-498.16z"/>
			<g id="_x28_3_x29__1_" class="st2">
				<path id="XMLID_192_" class="st5" d="M3458.501,134.34l9.1-48.6 M3449.102,85.44h37.1 M3477.102,134.64h-37.3 M3479.602,134.34
					l9-48.6 M3470.102,85.44h37.1 M3498.201,134.64h-37.3 M3437.302,134.34l9.3-48.6 M3428.102,85.44h37.1 M3455.902,134.64h-37.3"
					/>
				<path id="XMLID_191_" class="st5" d="M3524.102,109.94c-5.3,29.7-37.2,53.9-71.2,53.9s-56.8-24.2-50.9-53.9
					c5.8-29.4,37.6-53.1,71.1-53.1C3506.501,56.84,3529.402,80.54,3524.102,109.94z"/>
			</g>
			<g id="_x28_2_x29_" class="st2">
				<path id="XMLID_139_" class="st5" d="M3514.501-74.96l8.5-45.8 M3505.102-121.06h36 M3532.602-74.66h-36.3 M3478.302-74.96
					l8.7-45.8 M3469.102-121.06h36 M3496.302-74.66h-36.3"/>
				<path id="XMLID_138_" class="st5" d="M3563.001-99.06c-5.1,28.6-36.7,51.9-70.4,51.9c-33.8,0-56.5-23.3-50.9-51.9
					c5.6-28.4,37-51.2,70.3-51.2C3545.201-150.16,3568.102-127.36,3563.001-99.06z"/>
			</g>
			<polygon id="XMLID_85_" class="st8" points="4332.902,203.44 4315.302,203.44 4315.802,196.84 4296.802,178.94 4291.602,251.24 
				4313.302,233.04 4313.802,225.44 4331.402,225.44 			"/>
			<g id="_x28_1_x29__1_" class="st2">
				<line id="XMLID_183_" class="st5" x1="3535.302" y1="-274.56" x2="3543.402" y2="-317.76"/>
				<line id="XMLID_182_" class="st5" x1="3526.001" y1="-318.06" x2="3561.001" y2="-318.06"/>
				<line id="XMLID_176_" class="st5" x1="3552.902" y1="-274.26" x2="3517.602" y2="-274.26"/>
				<path id="XMLID_175_" class="st5" d="M3597.001-296.16c-4.7,26.4-34.6,48-66.6,48s-53.8-21.6-48.6-48
					c5.1-26.2,34.9-47.3,66.5-47.3C3579.902-343.46,3601.701-322.36,3597.001-296.16z"/>
			</g>
			<path id="XMLID_74_" class="st7" d="M4043.701,24.94c-37.4,0-32-47.7-55.8-47.7h-13.4"/>
			<path id="XMLID_44_" class="st7" d="M4048.902-22.86c-5,0-13.4,0-13.4,0c-23.8,0-29.2,47.7-66.6,47.7"/>
			<path id="XMLID_43_" class="st7" d="M4069.102,0.94c-3,28.8-32.6,52.3-66.1,52.3s-57.7-23.5-54.2-52.3c3.5-28.6,33-51.5,66-51.5
				C4047.802-50.56,4072.201-27.56,4069.102,0.94z"/>
			<path id="XMLID_72_" class="st7" d="M4030.501,22.44"/>
			<line id="XMLID_88_" class="st9" x1="4006.001" y1="27.44" x2="4009.001" y2="0.94"/>
			<line id="XMLID_131_" class="st9" x1="4014.501" y1="27.44" x2="4016.402" y2="10.54"/>
			<line id="XMLID_144_" class="st9" x1="3997.402" y1="27.44" x2="3999.402" y2="10.54"/>
			<line id="XMLID_148_" class="st9" x1="3988.902" y1="27.44" x2="3990.001" y2="18.34"/>
			<line id="XMLID_132_" class="st9" x1="4023.102" y1="27.44" x2="4023.902" y2="19.74"/>
			<path id="XMLID_28_" class="st7" d="M4494.402-176.96c-36.3,0-34-45.1-57.1-45.1h-13"/>
			<path id="XMLID_27_" class="st7" d="M4496.502-222.06c-4.9,0-13,0-13,0c-23.1,0-25.4,45.1-61.8,45.1"/>
			<path id="XMLID_26_" class="st7" d="M4517.702-199.56c-1.2,27.2-28.5,49.4-61,49.4s-57.5-22.2-55.9-49.4
				c1.6-27,28.9-48.7,60.9-48.7C4493.802-248.26,4518.902-226.56,4517.702-199.56z"/>
			<path id="XMLID_25_" class="st7" d="M4481.502-179.26"/>
			<line id="XMLID_24_" class="st9" x1="4458.002" y1="-174.56" x2="4459.302" y2="-199.56"/>
			<line id="XMLID_23_" class="st9" x1="4466.302" y1="-174.56" x2="4467.102" y2="-190.46"/>
			<line id="XMLID_22_" class="st9" x1="4449.702" y1="-174.56" x2="4450.502" y2="-190.46"/>
			<line id="XMLID_21_" class="st9" x1="4441.402" y1="-174.56" x2="4441.802" y2="-183.16"/>
			<line id="XMLID_20_" class="st9" x1="4474.602" y1="-174.56" x2="4474.902" y2="-181.76"/>
			<g id="XMLID_77_" class="st2">
				<g id="Mic">
					<path id="XMLID_75_" class="st6" d="M3813.402-826.76L3813.402-826.76c-6.5,0-11-4.5-10.1-9.9l3.5-21.6
						c0.9-5.4,6.8-9.8,13.3-9.8s11,4.4,10.1,9.8l-3.4,21.6C3825.802-831.26,3819.902-826.76,3813.402-826.76"/>
					<path id="XMLID_73_" d="M3835.001-847.46l-1.9,12c-1.2,7.7-10.5,14-20.6,14s-17.4-6.3-16.1-14l2-12h-4.6l-2,12.1
						c-1.6,9.6,7.5,17.5,20.2,17.5s24.3-7.9,25.8-17.5l1.9-12.1H3835.001z"/>
					<polygon id="XMLID_71_" points="3797.001,-801.36 3821.701,-801.36 3822.201,-804.86 3797.602,-804.86 					"/>
					<polygon id="XMLID_36_" points="3807.501,-804.46 3812.102,-804.46 3814.501,-819.06 3809.802,-819.06 					"/>
				</g>
				<path id="XMLID_76_" class="st5" d="M3867.201-836.46c-3.4,22.4-30.1,40.6-59.5,40.6s-50.3-18.2-46.5-40.6
					c3.7-22.2,30.3-40.1,59.4-40.1C3849.701-876.46,3870.501-858.66,3867.201-836.46z"/>
			</g>
			<g id="XMLID_35_" class="st2">
				<path id="XMLID_84_" class="st5" d="M4307.702,160.24c34,0,60,24.4,58.1,54.7c-1.9,30.6-31.4,55.5-65.8,55.5s-60.5-25-58.1-55.5
					C4244.302,184.64,4273.702,160.24,4307.702,160.24z"/>
			</g>
			<path id="XMLID_17_" class="st8" d="M3726.201-836.76"/>
			<line id="XMLID_79_" class="st8" x1="3761.102" y1="-836.46" x2="3639.501" y2="-836.46"/>
			<line id="XMLID_101_" class="st10" x1="3762.001" y1="246.14" x2="3753.302" y2="307.14"/>
			<g id="XMLID_134_" class="st2">
				<line id="XMLID_133_" class="st11" x1="3758.602" y1="270.34" x2="3743.201" y2="282.54"/>
				<line id="XMLID_130_" class="st11" x1="3758.602" y1="270.34" x2="3770.402" y2="282.54"/>
			</g>
			<line id="XMLID_163_" class="st10" x1="3821.302" y1="307.14" x2="3753.302" y2="307.14"/>
			<g id="XMLID_154_" class="st2">
				<line id="XMLID_162_" class="st11" x1="3794.102" y1="307.14" x2="3778.802" y2="319.44"/>
				<line id="XMLID_161_" class="st11" x1="3794.102" y1="307.14" x2="3782.201" y2="294.84"/>
			</g>
			<path id="XMLID_16_" class="st10" d="M3740.701,220.84c2,1.6,1.3,5.3,1.5,7.6c1.1-1.9,1.1-4.3,1.4-6.4c1.7,3.7,1.6,8,2.5,11.8
				c4-5.4,3.3-12,5.7-17.7c2,5.4,3.4,11,4,16.6c4.2-1.6,4.2-15.9,4.7-18.6c1.3,2.3,2.2,4.7,2.5,7.2c2.2-3,3-6,2.6-9.2
				c2.4,7.3,2.6,14.8,5.5,22.1c1.1-3.7,1.2-10.6,4.6-14c1,1.7,1.5,2,1.5-0.3c2.1,3.5,2.3,7.6,4.2,11.2c1.2-4.9,1-10.3,3.1-15
				c0,1.2,0.2,2.4,0.5,3.6c0.1-0.7,0.4-1.3,0.9-2c1.3,1.9,1.8,2.9,4.6,3.8"/>
			<line id="XMLID_90_" class="st10" x1="3833.902" y1="307.14" x2="3856.402" y2="307.14"/>
			<line id="XMLID_104_" class="st10" x1="3846.501" y1="297.04" x2="3843.802" y2="317.24"/>
			<line id="XMLID_203_" class="st10" x1="3685.302" y1="307.14" x2="3753.302" y2="307.14"/>
			<g id="XMLID_189_" class="st2">
				<line id="XMLID_202_" class="st11" x1="3712.501" y1="307.14" x2="3724.302" y2="319.44"/>
				<line id="XMLID_190_" class="st11" x1="3712.501" y1="307.14" x2="3727.902" y2="294.84"/>
			</g>
			<line id="XMLID_188_" class="st10" x1="3672.701" y1="307.14" x2="3650.201" y2="307.14"/>
			<g id="XMLID_187_" class="st2">
				<g id="XMLID_237_">
					
						<linearGradient id="XMLID_68_" gradientUnits="userSpaceOnUse" x1="3916.8147" y1="4364.3901" x2="3916.8147" y2="4547.1792" gradientTransform="matrix(0.7071 0.7071 -0.7071 0.7071 4614.7573 -6758.0254)">
						<stop  offset="0" style="stop-color:#FFFFFF;stop-opacity:0"/>
						<stop  offset="0.5" style="stop-color:#000000"/>
					</linearGradient>
					<polygon id="XMLID_238_" class="st12" points="4362.902,-837.76 4242.602,-934.56 4224.302,-737.86 4104.402,-837.76 					"/>
				</g>
				
					<linearGradient id="XMLID_70_" gradientUnits="userSpaceOnUse" x1="4008.1736" y1="4455.8203" x2="4008.1736" y2="4273.0312" gradientTransform="matrix(0.7071 0.7071 -0.7071 0.7071 4614.7573 -6758.0254)">
					<stop  offset="0" style="stop-color:#FFFFFF;stop-opacity:0"/>
					<stop  offset="0.5" style="stop-color:#000000"/>
				</linearGradient>
				<polygon id="XMLID_236_" class="st13" points="4492.102,-837.76 4369.902,-934.56 4355.702,-737.86 4233.602,-837.76 				"/>
			</g>
		</g>
	</g>
	<g id="Layer_2">
	</g>
</g>
<g id="Layer_2_1_">
	<g>
		<g id="XMLID_153_">
			<line id="XMLID_206_" class="st5" x1="4699.902" y1="602.14" x2="4300.402" y2="602.14"/>
			<line id="XMLID_205_" class="st5" x1="3378.602" y1="-279.16" x2="3408.201" y2="-299.96"/>
			<line id="XMLID_204_" class="st5" x1="3408.201" y1="-299.96" x2="3387.402" y2="-320.66"/>
			<line id="XMLID_186_" class="st5" x1="3336.902" y1="-81.46" x2="3367.501" y2="-103.56"/>
			<line id="XMLID_185_" class="st5" x1="3367.501" y1="-103.56" x2="3346.201" y2="-125.46"/>
			<line id="XMLID_184_" class="st5" x1="3291.802" y1="129.14" x2="3325.102" y2="104.54"/>
			<line id="XMLID_181_" class="st5" x1="3325.102" y1="104.54" x2="3302.201" y2="80.14"/>
			<polyline id="XMLID_180_" class="st5" points="3349.302,-454.46 3225.802,104.54 3404.701,104.54 			"/>
			<line id="XMLID_179_" class="st5" x1="3373.902" y1="-672.76" x2="3394.602" y2="-653.16"/>
			<line id="XMLID_178_" class="st5" x1="3394.602" y1="-653.16" x2="3423.902" y2="-672.76"/>
			<line id="XMLID_177_" class="st5" x1="2977.001" y1="240.54" x2="2954.802" y2="215.14"/>
			<line id="XMLID_174_" class="st5" x1="2954.802" y1="215.14" x2="2919.802" y2="240.54"/>
			<line id="XMLID_172_" class="st5" x1="3420.602" y1="-776.86" x2="3369.501" y2="-545.66"/>
			<polyline id="XMLID_171_" class="st5" points="3126.201,602.14 2856.201,602.14 3137.302,-501.16 3303.902,-501.16 			"/>
			<line id="XMLID_170_" class="st5" x1="3273.201" y1="-103.56" x2="3444.102" y2="-103.56"/>
			<line id="XMLID_167_" class="st5" x1="3316.602" y1="-299.96" x2="3484.001" y2="-299.96"/>
			<polyline id="XMLID_166_" class="st6" points="3565.402,-103.56 3894.201,-103.56 3884.201,-27.66 3960.602,-27.66 			"/>
			<polyline id="XMLID_165_" class="st6" points="3526.701,104.54 3866.701,104.54 3877.902,19.84 3954.802,19.84 			"/>
			<line id="XMLID_160_" class="st6" x1="4067.302" y1="-500.16" x2="4016.902" y2="-55.36"/>
			<path id="XMLID_159_" class="st6" d="M3599.201-299.96h429.1h0.5c0.8-7.2,8.6-13,17.3-13s15.1,5.8,14.3,13h280.7l-5.1,73.9h74.3"
				/>
			<polyline id="XMLID_158_" class="st6" points="4071.102,-3.96 4320.602,-3.96 4332.902,-181.16 4406.902,-181.16 			"/>
			<line id="XMLID_157_" class="st6" x1="4476.002" y1="-500.16" x2="4463.302" y2="-252.16"/>
			<polyline id="XMLID_155_" class="st5" points="4519.202,-203.76 4587.102,-203.76 4573.502,209.04 4367.602,209.04 			"/>
		</g>
		<path id="_x28__x2B__x29__1_" class="st5" d="M3333.201-501.16h53 M3355.001-479.96l9.4-42.4 M3415.602-501.16
			c-5.3,24.8-34.7,45-65.8,45s-51.6-20.2-45.9-45c5.6-24.6,35-44.4,65.7-44.4S3420.802-525.76,3415.602-501.16z"/>
		<g id="_x28_3_x29__2_">
			<path id="XMLID_147_" class="st5" d="M3526.701,104.54c-5.3,29.6-37.1,53.7-71.1,53.7s-56.7-24.1-50.9-53.7
				c5.7-29.3,37.5-52.9,70.9-52.9C3509.102,51.64,3532.001,75.24,3526.701,104.54z"/>
			<g id="XMLID_327_">
				<path id="XMLID_328_" class="st14" d="M3488.802,117.84l-2.7,12.4c-3.4,1.5-6.8,2.5-10.2,3.2c-3.4,0.6-6.8,0.9-10.3,0.9
					c-5,0-9.3-0.7-13.1-2.2s-6.9-3.5-9.3-6.2c-2.4-2.7-4-5.8-4.9-9.4c-0.9-3.6-0.9-7.6-0.1-12c0.8-4.3,2.4-8.3,4.8-11.9
					c2.3-3.6,5.2-6.8,8.6-9.4c3.4-2.6,7.3-4.7,11.5-6.1c4.3-1.5,8.8-2.2,13.6-2.2c2.6,0,5.5,0.3,8.7,0.8c3.1,0.5,6.2,1.6,9.2,3.2
					l-1.9,12.4h-6.1l-0.1-10.1c-1.5-0.7-3.1-1.3-4.7-1.6c-1.6-0.3-3.2-0.5-4.9-0.5c-3.2,0-6.4,0.5-9.4,1.6c-3.1,1.1-5.8,2.7-8.4,4.8
					c-2.5,2.1-4.7,4.8-6.6,7.9c-1.8,3.2-3.1,6.8-3.9,11c-0.8,4.1-0.9,7.8-0.4,10.9c0.5,3.2,1.6,5.8,3.2,8c1.6,2.2,3.7,3.8,6.3,4.9
					c2.6,1.1,5.6,1.7,8.9,1.7c1.9,0,3.8-0.2,5.9-0.6c2-0.4,4.1-1,6.2-1.8l3.8-9.9L3488.802,117.84L3488.802,117.84z"/>
			</g>
		</g>
		<g id="_x28_2_x29__1_">
			<path id="XMLID_143_" class="st5" d="M3565.402-103.56c-5.1,28.5-36.6,51.7-70.3,51.7s-56.5-23.3-50.9-51.7
				c5.5-28.2,37-51,70.2-51S3570.402-131.86,3565.402-103.56z"/>
			<g id="XMLID_322_">
				<path id="XMLID_323_" class="st14" d="M3511.602-130.26c3.3,0,6.1,0.3,8.5,1c2.4,0.6,4.4,1.5,6,2.7c1.5,1.2,2.6,2.6,3.2,4.1
					c0.6,1.6,0.8,3.4,0.4,5.3c-0.5,2.8-2.1,5.4-4.8,7.7c-2.7,2.3-6.7,3.9-12,4.8c3,0.4,5.6,1,7.7,1.8c2.1,0.8,3.7,1.8,4.9,3
					c1.2,1.2,2,2.4,2.4,3.9c0.4,1.4,0.4,3,0.2,4.6c-0.3,1.8-1.1,3.6-2.4,5.4c-1.2,1.8-3,3.3-5.3,4.7c-2.3,1.4-5.1,2.5-8.5,3.4
					c-3.4,0.9-7.4,1.3-12,1.3h-25.9l0.6-3.3l8.9-0.9c0.8-3.4,1.5-6.8,2.1-10.3c0.7-3.5,1.3-7,2-10.5l0.7-3.9c0.7-3.5,1.3-6.9,2-10.3
					c0.6-3.4,1.2-6.8,1.8-10.3l-8.5-0.9l0.6-3.3L3511.602-130.26L3511.602-130.26z M3501.501-126.46c-0.8,3.3-1.5,6.7-2.1,10.1
					s-1.3,6.7-1.9,10.2h5c5.7,0,10-0.8,12.9-2.4c2.9-1.6,4.7-4.3,5.4-8c0.7-3.6-0.1-6.2-2.2-7.6c-2.1-1.5-5.6-2.2-10.4-2.2h-6.7
					V-126.46z M3498.602-80.36c6.3,0,11-0.9,14.3-2.8s5.2-4.6,5.9-8.1c0.7-3.8-0.3-6.6-2.8-8.4c-2.6-1.9-7.2-2.8-13.8-2.8h-5.3
					c-0.8,4-1.5,7.8-2.2,11.4c-0.7,3.6-1.3,7.2-1.8,10.8L3498.602-80.36L3498.602-80.36z"/>
			</g>
		</g>
		<g id="_x28_1_x29__2_">
			<path id="XMLID_137_" class="st5" d="M3599.201-299.96c-4.7,26.3-34.5,47.8-66.5,47.8s-53.8-21.5-48.6-47.8
				c5.1-26.1,34.8-47.1,66.4-47.1C3582.001-347.16,3603.902-326.06,3599.201-299.96z"/>
			<g id="XMLID_318_">
				<path id="XMLID_319_" class="st14" d="M3567.902-282.06l-0.6,3.1h-25.1l0.6-3.1l9.2-0.9l-2.8-12.5h-21.1l-7.5,12.5l8.7,1
					l-0.6,3.1h-21.2l0.6-3.1l8-1l28.5-46.5h5.5l11,46.8L3567.902-282.06z M3548.402-299.06l-4.9-21.8l-13.3,21.8H3548.402z"/>
			</g>
		</g>
		<g id="Crossfader">
			<path id="XMLID_129_" class="st5" d="M4045.701,19.84c-37.4,0-32-47.6-55.7-47.6h-13.3"/>
			<path id="XMLID_128_" class="st5" d="M4050.802-27.66c-5,0-13.3,0-13.3,0c-23.8,0-29.2,47.6-66.5,47.6"/>
			<path id="XMLID_127_" class="st5" d="M4071.102-3.96c-3,28.7-32.6,52.1-66,52.1s-57.7-23.4-54.2-52.1c3.5-28.4,33-51.3,65.9-51.3
				C4049.802-55.36,4074.102-32.46,4071.102-3.96z"/>
			<path id="XMLID_126_" class="st5" d="M4032.501,17.44"/>
			<line id="XMLID_125_" class="st15" x1="4008.001" y1="22.44" x2="4011.001" y2="-3.96"/>
			<line id="XMLID_124_" class="st15" x1="4016.602" y1="22.44" x2="4018.501" y2="5.54"/>
			<line id="XMLID_123_" class="st15" x1="3999.501" y1="22.44" x2="4001.402" y2="5.54"/>
			<line id="XMLID_122_" class="st15" x1="3991.001" y1="22.44" x2="3992.001" y2="13.34"/>
			<line id="XMLID_121_" class="st15" x1="4025.102" y1="22.44" x2="4026.001" y2="14.74"/>
		</g>
		<g id="Crossfader_1_">
			<path id="XMLID_120_" class="st5" d="M4495.902-181.16c-36.3,0-34-44.9-57.1-44.9h-13"/>
			<path id="XMLID_119_" class="st5" d="M4498.002-226.06c-4.9,0-13,0-13,0c-23.1,0-25.4,44.9-61.7,44.9"/>
			<path id="XMLID_118_" class="st5" d="M4519.202-203.76c-1.2,27.1-28.4,49.2-60.9,49.2s-57.5-22.1-55.9-49.2
				c1.6-26.9,28.9-48.5,60.9-48.5C4495.302-252.16,4520.302-230.56,4519.202-203.76z"/>
			<path id="XMLID_117_" class="st5" d="M4483.002-183.46"/>
			<line id="XMLID_116_" class="st15" x1="4459.502" y1="-178.76" x2="4460.802" y2="-203.76"/>
			<line id="XMLID_115_" class="st15" x1="4467.802" y1="-178.76" x2="4468.602" y2="-194.66"/>
			<line id="XMLID_113_" class="st15" x1="4451.202" y1="-178.76" x2="4452.002" y2="-194.66"/>
			<line id="XMLID_112_" class="st15" x1="4442.902" y1="-178.76" x2="4443.402" y2="-187.36"/>
			<line id="XMLID_111_" class="st15" x1="4476.102" y1="-178.76" x2="4476.402" y2="-186.06"/>
		</g>
		<g id="XMLID_105_">
			<g id="Mic_1_">
				<path id="XMLID_110_" class="st6" d="M3815.001-828.76L3815.001-828.76c-6.5,0-11-4.5-10.1-9.9l3.5-21.6
					c0.9-5.4,6.8-9.8,13.2-9.8s11,4.4,10.1,9.8l-3.4,21.6C3827.402-833.26,3821.402-828.76,3815.001-828.76"/>
				<path id="XMLID_109_" d="M3836.602-849.36l-1.9,12c-1.2,7.7-10.5,14-20.6,14s-17.4-6.3-16.1-14l1.9-12h-4.6l-2,12.1
					c-1.6,9.6,7.5,17.5,20.2,17.5s24.3-7.9,25.7-17.5l1.9-12.1H3836.602z"/>
				<polygon id="XMLID_108_" points="3798.602,-803.36 3823.302,-803.36 3823.802,-806.96 3799.201,-806.96 				"/>
				<polygon id="XMLID_107_" points="3809.102,-806.56 3813.802,-806.56 3816.102,-821.06 3811.402,-821.06 				"/>
			</g>
			<path id="XMLID_106_" class="st5" d="M3868.701-838.36c-3.4,22.3-30,40.5-59.5,40.5s-50.3-18.2-46.5-40.5
				c3.7-22.1,30.3-40,59.4-40C3851.201-878.36,3872.102-860.56,3868.701-838.36z"/>
		</g>
		<g id="XMLID_103_">
			<polygon id="XMLID_102_" class="st6" points="4321.602,193.14 4297.102,193.14 4297.802,184.04 4271.402,159.14 4263.902,259.64 
				4294.202,234.24 4295.002,223.74 4319.602,223.74 			"/>
			<g id="XMLID_99_">
				<path id="XMLID_100_" class="st5" d="M4286.702,133.24c47.3,0,83.5,33.8,80.9,75.8c-2.6,42.6-43.9,77.4-92.1,77.4
					c-48.3,0-84.4-34.9-80.8-77.4C4198.202,166.94,4239.402,133.24,4286.702,133.24z"/>
			</g>
		</g>
		<path id="XMLID_98_" class="st6" d="M3727.802-838.76"/>
		<line id="XMLID_97_" class="st6" x1="3762.701" y1="-838.36" x2="3641.102" y2="-838.36"/>
		<line id="XMLID_96_" class="st6" x1="3769.902" y1="206.74" x2="3757.302" y2="295.14"/>
		<g id="XMLID_89_">
			<line id="XMLID_94_" class="st6" x1="3764.902" y1="241.74" x2="3742.501" y2="259.44"/>
			<line id="XMLID_92_" class="st6" x1="3764.902" y1="241.74" x2="3782.201" y2="259.44"/>
		</g>
		<line id="XMLID_87_" class="st6" x1="3856.902" y1="295.14" x2="3757.201" y2="295.14"/>
		<g id="XMLID_66_">
			<line id="XMLID_69_" class="st6" x1="3817.102" y1="295.14" x2="3794.602" y2="313.14"/>
			<line id="XMLID_67_" class="st6" x1="3817.102" y1="295.14" x2="3799.602" y2="277.34"/>
		</g>
		<path id="XMLID_64_" class="st6" d="M3732.802,170.54c3,2.4,4,7.3,4.3,10.6c1.6-2.7,6.3-7.5,6.8-10.4c2.4,5.3,1.6,13.1,2.9,18.6
			c5.8-7.8,4.7-17.2,8.2-25.4c2.9,7.8,4.9,15.7,5.8,23.9c6-2.4,6-22.8,6.8-26.7c1.9,3.3,3.7,15.8,4.3,19.4
			c3.1-4.2,6.4-16.8,5.7-21.4c3.5,10.5,1.2,20.3,5.5,30.8c1.6-5.3,1.7-15.2,6.6-20.1c1.4,2.5,2.2,2.8,2.2-0.5
			c3.1,5.1,3.3,10.9,6.1,16.1c1.8-7,1.4-14.7,4.4-21.5c0,1.8,0.3,3.5,0.7,5.2c0.1-1,0.5-1.9,1.4-2.8c1.9,2.8,2.6,4.1,6.6,5.5"/>
		<line id="XMLID_58_" class="st6" x1="3875.402" y1="295.14" x2="3908.302" y2="295.14"/>
		<line id="XMLID_57_" class="st6" x1="3893.701" y1="280.44" x2="3890.001" y2="309.94"/>
		<line id="XMLID_13_" class="st6" x1="3657.602" y1="295.14" x2="3757.302" y2="295.14"/>
		<g id="XMLID_10_">
			<line id="XMLID_12_" class="st6" x1="3697.402" y1="295.14" x2="3714.701" y2="313.14"/>
			<line id="XMLID_11_" class="st6" x1="3697.402" y1="295.14" x2="3720.001" y2="277.34"/>
		</g>
		<line id="XMLID_9_" class="st6" x1="3639.102" y1="295.14" x2="3606.201" y2="295.14"/>
		<g id="XMLID_1_">
			<g id="XMLID_7_">
				
					<linearGradient id="XMLID_80_" gradientUnits="userSpaceOnUse" x1="3916.3547" y1="4362.0571" x2="3916.3547" y2="4544.7754" gradientTransform="matrix(0.7071 0.7071 -0.7071 0.7071 4614.7573 -6758.0254)">
					<stop  offset="0" style="stop-color:#FFFFFF"/>
					<stop  offset="0.5" style="stop-color:#000000"/>
				</linearGradient>
				<polygon id="XMLID_8_" class="st16" points="4364.202,-839.76 4243.902,-936.26 4225.802,-740.16 4105.802,-839.76 				"/>
			</g>
			
				<linearGradient id="XMLID_81_" gradientUnits="userSpaceOnUse" x1="4007.7141" y1="4453.416" x2="4007.7141" y2="4270.6978" gradientTransform="matrix(0.7071 0.7071 -0.7071 0.7071 4614.7573 -6758.0254)">
				<stop  offset="0" style="stop-color:#FFFFFF"/>
				<stop  offset="0.5" style="stop-color:#000000"/>
			</linearGradient>
			<polygon id="XMLID_6_" class="st17" points="4493.402,-839.76 4371.102,-936.26 4357.002,-740.16 4235.002,-839.76 			"/>
		</g>
	</g>
</g>
<rect x="1559.899" y="-883.128" class="st18" width="869.703" height="81.436"/>
<text transform="matrix(1 0 0 1 1778.6119 -833.7087)" class="st19 st20 st21">Proximity Sensor</text>
<rect x="1559.899" y="-1594.269" class="st18" width="869.703" height="81.436"/>
<text transform="matrix(1 0 0 1 1819.2111 -1544.8492)" class="st19 st20 st21">Crossfade Knobs</text>
<rect x="1559.899" y="365.322" class="st18" width="869.703" height="81.436"/>
<text transform="matrix(1 0 0 1 1981.6089 414.7413)" class="st19 st20 st21">Pitch/Noise</text>
<line class="st22" x1="3359.701" y1="-851.261" x2="2480.99" y2="-851.261"/>
<line class="st22" x1="4050.661" y1="-718.66" x2="4050.661" y2="-1563.023"/>
<polyline class="st22" points="2480.99,-1563.023 4466.757,-1563.023 4474.487,-1563.023 4474.487,-717.26 "/>
<line class="st22" x1="3397.102" y1="396.89" x2="2480.99" y2="396.89"/>
</svg>
