<?xml version="1.0" encoding="utf-8"?>
<!-- Generator: Adobe Illustrator 19.0.0, SVG Export Plug-In . SVG Version: 6.00 Build 0)  -->
<svg version="1.1" id="Layer_1" xmlns="http://www.w3.org/2000/svg" xmlns:xlink="http://www.w3.org/1999/xlink" x="0px" y="0px"
	 viewBox="2552 -1458.34 6063.103 3477.34" style="enable-background:new 2552 -1458.34 6063.103 3477.34;" xml:space="preserve">
<style type="text/css">
	.st0{fill:none;stroke:#000000;stroke-width:15;stroke-miterlimit:10;}
	.st1{display:none;}
	.st2{display:inline;}
	.st3{fill:#FFFFFF;stroke:#231F20;stroke-width:0.5;stroke-miterlimit:10;}
	.st4{stroke:#231F20;stroke-width:0.5;stroke-miterlimit:10;}
	.st5{fill:none;stroke:#000000;stroke-width:7;stroke-miterlimit:10;}
	.st6{fill:none;stroke:#231F20;stroke-width:7;stroke-miterlimit:10;}
	.st7{display:inline;fill:none;stroke:#000000;stroke-width:7;stroke-miterlimit:10;}
	.st8{display:inline;fill:none;stroke:#231F20;stroke-width:7;stroke-miterlimit:10;}
	.st9{display:inline;fill:none;stroke:#231F20;stroke-width:2.5;stroke-miterlimit:10;}
	.st10{display:inline;fill:none;stroke:#231F20;stroke-width:5;stroke-miterlimit:10;}
	.st11{fill:none;stroke:#231F20;stroke-width:5;stroke-miterlimit:10;}
	.st12{fill:url(#XMLID_68_);}
	.st13{fill:url(#XMLID_70_);}
	.st14{fill:#231F20;}
	.st15{fill:none;stroke:#231F20;stroke-width:3;stroke-miterlimit:10;}
	.st16{fill:url(#XMLID_80_);}
	.st17{fill:url(#XMLID_81_);}
	.st18{font-family:'SourceCodePro-Semibold';}
	.st19{font-size:80px;}
	.st20{fill:none;stroke:#000000;stroke-width:10;stroke-miterlimit:10;}
</style>
<g id="Layer_1_2_">
	<g id="Layer_1_1_">
		
			<image style="display:none;overflow:visible;enable-background:new    ;" width="5312" height="2988" xlink:href="../../../../../../Downloads/20160919_165215.jpg"  transform="matrix(1 0 0 1 3257.3508 -1033.5831)">
		</image>
		
			<image style="display:none;overflow:visible;enable-background:new    ;" width="5312" height="2988" xlink:href="../../../../../../Downloads/20160919_165215.jpg"  transform="matrix(1 0 0 1 3257.3508 -1033.5831)">
		</image>
		<g id="Body">
			<line id="XMLID_2_" class="st0" x1="5880.809" y1="1471.956" x2="5885.809" y2="1684.756"/>
			<path id="XMLID_3_" class="st0" d="M8728.108,1860.456h-4903.6c-116.7,0-160.9-76.3-250.8-193
				c-89.9-116.7-126.2-143.6-78.9-334.5c18.9-75.7,575.6-1972.7,575.6-1972.7c3.2-8.6,8.7-19.1,15.1-28.2
				c6.4-9.1,34.5-47.1,34.5-47.1s-522.9,1836.8-567.5,1992.7c-44.6,156,36.2,222.8,125.3,222.8h2183.8c10.6,0,19.2-8.6,19.2-19.1
				l4-1925c0,0,0-7.2,0-24.8c0-4.4,0-10.3-0.1-16.8c-0.2-34,27.3-61.7,61.4-61.7c0.2,0,2678.7,0,2678.899,0h-2678.3"/>
			<path id="XMLID_4_" class="st0" d="M3544.209,1629.456c34.2,26.9,94.2,55.3,160.4,55.3c66.3,0,2181.2,0,2181.2,0l0.6,108.9
				h2841.6"/>
			<path id="XMLID_5_" class="st0" d="M8625.009-810.944h-4278.5c0,0-13.5,0-35.2,0c-115.9,0-184.1,70.5-192.3,98.5"/>
		</g>
		<path class="st0" d="M4292.009-660.044l-30.6,125h421.7l26.4-125c0,0-156.9-16.5-227.2-16.5S4292.009-660.044,4292.009-660.044z"
			/>
		<path class="st0" d="M4261.409-535.044c0,0,96.6-48.1,202.1-48.1c101,0,219.6,48.1,219.6,48.1"/>
		<line class="st0" x1="4468.409" y1="-665.444" x2="4455.009" y2="-600.044"/>
		<line class="st0" x1="4492.107" y1="-665.444" x2="4478.808" y2="-600.044"/>
		<path class="st0" d="M4456.308-607.844c-2.9-14.2-15.5-24.9-30.5-24.9c-17.2,0-31.1,13.9-31.1,31.1c0,4.9,0,11,0,14.9"/>
		<path class="st0" d="M4567.009-583.144c0-8.5,0-11.6,0-18.5c0-17.2-13.9-31.1-31.1-31.1s-31.1,13.9-31.1,31.1
			c0,3.4-0.1,5.1-0.1,8.3"/>
		<line class="st0" x1="4683.107" y1="-655.744" x2="4579.909" y2="-623.044"/>
		<line class="st0" x1="4306.808" y1="-653.044" x2="4394.607" y2="-628.344"/>
		<path class="st0" d="M5179.607-475.344c52.5,11.3,88.8,49,85.3,94.4c-4.2,55.3-65.8,100.8-137.3,100.8
			c-71.6,0-124.4-45.5-118-100.8c2.9-25.2,17.6-48,39.4-65.3"/>
		<path class="st0" d="M5161.607-466.844c-1.2,11.2-7.6,21.4-17,29c-3.3,2.7-24.5-23.1-28.5-21.1c-4.2,2.1,8.8,31.9,4,33
			s-9.7,1.7-14.7,1.7c-28.5,0-49.1-19.1-46.1-42.6c2.9-23.3,28.1-42,56.2-42C5143.509-508.844,5164.209-490.144,5161.607-466.844z"
			/>
		<path class="st0" d="M5045.909-379.544l3.6-67.2c0,0-1.3-16.9,15.7-36.4"/>
		<path class="st0" d="M5213.408-417.244c0,0-27.4-49.9-33.2-58c-6.7-9.2-19.3-33.6-64.7-33.6"/>
		<path class="st0" d="M5059.009-357.044c0,0,17.4,28.9,66.8,28.9s66.8-28.9,66.8-28.9"/>
		<path d="M5047.308-241.344c-0.8,6.3-7.4,11.5-14.8,11.5s-12.7-5.1-11.9-11.5c0.8-6.3,7.4-11.4,14.8-11.4
			S5048.107-247.644,5047.308-241.344z"/>
		<path d="M5226.608-241.344c-0.6,6.3-7,11.4-14.3,11.4s-12.7-5.1-12.1-11.4s7-11.4,14.3-11.4
			C5221.809-252.744,5227.209-247.644,5226.608-241.344z"/>
		<path class="st0" d="M5589.809-467.244c-0.9,21.5-25,39-53.8,39c-4.8,0-9.5-0.5-13.9-1.4c-3.4-0.7,12.1-25.7,9-26.9
			c-3.7-1.5-25.9,20.7-29,18.6c-10.4-7.2-16.6-17.6-15.9-29.3c1.3-21.4,25.3-38.6,53.8-38.6S5590.809-488.644,5589.809-467.244z"/>
		<path class="st0" d="M5469.508-392.144l4.7-55.8c0,0-0.9,11,0.7-8.2c1.6-18.9,15.4-49.7,65.1-49.7s65.3,36.5,65.3,36.5l25.3,60.5"
			/>
		<path class="st0" d="M5483.709-357.044c0,0,16.4,27.6,63.4,27.6c46.9,0,67.2-27.6,67.2-27.6"/>
		<path class="st0" d="M5608.008-463.044c39.9,15.4,66.7,47.6,65.6,85.2c-1.6,53.5-59.1,97.6-128.3,97.6
			c-69.2,0-122.3-44-118.7-97.6c2-29.2,20.4-55.1,47.9-72.4"/>
		<path d="M5468.209-239.944c-0.4,6.7-7.4,12.1-15.7,12.1s-14.6-5.4-14.2-12.1s7.5-12,15.7-12
			C5462.309-252.044,5468.608-246.644,5468.209-239.944z"/>
		<path d="M5647.709-239.944c-0.2,6.7-7.3,12.1-15.8,12.1s-15.1-5.4-14.9-12.1c0.3-6.7,7.3-12,15.8-12
			S5647.908-246.644,5647.709-239.944z"/>
		<path class="st0" d="M5212.607,640.456c97.6,19.6,167,101.4,160.6,200.9l-1.5,23.5c-7.6,118.4-118.3,218-245.8,218h-754.4
			c-127.5,0-210.5-99.6-185.2-218l5-23.5c19.7-91.9,99.9-168.8,193.2-195.4"/>
		<path class="st0" d="M4759.409,591.156l457.3-0.7l-6.9,51.5c0,0-22.6,78.2-29.5,133.1c-6.9,54.8-7.5,165.4-7.5,165.4h-865
			c0,0,4.8-68.6,27.1-160.2c22.3-91.6,49.5-130.3,49.5-130.3l15.8-58.1l143.5-0.2"/>
		<path class="st0" d="M4343.709,925.656c84.7-42.9,163.3-69.8,239.7-76.3c10.9-0.9,12.8-13.9,9.9-32.8l-55.2-168.7l18.3-104.7
			h165.4l-16,104.8l78,171.6c0,0,11.9,22.7,34.6,25c22.7,2.4,240.9,26.2,319.6,58.4"/>
		<path class="st0" d="M4375.909,765.356c28.6-13.8,151.3-53.9,181.8-57.7"/>
		<path class="st0" d="M4721.808,543.056l99,139.3c0,0,7.2,17.9,34.6,17.9s155.1,1.2,298.2,54.9"/>
		<line class="st0" x1="4586.909" y1="717.056" x2="4692.607" y2="717.056"/>
		<line class="st0" x1="4602.808" y1="757.956" x2="4708.509" y2="757.956"/>
		<path class="st0" d="M6107.508-342.844h-152.3c-8.8,0-16,7.2-16,16l-10,1854.3c0,8.8,7.2,16,16,16h341.9l69.3,0.1
			c11.3,0,20.1-9.6,19.2-20.8l-5.6-69.5l-43.8-712c-0.7-18.5-14.4-27.4-40.6-27.1l-125.2-0.7l-36.9-1040.3
			C6123.508-335.644,6116.309-342.844,6107.508-342.844z"/>
		<path class="st0" d="M6518.809-342.844l-155.5,0.1c-8.4,0-15.1,7.2-14.3,15.6l89.4,1039.5l-49.6-0.5h-1.9
			c-19.7,0.1-35.2,16.8-33.9,36.4l1.4,21.1l55.2,757.9c0,8.8,7.2,16,16,16h385.3l41.3-0.1c9.3,0,16.3-8.3,14.9-17.4l-7.3-47.4
			l-107.5-739.5c-2.2-14.8-14.9-25.9-29.9-25.9h-4.5h-51l-131.9-1040C6534.809-335.644,6527.608-342.844,6518.809-342.844z"/>
		<path class="st0" d="M6783.309,780.756l108.6,745.7c0.1,0.6,0.1,1.2,0.2,1.8c0.5,8.4,7.5,15.1,16,15.1h353.1l74.8-1.9
			c10.7-0.3,18.5-10.1,16.3-20.6l-17.5-84.6l-380.2-1762.2c-0.1-0.6-0.2-1.2-0.2-1.9c-0.5-8.4-7.5-15.1-16-15.1h-150.3
			c-2.2,0-4.3,0.5-6.2,1.3c-7.3,3.1-10.8,11.4-8.5,18.9l186.9,1035.8h-168.3c-9.7,0-17.1,8.6-15.7,18.2L6783.309,780.756z"/>
		<path class="st0" d="M7615.209,758.656l223.9,768.8c0,8.8-7.2,16-16,16h-417.3c-8.8,0-16-7.2-16-16l-414-1854.3
			c0-8.8,7.2-16,16-16h141.3c8.8,0,16,7.2,16,16l277.2,1040h157.9c10.5,0,19.8,7,22.7,17.1L7615.209,758.656z"/>
		<path class="st0" d="M7656.008,501.156l68.7,212h-70.3c-12.8,0-22,12.3-18.4,24.6l13.5,45.4l222.2,747.9c0,8.8,7.2,16,16,16h439.3
			c8.8,0,16-7.2,16-16l-310.2-789l-3.7-9.5c-4.6-11.7-15.9-19.4-28.4-19.4h-97.1l-367.2-1040.5c0-8.8-7.2-16-16-16h-144.4"/>
		<path id="XMLID_56_" class="st0" d="M8127.508,660.556l23,52.6h-70.3c-12.8,0-22,12.3-18.4,24.6l13.5,45.4l302.2,747.9
			c0,8.8,7.2,16,16,16h459.3c8.8,0,16-7.2,16-16l-399.2-789l-3.7-9.5c-4.6-11.7-23.899-19.4-36.399-19.4h-27.101l-476.2-1040.5
			c0-8.8-7.2-16-16-16h-130.5"/>
		<path class="st0" d="M6773.508,713.156"/>
		<path class="st0" d="M6773.508,713.156"/>
		<path class="st0" d="M7602.008,713.156"/>
		<path class="st0" d="M7628.709,713.156"/>
		<path class="st0" d="M6197.908,714.356l4.3-37.8l36.3-167.4c-10.7-275.1-30.1-561.9-56.5-858.1c38.7-21.5,86.7-31,136.2-2.1
			c28.3,299.6,47.9,587.6,57.4,862.2l16.1,167.4v32.9"/>
		<path class="st0" d="M6248.608,517.256c36.7-8.3,74.4-7.9,112.9,0"/>
		<path class="st0" d="M6891.608,713.156l6.7-18.1c5-13.5,7.2-28,6.3-42.4l-8.6-143.3c-0.1-1.5-0.3-3-0.5-4.5
			c-45-284.8-94.3-570.3-148.8-856.8c-58.6-26.8-101.5-21.3-141-0.8c58.2,242.5,104.5,533.7,143.7,854.1c0.9,5.1,0.7,10.3-0.4,15.4
			l-34,154.9c-0.4,1.9-1,3.8-1.7,5.6l-13.5,35.9"/>
		<path class="st0" d="M6760.809,519.256c39.2-10.1,80.5-11.4,125,0"/>
		<path class="st0" d="M7610.408,742.056l28.4-45.6c8.9-14.3,13.8-30.8,14.1-47.6l2.9-140.7c0.1-4.6-0.6-9.2-2-13.5
			c-77.9-286.8-171.4-569.7-281.3-848.6c-56.3-25.4-97.2-14-137.2,0c114.1,272.5,208.4,553.9,279.3,845.7c2.9,8.7,2.7,18.1-0.5,26.7
			l-54.6,147.4c-0.7,1.8-1.4,3.5-2.3,5.2l-22.8,42.2"/>
		<path class="st0" d="M7529.408,504.056c40.7-5.7,79-8.5,111,0"/>
		<path class="st0" d="M8017.309,504.056c40.7-5.7,78.9-8.5,111,0"/>
		<path class="st0" d="M8536.509,504.056c40.7-5.7,78.899-8.5,111,0"/>
		<path class="st0" d="M7376.008-343.344"/>
		<line class="st0" x1="6217.209" y1="679.056" x2="6372.709" y2="679.056"/>
		<line class="st0" x1="6732.309" y1="679.056" x2="6887.809" y2="679.056"/>
		<line class="st0" x1="7474.508" y1="679.056" x2="7630.008" y2="679.056"/>
		<line class="st0" x1="7943.608" y1="679.056" x2="8099.108" y2="679.056"/>
		<line class="st0" x1="8459.108" y1="679.056" x2="8614.608" y2="679.056"/>
		<path class="st0" d="M6275.908-251.744"/>
		<line class="st0" x1="6128.709" y1="-294.744" x2="6182.008" y2="-348.844"/>
		<line class="st0" x1="6541.809" y1="-288.544" x2="6605.709" y2="-352.644"/>
		<line class="st0" x1="7167.108" y1="-259.344" x2="7235.309" y2="-353.944"/>
		<path class="st0" d="M7903.608,713.156l26.5-41.8c1.2-1.9,2.2-3.9,3.1-5.9l61.5-145.9c4.2-9.9,4.2-21,0.2-31
			c-117.2-380.9-231.5-649.8-343.9-842.5c40.5-19.6,82.3-23.2,124.1,0c148.1,286.1,268.2,568.5,366.4,848.1c2.8,6.5,3.9,13.7,3,20.7
			l-17,145.7c-0.8,7.2-3.6,14-8,19.8l-25,32.8"/>
		<line class="st0" x1="7650.908" y1="-353.944" x2="7564.209" y2="-248.444"/>
		<path class="st0" d="M8643.009,468.356c-137.5-302.6-286.4-578.2-451.4-822.4c-51.7-19.3-99.5-20.9-142.4,0
			c189,297.4,354.8,587.7,454.8,858.1l-80.9,162.7l-20.8,46.4"/>
		<line class="st0" x1="7960.209" y1="-252.944" x2="8049.209" y2="-353.944"/>
		<path class="st0" d="M8197.408-343.344h118.601c5.1,0,9.8,2.8,12.2,7.2l428.2,771.7"/>
		<path class="st0" d="M8708.809,297.256l-355.3-629.6c-2.8-4.9,0.7-11,6.4-11l189,0.4l193,313.4"/>
		<path class="st0" d="M8620.408,713.156h-102c-13.5,0-22.3,14.3-16.3,26.4l404.5,803.9"/>
		<line class="st0" x1="4557.409" y1="648.856" x2="4682.209" y2="648.856"/>
		<path class="st0" d="M5796.309-687.844l-31.8,2001.3c-0.7,41.2-34.3,74.3-75.5,74.3h-1919.5c-66.5,0-114.8-63.2-97.3-127.3
			l523.7-1926.8c12.8-46.9,55.4-79.5,104-79.5h1439.3C5771.108-745.844,5796.809-719.744,5796.309-687.844z"/>
		<g id="XMLID_50_" class="st1">
			<g id="XMLID_49_" class="st2">
				<path id="XMLID_61_" class="st3" d="M5714.209,1381.656h-1953.9c-65.3,0-104.3-53.2-86.8-117.3l527.3-1936.2
					c10.8-39.6,62.4-71.7,114.9-71.7h1384.5c48.4,0,87.6,29.6,87.1,66.1l-29.7,2016.5
					C5757.209,1362.456,5737.709,1381.656,5714.209,1381.656"/>
				<path id="XMLID_55_" class="st4" d="M5223.008,651.856l5-57h-819l-10.5,53.3c-100.7,24.5-189.6,106.2-211.3,204.9
					c-26.9,122.1,58.5,225,190.5,225h730.2c132,0,246.9-102.8,255.1-225C5369.309,758.856,5309.908,680.056,5223.008,651.856"/>
				<g id="XMLID_62_">
					<path id="XMLID_54_" class="st4" d="M5260.508-350.644c-5,52.6-63.4,95.8-130.4,95.8s-115.5-43.3-108.6-95.8
						c6.8-51.7,65-93.1,130.1-93.1C5216.608-443.744,5265.408-402.444,5260.508-350.644"/>
					<path id="XMLID_53_" class="st3" d="M5187.607-350.644c-2.2,20.4-24.9,37.1-50.8,37.1s-44.9-16.6-42.4-37.1
						c2.5-20.3,25.2-36.7,50.8-36.7S5189.809-370.944,5187.607-350.644"/>
				</g>
				<g id="XMLID_63_">
					<path id="XMLID_52_" class="st4" d="M5664.508-350.644c-1.7,52.6-57.4,95.8-124.4,95.8s-118.2-43.3-114.6-95.8
						c3.6-51.7,59.2-93.1,124.3-93.1C5614.809-443.744,5666.209-402.444,5664.508-350.644"/>
					<path id="XMLID_51_" class="st3" d="M5591.608-350.644c-0.9,20.4-22.6,37.1-48.5,37.1s-45.9-16.6-44.7-37.1
						c1.2-20.3,22.9-36.7,48.5-36.7S5592.508-370.944,5591.608-350.644"/>
				</g>
				<polygon id="XMLID_59_" class="st4" points="4692.409,-531.344 4270.209,-531.344 4301.409,-653.644 4715.509,-653.644 				"/>
			</g>
			<g id="XMLID_135_" class="st2">
				<line id="XMLID_83_" class="st5" x1="5763.008" y1="853.156" x2="5373.008" y2="853.156"/>
				<line id="XMLID_48_" class="st5" x1="4440.909" y1="-31.944" x2="4470.509" y2="-52.844"/>
				<line id="XMLID_47_" class="st5" x1="4470.509" y1="-52.844" x2="4449.709" y2="-73.644"/>
				<line id="XMLID_46_" class="st5" x1="4398.909" y1="166.456" x2="4429.607" y2="144.256"/>
				<line id="XMLID_45_" class="st5" x1="4429.607" y1="144.256" x2="4408.308" y2="122.256"/>
				<line id="XMLID_42_" class="st5" x1="4353.509" y1="377.956" x2="4386.808" y2="353.256"/>
				<line id="XMLID_41_" class="st5" x1="4386.808" y1="353.256" x2="4364.009" y2="328.756"/>
				<polyline id="XMLID_40_" class="st5" points="4411.709,-207.944 4287.509,353.256 4466.607,353.256 				"/>
				<line id="XMLID_39_" class="st5" x1="4436.509" y1="-426.944" x2="4457.209" y2="-407.344"/>
				<line id="XMLID_38_" class="st5" x1="4457.209" y1="-407.344" x2="4486.607" y2="-426.944"/>
				<line id="XMLID_19_" class="st5" x1="4038.209" y1="489.856" x2="4016.107" y2="464.356"/>
				<line id="XMLID_18_" class="st5" x1="4016.107" y1="464.356" x2="3981.009" y2="489.856"/>
				<line id="XMLID_60_" class="st5" x1="4484.209" y1="-535.144" x2="4432.009" y2="-299.444"/>
				<polyline id="XMLID_78_" class="st5" points="4187.107,853.156 3916.807,853.156 4199.607,-254.844 4366.308,-254.844 				"/>
				<line id="XMLID_15_" class="st5" x1="4335.209" y1="144.256" x2="4506.209" y2="144.256"/>
				<line id="XMLID_14_" class="st5" x1="4378.808" y1="-52.844" x2="4546.409" y2="-52.844"/>
				<polyline id="XMLID_29_" class="st6" points="4627.607,144.256 4956.709,144.256 4946.607,220.456 5023.107,220.456 				"/>
				<polyline id="XMLID_30_" class="st6" points="4588.709,353.256 4929.107,353.256 4940.308,268.256 5017.308,268.256 				"/>
				<line id="XMLID_31_" class="st6" x1="5130.209" y1="-253.844" x2="5079.509" y2="192.756"/>
				<path id="XMLID_32_" class="st6" d="M4661.607-52.844h429.5h0.5c0.8-7.2,8.6-13.1,17.3-13.1c8.7,0,15.2,5.8,14.3,13.1h281
					l-5.2,74.2h74.3"/>
				<polyline id="XMLID_33_" class="st6" points="5133.709,244.256 5383.408,244.256 5395.908,66.356 5470.008,66.356 				"/>
				<line id="XMLID_34_" class="st6" x1="5539.209" y1="-253.844" x2="5526.408" y2="-4.944"/>
				<polyline id="XMLID_37_" class="st5" points="5582.309,43.756 5650.309,43.756 5636.608,458.256 5430.408,458.256 				"/>
			</g>
			<path id="_x28__x2B__x29_" class="st7" d="M4395.607-254.844h53 M4417.409-233.444l9.4-42.5 M4478.009-254.844
				c-5.3,24.9-34.8,45.1-65.9,45.1s-51.6-20.3-45.9-45.1c5.7-24.7,35.1-44.5,65.8-44.5
				C4462.709-299.344,4483.308-279.444,4478.009-254.844z"/>
			<g id="_x28_3_x29__1_" class="st2">
				<path id="XMLID_192_" class="st5" d="M4523.107,377.656l9.1-48.6 M4513.709,328.756h37.1 M4541.709,377.956h-37.3
					 M4544.209,377.656l9-48.6 M4534.709,328.756h37.1 M4562.808,377.956h-37.3 M4501.909,377.656l9.3-48.6 M4492.709,328.756h37.1
					 M4520.509,377.956h-37.3"/>
				<path id="XMLID_191_" class="st5" d="M4588.709,353.256c-5.3,29.7-37.2,53.9-71.2,53.9s-56.8-24.2-50.9-53.9
					c5.8-29.4,37.6-53.1,71.1-53.1C4571.107,300.156,4594.009,323.856,4588.709,353.256z"/>
			</g>
			<g id="_x28_2_x29_" class="st2">
				<path id="XMLID_139_" class="st5" d="M4579.107,168.356l8.5-45.8 M4569.709,122.256h36 M4597.209,168.656h-36.3
					 M4542.909,168.356l8.7-45.8 M4533.709,122.256h36 M4560.909,168.656h-36.3"/>
				<path id="XMLID_138_" class="st5" d="M4627.607,144.256c-5.1,28.6-36.7,51.9-70.4,51.9c-33.8,0-56.5-23.3-50.9-51.9
					c5.6-28.4,37-51.2,70.3-51.2C4609.808,93.156,4632.709,115.956,4627.607,144.256z"/>
			</g>
			<polygon id="XMLID_85_" class="st8" points="5397.508,446.756 5379.908,446.756 5380.408,440.156 5361.408,422.256 
				5356.209,494.556 5377.908,476.356 5378.408,468.756 5396.008,468.756 			"/>
			<g id="_x28_1_x29__1_" class="st2">
				<line id="XMLID_183_" class="st5" x1="4599.909" y1="-31.244" x2="4608.009" y2="-74.444"/>
				<line id="XMLID_182_" class="st5" x1="4590.607" y1="-74.744" x2="4625.607" y2="-74.744"/>
				<line id="XMLID_176_" class="st5" x1="4617.509" y1="-30.944" x2="4582.209" y2="-30.944"/>
				<path id="XMLID_175_" class="st5" d="M4661.607-52.844c-4.7,26.4-34.6,48-66.6,48s-53.8-21.6-48.6-48
					c5.1-26.2,34.9-47.3,66.5-47.3C4644.509-100.144,4666.308-79.044,4661.607-52.844z"/>
			</g>
			<path id="XMLID_74_" class="st7" d="M5108.308,268.256c-37.4,0-32-47.7-55.8-47.7h-13.4"/>
			<path id="XMLID_44_" class="st7" d="M5113.509,220.456c-5,0-13.4,0-13.4,0c-23.8,0-29.2,47.7-66.6,47.7"/>
			<path id="XMLID_43_" class="st7" d="M5133.709,244.256c-3,28.8-32.6,52.3-66.1,52.3s-57.7-23.5-54.2-52.3
				c3.5-28.6,33-51.5,66-51.5S5136.808,215.756,5133.709,244.256z"/>
			<path id="XMLID_72_" class="st7" d="M5095.107,265.756"/>
			<line id="XMLID_88_" class="st9" x1="5070.607" y1="270.756" x2="5073.607" y2="244.256"/>
			<line id="XMLID_131_" class="st9" x1="5079.107" y1="270.756" x2="5081.009" y2="253.856"/>
			<line id="XMLID_144_" class="st9" x1="5062.009" y1="270.756" x2="5064.009" y2="253.856"/>
			<line id="XMLID_148_" class="st9" x1="5053.509" y1="270.756" x2="5054.607" y2="261.656"/>
			<line id="XMLID_132_" class="st9" x1="5087.709" y1="270.756" x2="5088.509" y2="263.056"/>
			<path id="XMLID_28_" class="st7" d="M5559.008,66.356c-36.3,0-34-45.1-57.1-45.1h-13"/>
			<path id="XMLID_27_" class="st7" d="M5561.108,21.256c-4.9,0-13,0-13,0c-23.1,0-25.4,45.1-61.8,45.1"/>
			<path id="XMLID_26_" class="st7" d="M5582.309,43.756c-1.2,27.2-28.5,49.4-61,49.4s-57.5-22.2-55.9-49.4
				c1.6-27,28.9-48.7,60.9-48.7C5558.408-4.944,5583.508,16.756,5582.309,43.756z"/>
			<path id="XMLID_25_" class="st7" d="M5546.108,64.056"/>
			<line id="XMLID_24_" class="st9" x1="5522.608" y1="68.756" x2="5523.908" y2="43.756"/>
			<line id="XMLID_23_" class="st9" x1="5530.908" y1="68.756" x2="5531.709" y2="52.856"/>
			<line id="XMLID_22_" class="st9" x1="5514.309" y1="68.756" x2="5515.108" y2="52.856"/>
			<line id="XMLID_21_" class="st9" x1="5506.008" y1="68.756" x2="5506.408" y2="60.156"/>
			<line id="XMLID_20_" class="st9" x1="5539.209" y1="68.756" x2="5539.508" y2="61.556"/>
			<g id="XMLID_77_" class="st2">
				<g id="Mic">
					<path id="XMLID_75_" class="st6" d="M4878.009-583.444L4878.009-583.444c-6.5,0-11-4.5-10.1-9.9l3.5-21.6
						c0.9-5.4,6.8-9.8,13.3-9.8s11,4.4,10.1,9.8l-3.4,21.6C4890.409-587.944,4884.509-583.444,4878.009-583.444"/>
					<path id="XMLID_73_" d="M4899.607-604.144l-1.9,12c-1.2,7.7-10.5,14-20.6,14s-17.4-6.3-16.1-14l2-12h-4.6l-2,12.1
						c-1.6,9.6,7.5,17.5,20.2,17.5s24.3-7.9,25.8-17.5l1.9-12.1H4899.607z"/>
					<polygon id="XMLID_71_" points="4861.607,-558.044 4886.308,-558.044 4886.808,-561.544 4862.209,-561.544 					"/>
					<polygon id="XMLID_36_" points="4872.107,-561.144 4876.709,-561.144 4879.107,-575.744 4874.409,-575.744 					"/>
				</g>
				<path id="XMLID_76_" class="st5" d="M4931.808-593.144c-3.4,22.4-30.1,40.6-59.5,40.6s-50.3-18.2-46.5-40.6
					c3.7-22.2,30.3-40.1,59.4-40.1C4914.308-633.144,4935.107-615.344,4931.808-593.144z"/>
			</g>
			<g id="XMLID_35_" class="st2">
				<path id="XMLID_84_" class="st5" d="M5372.309,403.556c34,0,60,24.4,58.1,54.7c-1.9,30.6-31.4,55.5-65.8,55.5
					s-60.5-25-58.1-55.5C5308.908,427.956,5338.309,403.556,5372.309,403.556z"/>
			</g>
			<path id="XMLID_17_" class="st8" d="M4790.808-593.444"/>
			<line id="XMLID_79_" class="st8" x1="4825.709" y1="-593.144" x2="4704.107" y2="-593.144"/>
			<line id="XMLID_101_" class="st10" x1="4826.607" y1="489.456" x2="4817.909" y2="550.456"/>
			<g id="XMLID_134_" class="st2">
				<line id="XMLID_133_" class="st11" x1="4823.209" y1="513.656" x2="4807.808" y2="525.856"/>
				<line id="XMLID_130_" class="st11" x1="4823.209" y1="513.656" x2="4835.009" y2="525.856"/>
			</g>
			<line id="XMLID_163_" class="st10" x1="4885.909" y1="550.456" x2="4817.909" y2="550.456"/>
			<g id="XMLID_154_" class="st2">
				<line id="XMLID_162_" class="st11" x1="4858.709" y1="550.456" x2="4843.409" y2="562.756"/>
				<line id="XMLID_161_" class="st11" x1="4858.709" y1="550.456" x2="4846.808" y2="538.156"/>
			</g>
			<path id="XMLID_16_" class="st10" d="M4805.308,464.156c2,1.6,1.3,5.3,1.5,7.6c1.1-1.9,1.1-4.3,1.4-6.4c1.7,3.7,1.6,8,2.5,11.8
				c4-5.4,3.3-12,5.7-17.7c2,5.4,3.4,11,4,16.6c4.2-1.6,4.2-15.9,4.7-18.6c1.3,2.3,2.2,4.7,2.5,7.2c2.2-3,3-6,2.6-9.2
				c2.4,7.3,2.6,14.8,5.5,22.1c1.1-3.7,1.2-10.6,4.6-14c1,1.7,1.5,2,1.5-0.3c2.1,3.5,2.3,7.6,4.2,11.2c1.2-4.9,1-10.3,3.1-15
				c0,1.2,0.2,2.4,0.5,3.6c0.1-0.7,0.4-1.3,0.9-2c1.3,1.9,1.8,2.9,4.6,3.8"/>
			<line id="XMLID_90_" class="st10" x1="4898.509" y1="550.456" x2="4921.009" y2="550.456"/>
			<line id="XMLID_104_" class="st10" x1="4911.107" y1="540.356" x2="4908.409" y2="560.556"/>
			<line id="XMLID_203_" class="st10" x1="4749.909" y1="550.456" x2="4817.909" y2="550.456"/>
			<g id="XMLID_189_" class="st2">
				<line id="XMLID_202_" class="st11" x1="4777.107" y1="550.456" x2="4788.909" y2="562.756"/>
				<line id="XMLID_190_" class="st11" x1="4777.107" y1="550.456" x2="4792.509" y2="538.156"/>
			</g>
			<line id="XMLID_188_" class="st10" x1="4737.308" y1="550.456" x2="4714.808" y2="550.456"/>
			<g id="XMLID_187_" class="st2">
				<g id="XMLID_237_">
					
						<linearGradient id="XMLID_68_" gradientUnits="userSpaceOnUse" x1="7830.5161" y1="11000.9277" x2="7830.5161" y2="11183.7168" gradientTransform="matrix(0.7071 0.7071 -0.7071 0.7071 7604.6807 -13974.7822)">
						<stop  offset="0" style="stop-color:#FFFFFF;stop-opacity:0"/>
						<stop  offset="0.5" style="stop-color:#000000"/>
					</linearGradient>
					<polygon id="XMLID_238_" class="st12" points="5427.508,-594.444 5307.209,-691.244 5288.908,-494.544 5169.008,-594.444 					
						"/>
				</g>
				
					<linearGradient id="XMLID_70_" gradientUnits="userSpaceOnUse" x1="7921.876" y1="11092.3564" x2="7921.876" y2="10909.5674" gradientTransform="matrix(0.7071 0.7071 -0.7071 0.7071 7604.6807 -13974.7822)">
					<stop  offset="0" style="stop-color:#FFFFFF;stop-opacity:0"/>
					<stop  offset="0.5" style="stop-color:#000000"/>
				</linearGradient>
				<polygon id="XMLID_236_" class="st13" points="5556.709,-594.444 5434.508,-691.244 5420.309,-494.544 5298.209,-594.444 				
					"/>
			</g>
		</g>
	</g>
	<g id="Layer_2">
	</g>
</g>
<g id="Layer_2_1_">
	<g>
		<g id="XMLID_153_">
			<line id="XMLID_206_" class="st5" x1="5764.508" y1="845.456" x2="5365.008" y2="845.456"/>
			<line id="XMLID_205_" class="st5" x1="4443.209" y1="-35.844" x2="4472.808" y2="-56.644"/>
			<line id="XMLID_204_" class="st5" x1="4472.808" y1="-56.644" x2="4452.009" y2="-77.344"/>
			<line id="XMLID_186_" class="st5" x1="4401.509" y1="161.856" x2="4432.107" y2="139.756"/>
			<line id="XMLID_185_" class="st5" x1="4432.107" y1="139.756" x2="4410.808" y2="117.856"/>
			<line id="XMLID_184_" class="st5" x1="4356.409" y1="372.456" x2="4389.709" y2="347.856"/>
			<line id="XMLID_181_" class="st5" x1="4389.709" y1="347.856" x2="4366.808" y2="323.456"/>
			<polyline id="XMLID_180_" class="st5" points="4413.909,-211.144 4290.409,347.856 4469.308,347.856 			"/>
			<line id="XMLID_179_" class="st5" x1="4438.509" y1="-429.444" x2="4459.209" y2="-409.844"/>
			<line id="XMLID_178_" class="st5" x1="4459.209" y1="-409.844" x2="4488.509" y2="-429.444"/>
			<line id="XMLID_177_" class="st5" x1="4041.607" y1="483.856" x2="4019.408" y2="458.456"/>
			<line id="XMLID_174_" class="st5" x1="4019.408" y1="458.456" x2="3984.408" y2="483.856"/>
			<line id="XMLID_172_" class="st5" x1="4485.209" y1="-533.544" x2="4434.107" y2="-302.344"/>
			<polyline id="XMLID_171_" class="st5" points="4190.808,845.456 3920.807,845.456 4201.909,-257.844 4368.509,-257.844 			"/>
			<line id="XMLID_170_" class="st5" x1="4337.808" y1="139.756" x2="4508.709" y2="139.756"/>
			<line id="XMLID_167_" class="st5" x1="4381.209" y1="-56.644" x2="4548.607" y2="-56.644"/>
			<polyline id="XMLID_166_" class="st6" points="4630.009,139.756 4958.808,139.756 4948.808,215.656 5025.209,215.656 			"/>
			<polyline id="XMLID_165_" class="st6" points="4591.308,347.856 4931.308,347.856 4942.509,263.156 5019.409,263.156 			"/>
			<line id="XMLID_160_" class="st6" x1="5131.909" y1="-256.844" x2="5081.509" y2="187.956"/>
			<path id="XMLID_159_" class="st6" d="M4663.808-56.644h429.1h0.5c0.8-7.2,8.6-13,17.3-13c8.7,0,15.1,5.8,14.3,13h280.7l-5.1,73.9
				h74.3"/>
			<polyline id="XMLID_158_" class="st6" points="5135.709,239.356 5385.209,239.356 5397.508,62.156 5471.508,62.156 			"/>
			<line id="XMLID_157_" class="st6" x1="5540.608" y1="-256.844" x2="5527.908" y2="-8.844"/>
			<polyline id="XMLID_155_" class="st5" points="5583.809,39.556 5651.709,39.556 5638.108,452.356 5432.209,452.356 			"/>
		</g>
		<path id="_x28__x2B__x29__1_" class="st5" d="M4397.808-257.844h53 M4419.607-236.644l9.4-42.4 M4480.209-257.844
			c-5.3,24.8-34.7,45-65.8,45s-51.6-20.2-45.9-45c5.6-24.6,35-44.4,65.7-44.4C4464.909-302.244,4485.409-282.444,4480.209-257.844z"
			/>
		<g id="_x28_3_x29__2_">
			<path id="XMLID_147_" class="st5" d="M4591.308,347.856c-5.3,29.6-37.1,53.7-71.1,53.7s-56.7-24.1-50.9-53.7
				c5.7-29.3,37.5-52.9,70.9-52.9C4573.709,294.956,4596.607,318.556,4591.308,347.856z"/>
			<g id="XMLID_327_">
				<path id="XMLID_328_" class="st14" d="M4553.409,361.156l-2.7,12.4c-3.4,1.5-6.8,2.5-10.2,3.2c-3.4,0.6-6.8,0.9-10.3,0.9
					c-5,0-9.3-0.7-13.1-2.2c-3.8-1.5-6.9-3.5-9.3-6.2s-4-5.8-4.9-9.4s-0.9-7.6-0.1-12c0.8-4.3,2.4-8.3,4.8-11.9
					c2.3-3.6,5.2-6.8,8.6-9.4s7.3-4.7,11.5-6.1c4.3-1.5,8.8-2.2,13.6-2.2c2.6,0,5.5,0.3,8.7,0.8c3.1,0.5,6.2,1.6,9.2,3.2l-1.9,12.4
					h-6.1l-0.1-10.1c-1.5-0.7-3.1-1.3-4.7-1.6c-1.6-0.3-3.2-0.5-4.9-0.5c-3.2,0-6.4,0.5-9.4,1.6c-3.1,1.1-5.8,2.7-8.4,4.8
					c-2.5,2.1-4.7,4.8-6.6,7.9c-1.8,3.2-3.1,6.8-3.9,11c-0.8,4.1-0.9,7.8-0.4,10.9c0.5,3.2,1.6,5.8,3.2,8s3.7,3.8,6.3,4.9
					s5.6,1.7,8.9,1.7c1.9,0,3.8-0.2,5.9-0.6c2-0.4,4.1-1,6.2-1.8l3.8-9.9L4553.409,361.156L4553.409,361.156z"/>
			</g>
		</g>
		<g id="_x28_2_x29__1_">
			<path id="XMLID_143_" class="st5" d="M4630.009,139.756c-5.1,28.5-36.6,51.7-70.3,51.7c-33.7,0-56.5-23.3-50.9-51.7
				c5.5-28.2,37-51,70.2-51C4612.209,88.756,4635.009,111.456,4630.009,139.756z"/>
			<g id="XMLID_322_">
				<path id="XMLID_323_" class="st14" d="M4576.209,113.056c3.3,0,6.1,0.3,8.5,1c2.4,0.6,4.4,1.5,6,2.7c1.5,1.2,2.6,2.6,3.2,4.1
					c0.6,1.6,0.8,3.4,0.4,5.3c-0.5,2.8-2.1,5.4-4.8,7.7c-2.7,2.3-6.7,3.9-12,4.8c3,0.4,5.6,1,7.7,1.8s3.7,1.8,4.9,3
					c1.2,1.2,2,2.4,2.4,3.9c0.4,1.4,0.4,3,0.2,4.6c-0.3,1.8-1.1,3.6-2.4,5.4c-1.2,1.8-3,3.3-5.3,4.7s-5.1,2.5-8.5,3.4
					s-7.4,1.3-12,1.3h-25.9l0.6-3.3l8.9-0.9c0.8-3.4,1.5-6.8,2.1-10.3c0.7-3.5,1.3-7,2-10.5l0.7-3.9c0.7-3.5,1.3-6.9,2-10.3
					c0.6-3.4,1.2-6.8,1.8-10.3l-8.5-0.9l0.6-3.3L4576.209,113.056L4576.209,113.056z M4566.107,116.856c-0.8,3.3-1.5,6.7-2.1,10.1
					c-0.6,3.4-1.3,6.7-1.9,10.2h5c5.7,0,10-0.8,12.9-2.4c2.9-1.6,4.7-4.3,5.4-8c0.7-3.6-0.1-6.2-2.2-7.6c-2.1-1.5-5.6-2.2-10.4-2.2
					h-6.7L4566.107,116.856L4566.107,116.856z M4563.209,162.956c6.3,0,11-0.9,14.3-2.8c3.3-1.9,5.2-4.6,5.9-8.1
					c0.7-3.8-0.3-6.6-2.8-8.4c-2.6-1.9-7.2-2.8-13.8-2.8h-5.3c-0.8,4-1.5,7.8-2.2,11.4c-0.7,3.6-1.3,7.2-1.8,10.8L4563.209,162.956
					L4563.209,162.956z"/>
			</g>
		</g>
		<g id="_x28_1_x29__2_">
			<path id="XMLID_137_" class="st5" d="M4663.808-56.644c-4.7,26.3-34.5,47.8-66.5,47.8s-53.8-21.5-48.6-47.8
				c5.1-26.1,34.8-47.1,66.4-47.1C4646.607-103.844,4668.509-82.744,4663.808-56.644z"/>
			<g id="XMLID_318_">
				<path id="XMLID_319_" class="st14" d="M4632.509-38.744l-0.6,3.1h-25.1l0.6-3.1l9.2-0.9l-2.8-12.5h-21.1l-7.5,12.5l8.7,1
					l-0.6,3.1h-21.2l0.6-3.1l8-1l28.5-46.5h5.5l11,46.8L4632.509-38.744z M4613.009-55.744l-4.9-21.8l-13.3,21.8H4613.009z"/>
			</g>
		</g>
		<g id="Crossfader">
			<path id="XMLID_129_" class="st5" d="M5110.308,263.156c-37.4,0-32-47.6-55.7-47.6h-13.3"/>
			<path id="XMLID_128_" class="st5" d="M5115.409,215.656c-5,0-13.3,0-13.3,0c-23.8,0-29.2,47.6-66.5,47.6"/>
			<path id="XMLID_127_" class="st5" d="M5135.709,239.356c-3,28.7-32.6,52.1-66,52.1s-57.7-23.4-54.2-52.1
				c3.5-28.4,33-51.3,65.9-51.3C5114.409,187.956,5138.709,210.856,5135.709,239.356z"/>
			<path id="XMLID_126_" class="st5" d="M5097.107,260.756"/>
			<line id="XMLID_125_" class="st15" x1="5072.607" y1="265.756" x2="5075.607" y2="239.356"/>
			<line id="XMLID_124_" class="st15" x1="5081.209" y1="265.756" x2="5083.107" y2="248.856"/>
			<line id="XMLID_123_" class="st15" x1="5064.107" y1="265.756" x2="5066.009" y2="248.856"/>
			<line id="XMLID_122_" class="st15" x1="5055.607" y1="265.756" x2="5056.607" y2="256.656"/>
			<line id="XMLID_121_" class="st15" x1="5089.709" y1="265.756" x2="5090.607" y2="258.056"/>
		</g>
		<g id="Crossfader_1_">
			<path id="XMLID_120_" class="st5" d="M5560.508,62.156c-36.3,0-34-44.9-57.1-44.9h-13"/>
			<path id="XMLID_119_" class="st5" d="M5562.608,17.256c-4.9,0-13,0-13,0c-23.1,0-25.4,44.9-61.7,44.9"/>
			<path id="XMLID_118_" class="st5" d="M5583.809,39.556c-1.2,27.1-28.4,49.2-60.9,49.2s-57.5-22.1-55.9-49.2
				c1.6-26.9,28.9-48.5,60.9-48.5C5559.908-8.844,5584.908,12.756,5583.809,39.556z"/>
			<path id="XMLID_117_" class="st5" d="M5547.608,59.856"/>
			<line id="XMLID_116_" class="st15" x1="5524.108" y1="64.556" x2="5525.408" y2="39.556"/>
			<line id="XMLID_115_" class="st15" x1="5532.408" y1="64.556" x2="5533.209" y2="48.656"/>
			<line id="XMLID_113_" class="st15" x1="5515.809" y1="64.556" x2="5516.608" y2="48.656"/>
			<line id="XMLID_112_" class="st15" x1="5507.508" y1="64.556" x2="5508.008" y2="55.956"/>
			<line id="XMLID_111_" class="st15" x1="5540.709" y1="64.556" x2="5541.008" y2="57.256"/>
		</g>
		<g id="XMLID_105_">
			<g id="Mic_1_">
				<path id="XMLID_110_" class="st6" d="M4879.607-585.444L4879.607-585.444c-6.5,0-11-4.5-10.1-9.9l3.5-21.6
					c0.9-5.4,6.8-9.8,13.2-9.8s11,4.4,10.1,9.8l-3.4,21.6C4892.009-589.944,4886.009-585.444,4879.607-585.444"/>
				<path id="XMLID_109_" d="M4901.209-606.044l-1.9,12c-1.2,7.7-10.5,14-20.6,14s-17.4-6.3-16.1-14l1.9-12h-4.6l-2,12.1
					c-1.6,9.6,7.5,17.5,20.2,17.5s24.3-7.9,25.7-17.5l1.9-12.1H4901.209z"/>
				<polygon id="XMLID_108_" points="4863.209,-560.044 4887.909,-560.044 4888.409,-563.644 4863.808,-563.644 				"/>
				<polygon id="XMLID_107_" points="4873.709,-563.244 4878.409,-563.244 4880.709,-577.744 4876.009,-577.744 				"/>
			</g>
			<path id="XMLID_106_" class="st5" d="M4933.308-595.044c-3.4,22.3-30,40.5-59.5,40.5s-50.3-18.2-46.5-40.5
				c3.7-22.1,30.3-40,59.4-40S4936.709-617.244,4933.308-595.044z"/>
		</g>
		<g id="XMLID_103_">
			<polygon id="XMLID_102_" class="st6" points="5386.209,436.456 5361.709,436.456 5362.408,427.356 5336.008,402.456 
				5328.508,502.956 5358.809,477.556 5359.608,467.056 5384.209,467.056 			"/>
			<g id="XMLID_99_">
				<path id="XMLID_100_" class="st5" d="M5351.309,376.556c47.3,0,83.5,33.8,80.9,75.8c-2.6,42.6-43.9,77.4-92.1,77.4
					c-48.3,0-84.4-34.9-80.8-77.4C5262.809,410.256,5304.008,376.556,5351.309,376.556z"/>
			</g>
		</g>
		<path id="XMLID_98_" class="st6" d="M4792.409-595.444"/>
		<line id="XMLID_97_" class="st6" x1="4827.308" y1="-595.044" x2="4705.709" y2="-595.044"/>
		<line id="XMLID_96_" class="st6" x1="4834.509" y1="450.056" x2="4821.909" y2="538.456"/>
		<g id="XMLID_89_">
			<line id="XMLID_94_" class="st6" x1="4829.509" y1="485.056" x2="4807.107" y2="502.756"/>
			<line id="XMLID_92_" class="st6" x1="4829.509" y1="485.056" x2="4846.808" y2="502.756"/>
		</g>
		<line id="XMLID_87_" class="st6" x1="4921.509" y1="538.456" x2="4821.808" y2="538.456"/>
		<g id="XMLID_66_">
			<line id="XMLID_69_" class="st6" x1="4881.709" y1="538.456" x2="4859.209" y2="556.456"/>
			<line id="XMLID_67_" class="st6" x1="4881.709" y1="538.456" x2="4864.209" y2="520.656"/>
		</g>
		<path id="XMLID_64_" class="st6" d="M4797.409,413.856c3,2.4,4,7.3,4.3,10.6c1.6-2.7,6.3-7.5,6.8-10.4c2.4,5.3,1.6,13.1,2.9,18.6
			c5.8-7.8,4.7-17.2,8.2-25.4c2.9,7.8,4.9,15.7,5.8,23.9c6-2.4,6-22.8,6.8-26.7c1.9,3.3,3.7,15.8,4.3,19.4
			c3.1-4.2,6.4-16.8,5.7-21.4c3.5,10.5,1.2,20.3,5.5,30.8c1.6-5.3,1.7-15.2,6.6-20.1c1.4,2.5,2.2,2.8,2.2-0.5
			c3.1,5.1,3.3,10.9,6.1,16.1c1.8-7,1.4-14.7,4.4-21.5c0,1.8,0.3,3.5,0.7,5.2c0.1-1,0.5-1.9,1.4-2.8c1.9,2.8,2.6,4.1,6.6,5.5"/>
		<line id="XMLID_58_" class="st6" x1="4940.009" y1="538.456" x2="4972.909" y2="538.456"/>
		<line id="XMLID_57_" class="st6" x1="4958.308" y1="523.756" x2="4954.607" y2="553.256"/>
		<line id="XMLID_13_" class="st6" x1="4722.209" y1="538.456" x2="4821.909" y2="538.456"/>
		<g id="XMLID_10_">
			<line id="XMLID_12_" class="st6" x1="4762.009" y1="538.456" x2="4779.308" y2="556.456"/>
			<line id="XMLID_11_" class="st6" x1="4762.009" y1="538.456" x2="4784.607" y2="520.656"/>
		</g>
		<line id="XMLID_9_" class="st6" x1="4703.709" y1="538.456" x2="4670.808" y2="538.456"/>
		<g id="XMLID_1_">
			<g id="XMLID_7_">
				
					<linearGradient id="XMLID_80_" gradientUnits="userSpaceOnUse" x1="7830.0566" y1="10998.5938" x2="7830.0566" y2="11181.3125" gradientTransform="matrix(0.7071 0.7071 -0.7071 0.7071 7604.6807 -13974.7822)">
					<stop  offset="0" style="stop-color:#FFFFFF"/>
					<stop  offset="0.5" style="stop-color:#000000"/>
				</linearGradient>
				<polygon id="XMLID_8_" class="st16" points="5428.809,-596.444 5308.508,-692.944 5290.408,-496.844 5170.408,-596.444 				"/>
			</g>
			
				<linearGradient id="XMLID_81_" gradientUnits="userSpaceOnUse" x1="7921.4155" y1="11089.9531" x2="7921.4155" y2="10907.2354" gradientTransform="matrix(0.7071 0.7071 -0.7071 0.7071 7604.6807 -13974.7822)">
				<stop  offset="0" style="stop-color:#FFFFFF"/>
				<stop  offset="0.5" style="stop-color:#000000"/>
			</linearGradient>
			<polygon id="XMLID_6_" class="st17" points="5558.008,-596.444 5435.709,-692.944 5421.608,-496.844 5299.608,-596.444 			"/>
		</g>
	</g>
</g>
<text transform="matrix(1 0 0 1 2722.812 -590.3921)" class="st18 st19">Proximity Sensor</text>
<text transform="matrix(1 0 0 1 2769.6914 -1301.5325)" class="st18 st19">Crossfade Knobs</text>
<text transform="matrix(1 0 0 1 6342.8174 -1298.4851)" class="st18 st19">Keys</text>
<line class="st20" x1="4424.308" y1="-607.945" x2="3545.596" y2="-607.945"/>
<line class="st20" x1="5115.268" y1="-475.344" x2="5115.268" y2="-1319.707"/>
<polyline class="st20" points="5988.968,864.504 5988.968,-1319.707 6272.094,-1319.707 "/>
<polyline class="st20" points="3545.596,-1319.707 5531.363,-1319.707 5539.093,-1319.707 5539.093,-473.944 "/>
<line class="st20" x1="4461.709" y1="640.206" x2="3545.596" y2="640.206"/>
<text transform="matrix(1 0 0 1 2861.5293 658.0582)" class="st18 st19">Pitch / Noise</text>
</svg>
