<?xml version="1.0" encoding="utf-8"?>
<!-- Generator: Adobe Illustrator 19.0.0, SVG Export Plug-In . SVG Version: 6.00 Build 0)  -->
<svg version="1.1" id="Layer_1" xmlns="http://www.w3.org/2000/svg" xmlns:xlink="http://www.w3.org/1999/xlink" x="0px" y="0px"
	 viewBox="-258 205.27 441.113 151.73" style="enable-background:new -258 205.27 441.113 151.73;" xml:space="preserve">
<style type="text/css">
	.st0{fill:url(#XMLID_2_);}
	.st1{fill:url(#XMLID_3_);}
	.st2{fill:none;}
	.st3{enable-background:new    ;}
	.st4{fill:#231F20;}
</style>
<g>
	<g id="XMLID_45_">
		<g id="XMLID_18_">
			
				<linearGradient id="XMLID_2_" gradientUnits="userSpaceOnUse" x1="-890.5308" y1="-32.1803" x2="-890.5308" y2="68.0403" gradientTransform="matrix(0.7071 0.7071 -0.7071 0.7071 455.2386 898.151)">
				<stop  offset="0" style="stop-color:#FFFFFF"/>
				<stop  offset="0.5" style="stop-color:#000000"/>
			</linearGradient>
			<polygon id="XMLID_19_" class="st0" points="-116.268,281.135 -187.134,210.269 -187.134,352.001 -258,281.135 			"/>
		</g>
		
			<linearGradient id="XMLID_3_" gradientUnits="userSpaceOnUse" x1="-840.4205" y1="17.93" x2="-840.4205" y2="-82.2906" gradientTransform="matrix(0.7071 0.7071 -0.7071 0.7071 455.2386 898.151)">
			<stop  offset="0" style="stop-color:#FFFFFF"/>
			<stop  offset="0.5" style="stop-color:#000000"/>
		</linearGradient>
		<polygon id="XMLID_17_" class="st1" points="-45.402,281.135 -116.268,210.269 -116.268,352.001 -187.134,281.135 		"/>
	</g>
	<rect id="XMLID_23_" x="-39.93" y="210.269" class="st2" width="255.385" height="71.283"/>
	<g class="st3">
		<path class="st4" d="M-31.73,210.269h11.6v18.199l-0.399,8.601c2.133-2,4.532-3.583,7.2-4.75c2.665-1.166,5.332-1.75,8-1.75
			c3.199,0,6.032,0.584,8.5,1.75c2.465,1.167,4.565,2.834,6.3,5c1.732,2.167,3.05,4.784,3.95,7.85c0.899,3.067,1.35,6.5,1.35,10.3
			c0,4.2-0.6,7.95-1.8,11.25c-1.2,3.301-2.817,6.085-4.851,8.351c-2.034,2.267-4.367,4-7,5.2c-2.634,1.199-5.35,1.8-8.149,1.8
			c-2.335,0-4.768-0.567-7.3-1.7c-2.535-1.133-4.867-2.766-7-4.9h-0.301l-1,5.4h-9.1V210.269z M-20.131,268.068
			c1.801,1.667,3.666,2.834,5.601,3.5c1.933,0.667,3.665,1,5.2,1c3.465,0,6.365-1.416,8.699-4.25c2.333-2.833,3.5-7.05,3.5-12.65
			c0-4.933-0.899-8.766-2.699-11.5c-1.801-2.732-4.7-4.1-8.7-4.1c-1.867,0-3.768,0.467-5.7,1.399c-1.935,0.935-3.9,2.435-5.9,4.5
			V268.068z"/>
	</g>
	<g class="st3">
		<path class="st4" d="M28.368,256.368c0-4.065,0.684-7.7,2.051-10.9c1.365-3.199,3.183-5.899,5.449-8.1
			c2.266-2.2,4.9-3.883,7.9-5.05c3-1.166,6.1-1.75,9.3-1.75s6.3,0.584,9.3,1.75c3,1.167,5.633,2.85,7.9,5.05
			c2.266,2.2,4.083,4.9,5.45,8.1c1.365,3.2,2.05,6.835,2.05,10.9c0,4.067-0.685,7.7-2.05,10.9c-1.367,3.199-3.185,5.899-5.45,8.1
			c-2.268,2.2-4.9,3.867-7.9,5s-6.1,1.7-9.3,1.7s-6.3-0.567-9.3-1.7s-5.635-2.8-7.9-5c-2.267-2.2-4.084-4.9-5.449-8.1
			C29.052,264.068,28.368,260.436,28.368,256.368z M40.269,256.368c0,4.935,1.133,8.885,3.4,11.85
			c2.266,2.968,5.399,4.45,9.399,4.45s7.133-1.482,9.4-4.45c2.266-2.965,3.399-6.915,3.399-11.85c0-5-1.134-8.982-3.399-11.95
			c-2.268-2.966-5.4-4.45-9.4-4.45s-7.134,1.484-9.399,4.45C41.401,247.386,40.269,251.368,40.269,256.368z"/>
	</g>
	<g class="st3">
		<path class="st4" d="M91.468,231.769h32.8v49.1h-11.5v-40h-21.3V231.769z M117.668,223.168c-2.335,0-4.285-0.7-5.851-2.1
			c-1.567-1.4-2.35-3.266-2.35-5.601c0-2.332,0.782-4.215,2.35-5.649c1.565-1.433,3.516-2.15,5.851-2.15
			c2.399,0,4.365,0.718,5.899,2.15c1.533,1.435,2.3,3.317,2.3,5.649c0,2.335-0.767,4.2-2.3,5.601
			C122.033,222.468,120.067,223.168,117.668,223.168z"/>
	</g>
	<g class="st3">
		<path class="st4" d="M148.467,231.769h32.8v49.1h-11.5v-40h-21.3V231.769z M174.667,223.168c-2.335,0-4.285-0.7-5.851-2.1
			c-1.567-1.4-2.35-3.266-2.35-5.601c0-2.332,0.782-4.215,2.35-5.649c1.565-1.433,3.516-2.15,5.851-2.15
			c2.399,0,4.365,0.718,5.899,2.15c1.533,1.435,2.3,3.317,2.3,5.649c0,2.335-0.767,4.2-2.3,5.601
			C179.032,222.468,177.066,223.168,174.667,223.168z"/>
	</g>
	<rect id="XMLID_16_" x="-32.914" y="291.506" class="st2" width="193.377" height="60.495"/>
	<g class="st3">
		<path class="st4" d="M-31.751,291.504h1.024v2.426l-0.024,1.175c0.291-0.283,0.618-0.509,0.98-0.675
			c0.363-0.167,0.724-0.25,1.082-0.25c0.408,0,0.771,0.072,1.087,0.219c0.316,0.146,0.581,0.354,0.794,0.625
			c0.213,0.271,0.373,0.596,0.481,0.975s0.162,0.802,0.162,1.269c0,0.517-0.075,0.979-0.225,1.388
			c-0.15,0.408-0.353,0.754-0.606,1.037c-0.254,0.284-0.548,0.498-0.881,0.645c-0.334,0.146-0.68,0.219-1.038,0.219
			c-0.292,0-0.606-0.073-0.943-0.219c-0.338-0.146-0.652-0.349-0.944-0.606h-0.037l-0.088,0.675h-0.824V291.504z M-30.727,298.98
			c0.292,0.258,0.586,0.441,0.882,0.55c0.295,0.108,0.552,0.162,0.769,0.162c0.267,0,0.513-0.056,0.737-0.168
			c0.225-0.113,0.421-0.271,0.588-0.476c0.166-0.204,0.295-0.456,0.387-0.756s0.138-0.638,0.138-1.013
			c0-0.333-0.033-0.638-0.1-0.912c-0.067-0.275-0.169-0.511-0.307-0.707c-0.138-0.195-0.314-0.348-0.531-0.456
			s-0.475-0.162-0.774-0.162c-0.268,0-0.553,0.073-0.856,0.219c-0.305,0.146-0.615,0.377-0.932,0.693V298.98z"/>
		<path class="st4" d="M-24.289,294.33h3.851v6.075h-1.025v-5.237h-2.825V294.33z M-21.063,293.08c-0.242,0-0.44-0.07-0.594-0.212
			c-0.154-0.142-0.231-0.334-0.231-0.575c0-0.242,0.077-0.436,0.231-0.581c0.153-0.146,0.352-0.219,0.594-0.219
			c0.232,0,0.429,0.072,0.587,0.219c0.158,0.146,0.237,0.339,0.237,0.581c0,0.241-0.079,0.434-0.237,0.575
			S-20.831,293.08-21.063,293.08z"/>
		<path class="st4" d="M-17.164,297.379c0-0.491,0.077-0.935,0.231-1.331c0.154-0.396,0.358-0.731,0.612-1.006
			c0.254-0.275,0.548-0.487,0.882-0.638c0.333-0.15,0.679-0.225,1.037-0.225c0.375,0,0.704,0.07,0.987,0.212
			s0.566,0.334,0.851,0.575l-0.038-1.125v-2.338h1.025v8.9h-0.851l-0.087-0.8h-0.038c-0.25,0.258-0.548,0.481-0.894,0.669
			s-0.706,0.281-1.081,0.281c-0.4,0-0.761-0.071-1.081-0.213c-0.321-0.142-0.599-0.348-0.831-0.619
			c-0.233-0.271-0.413-0.602-0.538-0.993S-17.164,297.888-17.164,297.379z M-16.102,297.368c0,0.733,0.156,1.304,0.469,1.712
			s0.752,0.612,1.319,0.612c0.6,0,1.17-0.304,1.712-0.912v-3.025c-0.274-0.258-0.544-0.441-0.806-0.55
			c-0.263-0.108-0.527-0.162-0.794-0.162s-0.515,0.056-0.744,0.169c-0.229,0.112-0.429,0.271-0.6,0.475s-0.307,0.448-0.406,0.731
			C-16.052,296.701-16.102,297.017-16.102,297.368z"/>
		<path class="st4" d="M-9.289,294.33h3.85v6.075h-1.024v-5.237h-2.825V294.33z M-6.064,293.08c-0.241,0-0.439-0.07-0.594-0.212
			s-0.231-0.334-0.231-0.575c0-0.242,0.077-0.436,0.231-0.581c0.154-0.146,0.353-0.219,0.594-0.219c0.233,0,0.43,0.072,0.588,0.219
			c0.158,0.146,0.237,0.339,0.237,0.581c0,0.241-0.079,0.434-0.237,0.575S-5.831,293.08-6.064,293.08z"/>
		<path class="st4" d="M-1.089,294.33h0.85l0.088,1.438h0.037c0.316-0.491,0.706-0.879,1.169-1.162
			c0.462-0.283,0.977-0.425,1.544-0.425c0.225,0,0.433,0.019,0.625,0.056c0.191,0.038,0.383,0.103,0.574,0.194l-0.237,0.887
			c-0.217-0.074-0.397-0.129-0.544-0.162c-0.146-0.033-0.339-0.05-0.581-0.05c-0.458,0-0.897,0.131-1.318,0.394
			s-0.814,0.711-1.182,1.344v3.562h-1.024V294.33z"/>
		<path class="st4" d="M5.448,297.379c0-0.5,0.088-0.947,0.263-1.344c0.175-0.396,0.406-0.73,0.693-1.006
			c0.288-0.275,0.617-0.485,0.987-0.631c0.371-0.146,0.752-0.219,1.145-0.219c0.433,0,0.82,0.068,1.162,0.206
			s0.631,0.331,0.869,0.581c0.237,0.25,0.418,0.55,0.543,0.9c0.125,0.35,0.188,0.737,0.188,1.162c0,0.108-0.002,0.215-0.006,0.318
			c-0.004,0.104-0.015,0.194-0.031,0.27h-4.75c0.008,0.324,0.073,0.616,0.193,0.875c0.121,0.258,0.283,0.479,0.488,0.662
			c0.204,0.184,0.445,0.325,0.725,0.425c0.279,0.101,0.585,0.15,0.919,0.15c0.358,0,0.686-0.05,0.981-0.15
			c0.295-0.1,0.585-0.237,0.868-0.412l0.362,0.675c-0.3,0.191-0.642,0.358-1.024,0.5c-0.384,0.142-0.821,0.213-1.312,0.213
			c-0.45,0-0.873-0.073-1.269-0.219c-0.396-0.146-0.742-0.354-1.038-0.625c-0.296-0.271-0.529-0.603-0.7-0.994
			S5.448,297.879,5.448,297.379z M10.349,296.879c0-0.607-0.159-1.074-0.476-1.399s-0.758-0.487-1.325-0.487
			c-0.25,0-0.489,0.041-0.719,0.125c-0.229,0.083-0.436,0.206-0.618,0.368c-0.184,0.163-0.338,0.36-0.463,0.594s-0.208,0.5-0.25,0.8
			H10.349z"/>
		<path class="st4" d="M13.085,297.379c0-0.508,0.09-0.96,0.269-1.355c0.18-0.396,0.423-0.731,0.731-1.007
			c0.309-0.274,0.669-0.483,1.081-0.625c0.413-0.142,0.849-0.212,1.307-0.212c0.5,0,0.932,0.087,1.294,0.262
			c0.362,0.176,0.669,0.384,0.919,0.625l-0.513,0.663c-0.25-0.217-0.511-0.388-0.781-0.513c-0.271-0.125-0.564-0.188-0.882-0.188
			c-0.35,0-0.671,0.057-0.962,0.169c-0.292,0.112-0.54,0.272-0.744,0.481c-0.204,0.208-0.364,0.456-0.481,0.743
			c-0.116,0.288-0.175,0.606-0.175,0.956c0,0.351,0.057,0.667,0.169,0.95s0.271,0.527,0.475,0.731s0.45,0.362,0.738,0.475
			c0.287,0.113,0.605,0.169,0.956,0.169c0.375,0,0.719-0.072,1.031-0.219c0.312-0.146,0.598-0.327,0.856-0.544l0.449,0.663
			c-0.333,0.3-0.706,0.533-1.118,0.7c-0.413,0.166-0.844,0.25-1.294,0.25c-0.475,0-0.915-0.071-1.318-0.213
			c-0.404-0.142-0.757-0.348-1.057-0.619c-0.3-0.271-0.533-0.604-0.7-1C13.168,298.328,13.085,297.879,13.085,297.379z"/>
		<path class="st4" d="M22.16,295.167h-1.713v-0.775l1.75-0.062l0.138-1.7h0.851v1.7h2.987v0.838h-2.987v2.888
			c0,0.274,0.024,0.515,0.074,0.719c0.051,0.204,0.134,0.377,0.25,0.519c0.117,0.142,0.275,0.248,0.476,0.318
			c0.2,0.071,0.445,0.106,0.737,0.106s0.554-0.025,0.787-0.075s0.459-0.116,0.676-0.2l0.225,0.75
			c-0.275,0.101-0.579,0.186-0.912,0.257c-0.334,0.07-0.667,0.106-1,0.106c-0.442,0-0.812-0.061-1.113-0.182
			c-0.3-0.121-0.539-0.292-0.719-0.513c-0.179-0.221-0.308-0.485-0.387-0.794c-0.08-0.308-0.119-0.649-0.119-1.024V295.167z"/>
		<path class="st4" d="M28.21,294.33h3.851v6.075h-1.025v-5.237H28.21V294.33z M31.436,293.08c-0.242,0-0.44-0.07-0.594-0.212
			c-0.154-0.142-0.231-0.334-0.231-0.575c0-0.242,0.077-0.436,0.231-0.581c0.153-0.146,0.352-0.219,0.594-0.219
			c0.232,0,0.429,0.072,0.587,0.219c0.158,0.146,0.237,0.339,0.237,0.581c0,0.241-0.079,0.434-0.237,0.575
			S31.668,293.08,31.436,293.08z"/>
		<path class="st4" d="M35.335,297.379c0-0.508,0.081-0.96,0.244-1.355c0.162-0.396,0.381-0.731,0.656-1.007
			c0.274-0.274,0.594-0.483,0.956-0.625s0.744-0.212,1.144-0.212c0.4,0,0.781,0.07,1.144,0.212c0.363,0.142,0.682,0.351,0.957,0.625
			c0.274,0.275,0.493,0.61,0.656,1.007c0.162,0.396,0.243,0.848,0.243,1.355c0,0.5-0.081,0.948-0.243,1.344
			c-0.163,0.396-0.382,0.729-0.656,1c-0.275,0.271-0.594,0.478-0.957,0.619c-0.362,0.142-0.743,0.213-1.144,0.213
			c-0.399,0-0.781-0.071-1.144-0.213s-0.682-0.348-0.956-0.619c-0.275-0.271-0.494-0.604-0.656-1
			C35.416,298.328,35.335,297.879,35.335,297.379z M36.397,297.379c0,0.351,0.046,0.667,0.138,0.95s0.223,0.527,0.394,0.731
			s0.375,0.362,0.612,0.475c0.238,0.113,0.502,0.169,0.794,0.169s0.557-0.056,0.794-0.169c0.237-0.112,0.441-0.271,0.612-0.475
			s0.302-0.448,0.394-0.731s0.138-0.6,0.138-0.95c0-0.35-0.046-0.668-0.138-0.956c-0.092-0.287-0.223-0.535-0.394-0.743
			c-0.171-0.209-0.375-0.369-0.612-0.481s-0.502-0.169-0.794-0.169s-0.556,0.057-0.794,0.169c-0.237,0.112-0.441,0.272-0.612,0.481
			c-0.171,0.208-0.302,0.456-0.394,0.743C36.443,296.711,36.397,297.03,36.397,297.379z"/>
		<path class="st4" d="M43.248,294.33h0.85l0.088,1.038h0.05c0.316-0.342,0.658-0.625,1.024-0.851
			c0.367-0.225,0.788-0.337,1.263-0.337c0.726,0,1.257,0.206,1.594,0.618c0.338,0.413,0.507,1.023,0.507,1.831v3.775h-1.025v-3.638
			c0-0.575-0.108-1.002-0.325-1.281s-0.575-0.419-1.075-0.419c-0.183,0-0.352,0.023-0.506,0.069s-0.307,0.114-0.456,0.206
			c-0.15,0.092-0.305,0.206-0.463,0.344s-0.325,0.298-0.5,0.481v4.237h-1.024V294.33z"/>
		<path class="st4" d="M50.598,298.83c0-0.342,0.081-0.64,0.243-0.894c0.163-0.254,0.421-0.473,0.775-0.656
			c0.354-0.184,0.811-0.333,1.368-0.45c0.559-0.116,1.229-0.208,2.013-0.274c-0.008-0.209-0.042-0.404-0.1-0.588
			c-0.059-0.184-0.15-0.344-0.275-0.481s-0.289-0.248-0.493-0.331c-0.205-0.083-0.452-0.125-0.744-0.125
			c-0.4,0-0.783,0.077-1.15,0.231c-0.366,0.154-0.691,0.318-0.975,0.493l-0.4-0.699c0.15-0.101,0.327-0.202,0.531-0.307
			s0.421-0.198,0.65-0.281s0.473-0.152,0.731-0.206c0.258-0.055,0.521-0.081,0.787-0.081c0.833,0,1.452,0.227,1.856,0.681
			s0.606,1.061,0.606,1.819v3.725h-0.838l-0.087-0.825H55.06c-0.342,0.267-0.719,0.496-1.131,0.688
			c-0.413,0.191-0.836,0.288-1.269,0.288c-0.284,0-0.551-0.04-0.801-0.119s-0.469-0.191-0.656-0.338
			c-0.188-0.146-0.335-0.324-0.443-0.537S50.598,299.105,50.598,298.83z M51.598,298.754c0,0.176,0.037,0.323,0.112,0.444
			s0.173,0.221,0.294,0.3c0.12,0.079,0.262,0.138,0.425,0.175c0.162,0.038,0.331,0.057,0.506,0.057c0.351,0,0.694-0.077,1.031-0.231
			c0.338-0.154,0.682-0.377,1.031-0.669v-1.6c-0.649,0.05-1.193,0.121-1.631,0.212c-0.438,0.092-0.788,0.202-1.05,0.332
			c-0.263,0.129-0.448,0.274-0.557,0.438C51.651,298.374,51.598,298.555,51.598,298.754z"/>
		<path class="st4" d="M58.098,291.504h3.1v6.938c0,0.45,0.106,0.773,0.318,0.969c0.213,0.196,0.502,0.294,0.869,0.294
			c0.333,0,0.717-0.096,1.15-0.287l0.262,0.774c-0.274,0.101-0.533,0.186-0.774,0.257c-0.242,0.07-0.529,0.106-0.862,0.106
			c-0.65,0-1.145-0.184-1.481-0.551c-0.338-0.366-0.507-0.912-0.507-1.637v-6.025h-2.074V291.504z"/>
		<path class="st4" d="M65.598,291.504h3.1v6.938c0,0.45,0.106,0.773,0.318,0.969c0.213,0.196,0.502,0.294,0.869,0.294
			c0.333,0,0.717-0.096,1.15-0.287l0.262,0.774c-0.274,0.101-0.533,0.186-0.774,0.257c-0.242,0.07-0.529,0.106-0.862,0.106
			c-0.65,0-1.145-0.184-1.481-0.551c-0.338-0.366-0.507-0.912-0.507-1.637v-6.025h-2.074V291.504z"/>
		<path class="st4" d="M73.403,302.142c0.096,0.017,0.189,0.025,0.281,0.025c0.425,0,0.771-0.123,1.037-0.369
			s0.475-0.556,0.625-0.931l0.188-0.45l-2.838-6.088h1.038l1.487,3.362c0.116,0.268,0.239,0.555,0.369,0.863
			c0.129,0.308,0.256,0.608,0.381,0.899h0.05c0.108-0.291,0.219-0.589,0.331-0.894c0.113-0.304,0.219-0.594,0.319-0.869l1.325-3.362
			h0.975l-2.675,6.575c-0.117,0.3-0.25,0.579-0.4,0.838c-0.149,0.258-0.329,0.48-0.537,0.668c-0.209,0.188-0.448,0.336-0.719,0.444
			c-0.271,0.108-0.577,0.162-0.919,0.162c-0.3,0-0.566-0.042-0.8-0.125l0.212-0.812C73.218,302.105,73.307,302.125,73.403,302.142z"
			/>
	</g>
	<g class="st3">
		<path class="st4" d="M-32.164,314.561c0-0.508,0.081-0.96,0.244-1.355c0.162-0.396,0.381-0.731,0.656-1.007
			c0.274-0.274,0.594-0.483,0.956-0.625s0.744-0.212,1.144-0.212c0.4,0,0.781,0.07,1.144,0.212c0.363,0.142,0.682,0.351,0.957,0.625
			c0.274,0.275,0.493,0.61,0.656,1.007c0.162,0.396,0.243,0.848,0.243,1.355c0,0.5-0.081,0.948-0.243,1.344
			c-0.163,0.396-0.382,0.729-0.656,1c-0.275,0.271-0.594,0.478-0.957,0.619c-0.362,0.142-0.743,0.213-1.144,0.213
			c-0.399,0-0.781-0.071-1.144-0.213s-0.682-0.348-0.956-0.619c-0.275-0.271-0.494-0.604-0.656-1
			C-32.083,315.509-32.164,315.061-32.164,314.561z M-31.102,314.561c0,0.351,0.046,0.667,0.138,0.95s0.223,0.527,0.394,0.731
			s0.375,0.362,0.612,0.475c0.238,0.113,0.502,0.169,0.794,0.169s0.557-0.056,0.794-0.169c0.237-0.112,0.441-0.271,0.612-0.475
			s0.302-0.448,0.394-0.731s0.138-0.6,0.138-0.95c0-0.35-0.046-0.668-0.138-0.956c-0.092-0.287-0.223-0.535-0.394-0.743
			c-0.171-0.209-0.375-0.369-0.612-0.481s-0.502-0.169-0.794-0.169s-0.556,0.057-0.794,0.169c-0.237,0.112-0.441,0.272-0.612,0.481
			c-0.171,0.208-0.302,0.456-0.394,0.743C-31.056,313.893-31.102,314.211-31.102,314.561z"/>
		<path class="st4" d="M-23.589,311.511h0.85l0.088,1.438h0.037c0.317-0.491,0.707-0.879,1.169-1.162
			c0.463-0.283,0.978-0.425,1.544-0.425c0.225,0,0.434,0.019,0.625,0.056c0.191,0.038,0.383,0.103,0.575,0.194l-0.237,0.887
			c-0.217-0.074-0.398-0.129-0.544-0.162c-0.146-0.033-0.34-0.05-0.581-0.05c-0.459,0-0.898,0.131-1.319,0.394
			s-0.814,0.711-1.181,1.344v3.562h-1.025V311.511z"/>
		<path class="st4" d="M-16.789,311.511h3.851v6.075h-1.025v-5.237h-2.825V311.511z M-13.563,310.261
			c-0.242,0-0.44-0.07-0.594-0.212c-0.154-0.142-0.231-0.334-0.231-0.575c0-0.242,0.077-0.436,0.231-0.581
			c0.153-0.146,0.352-0.219,0.594-0.219c0.232,0,0.429,0.072,0.587,0.219c0.158,0.146,0.237,0.339,0.237,0.581
			c0,0.241-0.079,0.434-0.237,0.575S-13.331,310.261-13.563,310.261z"/>
		<path class="st4" d="M-9.552,314.561c0-0.5,0.088-0.947,0.263-1.344c0.175-0.396,0.406-0.73,0.693-1.006
			c0.288-0.275,0.617-0.485,0.987-0.631c0.371-0.146,0.752-0.219,1.145-0.219c0.433,0,0.82,0.068,1.162,0.206
			s0.631,0.331,0.869,0.581c0.237,0.25,0.418,0.55,0.543,0.9c0.125,0.35,0.188,0.737,0.188,1.162c0,0.108-0.002,0.215-0.006,0.318
			c-0.004,0.104-0.015,0.194-0.031,0.27h-4.75c0.008,0.324,0.073,0.616,0.193,0.875c0.121,0.258,0.283,0.479,0.488,0.662
			c0.204,0.184,0.445,0.325,0.725,0.425c0.279,0.101,0.585,0.15,0.919,0.15c0.358,0,0.686-0.05,0.981-0.15
			c0.295-0.1,0.585-0.237,0.868-0.412l0.362,0.675c-0.3,0.191-0.642,0.358-1.024,0.5c-0.384,0.142-0.821,0.213-1.312,0.213
			c-0.45,0-0.873-0.073-1.269-0.219c-0.396-0.146-0.742-0.354-1.038-0.625c-0.296-0.271-0.529-0.603-0.7-0.994
			S-9.552,315.061-9.552,314.561z M-4.651,314.061c0-0.607-0.159-1.074-0.476-1.399s-0.758-0.487-1.325-0.487
			c-0.25,0-0.489,0.041-0.719,0.125c-0.229,0.083-0.436,0.206-0.618,0.368c-0.184,0.163-0.338,0.36-0.463,0.594s-0.208,0.5-0.25,0.8
			H-4.651z"/>
		<path class="st4" d="M-1.752,311.511h0.851l0.087,1.038h0.05c0.317-0.342,0.658-0.625,1.025-0.851
			c0.366-0.225,0.787-0.337,1.263-0.337c0.725,0,1.256,0.206,1.594,0.618c0.337,0.413,0.506,1.023,0.506,1.831v3.775H2.599v-3.638
			c0-0.575-0.108-1.002-0.325-1.281s-0.575-0.419-1.075-0.419c-0.184,0-0.353,0.023-0.506,0.069
			c-0.154,0.046-0.307,0.114-0.457,0.206c-0.149,0.092-0.304,0.206-0.462,0.344s-0.325,0.298-0.5,0.481v4.237h-1.025V311.511z"/>
		<path class="st4" d="M7.161,312.349H5.448v-0.775l1.75-0.062l0.138-1.7h0.85v1.7h2.987v0.838H8.186v2.888
			c0,0.274,0.025,0.515,0.075,0.719s0.133,0.377,0.25,0.519c0.116,0.142,0.275,0.248,0.475,0.318c0.2,0.071,0.446,0.106,0.738,0.106
			c0.291,0,0.554-0.025,0.787-0.075s0.458-0.116,0.675-0.2l0.226,0.75c-0.275,0.101-0.58,0.186-0.913,0.257
			c-0.333,0.07-0.667,0.106-1,0.106c-0.441,0-0.812-0.061-1.112-0.182s-0.54-0.292-0.719-0.513c-0.18-0.221-0.309-0.485-0.388-0.794
			c-0.079-0.308-0.118-0.649-0.118-1.024V312.349z"/>
		<path class="st4" d="M12.947,314.561c0-0.5,0.088-0.947,0.263-1.344c0.175-0.396,0.406-0.73,0.694-1.006
			c0.287-0.275,0.616-0.485,0.987-0.631c0.37-0.146,0.752-0.219,1.144-0.219c0.434,0,0.82,0.068,1.162,0.206
			s0.632,0.331,0.869,0.581s0.419,0.55,0.544,0.9c0.125,0.35,0.188,0.737,0.188,1.162c0,0.108-0.002,0.215-0.007,0.318
			c-0.004,0.104-0.015,0.194-0.031,0.27h-4.75c0.009,0.324,0.073,0.616,0.194,0.875c0.12,0.258,0.283,0.479,0.487,0.662
			s0.445,0.325,0.725,0.425c0.279,0.101,0.586,0.15,0.919,0.15c0.358,0,0.686-0.05,0.981-0.15c0.296-0.1,0.585-0.237,0.869-0.412
			l0.362,0.675c-0.3,0.191-0.642,0.358-1.025,0.5c-0.383,0.142-0.82,0.213-1.312,0.213c-0.45,0-0.873-0.073-1.269-0.219
			c-0.396-0.146-0.742-0.354-1.037-0.625c-0.296-0.271-0.529-0.603-0.7-0.994S12.947,315.061,12.947,314.561z M17.848,314.061
			c0-0.607-0.158-1.074-0.475-1.399c-0.317-0.325-0.759-0.487-1.325-0.487c-0.25,0-0.49,0.041-0.719,0.125
			c-0.229,0.083-0.436,0.206-0.619,0.368c-0.184,0.163-0.337,0.36-0.462,0.594s-0.209,0.5-0.25,0.8H17.848z"/>
		<path class="st4" d="M20.335,314.561c0-0.491,0.077-0.935,0.231-1.331c0.154-0.396,0.358-0.731,0.612-1.006
			c0.254-0.275,0.548-0.487,0.882-0.638c0.333-0.15,0.679-0.225,1.037-0.225c0.375,0,0.704,0.07,0.987,0.212
			s0.566,0.334,0.851,0.575l-0.038-1.125v-2.338h1.025v8.9h-0.851l-0.087-0.8h-0.038c-0.25,0.258-0.548,0.481-0.894,0.669
			s-0.706,0.281-1.081,0.281c-0.4,0-0.761-0.071-1.081-0.213c-0.321-0.142-0.599-0.348-0.831-0.619
			c-0.233-0.271-0.413-0.602-0.538-0.993S20.335,315.07,20.335,314.561z M21.397,314.549c0,0.733,0.156,1.304,0.469,1.712
			s0.752,0.612,1.319,0.612c0.6,0,1.17-0.304,1.712-0.912v-3.025c-0.274-0.258-0.544-0.441-0.806-0.55
			c-0.263-0.108-0.527-0.162-0.794-0.162s-0.515,0.056-0.744,0.169c-0.229,0.112-0.429,0.271-0.6,0.475s-0.307,0.448-0.406,0.731
			C21.447,313.882,21.397,314.199,21.397,314.549z"/>
	</g>
	<g class="st3">
		<path class="st4" d="M-31.789,328.69h3.851v6.075h-1.025v-5.237h-2.825V328.69z M-28.563,327.44c-0.242,0-0.44-0.07-0.594-0.212
			c-0.154-0.142-0.231-0.334-0.231-0.575c0-0.242,0.077-0.436,0.231-0.581c0.153-0.146,0.352-0.219,0.594-0.219
			c0.232,0,0.429,0.072,0.587,0.219c0.158,0.146,0.237,0.339,0.237,0.581c0,0.241-0.079,0.434-0.237,0.575
			S-28.331,327.44-28.563,327.44z"/>
		<path class="st4" d="M-24.251,328.69h0.85l0.088,1.038h0.05c0.316-0.342,0.658-0.625,1.024-0.851
			c0.367-0.225,0.788-0.337,1.263-0.337c0.726,0,1.257,0.206,1.594,0.618c0.338,0.413,0.507,1.023,0.507,1.831v3.775h-1.025v-3.638
			c0-0.575-0.108-1.002-0.325-1.281s-0.575-0.419-1.075-0.419c-0.183,0-0.352,0.023-0.506,0.069s-0.307,0.114-0.456,0.206
			c-0.15,0.092-0.305,0.206-0.463,0.344s-0.325,0.298-0.5,0.481v4.237h-1.024V328.69z"/>
		<path class="st4" d="M-15.339,329.528h-1.713v-0.775l1.75-0.062l0.138-1.7h0.851v1.7h2.987v0.838h-2.987v2.888
			c0,0.274,0.024,0.515,0.074,0.719c0.051,0.204,0.134,0.377,0.25,0.519c0.117,0.142,0.275,0.248,0.476,0.318
			c0.2,0.071,0.445,0.106,0.737,0.106s0.554-0.025,0.787-0.075s0.459-0.116,0.676-0.2l0.225,0.75
			c-0.275,0.101-0.579,0.186-0.912,0.257c-0.334,0.07-0.667,0.106-1,0.106c-0.442,0-0.812-0.061-1.113-0.182
			c-0.3-0.121-0.539-0.292-0.719-0.513c-0.179-0.221-0.308-0.485-0.387-0.794c-0.08-0.308-0.119-0.649-0.119-1.024V329.528z"/>
		<path class="st4" d="M-9.552,331.74c0-0.5,0.088-0.947,0.263-1.344c0.175-0.396,0.406-0.73,0.693-1.006
			c0.288-0.275,0.617-0.485,0.987-0.631c0.371-0.146,0.752-0.219,1.145-0.219c0.433,0,0.82,0.068,1.162,0.206
			s0.631,0.331,0.869,0.581c0.237,0.25,0.418,0.55,0.543,0.9c0.125,0.35,0.188,0.737,0.188,1.162c0,0.108-0.002,0.215-0.006,0.318
			c-0.004,0.104-0.015,0.194-0.031,0.27h-4.75c0.008,0.324,0.073,0.616,0.193,0.875c0.121,0.258,0.283,0.479,0.488,0.662
			c0.204,0.184,0.445,0.325,0.725,0.425c0.279,0.101,0.585,0.15,0.919,0.15c0.358,0,0.686-0.05,0.981-0.15
			c0.295-0.1,0.585-0.237,0.868-0.412l0.362,0.675c-0.3,0.191-0.642,0.358-1.024,0.5c-0.384,0.142-0.821,0.213-1.312,0.213
			c-0.45,0-0.873-0.073-1.269-0.219c-0.396-0.146-0.742-0.354-1.038-0.625c-0.296-0.271-0.529-0.603-0.7-0.994
			S-9.552,332.24-9.552,331.74z M-4.651,331.24c0-0.607-0.159-1.074-0.476-1.399s-0.758-0.487-1.325-0.487
			c-0.25,0-0.489,0.041-0.719,0.125c-0.229,0.083-0.436,0.206-0.618,0.368c-0.184,0.163-0.338,0.36-0.463,0.594s-0.208,0.5-0.25,0.8
			H-4.651z"/>
		<path class="st4" d="M-1.901,325.865h3.1v6.938c0,0.45,0.106,0.773,0.318,0.969c0.213,0.196,0.502,0.294,0.869,0.294
			c0.333,0,0.717-0.096,1.15-0.287l0.262,0.774c-0.274,0.101-0.533,0.186-0.774,0.257c-0.242,0.07-0.529,0.106-0.862,0.106
			c-0.65,0-1.145-0.184-1.481-0.551c-0.338-0.366-0.507-0.912-0.507-1.637v-6.025h-2.074V325.865z"/>
		<path class="st4" d="M5.599,325.865h3.1v6.938c0,0.45,0.106,0.773,0.318,0.969c0.213,0.196,0.502,0.294,0.869,0.294
			c0.333,0,0.717-0.096,1.15-0.287l0.262,0.774c-0.274,0.101-0.533,0.186-0.774,0.257c-0.242,0.07-0.529,0.106-0.862,0.106
			c-0.65,0-1.145-0.184-1.481-0.551c-0.338-0.366-0.507-0.912-0.507-1.637v-6.025H5.599V325.865z"/>
		<path class="st4" d="M13.21,328.69h3.851v6.075h-1.025v-5.237H13.21V328.69z M16.436,327.44c-0.242,0-0.44-0.07-0.594-0.212
			c-0.154-0.142-0.231-0.334-0.231-0.575c0-0.242,0.077-0.436,0.231-0.581c0.153-0.146,0.352-0.219,0.594-0.219
			c0.232,0,0.429,0.072,0.587,0.219c0.158,0.146,0.237,0.339,0.237,0.581c0,0.241-0.079,0.434-0.237,0.575
			S16.668,327.44,16.436,327.44z"/>
		<path class="st4" d="M20.485,335.877c0-0.241,0.085-0.479,0.256-0.712c0.171-0.233,0.419-0.446,0.744-0.638v-0.05
			c-0.167-0.092-0.312-0.217-0.438-0.375s-0.188-0.367-0.188-0.625c0-0.192,0.062-0.39,0.188-0.594s0.304-0.386,0.537-0.544v-0.05
			c-0.208-0.158-0.386-0.369-0.531-0.632s-0.219-0.577-0.219-0.943c0-0.333,0.064-0.634,0.194-0.9
			c0.129-0.267,0.302-0.493,0.519-0.681s0.469-0.334,0.756-0.438c0.288-0.104,0.594-0.156,0.919-0.156c0.333,0,0.633,0.05,0.9,0.149
			h2.512v0.788H25.01c0.142,0.149,0.271,0.333,0.388,0.55c0.117,0.217,0.175,0.458,0.175,0.725c0,0.325-0.061,0.617-0.181,0.875
			c-0.121,0.259-0.288,0.478-0.5,0.656c-0.213,0.18-0.463,0.317-0.75,0.413c-0.288,0.096-0.594,0.144-0.919,0.144
			c-0.158,0-0.327-0.019-0.506-0.057c-0.18-0.037-0.353-0.094-0.52-0.169c-0.316,0.2-0.475,0.434-0.475,0.7
			c0,0.242,0.11,0.419,0.331,0.531s0.531,0.169,0.932,0.169h1.362c0.783,0,1.364,0.108,1.744,0.325
			c0.379,0.217,0.568,0.583,0.568,1.1c0,0.283-0.079,0.555-0.237,0.812c-0.158,0.259-0.384,0.483-0.675,0.675
			c-0.292,0.192-0.646,0.346-1.062,0.463c-0.417,0.116-0.884,0.175-1.4,0.175c-0.892,0-1.581-0.146-2.068-0.438
			C20.729,336.835,20.485,336.419,20.485,335.877z M21.373,335.778c0,0.316,0.168,0.575,0.506,0.774
			c0.338,0.2,0.831,0.301,1.481,0.301c0.35,0,0.666-0.036,0.95-0.106c0.283-0.071,0.524-0.165,0.725-0.281
			c0.2-0.117,0.352-0.25,0.456-0.4c0.104-0.149,0.156-0.304,0.156-0.462c0-0.292-0.114-0.488-0.344-0.588s-0.577-0.15-1.044-0.15
			h-1.188c-0.175,0-0.339-0.006-0.493-0.019s-0.298-0.039-0.432-0.081c-0.292,0.158-0.493,0.323-0.606,0.494
			C21.429,335.429,21.373,335.603,21.373,335.778z M23.223,332.153c0.392,0,0.723-0.129,0.994-0.388
			c0.271-0.258,0.406-0.608,0.406-1.05c0-0.208-0.038-0.4-0.113-0.575c-0.074-0.175-0.175-0.325-0.3-0.45s-0.272-0.223-0.443-0.294
			c-0.171-0.07-0.353-0.105-0.544-0.105s-0.373,0.035-0.544,0.105c-0.171,0.071-0.318,0.169-0.443,0.294s-0.226,0.275-0.3,0.45
			c-0.075,0.175-0.113,0.367-0.113,0.575c0,0.441,0.138,0.792,0.413,1.05C22.51,332.024,22.839,332.153,23.223,332.153z"/>
		<path class="st4" d="M27.947,331.74c0-0.5,0.088-0.947,0.263-1.344c0.175-0.396,0.406-0.73,0.694-1.006
			c0.287-0.275,0.616-0.485,0.987-0.631c0.37-0.146,0.752-0.219,1.144-0.219c0.434,0,0.82,0.068,1.162,0.206
			s0.632,0.331,0.869,0.581s0.419,0.55,0.544,0.9c0.125,0.35,0.188,0.737,0.188,1.162c0,0.108-0.002,0.215-0.007,0.318
			c-0.004,0.104-0.015,0.194-0.031,0.27h-4.75c0.009,0.324,0.073,0.616,0.194,0.875c0.12,0.258,0.283,0.479,0.487,0.662
			s0.445,0.325,0.725,0.425c0.279,0.101,0.586,0.15,0.919,0.15c0.358,0,0.686-0.05,0.981-0.15c0.296-0.1,0.585-0.237,0.869-0.412
			l0.362,0.675c-0.3,0.191-0.642,0.358-1.025,0.5c-0.383,0.142-0.82,0.213-1.312,0.213c-0.45,0-0.873-0.073-1.269-0.219
			c-0.396-0.146-0.742-0.354-1.037-0.625c-0.296-0.271-0.529-0.603-0.7-0.994S27.947,332.24,27.947,331.74z M32.848,331.24
			c0-0.607-0.158-1.074-0.475-1.399c-0.317-0.325-0.759-0.487-1.325-0.487c-0.25,0-0.49,0.041-0.719,0.125
			c-0.229,0.083-0.436,0.206-0.619,0.368c-0.184,0.163-0.337,0.36-0.462,0.594s-0.209,0.5-0.25,0.8H32.848z"/>
		<path class="st4" d="M35.748,328.69h0.85l0.088,1.038h0.05c0.316-0.342,0.658-0.625,1.024-0.851
			c0.367-0.225,0.788-0.337,1.263-0.337c0.726,0,1.257,0.206,1.594,0.618c0.338,0.413,0.507,1.023,0.507,1.831v3.775h-1.025v-3.638
			c0-0.575-0.108-1.002-0.325-1.281s-0.575-0.419-1.075-0.419c-0.183,0-0.352,0.023-0.506,0.069s-0.307,0.114-0.456,0.206
			c-0.15,0.092-0.305,0.206-0.463,0.344s-0.325,0.298-0.5,0.481v4.237h-1.024V328.69z"/>
		<path class="st4" d="M44.66,329.528h-1.713v-0.775l1.75-0.062l0.138-1.7h0.851v1.7h2.987v0.838h-2.987v2.888
			c0,0.274,0.024,0.515,0.074,0.719c0.051,0.204,0.134,0.377,0.25,0.519c0.117,0.142,0.275,0.248,0.476,0.318
			c0.2,0.071,0.445,0.106,0.737,0.106s0.554-0.025,0.787-0.075s0.459-0.116,0.676-0.2l0.225,0.75
			c-0.275,0.101-0.579,0.186-0.912,0.257c-0.334,0.07-0.667,0.106-1,0.106c-0.442,0-0.812-0.061-1.113-0.182
			c-0.3-0.121-0.539-0.292-0.719-0.513c-0.179-0.221-0.308-0.485-0.387-0.794c-0.08-0.308-0.119-0.649-0.119-1.024V329.528z"/>
	</g>
	<g class="st3">
		<path class="st4" d="M-31.789,345.87h3.851v6.075h-1.025v-5.237h-2.825V345.87z M-28.563,344.62c-0.242,0-0.44-0.07-0.594-0.212
			c-0.154-0.142-0.231-0.334-0.231-0.575c0-0.242,0.077-0.436,0.231-0.581c0.153-0.146,0.352-0.219,0.594-0.219
			c0.232,0,0.429,0.072,0.587,0.219c0.158,0.146,0.237,0.339,0.237,0.581c0,0.241-0.079,0.434-0.237,0.575
			S-28.331,344.62-28.563,344.62z"/>
		<path class="st4" d="M-24.251,345.87h0.85l0.088,1.038h0.05c0.316-0.342,0.658-0.625,1.024-0.851
			c0.367-0.225,0.788-0.337,1.263-0.337c0.726,0,1.257,0.206,1.594,0.618c0.338,0.413,0.507,1.023,0.507,1.831v3.775h-1.025v-3.638
			c0-0.575-0.108-1.002-0.325-1.281s-0.575-0.419-1.075-0.419c-0.183,0-0.352,0.023-0.506,0.069s-0.307,0.114-0.456,0.206
			c-0.15,0.092-0.305,0.206-0.463,0.344s-0.325,0.298-0.5,0.481v4.237h-1.024V345.87z"/>
		<path class="st4" d="M-15.339,346.708h-1.713v-0.775l1.75-0.062l0.138-1.7h0.851v1.7h2.987v0.838h-2.987v2.888
			c0,0.274,0.024,0.515,0.074,0.719c0.051,0.204,0.134,0.377,0.25,0.519c0.117,0.142,0.275,0.248,0.476,0.318
			c0.2,0.071,0.445,0.106,0.737,0.106s0.554-0.025,0.787-0.075s0.459-0.116,0.676-0.2l0.225,0.75
			c-0.275,0.101-0.579,0.186-0.912,0.257c-0.334,0.07-0.667,0.106-1,0.106c-0.442,0-0.812-0.061-1.113-0.182
			c-0.3-0.121-0.539-0.292-0.719-0.513c-0.179-0.221-0.308-0.485-0.387-0.794c-0.08-0.308-0.119-0.649-0.119-1.024V346.708z"/>
		<path class="st4" d="M-9.552,348.919c0-0.5,0.088-0.947,0.263-1.344c0.175-0.396,0.406-0.73,0.693-1.006
			c0.288-0.275,0.617-0.485,0.987-0.631c0.371-0.146,0.752-0.219,1.145-0.219c0.433,0,0.82,0.068,1.162,0.206
			s0.631,0.331,0.869,0.581c0.237,0.25,0.418,0.55,0.543,0.9c0.125,0.35,0.188,0.737,0.188,1.162c0,0.108-0.002,0.215-0.006,0.318
			c-0.004,0.104-0.015,0.194-0.031,0.27h-4.75c0.008,0.324,0.073,0.616,0.193,0.875c0.121,0.258,0.283,0.479,0.488,0.662
			c0.204,0.184,0.445,0.325,0.725,0.425c0.279,0.101,0.585,0.15,0.919,0.15c0.358,0,0.686-0.05,0.981-0.15
			c0.295-0.1,0.585-0.237,0.868-0.412l0.362,0.675c-0.3,0.191-0.642,0.358-1.024,0.5c-0.384,0.142-0.821,0.213-1.312,0.213
			c-0.45,0-0.873-0.073-1.269-0.219c-0.396-0.146-0.742-0.354-1.038-0.625c-0.296-0.271-0.529-0.603-0.7-0.994
			S-9.552,349.419-9.552,348.919z M-4.651,348.419c0-0.607-0.159-1.074-0.476-1.399s-0.758-0.487-1.325-0.487
			c-0.25,0-0.489,0.041-0.719,0.125c-0.229,0.083-0.436,0.206-0.618,0.368c-0.184,0.163-0.338,0.36-0.463,0.594s-0.208,0.5-0.25,0.8
			H-4.651z"/>
		<path class="st4" d="M-1.089,345.87h0.85l0.088,1.438h0.037c0.316-0.491,0.706-0.879,1.169-1.162
			c0.462-0.283,0.977-0.425,1.544-0.425c0.225,0,0.433,0.019,0.625,0.056c0.191,0.038,0.383,0.103,0.574,0.194l-0.237,0.887
			c-0.217-0.074-0.397-0.129-0.544-0.162c-0.146-0.033-0.339-0.05-0.581-0.05c-0.458,0-0.897,0.131-1.318,0.394
			s-0.814,0.711-1.182,1.344v3.562h-1.024V345.87z"/>
		<path class="st4" d="M11.573,344.02c-0.25-0.117-0.481-0.194-0.693-0.231c-0.213-0.037-0.452-0.057-0.719-0.057
			c-0.551,0-0.944,0.14-1.182,0.419s-0.356,0.669-0.356,1.169v0.55h2.55v0.838h-2.55v5.237H7.61v-5.237H5.873v-0.775l1.737-0.062
			v-0.513c0-0.741,0.198-1.337,0.594-1.787c0.396-0.45,1.015-0.675,1.856-0.675c0.601,0,1.184,0.116,1.75,0.35L11.573,344.02z"/>
		<path class="st4" d="M13.098,350.37c0-0.342,0.081-0.64,0.244-0.894c0.162-0.254,0.42-0.473,0.774-0.656s0.811-0.333,1.369-0.45
			c0.558-0.116,1.229-0.208,2.013-0.274c-0.009-0.209-0.042-0.404-0.101-0.588s-0.149-0.344-0.274-0.481s-0.29-0.248-0.494-0.331
			s-0.452-0.125-0.744-0.125c-0.399,0-0.783,0.077-1.149,0.231c-0.367,0.154-0.692,0.318-0.976,0.493l-0.399-0.699
			c0.149-0.101,0.327-0.202,0.531-0.307s0.421-0.198,0.649-0.281c0.229-0.083,0.474-0.152,0.731-0.206
			c0.259-0.055,0.521-0.081,0.788-0.081c0.833,0,1.451,0.227,1.855,0.681s0.606,1.061,0.606,1.819v3.725h-0.837l-0.088-0.825h-0.037
			c-0.342,0.267-0.719,0.496-1.132,0.688c-0.412,0.191-0.835,0.288-1.269,0.288c-0.283,0-0.55-0.04-0.8-0.119
			s-0.469-0.191-0.656-0.338c-0.188-0.146-0.336-0.324-0.444-0.537S13.098,350.645,13.098,350.37z M14.098,350.294
			c0,0.176,0.037,0.323,0.112,0.444s0.173,0.221,0.294,0.3s0.263,0.138,0.425,0.175c0.163,0.038,0.331,0.057,0.507,0.057
			c0.35,0,0.693-0.077,1.031-0.231c0.337-0.154,0.681-0.377,1.031-0.669v-1.6c-0.65,0.05-1.194,0.121-1.632,0.212
			c-0.438,0.092-0.787,0.202-1.05,0.332c-0.263,0.129-0.448,0.274-0.557,0.438C14.151,349.914,14.098,350.095,14.098,350.294z"/>
		<path class="st4" d="M20.585,348.919c0-0.508,0.09-0.96,0.269-1.355c0.18-0.396,0.423-0.731,0.731-1.007
			c0.309-0.274,0.669-0.483,1.081-0.625c0.413-0.142,0.849-0.212,1.307-0.212c0.5,0,0.932,0.087,1.294,0.262
			c0.362,0.176,0.669,0.384,0.919,0.625l-0.513,0.663c-0.25-0.217-0.511-0.388-0.781-0.513c-0.271-0.125-0.564-0.188-0.882-0.188
			c-0.35,0-0.671,0.057-0.962,0.169c-0.292,0.112-0.54,0.272-0.744,0.481c-0.204,0.208-0.364,0.456-0.481,0.743
			c-0.116,0.288-0.175,0.606-0.175,0.956c0,0.351,0.057,0.667,0.169,0.95s0.271,0.527,0.475,0.731s0.45,0.362,0.738,0.475
			c0.287,0.113,0.605,0.169,0.956,0.169c0.375,0,0.719-0.072,1.031-0.219c0.312-0.146,0.598-0.327,0.856-0.544l0.449,0.663
			c-0.333,0.3-0.706,0.533-1.118,0.7c-0.413,0.166-0.844,0.25-1.294,0.25c-0.475,0-0.915-0.071-1.318-0.213
			c-0.404-0.142-0.757-0.348-1.057-0.619c-0.3-0.271-0.533-0.604-0.7-1C20.668,349.868,20.585,349.419,20.585,348.919z"/>
		<path class="st4" d="M27.947,348.919c0-0.5,0.088-0.947,0.263-1.344c0.175-0.396,0.406-0.73,0.694-1.006
			c0.287-0.275,0.616-0.485,0.987-0.631c0.37-0.146,0.752-0.219,1.144-0.219c0.434,0,0.82,0.068,1.162,0.206
			s0.632,0.331,0.869,0.581s0.419,0.55,0.544,0.9c0.125,0.35,0.188,0.737,0.188,1.162c0,0.108-0.002,0.215-0.007,0.318
			c-0.004,0.104-0.015,0.194-0.031,0.27h-4.75c0.009,0.324,0.073,0.616,0.194,0.875c0.12,0.258,0.283,0.479,0.487,0.662
			s0.445,0.325,0.725,0.425c0.279,0.101,0.586,0.15,0.919,0.15c0.358,0,0.686-0.05,0.981-0.15c0.296-0.1,0.585-0.237,0.869-0.412
			l0.362,0.675c-0.3,0.191-0.642,0.358-1.025,0.5c-0.383,0.142-0.82,0.213-1.312,0.213c-0.45,0-0.873-0.073-1.269-0.219
			c-0.396-0.146-0.742-0.354-1.037-0.625c-0.296-0.271-0.529-0.603-0.7-0.994S27.947,349.419,27.947,348.919z M32.848,348.419
			c0-0.607-0.158-1.074-0.475-1.399c-0.317-0.325-0.759-0.487-1.325-0.487c-0.25,0-0.49,0.041-0.719,0.125
			c-0.229,0.083-0.436,0.206-0.619,0.368c-0.184,0.163-0.337,0.36-0.462,0.594s-0.209,0.5-0.25,0.8H32.848z"/>
		<path class="st4" d="M35.647,347.432h5.375v0.775h-5.375V347.432z"/>
		<path class="st4" d="M43.098,350.37c0-0.342,0.081-0.64,0.244-0.894c0.162-0.254,0.42-0.473,0.774-0.656s0.811-0.333,1.369-0.45
			c0.558-0.116,1.229-0.208,2.013-0.274c-0.009-0.209-0.042-0.404-0.101-0.588s-0.149-0.344-0.274-0.481s-0.29-0.248-0.494-0.331
			s-0.452-0.125-0.744-0.125c-0.399,0-0.783,0.077-1.149,0.231c-0.367,0.154-0.692,0.318-0.976,0.493l-0.399-0.699
			c0.149-0.101,0.327-0.202,0.531-0.307s0.421-0.198,0.649-0.281c0.229-0.083,0.474-0.152,0.731-0.206
			c0.259-0.055,0.521-0.081,0.788-0.081c0.833,0,1.451,0.227,1.855,0.681s0.606,1.061,0.606,1.819v3.725h-0.837l-0.088-0.825h-0.037
			c-0.342,0.267-0.719,0.496-1.132,0.688c-0.412,0.191-0.835,0.288-1.269,0.288c-0.283,0-0.55-0.04-0.8-0.119
			s-0.469-0.191-0.656-0.338c-0.188-0.146-0.336-0.324-0.444-0.537S43.098,350.645,43.098,350.37z M44.098,350.294
			c0,0.176,0.037,0.323,0.112,0.444s0.173,0.221,0.294,0.3s0.263,0.138,0.425,0.175c0.163,0.038,0.331,0.057,0.507,0.057
			c0.35,0,0.693-0.077,1.031-0.231c0.337-0.154,0.681-0.377,1.031-0.669v-1.6c-0.65,0.05-1.194,0.121-1.632,0.212
			c-0.438,0.092-0.787,0.202-1.05,0.332c-0.263,0.129-0.448,0.274-0.557,0.438C44.151,349.914,44.098,350.095,44.098,350.294z"/>
		<path class="st4" d="M50.484,353.057c0-0.241,0.086-0.479,0.257-0.712c0.171-0.233,0.419-0.446,0.743-0.638v-0.05
			c-0.166-0.092-0.312-0.217-0.438-0.375s-0.188-0.367-0.188-0.625c0-0.192,0.062-0.39,0.188-0.594s0.305-0.386,0.538-0.544v-0.05
			c-0.209-0.158-0.386-0.369-0.531-0.632c-0.146-0.263-0.219-0.577-0.219-0.943c0-0.333,0.064-0.634,0.193-0.9
			s0.302-0.493,0.519-0.681s0.469-0.334,0.757-0.438c0.287-0.104,0.594-0.156,0.919-0.156c0.333,0,0.633,0.05,0.899,0.149h2.513
			v0.788H55.01c0.142,0.149,0.271,0.333,0.388,0.55c0.116,0.217,0.175,0.458,0.175,0.725c0,0.325-0.061,0.617-0.182,0.875
			c-0.12,0.259-0.287,0.478-0.5,0.656c-0.212,0.18-0.462,0.317-0.75,0.413c-0.287,0.096-0.594,0.144-0.918,0.144
			c-0.159,0-0.327-0.019-0.507-0.057c-0.179-0.037-0.352-0.094-0.519-0.169c-0.316,0.2-0.475,0.434-0.475,0.7
			c0,0.242,0.11,0.419,0.331,0.531s0.531,0.169,0.931,0.169h1.363c0.783,0,1.364,0.108,1.743,0.325s0.569,0.583,0.569,1.1
			c0,0.283-0.08,0.555-0.238,0.812c-0.158,0.259-0.383,0.483-0.675,0.675c-0.292,0.192-0.646,0.346-1.062,0.463
			c-0.417,0.116-0.883,0.175-1.399,0.175c-0.893,0-1.582-0.146-2.069-0.438S50.484,353.599,50.484,353.057z M51.372,352.958
			c0,0.316,0.169,0.575,0.507,0.774c0.337,0.2,0.831,0.301,1.48,0.301c0.351,0,0.667-0.036,0.95-0.106
			c0.283-0.071,0.525-0.165,0.726-0.281c0.199-0.117,0.352-0.25,0.456-0.4c0.104-0.149,0.156-0.304,0.156-0.462
			c0-0.292-0.115-0.488-0.344-0.588c-0.229-0.1-0.577-0.15-1.044-0.15h-1.188c-0.175,0-0.34-0.006-0.494-0.019
			s-0.298-0.039-0.431-0.081c-0.292,0.158-0.494,0.323-0.606,0.494C51.429,352.609,51.372,352.783,51.372,352.958z M53.223,349.333
			c0.392,0,0.723-0.129,0.993-0.388c0.271-0.258,0.406-0.608,0.406-1.05c0-0.208-0.037-0.4-0.112-0.575s-0.175-0.325-0.3-0.45
			s-0.273-0.223-0.444-0.294c-0.171-0.07-0.352-0.105-0.543-0.105c-0.192,0-0.373,0.035-0.544,0.105
			c-0.171,0.071-0.319,0.169-0.444,0.294s-0.225,0.275-0.3,0.45s-0.112,0.367-0.112,0.575c0,0.441,0.138,0.792,0.412,1.05
			C52.51,349.204,52.839,349.333,53.223,349.333z"/>
		<path class="st4" d="M57.947,348.919c0-0.5,0.088-0.947,0.263-1.344c0.175-0.396,0.406-0.73,0.693-1.006
			c0.288-0.275,0.617-0.485,0.987-0.631c0.371-0.146,0.752-0.219,1.145-0.219c0.433,0,0.82,0.068,1.162,0.206
			s0.631,0.331,0.869,0.581c0.237,0.25,0.418,0.55,0.543,0.9c0.125,0.35,0.188,0.737,0.188,1.162c0,0.108-0.002,0.215-0.006,0.318
			c-0.004,0.104-0.015,0.194-0.031,0.27h-4.75c0.008,0.324,0.073,0.616,0.193,0.875c0.121,0.258,0.283,0.479,0.488,0.662
			c0.204,0.184,0.445,0.325,0.725,0.425c0.279,0.101,0.585,0.15,0.919,0.15c0.358,0,0.686-0.05,0.981-0.15
			c0.295-0.1,0.585-0.237,0.868-0.412l0.362,0.675c-0.3,0.191-0.642,0.358-1.024,0.5c-0.384,0.142-0.821,0.213-1.312,0.213
			c-0.45,0-0.873-0.073-1.269-0.219c-0.396-0.146-0.742-0.354-1.038-0.625c-0.296-0.271-0.529-0.603-0.7-0.994
			S57.947,349.419,57.947,348.919z M62.848,348.419c0-0.607-0.159-1.074-0.476-1.399s-0.758-0.487-1.325-0.487
			c-0.25,0-0.489,0.041-0.719,0.125c-0.229,0.083-0.436,0.206-0.618,0.368c-0.184,0.163-0.338,0.36-0.463,0.594s-0.208,0.5-0.25,0.8
			H62.848z"/>
		<path class="st4" d="M65.747,345.87h0.851l0.087,1.038h0.05c0.317-0.342,0.658-0.625,1.025-0.851
			c0.366-0.225,0.787-0.337,1.263-0.337c0.725,0,1.256,0.206,1.594,0.618c0.337,0.413,0.506,1.023,0.506,1.831v3.775h-1.024v-3.638
			c0-0.575-0.108-1.002-0.325-1.281s-0.575-0.419-1.075-0.419c-0.184,0-0.353,0.023-0.506,0.069
			c-0.154,0.046-0.307,0.114-0.457,0.206c-0.149,0.092-0.304,0.206-0.462,0.344s-0.325,0.298-0.5,0.481v4.237h-1.025V345.87z"/>
		<path class="st4" d="M74.659,346.708h-1.713v-0.775l1.75-0.062l0.138-1.7h0.851v1.7h2.987v0.838h-2.987v2.888
			c0,0.274,0.024,0.515,0.074,0.719c0.051,0.204,0.134,0.377,0.25,0.519c0.117,0.142,0.275,0.248,0.476,0.318
			c0.2,0.071,0.445,0.106,0.737,0.106s0.554-0.025,0.787-0.075s0.459-0.116,0.676-0.2l0.225,0.75
			c-0.275,0.101-0.579,0.186-0.912,0.257c-0.334,0.07-0.667,0.106-1,0.106c-0.442,0-0.812-0.061-1.113-0.182
			c-0.3-0.121-0.539-0.292-0.719-0.513c-0.179-0.221-0.308-0.485-0.387-0.794c-0.08-0.308-0.119-0.649-0.119-1.024V346.708z"/>
	</g>
</g>
</svg>
