<?xml version="1.0" encoding="utf-8"?>
<!-- Generator: Adobe Illustrator 19.0.0, SVG Export Plug-In . SVG Version: 6.00 Build 0)  -->
<svg version="1.1" id="Layer_1" xmlns="http://www.w3.org/2000/svg" xmlns:xlink="http://www.w3.org/1999/xlink" x="0px" y="0px"
	 viewBox="0 0 367.794 196.4" style="enable-background:new 0 0 367.794 196.4;" xml:space="preserve">
<style type="text/css">
	.st0{enable-background:new    ;}
	.st1{fill:#231F20;}
</style>
<g>
	<g>
		<g class="st0">
			<path d="M0,76.7h11.6v18.199l-0.399,8.601c2.133-2,4.532-3.583,7.2-4.75c2.665-1.166,5.332-1.75,8-1.75
				c3.199,0,6.032,0.584,8.5,1.75c2.465,1.167,4.565,2.834,6.3,5c1.732,2.167,3.05,4.784,3.95,7.85c0.899,3.067,1.35,6.5,1.35,10.3
				c0,4.2-0.6,7.95-1.8,11.25c-1.2,3.301-2.817,6.085-4.851,8.351c-2.034,2.267-4.367,4-7,5.2c-2.634,1.199-5.35,1.8-8.149,1.8
				c-2.335,0-4.768-0.567-7.3-1.7c-2.535-1.133-4.867-2.766-7-4.9H10.1l-1,5.4H0V76.7z M11.599,134.499
				c1.801,1.667,3.666,2.834,5.601,3.5c1.933,0.667,3.665,1,5.2,1c3.465,0,6.365-1.416,8.699-4.25c2.333-2.833,3.5-7.05,3.5-12.65
				c0-4.933-0.899-8.766-2.699-11.5c-1.801-2.732-4.7-4.1-8.7-4.1c-1.867,0-3.768,0.467-5.7,1.399c-1.935,0.935-3.9,2.435-5.9,4.5
				L11.599,134.499L11.599,134.499z"/>
		</g>
		<g class="st0">
			<path d="M56.098,122.799c0-4.065,0.684-7.7,2.051-10.9c1.365-3.199,3.183-5.899,5.449-8.1c2.266-2.2,4.9-3.883,7.9-5.05
				c3-1.166,6.1-1.75,9.3-1.75c3.2,0,6.3,0.584,9.3,1.75c3,1.167,5.633,2.85,7.9,5.05c2.266,2.2,4.083,4.9,5.45,8.1
				c1.365,3.2,2.05,6.835,2.05,10.9c0,4.067-0.685,7.7-2.05,10.9c-1.367,3.199-3.185,5.899-5.45,8.1c-2.268,2.2-4.9,3.867-7.9,5
				s-6.1,1.7-9.3,1.7s-6.3-0.567-9.3-1.7s-5.635-2.8-7.9-5c-2.267-2.2-4.084-4.9-5.449-8.1
				C56.782,130.499,56.098,126.867,56.098,122.799z M67.999,122.799c0,4.935,1.133,8.885,3.4,11.85
				c2.266,2.968,5.399,4.45,9.399,4.45s7.133-1.482,9.4-4.45c2.266-2.965,3.399-6.915,3.399-11.85c0-5-1.134-8.982-3.399-11.95
				c-2.268-2.966-5.4-4.45-9.4-4.45c-4,0-7.134,1.484-9.399,4.45C69.131,113.817,67.999,117.799,67.999,122.799z"/>
		</g>
		<g class="st0">
			<path d="M110.198,98.2h32.8v49.1h-11.5v-40h-21.3V98.2z M136.398,89.599c-2.335,0-4.285-0.7-5.851-2.1
				c-1.567-1.4-2.35-3.266-2.35-5.601c0-2.332,0.782-4.215,2.35-5.649c1.565-1.433,3.516-2.15,5.851-2.15
				c2.399,0,4.365,0.718,5.899,2.15c1.533,1.435,2.3,3.317,2.3,5.649c0,2.335-0.767,4.2-2.3,5.601
				C140.763,88.899,138.797,89.599,136.398,89.599z"/>
		</g>
		<g class="st0">
			<path d="M155.697,98.2h32.8v49.1h-11.5v-40h-21.3V98.2z M181.897,89.599c-2.335,0-4.285-0.7-5.851-2.1
				c-1.567-1.4-2.35-3.266-2.35-5.601c0-2.332,0.782-4.215,2.35-5.649c1.565-1.433,3.516-2.15,5.851-2.15
				c2.399,0,4.365,0.718,5.899,2.15c1.533,1.435,2.3,3.317,2.3,5.649c0,2.335-0.767,4.2-2.3,5.601
				C186.262,88.899,184.296,89.599,181.897,89.599z"/>
		</g>
		<g id="XMLID_40_" class="st0">
			<path id="XMLID_41_" class="st1" d="M211.362,95.787h1.764v2.064l-0.048,0.935c0.232-0.216,0.494-0.383,0.786-0.503
				s0.582-0.18,0.87-0.18c0.368,0,0.702,0.071,1.002,0.216c0.3,0.144,0.552,0.345,0.756,0.605c0.204,0.261,0.362,0.576,0.474,0.948
				c0.112,0.372,0.169,0.786,0.169,1.242c0,0.512-0.072,0.968-0.217,1.368c-0.144,0.4-0.336,0.738-0.575,1.014
				c-0.24,0.276-0.515,0.486-0.822,0.63c-0.309,0.145-0.63,0.216-0.966,0.216c-0.28,0-0.559-0.067-0.834-0.203
				c-0.276-0.137-0.538-0.332-0.786-0.589h-0.048l-0.145,0.648h-1.38V95.787z M213.125,102.506c0.168,0.145,0.343,0.246,0.522,0.307
				c0.18,0.06,0.35,0.09,0.51,0.09c0.328,0,0.604-0.138,0.828-0.414s0.336-0.722,0.336-1.338c0-1.072-0.364-1.608-1.092-1.608
				c-0.376,0-0.744,0.185-1.104,0.553V102.506z"/>
			<path id="XMLID_44_" class="st1" d="M218.646,98.247h4.151v5.952h-1.764v-4.572h-2.388V98.247z M221.837,97.371
				c-0.344,0-0.626-0.096-0.846-0.288c-0.221-0.191-0.33-0.452-0.33-0.78c0-0.327,0.109-0.594,0.33-0.798
				c0.22-0.204,0.502-0.306,0.846-0.306s0.626,0.102,0.846,0.306c0.221,0.204,0.33,0.471,0.33,0.798c0,0.328-0.109,0.589-0.33,0.78
				C222.463,97.275,222.181,97.371,221.837,97.371z"/>
			<path id="XMLID_47_" class="st1" d="M225.461,101.223c0-0.488,0.072-0.925,0.216-1.309c0.145-0.384,0.334-0.71,0.57-0.978
				c0.236-0.269,0.506-0.474,0.811-0.618c0.304-0.145,0.619-0.216,0.947-0.216c0.344,0,0.632,0.058,0.864,0.174
				s0.452,0.269,0.66,0.461l-0.061-0.923v-2.028h1.765v8.412h-1.44l-0.132-0.612h-0.036c-0.224,0.216-0.479,0.396-0.768,0.54
				c-0.288,0.145-0.584,0.216-0.889,0.216c-0.376,0-0.718-0.071-1.025-0.216c-0.309-0.144-0.572-0.35-0.792-0.618
				c-0.221-0.268-0.391-0.594-0.51-0.978C225.522,102.147,225.461,101.71,225.461,101.223z M227.274,101.199
				c0,0.592,0.1,1.024,0.3,1.296c0.2,0.272,0.484,0.408,0.852,0.408c0.2,0,0.385-0.042,0.553-0.126s0.332-0.226,0.491-0.426v-2.412
				c-0.159-0.145-0.321-0.246-0.485-0.307c-0.164-0.06-0.334-0.09-0.51-0.09c-0.328,0-0.61,0.137-0.847,0.408
				C227.392,100.223,227.274,100.639,227.274,101.199z"/>
			<path id="XMLID_50_" class="st1" d="M233.045,98.247h4.152v5.952h-1.765v-4.572h-2.388V98.247z M236.238,97.371
				c-0.345,0-0.626-0.096-0.847-0.288c-0.22-0.191-0.33-0.452-0.33-0.78c0-0.327,0.11-0.594,0.33-0.798
				c0.221-0.204,0.502-0.306,0.847-0.306c0.344,0,0.626,0.102,0.846,0.306s0.33,0.471,0.33,0.798c0,0.328-0.11,0.589-0.33,0.78
				C236.864,97.275,236.582,97.371,236.238,97.371z"/>
			<path id="XMLID_53_" class="st1" d="M240.69,98.247h1.439l0.145,1.295h0.036c0.296-0.487,0.651-0.85,1.067-1.085
				c0.416-0.235,0.864-0.354,1.344-0.354c0.265,0,0.479,0.02,0.643,0.06s0.334,0.101,0.51,0.18l-0.36,1.476
				c-0.184-0.056-0.35-0.098-0.498-0.126c-0.147-0.028-0.334-0.042-0.558-0.042c-0.368,0-0.73,0.107-1.086,0.324
				c-0.356,0.216-0.662,0.592-0.918,1.128v3.096h-1.764V98.247z"/>
			<path id="XMLID_55_" class="st1" d="M247.158,101.223c0-0.488,0.086-0.925,0.258-1.309s0.401-0.71,0.689-0.978
				c0.288-0.269,0.618-0.474,0.99-0.618c0.372-0.145,0.758-0.216,1.158-0.216c0.456,0,0.859,0.071,1.212,0.216
				c0.352,0.144,0.644,0.343,0.876,0.599c0.232,0.257,0.408,0.559,0.528,0.906s0.18,0.726,0.18,1.134
				c0,0.16-0.008,0.312-0.024,0.456c-0.016,0.145-0.031,0.252-0.048,0.324h-4.008c0.064,0.448,0.258,0.771,0.582,0.966
				c0.324,0.196,0.706,0.294,1.146,0.294c0.271,0,0.529-0.034,0.773-0.102c0.244-0.068,0.498-0.17,0.762-0.307l0.576,1.057
				c-0.336,0.216-0.712,0.386-1.128,0.51s-0.824,0.186-1.224,0.186c-0.464,0-0.896-0.069-1.296-0.21
				c-0.4-0.14-0.748-0.344-1.044-0.611c-0.297-0.269-0.53-0.595-0.702-0.979S247.158,101.719,247.158,101.223z M251.454,100.574
				c0-0.336-0.093-0.607-0.276-0.816c-0.184-0.207-0.479-0.312-0.888-0.312c-0.32,0-0.604,0.092-0.853,0.276
				c-0.248,0.184-0.412,0.468-0.491,0.852H251.454z"/>
			<path id="XMLID_58_" class="st1" d="M254.501,101.223c0-0.496,0.094-0.938,0.281-1.326c0.188-0.388,0.44-0.714,0.756-0.979
				c0.316-0.264,0.683-0.465,1.099-0.605s0.852-0.21,1.308-0.21c0.472,0,0.898,0.076,1.278,0.228
				c0.38,0.152,0.697,0.343,0.954,0.576l-0.816,1.092c-0.439-0.312-0.88-0.468-1.319-0.468c-0.513,0-0.929,0.152-1.248,0.456
				c-0.32,0.304-0.48,0.716-0.48,1.236c0,0.52,0.154,0.932,0.462,1.235c0.308,0.305,0.71,0.456,1.206,0.456
				c0.312,0,0.6-0.056,0.864-0.168c0.264-0.111,0.5-0.244,0.708-0.396l0.72,1.115c-0.36,0.305-0.758,0.526-1.194,0.666
				c-0.436,0.141-0.857,0.21-1.266,0.21c-0.472,0-0.908-0.069-1.308-0.21c-0.4-0.14-0.75-0.342-1.051-0.605
				c-0.3-0.264-0.533-0.59-0.701-0.979C254.585,102.16,254.501,101.719,254.501,101.223z"/>
			<path id="XMLID_60_" class="st1" d="M262.985,99.626h-1.5v-1.307l1.584-0.072l0.229-1.584h1.452v1.584h2.52v1.379h-2.52v2.088
				c0,0.456,0.1,0.778,0.3,0.967c0.2,0.188,0.516,0.281,0.948,0.281c0.231,0,0.443-0.02,0.636-0.06s0.376-0.092,0.552-0.156
				l0.312,1.272c-0.265,0.08-0.559,0.154-0.883,0.222c-0.323,0.068-0.678,0.102-1.062,0.102c-0.472,0-0.872-0.063-1.2-0.191
				s-0.594-0.306-0.798-0.534c-0.204-0.228-0.35-0.502-0.438-0.822c-0.089-0.319-0.133-0.676-0.133-1.067V99.626z"/>
			<path id="XMLID_62_" class="st1" d="M269.045,98.247h4.151v5.952h-1.764v-4.572h-2.388V98.247z M272.237,97.371
				c-0.344,0-0.626-0.096-0.846-0.288c-0.221-0.191-0.33-0.452-0.33-0.78c0-0.327,0.109-0.594,0.33-0.798
				c0.22-0.204,0.502-0.306,0.846-0.306s0.626,0.102,0.846,0.306c0.221,0.204,0.33,0.471,0.33,0.798c0,0.328-0.109,0.589-0.33,0.78
				C272.863,97.275,272.581,97.371,272.237,97.371z"/>
			<path id="XMLID_65_" class="st1" d="M275.861,101.223c0-0.496,0.084-0.938,0.252-1.326s0.394-0.714,0.678-0.979
				c0.284-0.264,0.608-0.465,0.972-0.605c0.364-0.14,0.742-0.21,1.135-0.21c0.392,0,0.77,0.07,1.134,0.21s0.688,0.341,0.972,0.605
				c0.284,0.265,0.51,0.591,0.678,0.979s0.253,0.83,0.253,1.326s-0.085,0.938-0.253,1.325c-0.168,0.389-0.394,0.715-0.678,0.979
				s-0.607,0.466-0.972,0.605c-0.364,0.141-0.742,0.21-1.134,0.21c-0.393,0-0.771-0.069-1.135-0.21
				c-0.363-0.14-0.688-0.342-0.972-0.605s-0.51-0.59-0.678-0.979C275.945,102.16,275.861,101.719,275.861,101.223z M277.672,101.223
				c0,0.52,0.103,0.932,0.307,1.235c0.204,0.305,0.51,0.456,0.918,0.456c0.407,0,0.714-0.151,0.918-0.456
				c0.204-0.304,0.306-0.716,0.306-1.235c0-0.521-0.102-0.933-0.306-1.236s-0.511-0.456-0.918-0.456
				c-0.408,0-0.714,0.152-0.918,0.456S277.672,100.702,277.672,101.223z"/>
			<path id="XMLID_68_" class="st1" d="M283.361,98.247h1.44l0.132,0.792h0.048c0.256-0.256,0.55-0.476,0.882-0.66
				c0.332-0.184,0.722-0.275,1.17-0.275c0.672,0,1.164,0.216,1.477,0.647c0.312,0.433,0.468,1.024,0.468,1.776v3.672h-1.765v-3.444
				c0-0.399-0.063-0.691-0.191-0.876c-0.128-0.184-0.356-0.275-0.685-0.275c-0.239,0-0.449,0.052-0.63,0.155
				c-0.18,0.104-0.374,0.261-0.582,0.469v3.972h-1.764V98.247z"/>
			<path id="XMLID_70_" class="st1" d="M290.428,102.542c0-0.336,0.072-0.63,0.217-0.882c0.144-0.252,0.373-0.466,0.689-0.642
				s0.722-0.318,1.218-0.427c0.496-0.107,1.097-0.182,1.8-0.222c-0.031-0.271-0.149-0.483-0.354-0.636s-0.51-0.229-0.918-0.229
				c-0.288,0-0.578,0.051-0.87,0.15c-0.292,0.101-0.605,0.234-0.942,0.402l-0.623-1.152c0.407-0.232,0.846-0.424,1.313-0.576
				c0.468-0.151,0.958-0.228,1.47-0.228c0.832,0,1.488,0.22,1.969,0.66c0.479,0.439,0.72,1.115,0.72,2.027v3.408h-1.44l-0.132-0.672
				h-0.048c-0.304,0.232-0.636,0.426-0.996,0.582s-0.732,0.233-1.116,0.233c-0.304,0-0.576-0.046-0.815-0.138
				c-0.24-0.092-0.444-0.22-0.612-0.384s-0.298-0.354-0.39-0.57C290.474,103.034,290.428,102.799,290.428,102.542z M292.121,102.41
				c0,0.192,0.074,0.334,0.222,0.426c0.148,0.093,0.351,0.139,0.606,0.139c0.264,0,0.512-0.055,0.744-0.162
				c0.231-0.108,0.451-0.242,0.659-0.402v-0.984c-0.439,0.024-0.804,0.064-1.092,0.12c-0.288,0.057-0.516,0.126-0.684,0.21
				s-0.286,0.183-0.354,0.294C292.155,102.162,292.121,102.282,292.121,102.41z"/>
			<path id="XMLID_73_" class="st1" d="M297.64,95.787h3.492v6.156c0,0.184,0.025,0.338,0.078,0.462
				c0.052,0.124,0.124,0.224,0.216,0.3s0.196,0.13,0.312,0.162c0.116,0.032,0.234,0.048,0.354,0.048c0.136,0,0.28-0.014,0.432-0.042
				c0.152-0.027,0.32-0.078,0.504-0.149l0.396,1.296c-0.16,0.048-0.309,0.092-0.444,0.132s-0.271,0.073-0.408,0.102
				c-0.136,0.028-0.279,0.05-0.432,0.066c-0.152,0.016-0.32,0.023-0.504,0.023c-0.752,0-1.318-0.222-1.698-0.666
				c-0.38-0.443-0.569-1.046-0.569-1.806v-4.691h-1.729V95.787z"/>
			<path id="XMLID_75_" class="st1" d="M304.84,95.787h3.492v6.156c0,0.184,0.025,0.338,0.078,0.462
				c0.052,0.124,0.124,0.224,0.216,0.3s0.196,0.13,0.312,0.162c0.116,0.032,0.234,0.048,0.354,0.048c0.136,0,0.28-0.014,0.432-0.042
				c0.152-0.027,0.32-0.078,0.504-0.149l0.396,1.296c-0.16,0.048-0.309,0.092-0.444,0.132s-0.271,0.073-0.408,0.102
				c-0.136,0.028-0.279,0.05-0.432,0.066c-0.152,0.016-0.32,0.023-0.504,0.023c-0.752,0-1.318-0.222-1.698-0.666
				c-0.38-0.443-0.569-1.046-0.569-1.806v-4.691h-1.729V95.787z"/>
			<path id="XMLID_77_" class="st1" d="M312.88,105.134c0.344,0,0.613-0.071,0.81-0.216c0.196-0.144,0.342-0.332,0.438-0.563
				l0.12-0.312l-2.58-5.795h1.752l0.996,2.555c0.111,0.28,0.216,0.57,0.312,0.87c0.096,0.301,0.192,0.606,0.288,0.918h0.048
				c0.08-0.296,0.168-0.594,0.265-0.894c0.096-0.3,0.188-0.598,0.275-0.895l0.876-2.555h1.668l-2.352,6.011
				c-0.145,0.376-0.3,0.706-0.468,0.99c-0.169,0.284-0.36,0.521-0.576,0.708c-0.216,0.188-0.467,0.33-0.75,0.426
				c-0.284,0.097-0.614,0.145-0.99,0.145c-0.176,0-0.34-0.01-0.492-0.03c-0.152-0.02-0.292-0.05-0.42-0.09l0.312-1.344
				C312.564,105.111,312.72,105.134,312.88,105.134z"/>
			<path id="XMLID_79_" class="st1" d="M211.062,115.623c0-0.496,0.084-0.938,0.252-1.326s0.394-0.714,0.678-0.979
				c0.284-0.264,0.608-0.466,0.972-0.605c0.364-0.14,0.742-0.21,1.135-0.21c0.392,0,0.77,0.07,1.134,0.21s0.688,0.342,0.972,0.605
				c0.284,0.265,0.51,0.591,0.678,0.979s0.253,0.83,0.253,1.326s-0.085,0.938-0.253,1.325c-0.168,0.389-0.394,0.715-0.678,0.979
				s-0.607,0.466-0.972,0.605c-0.364,0.141-0.742,0.21-1.134,0.21c-0.393,0-0.771-0.069-1.135-0.21
				c-0.363-0.14-0.688-0.342-0.972-0.605s-0.51-0.59-0.678-0.979C211.146,116.561,211.062,116.119,211.062,115.623z
				 M212.874,115.623c0,0.52,0.103,0.932,0.307,1.235c0.204,0.305,0.51,0.456,0.918,0.456c0.407,0,0.714-0.151,0.918-0.456
				c0.204-0.304,0.306-0.716,0.306-1.235c0-0.521-0.102-0.933-0.306-1.236s-0.511-0.456-0.918-0.456
				c-0.408,0-0.714,0.152-0.918,0.456S212.874,115.103,212.874,115.623z"/>
			<path id="XMLID_82_" class="st1" d="M219.089,112.647h1.44l0.144,1.296h0.036c0.296-0.487,0.652-0.85,1.068-1.086
				c0.416-0.235,0.863-0.354,1.344-0.354c0.264,0,0.478,0.02,0.642,0.06s0.334,0.101,0.511,0.18l-0.36,1.477
				c-0.185-0.056-0.351-0.098-0.498-0.126c-0.148-0.028-0.334-0.042-0.558-0.042c-0.368,0-0.73,0.107-1.086,0.324
				c-0.356,0.216-0.662,0.592-0.919,1.128v3.096h-1.764V112.647z"/>
			<path id="XMLID_84_" class="st1" d="M225.846,112.647h4.151v5.952h-1.764v-4.572h-2.388V112.647z M229.038,111.771
				c-0.344,0-0.626-0.096-0.846-0.288c-0.221-0.191-0.33-0.452-0.33-0.78c0-0.327,0.109-0.594,0.33-0.798
				c0.22-0.204,0.502-0.306,0.846-0.306s0.626,0.102,0.846,0.306c0.221,0.204,0.33,0.471,0.33,0.798c0,0.328-0.109,0.589-0.33,0.78
				C229.664,111.675,229.381,111.771,229.038,111.771z"/>
			<path id="XMLID_87_" class="st1" d="M232.757,115.623c0-0.488,0.086-0.925,0.258-1.309s0.402-0.71,0.69-0.978
				c0.288-0.269,0.618-0.475,0.99-0.618c0.372-0.145,0.758-0.216,1.157-0.216c0.456,0,0.86,0.071,1.212,0.216
				c0.353,0.144,0.645,0.344,0.877,0.6c0.231,0.257,0.407,0.559,0.527,0.906s0.18,0.726,0.18,1.134c0,0.16-0.008,0.312-0.023,0.456
				c-0.017,0.145-0.032,0.252-0.048,0.324h-4.008c0.063,0.448,0.258,0.771,0.582,0.966c0.323,0.196,0.705,0.294,1.146,0.294
				c0.271,0,0.53-0.034,0.774-0.102c0.243-0.068,0.498-0.17,0.762-0.307l0.576,1.057c-0.336,0.216-0.712,0.386-1.128,0.51
				s-0.824,0.186-1.225,0.186c-0.464,0-0.896-0.069-1.296-0.21c-0.4-0.14-0.748-0.344-1.044-0.611
				c-0.296-0.269-0.53-0.595-0.702-0.979S232.757,116.119,232.757,115.623z M237.053,114.975c0-0.336-0.092-0.607-0.275-0.816
				c-0.185-0.207-0.48-0.312-0.889-0.312c-0.319,0-0.604,0.092-0.852,0.276c-0.248,0.184-0.412,0.468-0.492,0.852H237.053z"/>
			<path id="XMLID_90_" class="st1" d="M240.162,112.647h1.44l0.132,0.792h0.048c0.256-0.256,0.55-0.476,0.882-0.66
				c0.332-0.184,0.722-0.275,1.17-0.275c0.672,0,1.164,0.216,1.477,0.647c0.312,0.433,0.468,1.024,0.468,1.776v3.672h-1.765v-3.444
				c0-0.399-0.063-0.691-0.191-0.876c-0.128-0.184-0.356-0.275-0.685-0.275c-0.239,0-0.449,0.052-0.63,0.155
				c-0.18,0.104-0.374,0.261-0.582,0.469v3.972h-1.764V112.647z"/>
			<path id="XMLID_92_" class="st1" d="M248.585,114.027h-1.5v-1.308l1.584-0.072l0.228-1.584h1.452v1.584h2.521v1.38h-2.521v2.088
				c0,0.456,0.101,0.778,0.3,0.967c0.2,0.188,0.517,0.281,0.948,0.281c0.232,0,0.444-0.02,0.636-0.06
				c0.192-0.04,0.376-0.092,0.553-0.156l0.312,1.272c-0.264,0.08-0.558,0.154-0.882,0.222c-0.324,0.068-0.678,0.102-1.062,0.102
				c-0.472,0-0.871-0.063-1.199-0.191s-0.595-0.306-0.798-0.534c-0.204-0.228-0.351-0.502-0.438-0.822
				c-0.088-0.319-0.132-0.676-0.132-1.067V114.027z"/>
			<path id="XMLID_94_" class="st1" d="M254.357,115.623c0-0.488,0.086-0.925,0.258-1.309s0.402-0.71,0.69-0.978
				c0.288-0.269,0.618-0.475,0.99-0.618c0.372-0.145,0.758-0.216,1.157-0.216c0.456,0,0.86,0.071,1.212,0.216
				c0.353,0.144,0.645,0.344,0.877,0.6c0.231,0.257,0.407,0.559,0.527,0.906s0.18,0.726,0.18,1.134c0,0.16-0.008,0.312-0.023,0.456
				c-0.017,0.145-0.032,0.252-0.048,0.324h-4.008c0.063,0.448,0.258,0.771,0.582,0.966c0.323,0.196,0.705,0.294,1.146,0.294
				c0.271,0,0.53-0.034,0.774-0.102c0.243-0.068,0.498-0.17,0.762-0.307l0.576,1.057c-0.336,0.216-0.712,0.386-1.128,0.51
				s-0.824,0.186-1.225,0.186c-0.464,0-0.896-0.069-1.296-0.21c-0.4-0.14-0.748-0.344-1.044-0.611
				c-0.296-0.269-0.53-0.595-0.702-0.979S254.357,116.119,254.357,115.623z M258.653,114.975c0-0.336-0.092-0.607-0.275-0.816
				c-0.185-0.207-0.48-0.312-0.889-0.312c-0.319,0-0.604,0.092-0.852,0.276c-0.248,0.184-0.412,0.468-0.492,0.852H258.653z"/>
			<path id="XMLID_97_" class="st1" d="M261.461,115.623c0-0.488,0.072-0.925,0.216-1.309s0.334-0.71,0.57-0.978
				c0.235-0.269,0.506-0.475,0.81-0.618c0.304-0.145,0.62-0.216,0.948-0.216c0.344,0,0.632,0.058,0.864,0.174
				c0.231,0.116,0.451,0.27,0.659,0.462l-0.06-0.924v-2.028h1.764v8.412h-1.439l-0.132-0.612h-0.036
				c-0.225,0.216-0.48,0.396-0.769,0.54c-0.288,0.145-0.584,0.216-0.888,0.216c-0.376,0-0.718-0.071-1.026-0.216
				c-0.308-0.144-0.571-0.35-0.792-0.618c-0.22-0.268-0.39-0.594-0.51-0.978S261.461,116.111,261.461,115.623z M263.273,115.599
				c0,0.592,0.101,1.024,0.3,1.296c0.2,0.272,0.484,0.408,0.853,0.408c0.2,0,0.384-0.042,0.552-0.126s0.332-0.226,0.492-0.426
				v-2.412c-0.16-0.145-0.322-0.246-0.486-0.307c-0.164-0.06-0.334-0.09-0.51-0.09c-0.328,0-0.61,0.137-0.846,0.408
				C263.391,114.623,263.273,115.039,263.273,115.599z"/>
			<path id="XMLID_100_" class="st1" d="M211.446,127.046h4.152v5.952h-1.765v-4.572h-2.388V127.046z M214.638,126.17
				c-0.345,0-0.626-0.096-0.847-0.288c-0.22-0.191-0.33-0.452-0.33-0.78c0-0.327,0.11-0.594,0.33-0.798
				c0.221-0.204,0.502-0.306,0.847-0.306c0.344,0,0.626,0.102,0.846,0.306s0.33,0.471,0.33,0.798c0,0.328-0.11,0.589-0.33,0.78
				C215.264,126.074,214.982,126.17,214.638,126.17z"/>
			<path id="XMLID_103_" class="st1" d="M218.561,127.046h1.44l0.132,0.792h0.048c0.256-0.256,0.551-0.476,0.883-0.66
				c0.331-0.184,0.722-0.275,1.17-0.275c0.672,0,1.164,0.216,1.476,0.647c0.312,0.433,0.468,1.024,0.468,1.776v3.672h-1.764v-3.444
				c0-0.399-0.064-0.691-0.192-0.876c-0.128-0.184-0.355-0.275-0.684-0.275c-0.24,0-0.45,0.052-0.63,0.155
				c-0.181,0.104-0.374,0.261-0.582,0.469v3.972h-1.765V127.046z"/>
			<path id="XMLID_105_" class="st1" d="M226.986,128.426h-1.5v-1.308l1.584-0.072l0.228-1.584h1.452v1.584h2.521v1.38h-2.521v2.088
				c0,0.456,0.101,0.778,0.3,0.967c0.2,0.188,0.517,0.281,0.948,0.281c0.232,0,0.444-0.02,0.636-0.06
				c0.192-0.04,0.376-0.092,0.553-0.156l0.312,1.272c-0.264,0.08-0.558,0.154-0.882,0.222c-0.324,0.068-0.678,0.102-1.062,0.102
				c-0.472,0-0.871-0.063-1.199-0.191s-0.595-0.306-0.798-0.534c-0.204-0.228-0.351-0.502-0.438-0.822
				c-0.088-0.319-0.132-0.676-0.132-1.067V128.426z"/>
			<path id="XMLID_107_" class="st1" d="M232.757,130.023c0-0.488,0.086-0.925,0.258-1.309s0.402-0.71,0.69-0.978
				c0.288-0.269,0.618-0.475,0.99-0.618c0.372-0.145,0.758-0.216,1.157-0.216c0.456,0,0.86,0.071,1.212,0.216
				c0.353,0.144,0.645,0.344,0.877,0.6c0.231,0.257,0.407,0.559,0.527,0.906s0.18,0.726,0.18,1.134c0,0.16-0.008,0.312-0.023,0.456
				c-0.017,0.145-0.032,0.252-0.048,0.324h-4.008c0.063,0.448,0.258,0.771,0.582,0.966c0.323,0.196,0.705,0.294,1.146,0.294
				c0.271,0,0.53-0.034,0.774-0.102c0.243-0.068,0.498-0.17,0.762-0.307l0.576,1.057c-0.336,0.216-0.712,0.386-1.128,0.51
				s-0.824,0.186-1.225,0.186c-0.464,0-0.896-0.069-1.296-0.21c-0.4-0.14-0.748-0.344-1.044-0.611
				c-0.296-0.269-0.53-0.595-0.702-0.979S232.757,130.519,232.757,130.023z M237.053,129.374c0-0.336-0.092-0.607-0.275-0.816
				c-0.185-0.207-0.48-0.312-0.889-0.312c-0.319,0-0.604,0.092-0.852,0.276c-0.248,0.184-0.412,0.468-0.492,0.852H237.053z"/>
			<path id="XMLID_110_" class="st1" d="M240.042,124.586h3.492v6.156c0,0.184,0.025,0.338,0.078,0.462
				c0.052,0.124,0.124,0.224,0.216,0.3s0.196,0.13,0.312,0.162c0.116,0.032,0.234,0.048,0.354,0.048c0.136,0,0.28-0.014,0.432-0.042
				c0.152-0.027,0.32-0.078,0.504-0.149l0.396,1.296c-0.16,0.048-0.309,0.092-0.444,0.132s-0.271,0.073-0.408,0.102
				c-0.136,0.028-0.279,0.05-0.432,0.066c-0.152,0.016-0.32,0.023-0.504,0.023c-0.752,0-1.318-0.222-1.698-0.666
				c-0.38-0.443-0.569-1.046-0.569-1.806v-4.691h-1.729V124.586z"/>
			<path id="XMLID_112_" class="st1" d="M247.242,124.586h3.491v6.156c0,0.184,0.026,0.338,0.078,0.462s0.124,0.224,0.216,0.3
				c0.093,0.076,0.196,0.13,0.312,0.162s0.234,0.048,0.354,0.048c0.137,0,0.28-0.014,0.433-0.042
				c0.151-0.027,0.319-0.078,0.504-0.149l0.396,1.296c-0.16,0.048-0.308,0.092-0.443,0.132c-0.137,0.04-0.272,0.073-0.408,0.102
				s-0.28,0.05-0.432,0.066c-0.152,0.016-0.32,0.023-0.504,0.023c-0.753,0-1.318-0.222-1.698-0.666
				c-0.38-0.443-0.57-1.046-0.57-1.806v-4.691h-1.728V124.586z"/>
			<path id="XMLID_114_" class="st1" d="M254.645,127.046h4.152v5.952h-1.765v-4.572h-2.388V127.046z M257.837,126.17
				c-0.345,0-0.626-0.096-0.847-0.288c-0.22-0.191-0.33-0.452-0.33-0.78c0-0.327,0.11-0.594,0.33-0.798
				c0.221-0.204,0.502-0.306,0.847-0.306c0.344,0,0.626,0.102,0.846,0.306s0.33,0.471,0.33,0.798c0,0.328-0.11,0.589-0.33,0.78
				C258.463,126.074,258.181,126.17,257.837,126.17z"/>
			<path id="XMLID_117_" class="st1" d="M261.521,134.006c0-0.488,0.308-0.884,0.924-1.188v-0.048c-0.16-0.104-0.3-0.236-0.42-0.396
				s-0.18-0.368-0.18-0.624c0-0.2,0.066-0.399,0.198-0.6s0.302-0.372,0.51-0.517v-0.048c-0.216-0.144-0.4-0.346-0.552-0.605
				c-0.152-0.261-0.229-0.566-0.229-0.918c0-0.36,0.07-0.675,0.21-0.942c0.141-0.268,0.326-0.492,0.559-0.672
				c0.231-0.181,0.502-0.316,0.81-0.408s0.63-0.138,0.966-0.138c0.368,0,0.696,0.048,0.984,0.144h2.412v1.284h-1.212
				c0.071,0.088,0.136,0.202,0.191,0.342c0.057,0.141,0.084,0.29,0.084,0.45c0,0.344-0.063,0.64-0.191,0.888
				s-0.303,0.454-0.522,0.618s-0.479,0.286-0.779,0.366c-0.301,0.08-0.623,0.12-0.967,0.12c-0.256,0-0.527-0.04-0.815-0.12
				c-0.088,0.064-0.154,0.128-0.198,0.192c-0.044,0.063-0.066,0.144-0.066,0.239c0,0.16,0.08,0.276,0.24,0.349
				c0.16,0.071,0.416,0.107,0.769,0.107h1.104c0.784,0,1.382,0.116,1.794,0.349c0.412,0.231,0.618,0.615,0.618,1.151
				c0,0.312-0.084,0.601-0.252,0.864s-0.404,0.49-0.708,0.678c-0.304,0.188-0.676,0.336-1.116,0.444
				c-0.439,0.107-0.928,0.162-1.464,0.162c-0.384,0-0.742-0.03-1.074-0.09c-0.332-0.061-0.618-0.152-0.857-0.276
				c-0.24-0.124-0.429-0.282-0.564-0.474C261.589,134.498,261.521,134.271,261.521,134.006z M262.961,133.742
				c0,0.224,0.134,0.394,0.401,0.51c0.269,0.116,0.639,0.174,1.11,0.174c0.48,0,0.868-0.07,1.164-0.21s0.444-0.313,0.444-0.521
				c0-0.192-0.089-0.318-0.265-0.378c-0.176-0.061-0.436-0.091-0.779-0.091h-0.744c-0.216,0-0.395-0.006-0.534-0.018
				s-0.267-0.03-0.378-0.054c-0.152,0.096-0.26,0.189-0.324,0.282C262.993,133.529,262.961,133.63,262.961,133.742z
				 M264.317,130.046c0.248,0,0.462-0.082,0.643-0.246c0.18-0.164,0.27-0.409,0.27-0.737c0-0.32-0.09-0.562-0.27-0.727
				c-0.181-0.164-0.395-0.246-0.643-0.246s-0.458,0.082-0.63,0.246s-0.258,0.406-0.258,0.727c0,0.328,0.086,0.573,0.258,0.737
				S264.069,130.046,264.317,130.046z"/>
			<path id="XMLID_121_" class="st1" d="M268.757,130.023c0-0.488,0.086-0.925,0.258-1.309s0.401-0.71,0.689-0.978
				c0.288-0.269,0.618-0.475,0.99-0.618c0.372-0.145,0.758-0.216,1.158-0.216c0.456,0,0.859,0.071,1.212,0.216
				c0.352,0.144,0.644,0.344,0.876,0.6c0.232,0.257,0.408,0.559,0.528,0.906s0.18,0.726,0.18,1.134c0,0.16-0.008,0.312-0.024,0.456
				c-0.016,0.145-0.031,0.252-0.048,0.324h-4.008c0.064,0.448,0.258,0.771,0.582,0.966c0.324,0.196,0.706,0.294,1.146,0.294
				c0.271,0,0.529-0.034,0.773-0.102c0.244-0.068,0.498-0.17,0.762-0.307l0.576,1.057c-0.336,0.216-0.712,0.386-1.128,0.51
				s-0.824,0.186-1.224,0.186c-0.464,0-0.896-0.069-1.296-0.21c-0.4-0.14-0.748-0.344-1.044-0.611
				c-0.297-0.269-0.53-0.595-0.702-0.979S268.757,130.519,268.757,130.023z M273.053,129.374c0-0.336-0.093-0.607-0.276-0.816
				c-0.184-0.207-0.479-0.312-0.888-0.312c-0.32,0-0.604,0.092-0.853,0.276c-0.248,0.184-0.412,0.468-0.491,0.852H273.053z"/>
			<path id="XMLID_124_" class="st1" d="M276.161,127.046h1.44l0.132,0.792h0.048c0.256-0.256,0.55-0.476,0.882-0.66
				c0.332-0.184,0.722-0.275,1.17-0.275c0.672,0,1.164,0.216,1.477,0.647c0.312,0.433,0.468,1.024,0.468,1.776v3.672h-1.765v-3.444
				c0-0.399-0.063-0.691-0.191-0.876c-0.128-0.184-0.356-0.275-0.685-0.275c-0.239,0-0.449,0.052-0.63,0.155
				c-0.18,0.104-0.374,0.261-0.582,0.469v3.972h-1.764V127.046z"/>
			<path id="XMLID_126_" class="st1" d="M284.584,128.426h-1.5v-1.308l1.584-0.072l0.229-1.584h1.452v1.584h2.52v1.38h-2.52v2.088
				c0,0.456,0.1,0.778,0.3,0.967c0.2,0.188,0.516,0.281,0.948,0.281c0.231,0,0.443-0.02,0.636-0.06s0.376-0.092,0.552-0.156
				l0.312,1.272c-0.265,0.08-0.559,0.154-0.883,0.222c-0.323,0.068-0.678,0.102-1.062,0.102c-0.472,0-0.872-0.063-1.2-0.191
				s-0.594-0.306-0.798-0.534c-0.204-0.228-0.35-0.502-0.438-0.822c-0.089-0.319-0.133-0.676-0.133-1.067V128.426z"/>
			<path id="XMLID_128_" class="st1" d="M211.446,141.447h4.152v5.952h-1.765v-4.572h-2.388V141.447z M214.638,140.571
				c-0.345,0-0.626-0.096-0.847-0.288c-0.22-0.191-0.33-0.452-0.33-0.78c0-0.327,0.11-0.594,0.33-0.798
				c0.221-0.204,0.502-0.306,0.847-0.306c0.344,0,0.626,0.102,0.846,0.306s0.33,0.471,0.33,0.798c0,0.328-0.11,0.589-0.33,0.78
				C215.264,140.475,214.982,140.571,214.638,140.571z"/>
			<path id="XMLID_131_" class="st1" d="M218.561,141.447h1.44l0.132,0.792h0.048c0.256-0.256,0.551-0.476,0.883-0.66
				c0.331-0.184,0.722-0.275,1.17-0.275c0.672,0,1.164,0.216,1.476,0.647c0.312,0.433,0.468,1.024,0.468,1.776v3.672h-1.764v-3.444
				c0-0.399-0.064-0.691-0.192-0.876c-0.128-0.184-0.355-0.275-0.684-0.275c-0.24,0-0.45,0.052-0.63,0.155
				c-0.181,0.104-0.374,0.261-0.582,0.469v3.972h-1.765V141.447z"/>
			<path id="XMLID_133_" class="st1" d="M226.986,142.826h-1.5v-1.308l1.584-0.072l0.228-1.584h1.452v1.584h2.521v1.38h-2.521v2.088
				c0,0.456,0.101,0.778,0.3,0.967c0.2,0.188,0.517,0.281,0.948,0.281c0.232,0,0.444-0.02,0.636-0.06
				c0.192-0.04,0.376-0.092,0.553-0.156l0.312,1.272c-0.264,0.08-0.558,0.154-0.882,0.222c-0.324,0.068-0.678,0.102-1.062,0.102
				c-0.472,0-0.871-0.063-1.199-0.191s-0.595-0.306-0.798-0.534c-0.204-0.228-0.351-0.502-0.438-0.822
				c-0.088-0.319-0.132-0.676-0.132-1.067V142.826z"/>
			<path id="XMLID_135_" class="st1" d="M232.757,144.423c0-0.488,0.086-0.925,0.258-1.309s0.402-0.71,0.69-0.978
				c0.288-0.269,0.618-0.475,0.99-0.618c0.372-0.145,0.758-0.216,1.157-0.216c0.456,0,0.86,0.071,1.212,0.216
				c0.353,0.144,0.645,0.344,0.877,0.6c0.231,0.257,0.407,0.559,0.527,0.906s0.18,0.726,0.18,1.134c0,0.16-0.008,0.312-0.023,0.456
				c-0.017,0.145-0.032,0.252-0.048,0.324h-4.008c0.063,0.448,0.258,0.771,0.582,0.966c0.323,0.196,0.705,0.294,1.146,0.294
				c0.271,0,0.53-0.034,0.774-0.102c0.243-0.068,0.498-0.17,0.762-0.307l0.576,1.057c-0.336,0.216-0.712,0.386-1.128,0.51
				s-0.824,0.186-1.225,0.186c-0.464,0-0.896-0.069-1.296-0.21c-0.4-0.14-0.748-0.344-1.044-0.611
				c-0.296-0.269-0.53-0.595-0.702-0.979S232.757,144.919,232.757,144.423z M237.053,143.775c0-0.336-0.092-0.607-0.275-0.816
				c-0.185-0.207-0.48-0.312-0.889-0.312c-0.319,0-0.604,0.092-0.852,0.276c-0.248,0.184-0.412,0.468-0.492,0.852H237.053z"/>
			<path id="XMLID_138_" class="st1" d="M240.69,141.447h1.439l0.145,1.296h0.036c0.296-0.487,0.651-0.85,1.067-1.086
				c0.416-0.235,0.864-0.354,1.344-0.354c0.265,0,0.479,0.02,0.643,0.06s0.334,0.101,0.51,0.18l-0.36,1.477
				c-0.184-0.056-0.35-0.098-0.498-0.126c-0.147-0.028-0.334-0.042-0.558-0.042c-0.368,0-0.73,0.107-1.086,0.324
				c-0.356,0.216-0.662,0.592-0.918,1.128v3.096h-1.764V141.447z"/>
			<path id="XMLID_140_" class="st1" d="M253.181,140.463c-0.392-0.152-0.808-0.229-1.248-0.229c-0.384,0-0.666,0.084-0.846,0.252
				s-0.271,0.432-0.271,0.792v0.168h2.053v1.38h-2.053v4.572h-1.764v-4.572h-1.572v-1.308l1.572-0.072v-0.156
				c0-0.344,0.052-0.663,0.156-0.96c0.104-0.296,0.264-0.554,0.479-0.773c0.217-0.22,0.492-0.395,0.828-0.522s0.736-0.191,1.2-0.191
				c0.344,0,0.666,0.031,0.966,0.096s0.578,0.14,0.834,0.228L253.181,140.463z"/>
			<path id="XMLID_142_" class="st1" d="M254.429,145.742c0-0.336,0.072-0.63,0.216-0.882s0.374-0.466,0.69-0.642
				c0.315-0.176,0.722-0.318,1.218-0.427c0.496-0.107,1.096-0.182,1.8-0.222c-0.032-0.271-0.15-0.483-0.354-0.636
				c-0.203-0.152-0.51-0.229-0.918-0.229c-0.287,0-0.577,0.051-0.869,0.15c-0.293,0.101-0.606,0.234-0.942,0.402l-0.624-1.152
				c0.408-0.232,0.846-0.424,1.314-0.576c0.468-0.151,0.957-0.228,1.47-0.228c0.832,0,1.488,0.22,1.968,0.66
				c0.48,0.439,0.72,1.115,0.72,2.027v3.408h-1.439l-0.132-0.672h-0.049c-0.304,0.232-0.636,0.426-0.995,0.582
				c-0.36,0.156-0.732,0.233-1.116,0.233c-0.305,0-0.576-0.046-0.816-0.138s-0.443-0.22-0.612-0.384
				c-0.168-0.164-0.298-0.354-0.39-0.57S254.429,145.999,254.429,145.742z M256.121,145.611c0,0.192,0.074,0.334,0.223,0.426
				c0.147,0.093,0.35,0.139,0.605,0.139c0.265,0,0.512-0.055,0.744-0.162c0.232-0.108,0.452-0.242,0.66-0.402v-0.984
				c-0.44,0.024-0.804,0.064-1.092,0.12c-0.288,0.057-0.517,0.126-0.685,0.21s-0.286,0.183-0.354,0.294
				C256.155,145.363,256.121,145.483,256.121,145.611z"/>
			<path id="XMLID_145_" class="st1" d="M261.702,144.423c0-0.496,0.094-0.938,0.281-1.326c0.188-0.388,0.44-0.714,0.756-0.979
				c0.316-0.264,0.683-0.466,1.099-0.605s0.852-0.21,1.308-0.21c0.472,0,0.898,0.076,1.278,0.228
				c0.38,0.152,0.697,0.344,0.954,0.576l-0.816,1.092c-0.439-0.312-0.88-0.468-1.319-0.468c-0.513,0-0.929,0.152-1.248,0.456
				c-0.32,0.304-0.48,0.716-0.48,1.236c0,0.52,0.154,0.932,0.462,1.235c0.308,0.305,0.71,0.456,1.206,0.456
				c0.312,0,0.6-0.056,0.864-0.168c0.264-0.111,0.5-0.244,0.708-0.396l0.72,1.115c-0.36,0.305-0.758,0.526-1.194,0.666
				c-0.436,0.141-0.857,0.21-1.266,0.21c-0.472,0-0.908-0.069-1.308-0.21c-0.4-0.14-0.75-0.342-1.051-0.605
				c-0.3-0.264-0.533-0.59-0.701-0.979C261.786,145.361,261.702,144.919,261.702,144.423z"/>
			<path id="XMLID_147_" class="st1" d="M268.757,144.423c0-0.488,0.086-0.925,0.258-1.309s0.401-0.71,0.689-0.978
				c0.288-0.269,0.618-0.475,0.99-0.618c0.372-0.145,0.758-0.216,1.158-0.216c0.456,0,0.859,0.071,1.212,0.216
				c0.352,0.144,0.644,0.344,0.876,0.6c0.232,0.257,0.408,0.559,0.528,0.906s0.18,0.726,0.18,1.134c0,0.16-0.008,0.312-0.024,0.456
				c-0.016,0.145-0.031,0.252-0.048,0.324h-4.008c0.064,0.448,0.258,0.771,0.582,0.966c0.324,0.196,0.706,0.294,1.146,0.294
				c0.271,0,0.529-0.034,0.773-0.102c0.244-0.068,0.498-0.17,0.762-0.307l0.576,1.057c-0.336,0.216-0.712,0.386-1.128,0.51
				s-0.824,0.186-1.224,0.186c-0.464,0-0.896-0.069-1.296-0.21c-0.4-0.14-0.748-0.344-1.044-0.611
				c-0.297-0.269-0.53-0.595-0.702-0.979S268.757,144.919,268.757,144.423z M273.053,143.775c0-0.336-0.093-0.607-0.276-0.816
				c-0.184-0.207-0.479-0.312-0.888-0.312c-0.32,0-0.604,0.092-0.853,0.276c-0.248,0.184-0.412,0.468-0.491,0.852H273.053z"/>
			<path id="XMLID_150_" class="st1" d="M276.136,142.815h5.521v1.248h-5.521V142.815z"/>
			<path id="XMLID_152_" class="st1" d="M283.229,145.742c0-0.336,0.072-0.63,0.216-0.882s0.374-0.466,0.69-0.642
				c0.315-0.176,0.722-0.318,1.218-0.427c0.496-0.107,1.096-0.182,1.8-0.222c-0.032-0.271-0.15-0.483-0.354-0.636
				c-0.203-0.152-0.51-0.229-0.918-0.229c-0.287,0-0.577,0.051-0.869,0.15c-0.293,0.101-0.606,0.234-0.942,0.402l-0.624-1.152
				c0.408-0.232,0.846-0.424,1.314-0.576c0.468-0.151,0.957-0.228,1.47-0.228c0.832,0,1.488,0.22,1.968,0.66
				c0.48,0.439,0.72,1.115,0.72,2.027v3.408h-1.439l-0.132-0.672h-0.049c-0.304,0.232-0.636,0.426-0.995,0.582
				c-0.36,0.156-0.732,0.233-1.116,0.233c-0.305,0-0.576-0.046-0.816-0.138s-0.443-0.22-0.612-0.384
				c-0.168-0.164-0.298-0.354-0.39-0.57S283.229,145.999,283.229,145.742z M284.92,145.611c0,0.192,0.074,0.334,0.223,0.426
				c0.147,0.093,0.35,0.139,0.605,0.139c0.265,0,0.512-0.055,0.744-0.162c0.232-0.108,0.452-0.242,0.66-0.402v-0.984
				c-0.44,0.024-0.804,0.064-1.092,0.12c-0.288,0.057-0.517,0.126-0.685,0.21s-0.286,0.183-0.354,0.294
				C284.955,145.363,284.92,145.483,284.92,145.611z"/>
			<path id="XMLID_155_" class="st1" d="M290.321,148.407c0-0.488,0.308-0.884,0.924-1.188v-0.048c-0.16-0.104-0.3-0.236-0.42-0.396
				s-0.18-0.368-0.18-0.624c0-0.2,0.065-0.399,0.197-0.6s0.302-0.372,0.51-0.517v-0.048c-0.216-0.144-0.399-0.346-0.552-0.605
				c-0.151-0.261-0.228-0.566-0.228-0.918c0-0.36,0.069-0.675,0.21-0.942c0.14-0.268,0.326-0.492,0.558-0.672
				c0.232-0.181,0.502-0.316,0.811-0.408c0.308-0.092,0.63-0.138,0.966-0.138c0.368,0,0.696,0.048,0.983,0.144h2.412v1.284H295.3
				c0.072,0.088,0.136,0.202,0.192,0.342c0.056,0.141,0.084,0.29,0.084,0.45c0,0.344-0.064,0.64-0.192,0.888
				s-0.302,0.454-0.521,0.618c-0.221,0.164-0.48,0.286-0.78,0.366s-0.622,0.12-0.966,0.12c-0.256,0-0.528-0.04-0.816-0.12
				c-0.088,0.064-0.154,0.128-0.198,0.192c-0.044,0.063-0.065,0.144-0.065,0.239c0,0.16,0.08,0.276,0.24,0.349
				c0.159,0.071,0.416,0.107,0.768,0.107h1.104c0.783,0,1.382,0.116,1.794,0.349c0.411,0.231,0.617,0.615,0.617,1.151
				c0,0.312-0.084,0.601-0.252,0.864s-0.403,0.49-0.708,0.678c-0.304,0.188-0.676,0.336-1.115,0.444
				c-0.44,0.107-0.929,0.162-1.464,0.162c-0.385,0-0.742-0.03-1.074-0.09c-0.332-0.061-0.618-0.152-0.858-0.276
				s-0.428-0.282-0.563-0.474C290.388,148.899,290.321,148.671,290.321,148.407z M291.76,148.143c0,0.224,0.134,0.394,0.402,0.51
				c0.268,0.116,0.638,0.174,1.11,0.174c0.479,0,0.867-0.07,1.164-0.21c0.295-0.14,0.443-0.313,0.443-0.521
				c0-0.192-0.088-0.318-0.264-0.378c-0.176-0.061-0.437-0.091-0.78-0.091h-0.744c-0.216,0-0.394-0.006-0.534-0.018
				c-0.14-0.012-0.266-0.03-0.378-0.054c-0.151,0.096-0.26,0.189-0.323,0.282C291.792,147.929,291.76,148.031,291.76,148.143z
				 M293.117,144.447c0.248,0,0.462-0.082,0.642-0.246c0.181-0.164,0.271-0.409,0.271-0.737c0-0.32-0.09-0.562-0.271-0.727
				c-0.18-0.164-0.394-0.246-0.642-0.246s-0.458,0.082-0.63,0.246c-0.173,0.164-0.258,0.406-0.258,0.727
				c0,0.328,0.085,0.573,0.258,0.737C292.659,144.365,292.869,144.447,293.117,144.447z"/>
			<path id="XMLID_159_" class="st1" d="M297.556,144.423c0-0.488,0.086-0.925,0.258-1.309s0.402-0.71,0.69-0.978
				c0.288-0.269,0.618-0.475,0.99-0.618c0.372-0.145,0.758-0.216,1.157-0.216c0.456,0,0.86,0.071,1.212,0.216
				c0.353,0.144,0.645,0.344,0.877,0.6c0.231,0.257,0.407,0.559,0.527,0.906s0.18,0.726,0.18,1.134c0,0.16-0.008,0.312-0.023,0.456
				c-0.017,0.145-0.032,0.252-0.048,0.324h-4.008c0.063,0.448,0.258,0.771,0.582,0.966c0.323,0.196,0.705,0.294,1.146,0.294
				c0.271,0,0.53-0.034,0.774-0.102c0.243-0.068,0.498-0.17,0.762-0.307l0.576,1.057c-0.336,0.216-0.712,0.386-1.128,0.51
				s-0.824,0.186-1.225,0.186c-0.464,0-0.896-0.069-1.296-0.21c-0.4-0.14-0.748-0.344-1.044-0.611
				c-0.296-0.269-0.53-0.595-0.702-0.979S297.556,144.919,297.556,144.423z M301.852,143.775c0-0.336-0.092-0.607-0.275-0.816
				c-0.185-0.207-0.48-0.312-0.889-0.312c-0.319,0-0.604,0.092-0.852,0.276c-0.248,0.184-0.412,0.468-0.492,0.852H301.852z"/>
			<path id="XMLID_162_" class="st1" d="M304.96,141.447h1.44l0.132,0.792h0.048c0.256-0.256,0.55-0.476,0.882-0.66
				c0.332-0.184,0.722-0.275,1.17-0.275c0.672,0,1.164,0.216,1.477,0.647c0.312,0.433,0.468,1.024,0.468,1.776v3.672h-1.765v-3.444
				c0-0.399-0.063-0.691-0.191-0.876c-0.128-0.184-0.356-0.275-0.685-0.275c-0.239,0-0.449,0.052-0.63,0.155
				c-0.18,0.104-0.374,0.261-0.582,0.469v3.972h-1.764V141.447z"/>
			<path id="XMLID_164_" class="st1" d="M313.384,142.826h-1.5v-1.308l1.584-0.072l0.228-1.584h1.452v1.584h2.521v1.38h-2.521v2.088
				c0,0.456,0.101,0.778,0.3,0.967c0.2,0.188,0.517,0.281,0.948,0.281c0.232,0,0.444-0.02,0.636-0.06
				c0.192-0.04,0.376-0.092,0.553-0.156l0.312,1.272c-0.264,0.08-0.558,0.154-0.882,0.222c-0.324,0.068-0.678,0.102-1.062,0.102
				c-0.472,0-0.871-0.063-1.199-0.191s-0.595-0.306-0.798-0.534c-0.204-0.228-0.351-0.502-0.438-0.822
				c-0.088-0.319-0.132-0.676-0.132-1.067V142.826z"/>
		</g>
	</g>
</g>
</svg>
