<?xml version="1.0" encoding="utf-8"?>
<!-- Generator: Adobe Illustrator 19.0.0, SVG Export Plug-In . SVG Version: 6.00 Build 0)  -->
<svg version="1.1" id="Layer_1" xmlns="http://www.w3.org/2000/svg" xmlns:xlink="http://www.w3.org/1999/xlink" x="0px" y="0px"
	 viewBox="0 0 367.794 196.4" style="enable-background:new 0 0 367.794 196.4;" xml:space="preserve">
<style type="text/css">
	.st0{enable-background:new    ;}
	.st1{fill:#231F20;}
	.st2{font-family:'SourceCodePro-Bold';}
	.st3{font-size:12px;}
</style>
<g>
	<g>
		<g class="st0">
			<path d="M0,76.7h11.6v18.199l-0.399,8.601c2.133-2,4.532-3.583,7.2-4.75c2.665-1.166,5.332-1.75,8-1.75
				c3.199,0,6.032,0.584,8.5,1.75c2.465,1.167,4.565,2.834,6.3,5c1.732,2.167,3.05,4.784,3.95,7.85c0.899,3.067,1.35,6.5,1.35,10.3
				c0,4.2-0.6,7.95-1.8,11.25c-1.2,3.301-2.817,6.085-4.851,8.351c-2.034,2.267-4.367,4-7,5.2c-2.634,1.199-5.35,1.8-8.149,1.8
				c-2.335,0-4.768-0.567-7.3-1.7c-2.535-1.133-4.867-2.766-7-4.9H10.1l-1,5.4H0V76.7z M11.599,134.499
				c1.801,1.667,3.666,2.834,5.601,3.5c1.933,0.667,3.665,1,5.2,1c3.465,0,6.365-1.416,8.699-4.25c2.333-2.833,3.5-7.05,3.5-12.65
				c0-4.933-0.899-8.766-2.699-11.5c-1.801-2.732-4.7-4.1-8.7-4.1c-1.867,0-3.768,0.467-5.7,1.399c-1.935,0.935-3.9,2.435-5.9,4.5
				L11.599,134.499L11.599,134.499z"/>
		</g>
		<g class="st0">
			<path d="M56.098,122.799c0-4.065,0.684-7.7,2.051-10.9c1.365-3.199,3.183-5.899,5.449-8.1c2.266-2.2,4.9-3.883,7.9-5.05
				c3-1.166,6.1-1.75,9.3-1.75c3.2,0,6.3,0.584,9.3,1.75c3,1.167,5.633,2.85,7.9,5.05c2.266,2.2,4.083,4.9,5.45,8.1
				c1.365,3.2,2.05,6.835,2.05,10.9c0,4.067-0.685,7.7-2.05,10.9c-1.367,3.199-3.185,5.899-5.45,8.1c-2.268,2.2-4.9,3.867-7.9,5
				s-6.1,1.7-9.3,1.7s-6.3-0.567-9.3-1.7s-5.635-2.8-7.9-5c-2.267-2.2-4.084-4.9-5.449-8.1
				C56.782,130.499,56.098,126.867,56.098,122.799z M67.999,122.799c0,4.935,1.133,8.885,3.4,11.85
				c2.266,2.968,5.399,4.45,9.399,4.45s7.133-1.482,9.4-4.45c2.266-2.965,3.399-6.915,3.399-11.85c0-5-1.134-8.982-3.399-11.95
				c-2.268-2.966-5.4-4.45-9.4-4.45c-4,0-7.134,1.484-9.399,4.45C69.131,113.817,67.999,117.799,67.999,122.799z"/>
		</g>
		<g class="st0">
			<path d="M110.198,98.2h32.8v49.1h-11.5v-40h-21.3V98.2z M136.398,89.599c-2.335,0-4.285-0.7-5.851-2.1
				c-1.567-1.4-2.35-3.266-2.35-5.601c0-2.332,0.782-4.215,2.35-5.649c1.565-1.433,3.516-2.15,5.851-2.15
				c2.399,0,4.365,0.718,5.899,2.15c1.533,1.435,2.3,3.317,2.3,5.649c0,2.335-0.767,4.2-2.3,5.601
				C140.763,88.899,138.797,89.599,136.398,89.599z"/>
		</g>
		<g class="st0">
			<path d="M155.697,98.2h32.8v49.1h-11.5v-40h-21.3V98.2z M181.897,89.599c-2.335,0-4.285-0.7-5.851-2.1
				c-1.567-1.4-2.35-3.266-2.35-5.601c0-2.332,0.782-4.215,2.35-5.649c1.565-1.433,3.516-2.15,5.851-2.15
				c2.399,0,4.365,0.718,5.899,2.15c1.533,1.435,2.3,3.317,2.3,5.649c0,2.335-0.767,4.2-2.3,5.601
				C186.262,88.899,184.296,89.599,181.897,89.599z"/>
		</g>
		<text transform="matrix(1 0 0 1 210.4977 104.1989)" class="st0"><tspan x="0" y="0" class="st1 st2 st3">bidirectionally</tspan><tspan x="0" y="14.4" class="st1 st2 st3">oriented</tspan><tspan x="0" y="28.8" class="st1 st2 st3">intelligent</tspan><tspan x="0" y="43.2" class="st1 st2 st3">interface-agent</tspan></text>
	</g>
</g>
</svg>
