<?xml version="1.0" encoding="utf-8"?>
<!-- Generator: Adobe Illustrator 19.0.0, SVG Export Plug-In . SVG Version: 6.00 Build 0)  -->
<svg version="1.1" id="Layer_1" xmlns="http://www.w3.org/2000/svg" xmlns:xlink="http://www.w3.org/1999/xlink" x="0px" y="0px"
	 viewBox="-258 205.3 441.1 151.7" style="enable-background:new -258 205.3 441.1 151.7;" xml:space="preserve">
<style type="text/css">
	.st0{fill:url(#XMLID_2_);}
	.st1{fill:url(#XMLID_3_);}
	.st2{fill:none;}
	.st3{enable-background:new    ;}
</style>
<g>
	<g id="XMLID_45_">
		<g id="XMLID_18_">
			
				<linearGradient id="XMLID_2_" gradientUnits="userSpaceOnUse" x1="-1043.3152" y1="960.976" x2="-1043.3152" y2="860.7554" gradientTransform="matrix(0.7071 0.7071 0.7071 -0.7071 -93.4789 1662.8657)">
				<stop  offset="0" style="stop-color:#000000;stop-opacity:0"/>
				<stop  offset="0.5" style="stop-color:#000000"/>
			</linearGradient>
			<polygon id="XMLID_19_" class="st0" points="-116.3,281.1 -187.1,210.2 -187.1,351.9 -258,281.1 			"/>
		</g>
		
			<linearGradient id="XMLID_3_" gradientUnits="userSpaceOnUse" x1="-993.2049" y1="910.8657" x2="-993.2049" y2="1011.0863" gradientTransform="matrix(0.7071 0.7071 0.7071 -0.7071 -93.4789 1662.8657)">
			<stop  offset="0" style="stop-color:#000000;stop-opacity:0"/>
			<stop  offset="0.5" style="stop-color:#000000"/>
		</linearGradient>
		<polygon id="XMLID_17_" class="st1" points="-45.4,281.1 -116.3,210.2 -116.3,351.9 -187.1,281.1 		"/>
	</g>
	<rect id="XMLID_23_" x="-39.9" y="210.2" class="st2" width="255.4" height="71.3"/>
	<g class="st3">
		<path d="M-31.7,210.2h11.6v18.2l-0.4,8.6c2.1-2,4.5-3.6,7.2-4.8c2.7-1.2,5.3-1.8,8-1.8c3.2,0,6,0.6,8.5,1.8c2.5,1.2,4.6,2.8,6.3,5
			c1.7,2.2,3.1,4.8,3.9,7.9c0.9,3.1,1.4,6.5,1.4,10.3c0,4.2-0.6,7.9-1.8,11.2c-1.2,3.3-2.8,6.1-4.9,8.4c-2,2.3-4.4,4-7,5.2
			c-2.6,1.2-5.3,1.8-8.1,1.8c-2.3,0-4.8-0.6-7.3-1.7c-2.5-1.1-4.9-2.8-7-4.9h-0.3l-1,5.4h-9.1V210.2z M-20.1,268
			c1.8,1.7,3.7,2.8,5.6,3.5c1.9,0.7,3.7,1,5.2,1c3.5,0,6.4-1.4,8.7-4.2c2.3-2.8,3.5-7,3.5-12.6c0-4.9-0.9-8.8-2.7-11.5
			c-1.8-2.7-4.7-4.1-8.7-4.1c-1.9,0-3.8,0.5-5.7,1.4c-1.9,0.9-3.9,2.4-5.9,4.5L-20.1,268L-20.1,268z"/>
	</g>
	<g class="st3">
		<path d="M28.4,256.3c0-4.1,0.7-7.7,2.1-10.9c1.4-3.2,3.2-5.9,5.4-8.1c2.3-2.2,4.9-3.9,7.9-5.1c3-1.2,6.1-1.8,9.3-1.8
			s6.3,0.6,9.3,1.8c3,1.2,5.6,2.9,7.9,5.1c2.3,2.2,4.1,4.9,5.4,8.1c1.4,3.2,2.1,6.8,2.1,10.9c0,4.1-0.7,7.7-2.1,10.9
			c-1.4,3.2-3.2,5.9-5.4,8.1c-2.3,2.2-4.9,3.9-7.9,5s-6.1,1.7-9.3,1.7s-6.3-0.6-9.3-1.7s-5.6-2.8-7.9-5c-2.3-2.2-4.1-4.9-5.4-8.1
			C29.1,264,28.4,260.4,28.4,256.3z M40.3,256.3c0,4.9,1.1,8.9,3.4,11.9c2.3,3,5.4,4.5,9.4,4.5s7.1-1.5,9.4-4.5
			c2.3-3,3.4-6.9,3.4-11.9c0-5-1.1-9-3.4-11.9c-2.3-3-5.4-4.4-9.4-4.4s-7.1,1.5-9.4,4.4C41.4,247.3,40.3,251.3,40.3,256.3z"/>
	</g>
	<g class="st3">
		<path d="M91.5,231.7h32.8v49.1h-11.5v-40H91.5V231.7z M117.7,223.1c-2.3,0-4.3-0.7-5.9-2.1c-1.6-1.4-2.3-3.3-2.3-5.6
			c0-2.3,0.8-4.2,2.3-5.6c1.6-1.4,3.5-2.1,5.9-2.1c2.4,0,4.4,0.7,5.9,2.1c1.5,1.4,2.3,3.3,2.3,5.6c0,2.3-0.8,4.2-2.3,5.6
			C122,222.4,120.1,223.1,117.7,223.1z"/>
	</g>
	<g class="st3">
		<path d="M148.5,231.7h32.8v49.1h-11.5v-40h-21.3V231.7z M174.7,223.1c-2.3,0-4.3-0.7-5.9-2.1c-1.6-1.4-2.4-3.3-2.4-5.6
			c0-2.3,0.8-4.2,2.4-5.6c1.6-1.4,3.5-2.1,5.9-2.1c2.4,0,4.4,0.7,5.9,2.1c1.5,1.4,2.3,3.3,2.3,5.6c0,2.3-0.8,4.2-2.3,5.6
			C179,222.4,177.1,223.1,174.7,223.1z"/>
	</g>
	<rect id="XMLID_16_" x="-32.9" y="291.4" class="st2" width="193.4" height="60.5"/>
	<g class="st3">
		<path d="M-31.8,291.4h1v2.4l0,1.2c0.3-0.3,0.6-0.5,1-0.7c0.4-0.2,0.7-0.2,1.1-0.2c0.4,0,0.8,0.1,1.1,0.2c0.3,0.1,0.6,0.4,0.8,0.6
			c0.2,0.3,0.4,0.6,0.5,1s0.2,0.8,0.2,1.3c0,0.5-0.1,1-0.2,1.4c-0.1,0.4-0.4,0.8-0.6,1c-0.3,0.3-0.5,0.5-0.9,0.6
			c-0.3,0.1-0.7,0.2-1,0.2c-0.3,0-0.6-0.1-0.9-0.2c-0.3-0.1-0.7-0.3-0.9-0.6h0l-0.1,0.7h-0.8V291.4z M-30.7,298.9
			c0.3,0.3,0.6,0.4,0.9,0.5c0.3,0.1,0.6,0.2,0.8,0.2c0.3,0,0.5-0.1,0.7-0.2c0.2-0.1,0.4-0.3,0.6-0.5c0.2-0.2,0.3-0.5,0.4-0.8
			s0.1-0.6,0.1-1c0-0.3,0-0.6-0.1-0.9c-0.1-0.3-0.2-0.5-0.3-0.7c-0.1-0.2-0.3-0.3-0.5-0.5s-0.5-0.2-0.8-0.2c-0.3,0-0.6,0.1-0.9,0.2
			c-0.3,0.1-0.6,0.4-0.9,0.7L-30.7,298.9L-30.7,298.9z"/>
		<path d="M-24.3,294.3h3.9v6.1h-1v-5.2h-2.8L-24.3,294.3L-24.3,294.3z M-21.1,293c-0.2,0-0.4-0.1-0.6-0.2s-0.2-0.3-0.2-0.6
			c0-0.2,0.1-0.4,0.2-0.6c0.2-0.1,0.4-0.2,0.6-0.2c0.2,0,0.4,0.1,0.6,0.2c0.2,0.1,0.2,0.3,0.2,0.6c0,0.2-0.1,0.4-0.2,0.6
			S-20.8,293-21.1,293z"/>
		<path d="M-17.2,297.3c0-0.5,0.1-0.9,0.2-1.3c0.2-0.4,0.4-0.7,0.6-1c0.3-0.3,0.5-0.5,0.9-0.6c0.3-0.1,0.7-0.2,1-0.2
			c0.4,0,0.7,0.1,1,0.2s0.6,0.3,0.9,0.6l0-1.1v-2.3h1v8.9h-0.9l-0.1-0.8h0c-0.2,0.3-0.5,0.5-0.9,0.7s-0.7,0.3-1.1,0.3
			c-0.4,0-0.8-0.1-1.1-0.2c-0.3-0.1-0.6-0.3-0.8-0.6c-0.2-0.3-0.4-0.6-0.5-1S-17.2,297.8-17.2,297.3z M-16.1,297.3
			c0,0.7,0.2,1.3,0.5,1.7s0.8,0.6,1.3,0.6c0.6,0,1.2-0.3,1.7-0.9v-3c-0.3-0.3-0.5-0.4-0.8-0.5c-0.3-0.1-0.5-0.2-0.8-0.2
			s-0.5,0.1-0.7,0.2c-0.2,0.1-0.4,0.3-0.6,0.5s-0.3,0.4-0.4,0.7C-16.1,296.6-16.1,296.9-16.1,297.3z"/>
		<path d="M-9.3,294.3h3.8v6.1h-1v-5.2h-2.8L-9.3,294.3L-9.3,294.3z M-6.1,293c-0.2,0-0.4-0.1-0.6-0.2s-0.2-0.3-0.2-0.6
			c0-0.2,0.1-0.4,0.2-0.6c0.2-0.1,0.4-0.2,0.6-0.2c0.2,0,0.4,0.1,0.6,0.2c0.2,0.1,0.2,0.3,0.2,0.6c0,0.2-0.1,0.4-0.2,0.6
			S-5.8,293-6.1,293z"/>
		<path d="M-1.1,294.3h0.9l0.1,1.4h0c0.3-0.5,0.7-0.9,1.2-1.2c0.5-0.3,1-0.4,1.5-0.4c0.2,0,0.4,0,0.6,0.1c0.2,0,0.4,0.1,0.6,0.2
			l-0.2,0.9c-0.2-0.1-0.4-0.1-0.5-0.2c-0.1,0-0.3,0-0.6,0c-0.5,0-0.9,0.1-1.3,0.4s-0.8,0.7-1.2,1.3v3.6h-1L-1.1,294.3L-1.1,294.3z"
			/>
		<path d="M5.4,297.3c0-0.5,0.1-0.9,0.3-1.3c0.2-0.4,0.4-0.7,0.7-1c0.3-0.3,0.6-0.5,1-0.6c0.4-0.1,0.8-0.2,1.1-0.2
			c0.4,0,0.8,0.1,1.2,0.2s0.6,0.3,0.9,0.6c0.2,0.2,0.4,0.5,0.5,0.9s0.2,0.7,0.2,1.2c0,0.1,0,0.2,0,0.3c0,0.1,0,0.2,0,0.3H6.5
			c0,0.3,0.1,0.6,0.2,0.9c0.1,0.3,0.3,0.5,0.5,0.7c0.2,0.2,0.4,0.3,0.7,0.4c0.3,0.1,0.6,0.1,0.9,0.1c0.4,0,0.7,0,1-0.1
			s0.6-0.2,0.9-0.4l0.4,0.7c-0.3,0.2-0.6,0.4-1,0.5c-0.4,0.1-0.8,0.2-1.3,0.2c-0.4,0-0.9-0.1-1.3-0.2s-0.7-0.4-1-0.6s-0.5-0.6-0.7-1
			S5.4,297.8,5.4,297.3z M10.3,296.8c0-0.6-0.2-1.1-0.5-1.4s-0.8-0.5-1.3-0.5c-0.2,0-0.5,0-0.7,0.1c-0.2,0.1-0.4,0.2-0.6,0.4
			c-0.2,0.2-0.3,0.4-0.5,0.6s-0.2,0.5-0.2,0.8L10.3,296.8L10.3,296.8z"/>
		<path d="M13.1,297.3c0-0.5,0.1-1,0.3-1.4c0.2-0.4,0.4-0.7,0.7-1c0.3-0.3,0.7-0.5,1.1-0.6c0.4-0.1,0.8-0.2,1.3-0.2
			c0.5,0,0.9,0.1,1.3,0.3c0.4,0.2,0.7,0.4,0.9,0.6l-0.5,0.7c-0.2-0.2-0.5-0.4-0.8-0.5c-0.3-0.1-0.6-0.2-0.9-0.2
			c-0.4,0-0.7,0.1-1,0.2c-0.3,0.1-0.5,0.3-0.7,0.5c-0.2,0.2-0.4,0.5-0.5,0.7c-0.1,0.3-0.2,0.6-0.2,1c0,0.4,0.1,0.7,0.2,1
			s0.3,0.5,0.5,0.7s0.4,0.4,0.7,0.5c0.3,0.1,0.6,0.2,1,0.2c0.4,0,0.7-0.1,1-0.2c0.3-0.1,0.6-0.3,0.9-0.5l0.4,0.7
			c-0.3,0.3-0.7,0.5-1.1,0.7c-0.4,0.2-0.8,0.2-1.3,0.2c-0.5,0-0.9-0.1-1.3-0.2c-0.4-0.1-0.8-0.3-1.1-0.6s-0.5-0.6-0.7-1
			C13.2,298.3,13.1,297.8,13.1,297.3z"/>
		<path d="M22.2,295.1h-1.7v-0.8l1.8-0.1l0.1-1.7h0.9v1.7h3v0.8h-3v2.9c0,0.3,0,0.5,0.1,0.7c0.1,0.2,0.1,0.4,0.2,0.5
			c0.1,0.1,0.3,0.2,0.5,0.3c0.2,0.1,0.4,0.1,0.7,0.1s0.6,0,0.8-0.1s0.5-0.1,0.7-0.2l0.2,0.8c-0.3,0.1-0.6,0.2-0.9,0.3
			c-0.3,0.1-0.7,0.1-1,0.1c-0.4,0-0.8-0.1-1.1-0.2c-0.3-0.1-0.5-0.3-0.7-0.5c-0.2-0.2-0.3-0.5-0.4-0.8c-0.1-0.3-0.1-0.6-0.1-1
			L22.2,295.1L22.2,295.1z"/>
		<path d="M28.2,294.3h3.9v6.1h-1v-5.2h-2.8V294.3z M31.4,293c-0.2,0-0.4-0.1-0.6-0.2s-0.2-0.3-0.2-0.6c0-0.2,0.1-0.4,0.2-0.6
			c0.2-0.1,0.4-0.2,0.6-0.2c0.2,0,0.4,0.1,0.6,0.2c0.2,0.1,0.2,0.3,0.2,0.6c0,0.2-0.1,0.4-0.2,0.6S31.7,293,31.4,293z"/>
		<path d="M35.3,297.3c0-0.5,0.1-1,0.2-1.4c0.2-0.4,0.4-0.7,0.7-1c0.3-0.3,0.6-0.5,1-0.6s0.7-0.2,1.1-0.2s0.8,0.1,1.1,0.2
			c0.4,0.1,0.7,0.4,1,0.6c0.3,0.3,0.5,0.6,0.7,1c0.2,0.4,0.2,0.8,0.2,1.4c0,0.5-0.1,0.9-0.2,1.3c-0.2,0.4-0.4,0.7-0.7,1
			c-0.3,0.3-0.6,0.5-1,0.6c-0.4,0.1-0.7,0.2-1.1,0.2c-0.4,0-0.8-0.1-1.1-0.2s-0.7-0.3-1-0.6c-0.3-0.3-0.5-0.6-0.7-1
			C35.4,298.3,35.3,297.8,35.3,297.3z M36.4,297.3c0,0.4,0,0.7,0.1,1s0.2,0.5,0.4,0.7s0.4,0.4,0.6,0.5c0.2,0.1,0.5,0.2,0.8,0.2
			s0.6-0.1,0.8-0.2c0.2-0.1,0.4-0.3,0.6-0.5s0.3-0.4,0.4-0.7s0.1-0.6,0.1-1s0-0.7-0.1-1c-0.1-0.3-0.2-0.5-0.4-0.7
			c-0.2-0.2-0.4-0.4-0.6-0.5s-0.5-0.2-0.8-0.2s-0.6,0.1-0.8,0.2c-0.2,0.1-0.4,0.3-0.6,0.5c-0.2,0.2-0.3,0.5-0.4,0.7
			C36.4,296.6,36.4,297,36.4,297.3z"/>
		<path d="M43.2,294.3h0.8l0.1,1h0c0.3-0.3,0.7-0.6,1-0.9c0.4-0.2,0.8-0.3,1.3-0.3c0.7,0,1.3,0.2,1.6,0.6c0.3,0.4,0.5,1,0.5,1.8v3.8
			h-1v-3.6c0-0.6-0.1-1-0.3-1.3s-0.6-0.4-1.1-0.4c-0.2,0-0.4,0-0.5,0.1s-0.3,0.1-0.5,0.2c-0.2,0.1-0.3,0.2-0.5,0.3s-0.3,0.3-0.5,0.5
			v4.2h-1L43.2,294.3L43.2,294.3z"/>
		<path d="M50.6,298.8c0-0.3,0.1-0.6,0.2-0.9c0.2-0.3,0.4-0.5,0.8-0.7c0.4-0.2,0.8-0.3,1.4-0.5c0.6-0.1,1.2-0.2,2-0.3
			c0-0.2,0-0.4-0.1-0.6c-0.1-0.2-0.2-0.3-0.3-0.5s-0.3-0.2-0.5-0.3c-0.2-0.1-0.5-0.1-0.7-0.1c-0.4,0-0.8,0.1-1.2,0.2
			c-0.4,0.2-0.7,0.3-1,0.5l-0.4-0.7c0.2-0.1,0.3-0.2,0.5-0.3s0.4-0.2,0.7-0.3s0.5-0.2,0.7-0.2c0.3-0.1,0.5-0.1,0.8-0.1
			c0.8,0,1.5,0.2,1.9,0.7s0.6,1.1,0.6,1.8v3.7h-0.8l-0.1-0.8h0c-0.3,0.3-0.7,0.5-1.1,0.7c-0.4,0.2-0.8,0.3-1.3,0.3
			c-0.3,0-0.6,0-0.8-0.1s-0.5-0.2-0.7-0.3c-0.2-0.1-0.3-0.3-0.4-0.5S50.6,299,50.6,298.8z M51.6,298.7c0,0.2,0,0.3,0.1,0.4
			s0.2,0.2,0.3,0.3c0.1,0.1,0.3,0.1,0.4,0.2c0.2,0,0.3,0.1,0.5,0.1c0.4,0,0.7-0.1,1-0.2c0.3-0.2,0.7-0.4,1-0.7v-1.6
			c-0.6,0-1.2,0.1-1.6,0.2c-0.4,0.1-0.8,0.2-1,0.3c-0.3,0.1-0.4,0.3-0.6,0.4C51.7,298.3,51.6,298.5,51.6,298.7z"/>
		<path d="M58.1,291.4h3.1v6.9c0,0.5,0.1,0.8,0.3,1c0.2,0.2,0.5,0.3,0.9,0.3c0.3,0,0.7-0.1,1.2-0.3l0.3,0.8
			c-0.3,0.1-0.5,0.2-0.8,0.3c-0.2,0.1-0.5,0.1-0.9,0.1c-0.7,0-1.1-0.2-1.5-0.6c-0.3-0.4-0.5-0.9-0.5-1.6v-6h-2.1L58.1,291.4
			L58.1,291.4z"/>
		<path d="M65.6,291.4h3.1v6.9c0,0.5,0.1,0.8,0.3,1c0.2,0.2,0.5,0.3,0.9,0.3c0.3,0,0.7-0.1,1.2-0.3l0.3,0.8
			c-0.3,0.1-0.5,0.2-0.8,0.3c-0.2,0.1-0.5,0.1-0.9,0.1c-0.7,0-1.1-0.2-1.5-0.6c-0.3-0.4-0.5-0.9-0.5-1.6v-6h-2.1L65.6,291.4
			L65.6,291.4z"/>
		<path d="M73.4,302.1c0.1,0,0.2,0,0.3,0c0.4,0,0.8-0.1,1-0.4s0.5-0.6,0.6-0.9l0.2-0.5l-2.8-6.1h1l1.5,3.4c0.1,0.3,0.2,0.6,0.4,0.9
			c0.1,0.3,0.3,0.6,0.4,0.9H76c0.1-0.3,0.2-0.6,0.3-0.9c0.1-0.3,0.2-0.6,0.3-0.9l1.3-3.4h1l-2.7,6.6c-0.1,0.3-0.2,0.6-0.4,0.8
			c-0.1,0.3-0.3,0.5-0.5,0.7c-0.2,0.2-0.4,0.3-0.7,0.4s-0.6,0.2-0.9,0.2c-0.3,0-0.6,0-0.8-0.1l0.2-0.8
			C73.2,302,73.3,302.1,73.4,302.1z"/>
	</g>
	<g class="st3">
		<path d="M-32.2,314.5c0-0.5,0.1-1,0.2-1.4c0.2-0.4,0.4-0.7,0.7-1c0.3-0.3,0.6-0.5,1-0.6s0.7-0.2,1.1-0.2c0.4,0,0.8,0.1,1.1,0.2
			s0.7,0.4,1,0.6c0.3,0.3,0.5,0.6,0.7,1c0.2,0.4,0.2,0.8,0.2,1.4c0,0.5-0.1,0.9-0.2,1.3c-0.2,0.4-0.4,0.7-0.7,1
			c-0.3,0.3-0.6,0.5-1,0.6c-0.4,0.1-0.7,0.2-1.1,0.2c-0.4,0-0.8-0.1-1.1-0.2s-0.7-0.3-1-0.6c-0.3-0.3-0.5-0.6-0.7-1
			C-32.1,315.4-32.2,315-32.2,314.5z M-31.1,314.5c0,0.4,0,0.7,0.1,1s0.2,0.5,0.4,0.7s0.4,0.4,0.6,0.5c0.2,0.1,0.5,0.2,0.8,0.2
			s0.6-0.1,0.8-0.2c0.2-0.1,0.4-0.3,0.6-0.5s0.3-0.4,0.4-0.7s0.1-0.6,0.1-1s0-0.7-0.1-1c-0.1-0.3-0.2-0.5-0.4-0.7
			c-0.2-0.2-0.4-0.4-0.6-0.5s-0.5-0.2-0.8-0.2s-0.6,0.1-0.8,0.2c-0.2,0.1-0.4,0.3-0.6,0.5c-0.2,0.2-0.3,0.5-0.4,0.7
			C-31.1,313.8-31.1,314.1-31.1,314.5z"/>
		<path d="M-23.6,311.4h0.9l0.1,1.4h0c0.3-0.5,0.7-0.9,1.2-1.2c0.5-0.3,1-0.4,1.5-0.4c0.2,0,0.4,0,0.6,0.1c0.2,0,0.4,0.1,0.6,0.2
			l-0.2,0.9c-0.2-0.1-0.4-0.1-0.5-0.2s-0.3,0-0.6,0c-0.5,0-0.9,0.1-1.3,0.4s-0.8,0.7-1.2,1.3v3.6h-1L-23.6,311.4L-23.6,311.4z"/>
		<path d="M-16.8,311.4h3.9v6.1h-1v-5.2h-2.8L-16.8,311.4L-16.8,311.4z M-13.6,310.2c-0.2,0-0.4-0.1-0.6-0.2s-0.2-0.3-0.2-0.6
			c0-0.2,0.1-0.4,0.2-0.6c0.2-0.1,0.4-0.2,0.6-0.2c0.2,0,0.4,0.1,0.6,0.2c0.2,0.1,0.2,0.3,0.2,0.6c0,0.2-0.1,0.4-0.2,0.6
			S-13.3,310.2-13.6,310.2z"/>
		<path d="M-9.6,314.5c0-0.5,0.1-0.9,0.3-1.3c0.2-0.4,0.4-0.7,0.7-1c0.3-0.3,0.6-0.5,1-0.6c0.4-0.1,0.8-0.2,1.1-0.2
			c0.4,0,0.8,0.1,1.2,0.2s0.6,0.3,0.9,0.6c0.2,0.2,0.4,0.5,0.5,0.9c0.1,0.4,0.2,0.7,0.2,1.2c0,0.1,0,0.2,0,0.3c0,0.1,0,0.2,0,0.3
			h-4.8c0,0.3,0.1,0.6,0.2,0.9c0.1,0.3,0.3,0.5,0.5,0.7c0.2,0.2,0.4,0.3,0.7,0.4c0.3,0.1,0.6,0.1,0.9,0.1c0.4,0,0.7,0,1-0.1
			s0.6-0.2,0.9-0.4L-4,317c-0.3,0.2-0.6,0.4-1,0.5c-0.4,0.1-0.8,0.2-1.3,0.2c-0.4,0-0.9-0.1-1.3-0.2s-0.7-0.4-1-0.6
			c-0.3-0.3-0.5-0.6-0.7-1S-9.6,315-9.6,314.5z M-4.7,314c0-0.6-0.2-1.1-0.5-1.4s-0.8-0.5-1.3-0.5c-0.2,0-0.5,0-0.7,0.1
			c-0.2,0.1-0.4,0.2-0.6,0.4c-0.2,0.2-0.3,0.4-0.5,0.6s-0.2,0.5-0.2,0.8L-4.7,314L-4.7,314z"/>
		<path d="M-1.8,311.4h0.9l0.1,1h0.1c0.3-0.3,0.7-0.6,1-0.9c0.4-0.2,0.8-0.3,1.3-0.3c0.7,0,1.3,0.2,1.6,0.6c0.3,0.4,0.5,1,0.5,1.8
			v3.8h-1v-3.6c0-0.6-0.1-1-0.3-1.3s-0.6-0.4-1.1-0.4c-0.2,0-0.4,0-0.5,0.1c-0.2,0-0.3,0.1-0.5,0.2c-0.1,0.1-0.3,0.2-0.5,0.3
			s-0.3,0.3-0.5,0.5v4.2h-1L-1.8,311.4L-1.8,311.4z"/>
		<path d="M7.2,312.3H5.4v-0.8l1.8-0.1l0.1-1.7h0.8v1.7h3v0.8h-3v2.9c0,0.3,0,0.5,0.1,0.7s0.1,0.4,0.2,0.5c0.1,0.1,0.3,0.2,0.5,0.3
			c0.2,0.1,0.4,0.1,0.7,0.1c0.3,0,0.6,0,0.8-0.1s0.5-0.1,0.7-0.2l0.2,0.8c-0.3,0.1-0.6,0.2-0.9,0.3c-0.3,0.1-0.7,0.1-1,0.1
			c-0.4,0-0.8-0.1-1.1-0.2s-0.5-0.3-0.7-0.5c-0.2-0.2-0.3-0.5-0.4-0.8c-0.1-0.3-0.1-0.6-0.1-1L7.2,312.3L7.2,312.3z"/>
		<path d="M12.9,314.5c0-0.5,0.1-0.9,0.3-1.3c0.2-0.4,0.4-0.7,0.7-1c0.3-0.3,0.6-0.5,1-0.6c0.4-0.1,0.8-0.2,1.1-0.2
			c0.4,0,0.8,0.1,1.2,0.2s0.6,0.3,0.9,0.6s0.4,0.5,0.5,0.9s0.2,0.7,0.2,1.2c0,0.1,0,0.2,0,0.3c0,0.1,0,0.2,0,0.3H14
			c0,0.3,0.1,0.6,0.2,0.9c0.1,0.3,0.3,0.5,0.5,0.7s0.4,0.3,0.7,0.4c0.3,0.1,0.6,0.1,0.9,0.1c0.4,0,0.7,0,1-0.1
			c0.3-0.1,0.6-0.2,0.9-0.4l0.4,0.7c-0.3,0.2-0.6,0.4-1,0.5s-0.8,0.2-1.3,0.2c-0.4,0-0.9-0.1-1.3-0.2s-0.7-0.4-1-0.6
			c-0.3-0.3-0.5-0.6-0.7-1S12.9,315,12.9,314.5z M17.8,314c0-0.6-0.2-1.1-0.5-1.4c-0.3-0.3-0.8-0.5-1.3-0.5c-0.2,0-0.5,0-0.7,0.1
			c-0.2,0.1-0.4,0.2-0.6,0.4c-0.2,0.2-0.3,0.4-0.5,0.6S14,313.7,14,314L17.8,314L17.8,314z"/>
		<path d="M20.3,314.5c0-0.5,0.1-0.9,0.2-1.3c0.2-0.4,0.4-0.7,0.6-1c0.3-0.3,0.5-0.5,0.9-0.6c0.3-0.1,0.7-0.2,1-0.2
			c0.4,0,0.7,0.1,1,0.2s0.6,0.3,0.9,0.6l0-1.1v-2.3h1v8.9h-0.9l-0.1-0.8h0c-0.2,0.3-0.5,0.5-0.9,0.7s-0.7,0.3-1.1,0.3
			c-0.4,0-0.8-0.1-1.1-0.2c-0.3-0.1-0.6-0.3-0.8-0.6c-0.2-0.3-0.4-0.6-0.5-1S20.3,315,20.3,314.5z M21.4,314.5
			c0,0.7,0.2,1.3,0.5,1.7s0.8,0.6,1.3,0.6c0.6,0,1.2-0.3,1.7-0.9v-3c-0.3-0.3-0.5-0.4-0.8-0.5c-0.3-0.1-0.5-0.2-0.8-0.2
			s-0.5,0.1-0.7,0.2c-0.2,0.1-0.4,0.3-0.6,0.5s-0.3,0.4-0.4,0.7C21.4,313.8,21.4,314.1,21.4,314.5z"/>
	</g>
	<g class="st3">
		<path d="M-31.8,328.6h3.9v6.1h-1v-5.2h-2.8L-31.8,328.6L-31.8,328.6z M-28.6,327.4c-0.2,0-0.4-0.1-0.6-0.2s-0.2-0.3-0.2-0.6
			c0-0.2,0.1-0.4,0.2-0.6c0.2-0.1,0.4-0.2,0.6-0.2c0.2,0,0.4,0.1,0.6,0.2c0.2,0.1,0.2,0.3,0.2,0.6c0,0.2-0.1,0.4-0.2,0.6
			S-28.3,327.4-28.6,327.4z"/>
		<path d="M-24.3,328.6h0.9l0.1,1h0c0.3-0.3,0.7-0.6,1-0.9c0.4-0.2,0.8-0.3,1.3-0.3c0.7,0,1.3,0.2,1.6,0.6c0.3,0.4,0.5,1,0.5,1.8
			v3.8h-1v-3.6c0-0.6-0.1-1-0.3-1.3s-0.6-0.4-1.1-0.4c-0.2,0-0.4,0-0.5,0.1s-0.3,0.1-0.5,0.2c-0.1,0.1-0.3,0.2-0.5,0.3
			s-0.3,0.3-0.5,0.5v4.2h-1L-24.3,328.6L-24.3,328.6z"/>
		<path d="M-15.3,329.5h-1.7v-0.8l1.8-0.1l0.1-1.7h0.9v1.7h3v0.8h-3v2.9c0,0.3,0,0.5,0.1,0.7c0.1,0.2,0.1,0.4,0.2,0.5
			c0.1,0.1,0.3,0.2,0.5,0.3c0.2,0.1,0.4,0.1,0.7,0.1s0.6,0,0.8-0.1s0.5-0.1,0.7-0.2l0.2,0.8c-0.3,0.1-0.6,0.2-0.9,0.3
			c-0.3,0.1-0.7,0.1-1,0.1c-0.4,0-0.8-0.1-1.1-0.2c-0.3-0.1-0.5-0.3-0.7-0.5c-0.2-0.2-0.3-0.5-0.4-0.8c-0.1-0.3-0.1-0.6-0.1-1
			L-15.3,329.5L-15.3,329.5z"/>
		<path d="M-9.6,331.7c0-0.5,0.1-0.9,0.3-1.3c0.2-0.4,0.4-0.7,0.7-1c0.3-0.3,0.6-0.5,1-0.6c0.4-0.1,0.8-0.2,1.1-0.2
			c0.4,0,0.8,0.1,1.2,0.2s0.6,0.3,0.9,0.6c0.2,0.2,0.4,0.5,0.5,0.9c0.1,0.4,0.2,0.7,0.2,1.2c0,0.1,0,0.2,0,0.3c0,0.1,0,0.2,0,0.3
			h-4.8c0,0.3,0.1,0.6,0.2,0.9c0.1,0.3,0.3,0.5,0.5,0.7c0.2,0.2,0.4,0.3,0.7,0.4c0.3,0.1,0.6,0.1,0.9,0.1c0.4,0,0.7,0,1-0.1
			s0.6-0.2,0.9-0.4l0.4,0.7c-0.3,0.2-0.6,0.4-1,0.5c-0.4,0.1-0.8,0.2-1.3,0.2c-0.4,0-0.9-0.1-1.3-0.2s-0.7-0.4-1-0.6
			c-0.3-0.3-0.5-0.6-0.7-1S-9.6,332.2-9.6,331.7z M-4.7,331.2c0-0.6-0.2-1.1-0.5-1.4s-0.8-0.5-1.3-0.5c-0.2,0-0.5,0-0.7,0.1
			c-0.2,0.1-0.4,0.2-0.6,0.4c-0.2,0.2-0.3,0.4-0.5,0.6s-0.2,0.5-0.2,0.8L-4.7,331.2L-4.7,331.2z"/>
		<path d="M-1.9,325.8h3.1v6.9c0,0.5,0.1,0.8,0.3,1c0.2,0.2,0.5,0.3,0.9,0.3c0.3,0,0.7-0.1,1.1-0.3l0.3,0.8
			c-0.3,0.1-0.5,0.2-0.8,0.3c-0.2,0.1-0.5,0.1-0.9,0.1c-0.6,0-1.1-0.2-1.5-0.6c-0.3-0.4-0.5-0.9-0.5-1.6v-6h-2.1L-1.9,325.8
			L-1.9,325.8z"/>
		<path d="M5.6,325.8h3.1v6.9c0,0.5,0.1,0.8,0.3,1c0.2,0.2,0.5,0.3,0.9,0.3c0.3,0,0.7-0.1,1.1-0.3l0.3,0.8c-0.3,0.1-0.5,0.2-0.8,0.3
			c-0.2,0.1-0.5,0.1-0.9,0.1c-0.6,0-1.1-0.2-1.5-0.6c-0.3-0.4-0.5-0.9-0.5-1.6v-6H5.6V325.8z"/>
		<path d="M13.2,328.6h3.9v6.1h-1v-5.2h-2.8V328.6z M16.4,327.4c-0.2,0-0.4-0.1-0.6-0.2s-0.2-0.3-0.2-0.6c0-0.2,0.1-0.4,0.2-0.6
			c0.2-0.1,0.4-0.2,0.6-0.2c0.2,0,0.4,0.1,0.6,0.2c0.2,0.1,0.2,0.3,0.2,0.6c0,0.2-0.1,0.4-0.2,0.6S16.7,327.4,16.4,327.4z"/>
		<path d="M20.5,335.8c0-0.2,0.1-0.5,0.3-0.7c0.2-0.2,0.4-0.4,0.7-0.6v0c-0.2-0.1-0.3-0.2-0.4-0.4s-0.2-0.4-0.2-0.6
			c0-0.2,0.1-0.4,0.2-0.6s0.3-0.4,0.5-0.5v0c-0.2-0.2-0.4-0.4-0.5-0.6s-0.2-0.6-0.2-0.9c0-0.3,0.1-0.6,0.2-0.9
			c0.1-0.3,0.3-0.5,0.5-0.7s0.5-0.3,0.8-0.4c0.3-0.1,0.6-0.2,0.9-0.2c0.3,0,0.6,0,0.9,0.1h2.5v0.8H25c0.1,0.1,0.3,0.3,0.4,0.5
			c0.1,0.2,0.2,0.5,0.2,0.7c0,0.3-0.1,0.6-0.2,0.9c-0.1,0.3-0.3,0.5-0.5,0.7c-0.2,0.2-0.5,0.3-0.8,0.4c-0.3,0.1-0.6,0.1-0.9,0.1
			c-0.2,0-0.3,0-0.5-0.1c-0.2,0-0.4-0.1-0.5-0.2c-0.3,0.2-0.5,0.4-0.5,0.7c0,0.2,0.1,0.4,0.3,0.5s0.5,0.2,0.9,0.2h1.4
			c0.8,0,1.4,0.1,1.7,0.3c0.4,0.2,0.6,0.6,0.6,1.1c0,0.3-0.1,0.6-0.2,0.8c-0.2,0.3-0.4,0.5-0.7,0.7c-0.3,0.2-0.6,0.3-1.1,0.5
			c-0.4,0.1-0.9,0.2-1.4,0.2c-0.9,0-1.6-0.1-2.1-0.4C20.7,336.8,20.5,336.3,20.5,335.8z M21.4,335.7c0,0.3,0.2,0.6,0.5,0.8
			c0.3,0.2,0.8,0.3,1.5,0.3c0.4,0,0.7,0,1-0.1c0.3-0.1,0.5-0.2,0.7-0.3c0.2-0.1,0.4-0.2,0.5-0.4c0.1-0.1,0.2-0.3,0.2-0.5
			c0-0.3-0.1-0.5-0.3-0.6s-0.6-0.1-1-0.1h-1.2c-0.2,0-0.3,0-0.5,0s-0.3,0-0.4-0.1c-0.3,0.2-0.5,0.3-0.6,0.5
			C21.4,335.4,21.4,335.5,21.4,335.7z M23.2,332.1c0.4,0,0.7-0.1,1-0.4c0.3-0.3,0.4-0.6,0.4-1c0-0.2,0-0.4-0.1-0.6
			c-0.1-0.2-0.2-0.3-0.3-0.5s-0.3-0.2-0.4-0.3c-0.2-0.1-0.4-0.1-0.5-0.1s-0.4,0-0.5,0.1c-0.2,0.1-0.3,0.2-0.4,0.3s-0.2,0.3-0.3,0.5
			c-0.1,0.2-0.1,0.4-0.1,0.6c0,0.4,0.1,0.8,0.4,1C22.5,332,22.8,332.1,23.2,332.1z"/>
		<path d="M27.9,331.7c0-0.5,0.1-0.9,0.3-1.3c0.2-0.4,0.4-0.7,0.7-1c0.3-0.3,0.6-0.5,1-0.6c0.4-0.1,0.8-0.2,1.1-0.2
			c0.4,0,0.8,0.1,1.2,0.2s0.6,0.3,0.9,0.6s0.4,0.5,0.5,0.9s0.2,0.7,0.2,1.2c0,0.1,0,0.2,0,0.3c0,0.1,0,0.2,0,0.3H29
			c0,0.3,0.1,0.6,0.2,0.9c0.1,0.3,0.3,0.5,0.5,0.7s0.4,0.3,0.7,0.4c0.3,0.1,0.6,0.1,0.9,0.1c0.4,0,0.7,0,1-0.1
			c0.3-0.1,0.6-0.2,0.9-0.4l0.4,0.7c-0.3,0.2-0.6,0.4-1,0.5c-0.4,0.1-0.8,0.2-1.3,0.2c-0.5,0-0.9-0.1-1.3-0.2
			c-0.4-0.1-0.7-0.4-1-0.6c-0.3-0.3-0.5-0.6-0.7-1S27.9,332.2,27.9,331.7z M32.8,331.2c0-0.6-0.2-1.1-0.5-1.4
			c-0.3-0.3-0.8-0.5-1.3-0.5c-0.2,0-0.5,0-0.7,0.1c-0.2,0.1-0.4,0.2-0.6,0.4c-0.2,0.2-0.3,0.4-0.5,0.6s-0.2,0.5-0.2,0.8L32.8,331.2
			L32.8,331.2z"/>
		<path d="M35.7,328.6h0.8l0.1,1h0c0.3-0.3,0.7-0.6,1-0.9c0.4-0.2,0.8-0.3,1.3-0.3c0.7,0,1.3,0.2,1.6,0.6c0.3,0.4,0.5,1,0.5,1.8v3.8
			h-1v-3.6c0-0.6-0.1-1-0.3-1.3s-0.6-0.4-1.1-0.4c-0.2,0-0.4,0-0.5,0.1s-0.3,0.1-0.5,0.2c-0.2,0.1-0.3,0.2-0.5,0.3s-0.3,0.3-0.5,0.5
			v4.2h-1L35.7,328.6L35.7,328.6z"/>
		<path d="M44.7,329.5h-1.7v-0.8l1.8-0.1l0.1-1.7h0.9v1.7h3v0.8h-3v2.9c0,0.3,0,0.5,0.1,0.7c0.1,0.2,0.1,0.4,0.2,0.5
			c0.1,0.1,0.3,0.2,0.5,0.3c0.2,0.1,0.4,0.1,0.7,0.1s0.6,0,0.8-0.1s0.5-0.1,0.7-0.2l0.2,0.8c-0.3,0.1-0.6,0.2-0.9,0.3
			c-0.3,0.1-0.7,0.1-1,0.1c-0.4,0-0.8-0.1-1.1-0.2c-0.3-0.1-0.5-0.3-0.7-0.5c-0.2-0.2-0.3-0.5-0.4-0.8c-0.1-0.3-0.1-0.6-0.1-1
			L44.7,329.5L44.7,329.5z"/>
	</g>
	<g class="st3">
		<path d="M-31.8,345.8h3.9v6.1h-1v-5.2h-2.8L-31.8,345.8L-31.8,345.8z M-28.6,344.5c-0.2,0-0.4-0.1-0.6-0.2s-0.2-0.3-0.2-0.6
			c0-0.2,0.1-0.4,0.2-0.6c0.2-0.1,0.4-0.2,0.6-0.2c0.2,0,0.4,0.1,0.6,0.2c0.2,0.1,0.2,0.3,0.2,0.6c0,0.2-0.1,0.4-0.2,0.6
			S-28.3,344.5-28.6,344.5z"/>
		<path d="M-24.3,345.8h0.9l0.1,1h0c0.3-0.3,0.7-0.6,1-0.9c0.4-0.2,0.8-0.3,1.3-0.3c0.7,0,1.3,0.2,1.6,0.6c0.3,0.4,0.5,1,0.5,1.8
			v3.8h-1v-3.6c0-0.6-0.1-1-0.3-1.3s-0.6-0.4-1.1-0.4c-0.2,0-0.4,0-0.5,0.1s-0.3,0.1-0.5,0.2c-0.1,0.1-0.3,0.2-0.5,0.3
			s-0.3,0.3-0.5,0.5v4.2h-1L-24.3,345.8L-24.3,345.8z"/>
		<path d="M-15.3,346.6h-1.7v-0.8l1.8-0.1l0.1-1.7h0.9v1.7h3v0.8h-3v2.9c0,0.3,0,0.5,0.1,0.7c0.1,0.2,0.1,0.4,0.2,0.5
			c0.1,0.1,0.3,0.2,0.5,0.3c0.2,0.1,0.4,0.1,0.7,0.1s0.6,0,0.8-0.1s0.5-0.1,0.7-0.2l0.2,0.8c-0.3,0.1-0.6,0.2-0.9,0.3
			c-0.3,0.1-0.7,0.1-1,0.1c-0.4,0-0.8-0.1-1.1-0.2c-0.3-0.1-0.5-0.3-0.7-0.5c-0.2-0.2-0.3-0.5-0.4-0.8c-0.1-0.3-0.1-0.6-0.1-1
			L-15.3,346.6L-15.3,346.6z"/>
		<path d="M-9.6,348.8c0-0.5,0.1-0.9,0.3-1.3c0.2-0.4,0.4-0.7,0.7-1c0.3-0.3,0.6-0.5,1-0.6c0.4-0.1,0.8-0.2,1.1-0.2
			c0.4,0,0.8,0.1,1.2,0.2s0.6,0.3,0.9,0.6c0.2,0.2,0.4,0.5,0.5,0.9c0.1,0.4,0.2,0.7,0.2,1.2c0,0.1,0,0.2,0,0.3c0,0.1,0,0.2,0,0.3
			h-4.8c0,0.3,0.1,0.6,0.2,0.9c0.1,0.3,0.3,0.5,0.5,0.7c0.2,0.2,0.4,0.3,0.7,0.4c0.3,0.1,0.6,0.1,0.9,0.1c0.4,0,0.7,0,1-0.1
			s0.6-0.2,0.9-0.4l0.4,0.7c-0.3,0.2-0.6,0.4-1,0.5c-0.4,0.1-0.8,0.2-1.3,0.2c-0.4,0-0.9-0.1-1.3-0.2s-0.7-0.4-1-0.6
			c-0.3-0.3-0.5-0.6-0.7-1S-9.6,349.3-9.6,348.8z M-4.7,348.3c0-0.6-0.2-1.1-0.5-1.4s-0.8-0.5-1.3-0.5c-0.2,0-0.5,0-0.7,0.1
			c-0.2,0.1-0.4,0.2-0.6,0.4c-0.2,0.2-0.3,0.4-0.5,0.6s-0.2,0.5-0.2,0.8L-4.7,348.3L-4.7,348.3z"/>
		<path d="M-1.1,345.8h0.9l0.1,1.4h0c0.3-0.5,0.7-0.9,1.2-1.2c0.5-0.3,1-0.4,1.5-0.4c0.2,0,0.4,0,0.6,0.1c0.2,0,0.4,0.1,0.6,0.2
			l-0.2,0.9c-0.2-0.1-0.4-0.1-0.5-0.2c-0.1,0-0.3,0-0.6,0c-0.5,0-0.9,0.1-1.3,0.4s-0.8,0.7-1.2,1.3v3.6h-1L-1.1,345.8L-1.1,345.8z"
			/>
		<path d="M11.6,343.9c-0.2-0.1-0.5-0.2-0.7-0.2c-0.2,0-0.5-0.1-0.7-0.1c-0.6,0-0.9,0.1-1.2,0.4s-0.4,0.7-0.4,1.2v0.5h2.6v0.8H8.6
			v5.2h-1v-5.2H5.9v-0.8l1.7-0.1v-0.5c0-0.7,0.2-1.3,0.6-1.8c0.4-0.5,1-0.7,1.9-0.7c0.6,0,1.2,0.1,1.8,0.4L11.6,343.9z"/>
		<path d="M13.1,350.3c0-0.3,0.1-0.6,0.2-0.9c0.2-0.3,0.4-0.5,0.8-0.7s0.8-0.3,1.4-0.5c0.6-0.1,1.2-0.2,2-0.3c0-0.2,0-0.4-0.1-0.6
			s-0.1-0.3-0.3-0.5s-0.3-0.2-0.5-0.3s-0.5-0.1-0.7-0.1c-0.4,0-0.8,0.1-1.1,0.2c-0.4,0.2-0.7,0.3-1,0.5l-0.4-0.7
			c0.1-0.1,0.3-0.2,0.5-0.3s0.4-0.2,0.6-0.3c0.2-0.1,0.5-0.2,0.7-0.2c0.3-0.1,0.5-0.1,0.8-0.1c0.8,0,1.5,0.2,1.9,0.7
			s0.6,1.1,0.6,1.8v3.7h-0.8l-0.1-0.8h0c-0.3,0.3-0.7,0.5-1.1,0.7c-0.4,0.2-0.8,0.3-1.3,0.3c-0.3,0-0.6,0-0.8-0.1s-0.5-0.2-0.7-0.3
			c-0.2-0.1-0.3-0.3-0.4-0.5S13.1,350.6,13.1,350.3z M14.1,350.2c0,0.2,0,0.3,0.1,0.4s0.2,0.2,0.3,0.3s0.3,0.1,0.4,0.2
			c0.2,0,0.3,0.1,0.5,0.1c0.4,0,0.7-0.1,1-0.2c0.3-0.2,0.7-0.4,1-0.7v-1.6c-0.6,0-1.2,0.1-1.6,0.2c-0.4,0.1-0.8,0.2-1.1,0.3
			c-0.3,0.1-0.4,0.3-0.6,0.4C14.2,349.8,14.1,350,14.1,350.2z"/>
		<path d="M20.6,348.8c0-0.5,0.1-1,0.3-1.4c0.2-0.4,0.4-0.7,0.7-1c0.3-0.3,0.7-0.5,1.1-0.6c0.4-0.1,0.8-0.2,1.3-0.2
			c0.5,0,0.9,0.1,1.3,0.3c0.4,0.2,0.7,0.4,0.9,0.6l-0.5,0.7c-0.2-0.2-0.5-0.4-0.8-0.5c-0.3-0.1-0.6-0.2-0.9-0.2
			c-0.4,0-0.7,0.1-1,0.2c-0.3,0.1-0.5,0.3-0.7,0.5c-0.2,0.2-0.4,0.5-0.5,0.7c-0.1,0.3-0.2,0.6-0.2,1c0,0.4,0.1,0.7,0.2,1
			s0.3,0.5,0.5,0.7s0.5,0.4,0.7,0.5c0.3,0.1,0.6,0.2,1,0.2c0.4,0,0.7-0.1,1-0.2c0.3-0.1,0.6-0.3,0.9-0.5l0.4,0.7
			c-0.3,0.3-0.7,0.5-1.1,0.7c-0.4,0.2-0.8,0.2-1.3,0.2c-0.5,0-0.9-0.1-1.3-0.2c-0.4-0.1-0.8-0.3-1.1-0.6s-0.5-0.6-0.7-1
			C20.7,349.8,20.6,349.3,20.6,348.8z"/>
		<path d="M27.9,348.8c0-0.5,0.1-0.9,0.3-1.3c0.2-0.4,0.4-0.7,0.7-1c0.3-0.3,0.6-0.5,1-0.6c0.4-0.1,0.8-0.2,1.1-0.2
			c0.4,0,0.8,0.1,1.2,0.2s0.6,0.3,0.9,0.6s0.4,0.5,0.5,0.9s0.2,0.7,0.2,1.2c0,0.1,0,0.2,0,0.3c0,0.1,0,0.2,0,0.3H29
			c0,0.3,0.1,0.6,0.2,0.9c0.1,0.3,0.3,0.5,0.5,0.7s0.4,0.3,0.7,0.4c0.3,0.1,0.6,0.1,0.9,0.1c0.4,0,0.7,0,1-0.1
			c0.3-0.1,0.6-0.2,0.9-0.4l0.4,0.7c-0.3,0.2-0.6,0.4-1,0.5c-0.4,0.1-0.8,0.2-1.3,0.2c-0.5,0-0.9-0.1-1.3-0.2
			c-0.4-0.1-0.7-0.4-1-0.6c-0.3-0.3-0.5-0.6-0.7-1S27.9,349.3,27.9,348.8z M32.8,348.3c0-0.6-0.2-1.1-0.5-1.4
			c-0.3-0.3-0.8-0.5-1.3-0.5c-0.2,0-0.5,0-0.7,0.1c-0.2,0.1-0.4,0.2-0.6,0.4c-0.2,0.2-0.3,0.4-0.5,0.6S29,348,29,348.3L32.8,348.3
			L32.8,348.3z"/>
		<path d="M35.6,347.4H41v0.8h-5.4V347.4z"/>
		<path d="M43.1,350.3c0-0.3,0.1-0.6,0.2-0.9c0.2-0.3,0.4-0.5,0.8-0.7s0.8-0.3,1.4-0.5c0.6-0.1,1.2-0.2,2-0.3c0-0.2,0-0.4-0.1-0.6
			s-0.1-0.3-0.3-0.5s-0.3-0.2-0.5-0.3s-0.5-0.1-0.7-0.1c-0.4,0-0.8,0.1-1.1,0.2c-0.4,0.2-0.7,0.3-1,0.5l-0.4-0.7
			c0.1-0.1,0.3-0.2,0.5-0.3s0.4-0.2,0.6-0.3c0.2-0.1,0.5-0.2,0.7-0.2c0.3-0.1,0.5-0.1,0.8-0.1c0.8,0,1.5,0.2,1.9,0.7
			s0.6,1.1,0.6,1.8v3.7h-0.8l-0.1-0.8h0c-0.3,0.3-0.7,0.5-1.1,0.7c-0.4,0.2-0.8,0.3-1.3,0.3c-0.3,0-0.5,0-0.8-0.1s-0.5-0.2-0.7-0.3
			c-0.2-0.1-0.3-0.3-0.4-0.5S43.1,350.6,43.1,350.3z M44.1,350.2c0,0.2,0,0.3,0.1,0.4s0.2,0.2,0.3,0.3s0.3,0.1,0.4,0.2
			c0.2,0,0.3,0.1,0.5,0.1c0.3,0,0.7-0.1,1-0.2c0.3-0.2,0.7-0.4,1-0.7v-1.6c-0.7,0-1.2,0.1-1.6,0.2c-0.4,0.1-0.8,0.2-1,0.3
			c-0.3,0.1-0.4,0.3-0.6,0.4C44.2,349.8,44.1,350,44.1,350.2z"/>
		<path d="M50.5,353c0-0.2,0.1-0.5,0.3-0.7s0.4-0.4,0.7-0.6v0c-0.2-0.1-0.3-0.2-0.4-0.4s-0.2-0.4-0.2-0.6c0-0.2,0.1-0.4,0.2-0.6
			s0.3-0.4,0.5-0.5v0c-0.2-0.2-0.4-0.4-0.5-0.6c-0.1-0.3-0.2-0.6-0.2-0.9c0-0.3,0.1-0.6,0.2-0.9s0.3-0.5,0.5-0.7s0.5-0.3,0.8-0.4
			c0.3-0.1,0.6-0.2,0.9-0.2c0.3,0,0.6,0,0.9,0.1h2.5v0.8H55c0.1,0.1,0.3,0.3,0.4,0.5c0.1,0.2,0.2,0.5,0.2,0.7c0,0.3-0.1,0.6-0.2,0.9
			c-0.1,0.3-0.3,0.5-0.5,0.7c-0.2,0.2-0.5,0.3-0.8,0.4c-0.3,0.1-0.6,0.1-0.9,0.1c-0.2,0-0.3,0-0.5-0.1c-0.2,0-0.4-0.1-0.5-0.2
			c-0.3,0.2-0.5,0.4-0.5,0.7c0,0.2,0.1,0.4,0.3,0.5s0.5,0.2,0.9,0.2h1.4c0.8,0,1.4,0.1,1.7,0.3s0.6,0.6,0.6,1.1
			c0,0.3-0.1,0.6-0.2,0.8c-0.2,0.3-0.4,0.5-0.7,0.7s-0.6,0.3-1.1,0.5c-0.4,0.1-0.9,0.2-1.4,0.2c-0.9,0-1.6-0.1-2.1-0.4
			S50.5,353.5,50.5,353z M51.4,352.9c0,0.3,0.2,0.6,0.5,0.8c0.3,0.2,0.8,0.3,1.5,0.3c0.4,0,0.7,0,1-0.1c0.3-0.1,0.5-0.2,0.7-0.3
			c0.2-0.1,0.4-0.2,0.5-0.4c0.1-0.1,0.2-0.3,0.2-0.5c0-0.3-0.1-0.5-0.3-0.6s-0.6-0.1-1-0.1h-1.2c-0.2,0-0.3,0-0.5,0s-0.3,0-0.4-0.1
			c-0.3,0.2-0.5,0.3-0.6,0.5C51.4,352.5,51.4,352.7,51.4,352.9z M53.2,349.3c0.4,0,0.7-0.1,1-0.4c0.3-0.3,0.4-0.6,0.4-1
			c0-0.2,0-0.4-0.1-0.6s-0.2-0.3-0.3-0.5s-0.3-0.2-0.4-0.3c-0.2-0.1-0.4-0.1-0.5-0.1c-0.2,0-0.4,0-0.5,0.1c-0.2,0.1-0.3,0.2-0.4,0.3
			s-0.2,0.3-0.3,0.5s-0.1,0.4-0.1,0.6c0,0.4,0.1,0.8,0.4,1C52.5,349.1,52.8,349.3,53.2,349.3z"/>
		<path d="M57.9,348.8c0-0.5,0.1-0.9,0.3-1.3c0.2-0.4,0.4-0.7,0.7-1c0.3-0.3,0.6-0.5,1-0.6c0.4-0.1,0.8-0.2,1.1-0.2
			c0.4,0,0.8,0.1,1.2,0.2s0.6,0.3,0.9,0.6c0.2,0.2,0.4,0.5,0.5,0.9s0.2,0.7,0.2,1.2c0,0.1,0,0.2,0,0.3c0,0.1,0,0.2,0,0.3H59
			c0,0.3,0.1,0.6,0.2,0.9c0.1,0.3,0.3,0.5,0.5,0.7c0.2,0.2,0.4,0.3,0.7,0.4c0.3,0.1,0.6,0.1,0.9,0.1c0.4,0,0.7,0,1-0.1
			s0.6-0.2,0.9-0.4l0.4,0.7c-0.3,0.2-0.6,0.4-1,0.5c-0.4,0.1-0.8,0.2-1.3,0.2c-0.5,0-0.9-0.1-1.3-0.2s-0.7-0.4-1-0.6
			c-0.3-0.3-0.5-0.6-0.7-1S57.9,349.3,57.9,348.8z M62.8,348.3c0-0.6-0.2-1.1-0.5-1.4s-0.8-0.5-1.3-0.5c-0.2,0-0.5,0-0.7,0.1
			c-0.2,0.1-0.4,0.2-0.6,0.4c-0.2,0.2-0.3,0.4-0.5,0.6S59,348,59,348.3L62.8,348.3L62.8,348.3z"/>
		<path d="M65.7,345.8h0.9l0.1,1h0.1c0.3-0.3,0.7-0.6,1-0.9c0.4-0.2,0.8-0.3,1.3-0.3c0.7,0,1.3,0.2,1.6,0.6c0.3,0.4,0.5,1,0.5,1.8
			v3.8h-1v-3.6c0-0.6-0.1-1-0.3-1.3s-0.6-0.4-1.1-0.4c-0.2,0-0.4,0-0.5,0.1c-0.2,0-0.3,0.1-0.5,0.2c-0.1,0.1-0.3,0.2-0.5,0.3
			s-0.3,0.3-0.5,0.5v4.2h-1L65.7,345.8L65.7,345.8z"/>
		<path d="M74.7,346.6h-1.7v-0.8l1.8-0.1l0.1-1.7h0.9v1.7h3v0.8h-3v2.9c0,0.3,0,0.5,0.1,0.7c0.1,0.2,0.1,0.4,0.2,0.5
			c0.1,0.1,0.3,0.2,0.5,0.3c0.2,0.1,0.4,0.1,0.7,0.1s0.6,0,0.8-0.1s0.5-0.1,0.7-0.2l0.2,0.8c-0.3,0.1-0.6,0.2-0.9,0.3
			c-0.3,0.1-0.7,0.1-1,0.1c-0.4,0-0.8-0.1-1.1-0.2c-0.3-0.1-0.5-0.3-0.7-0.5c-0.2-0.2-0.3-0.5-0.4-0.8c-0.1-0.3-0.1-0.6-0.1-1
			L74.7,346.6L74.7,346.6z"/>
	</g>
</g>
</svg>
