<?xml version="1.0" encoding="utf-8"?>
<!-- Generator: Adobe Illustrator 19.0.0, SVG Export Plug-In . SVG Version: 6.00 Build 0)  -->
<svg version="1.1" xmlns="http://www.w3.org/2000/svg" xmlns:xlink="http://www.w3.org/1999/xlink" x="0px" y="0px"
	 viewBox="-1416.5 758.5 2707 1476.1" style="enable-background:new -1416.5 758.5 2707 1476.1;" xml:space="preserve">
<style type="text/css">
	.st0{fill:url(#XMLID_2_);}
	.st1{fill:url(#XMLID_3_);}
	.st2{fill:none;}
	.st3{enable-background:new    ;}
	.st4{display:none;fill:url(#XMLID_4_);}
	.st5{display:none;fill:url(#XMLID_5_);}
	.st6{fill:url(#SVGID_1_);}
	.st7{fill:url(#SVGID_2_);}
	.st8{display:none;}
	.st9{display:inline;}
	.st10{fill:url(#SVGID_3_);}
	.st11{display:inline;fill:url(#SVGID_4_);}
	.st12{display:inline;fill:url(#SVGID_5_);}
	.st13{display:inline;fill:url(#SVGID_6_);}
	.st14{display:inline;fill:url(#SVGID_7_);}
	.st15{fill:#231F20;}
	.st16{fill:url(#SVGID_8_);}
	.st17{fill:url(#SVGID_9_);}
	.st18{fill:url(#SVGID_10_);}
	.st19{display:inline;fill:url(#SVGID_11_);}
	.st20{display:inline;fill:url(#SVGID_12_);}
	.st21{display:inline;fill:url(#SVGID_13_);}
	.st22{display:inline;fill:url(#SVGID_14_);}
	.st23{font-family:'SourceCodePro-Bold';}
	.st24{font-size:12px;}
	.st25{fill:url(#SVGID_15_);}
	.st26{fill:#CCCCCC;}
	.st27{fill:none;stroke:#000000;stroke-width:0.5;stroke-miterlimit:10;}
	.st28{fill:url(#SVGID_16_);}
</style>
<g id="Layer_1">
	<g>
		<g id="XMLID_45_">
			<g id="XMLID_18_">
				
					<linearGradient id="XMLID_2_" gradientUnits="userSpaceOnUse" x1="-1043.3152" y1="960.976" x2="-1043.3152" y2="860.7553" gradientTransform="matrix(0.7071 0.7071 0.7071 -0.7071 -93.4789 1662.8657)">
					<stop  offset="0" style="stop-color:#000000;stop-opacity:0"/>
					<stop  offset="0.5" style="stop-color:#000000"/>
				</linearGradient>
				<polygon id="XMLID_19_" class="st0" points="-116.3,281.1 -187.1,210.2 -187.1,351.9 -258,281.1 				"/>
			</g>
			
				<linearGradient id="XMLID_3_" gradientUnits="userSpaceOnUse" x1="-993.2049" y1="910.8657" x2="-993.2049" y2="1011.0863" gradientTransform="matrix(0.7071 0.7071 0.7071 -0.7071 -93.4789 1662.8657)">
				<stop  offset="0" style="stop-color:#000000;stop-opacity:0"/>
				<stop  offset="0.5" style="stop-color:#000000"/>
			</linearGradient>
			<polygon id="XMLID_17_" class="st1" points="-45.4,281.1 -116.3,210.2 -116.3,351.9 -187.1,281.1 			"/>
		</g>
		<rect id="XMLID_23_" x="-39.9" y="210.2" class="st2" width="255.4" height="71.3"/>
		<g class="st3">
			<path d="M-31.7,210.2h11.6v18.2l-0.4,8.6c2.1-2,4.5-3.6,7.2-4.8c2.7-1.2,5.3-1.8,8-1.8c3.2,0,6,0.6,8.5,1.8
				c2.5,1.2,4.6,2.8,6.3,5c1.7,2.2,3.1,4.8,3.9,7.9c0.9,3.1,1.4,6.5,1.4,10.3c0,4.2-0.6,7.9-1.8,11.2c-1.2,3.3-2.8,6.1-4.9,8.4
				c-2,2.3-4.4,4-7,5.2c-2.6,1.2-5.4,1.8-8.1,1.8c-2.3,0-4.8-0.6-7.3-1.7c-2.5-1.1-4.9-2.8-7-4.9h-0.3l-1,5.4h-9.1V210.2z
				 M-20.1,268c1.8,1.7,3.7,2.8,5.6,3.5c1.9,0.7,3.7,1,5.2,1c3.5,0,6.4-1.4,8.7-4.2c2.3-2.8,3.5-7,3.5-12.6c0-4.9-0.9-8.8-2.7-11.5
				c-1.8-2.7-4.7-4.1-8.7-4.1c-1.9,0-3.8,0.5-5.7,1.4c-1.9,0.9-3.9,2.4-5.9,4.5L-20.1,268L-20.1,268z"/>
		</g>
		<g class="st3">
			<path d="M28.4,256.3c0-4.1,0.7-7.7,2.1-10.9c1.4-3.2,3.2-5.9,5.4-8.1c2.3-2.2,4.9-3.9,7.9-5.1c3-1.2,6.1-1.8,9.3-1.8
				s6.3,0.6,9.3,1.8c3,1.2,5.6,2.9,7.9,5.1c2.3,2.2,4.1,4.9,5.4,8.1c1.4,3.2,2.1,6.8,2.1,10.9c0,4.1-0.7,7.7-2.1,10.9
				c-1.4,3.2-3.2,5.9-5.4,8.1c-2.3,2.2-4.9,3.9-7.9,5c-3,1.1-6.1,1.7-9.3,1.7s-6.3-0.6-9.3-1.7s-5.6-2.8-7.9-5
				c-2.3-2.2-4.1-4.9-5.4-8.1C29.1,264,28.4,260.4,28.4,256.3z M40.3,256.3c0,4.9,1.1,8.9,3.4,11.9c2.3,3,5.4,4.5,9.4,4.5
				s7.1-1.5,9.4-4.5c2.3-3,3.4-6.9,3.4-11.9c0-5-1.1-9-3.4-11.9c-2.3-3-5.4-4.4-9.4-4.4s-7.1,1.5-9.4,4.4
				C41.4,247.3,40.3,251.3,40.3,256.3z"/>
		</g>
		<g class="st3">
			<path d="M91.5,231.7h32.8v49.1h-11.5v-40H91.5V231.7z M117.7,223.1c-2.3,0-4.3-0.7-5.9-2.1c-1.6-1.4-2.3-3.3-2.3-5.6
				c0-2.3,0.8-4.2,2.3-5.6c1.6-1.4,3.5-2.1,5.9-2.1c2.4,0,4.4,0.7,5.9,2.1c1.5,1.4,2.3,3.3,2.3,5.6c0,2.3-0.8,4.2-2.3,5.6
				C122,222.4,120.1,223.1,117.7,223.1z"/>
		</g>
		<g class="st3">
			<path d="M148.5,231.7h32.8v49.1h-11.5v-40h-21.3V231.7z M174.7,223.1c-2.3,0-4.3-0.7-5.9-2.1c-1.6-1.4-2.4-3.3-2.4-5.6
				c0-2.3,0.8-4.2,2.4-5.6c1.6-1.4,3.5-2.1,5.9-2.1c2.4,0,4.4,0.7,5.9,2.1c1.5,1.4,2.3,3.3,2.3,5.6c0,2.3-0.8,4.2-2.3,5.6
				C179,222.4,177.1,223.1,174.7,223.1z"/>
		</g>
		<rect id="XMLID_16_" x="-32.9" y="291.4" class="st2" width="193.4" height="60.5"/>
		<g class="st3">
			<path d="M-31.8,291.4h1v2.4l0,1.2c0.3-0.3,0.6-0.5,1-0.7c0.4-0.2,0.7-0.2,1.1-0.2c0.4,0,0.8,0.1,1.1,0.2c0.3,0.1,0.6,0.4,0.8,0.6
				c0.2,0.3,0.4,0.6,0.5,1s0.2,0.8,0.2,1.3c0,0.5-0.1,1-0.2,1.4c-0.1,0.4-0.4,0.8-0.6,1c-0.3,0.3-0.5,0.5-0.9,0.6
				c-0.3,0.1-0.7,0.2-1,0.2c-0.3,0-0.6-0.1-0.9-0.2c-0.3-0.1-0.7-0.3-0.9-0.6h0l-0.1,0.7h-0.8V291.4z M-30.7,298.9
				c0.3,0.3,0.6,0.4,0.9,0.5c0.3,0.1,0.6,0.2,0.8,0.2c0.3,0,0.5-0.1,0.7-0.2c0.2-0.1,0.4-0.3,0.6-0.5c0.2-0.2,0.3-0.5,0.4-0.8
				s0.1-0.6,0.1-1c0-0.3,0-0.6-0.1-0.9c-0.1-0.3-0.2-0.5-0.3-0.7c-0.1-0.2-0.3-0.3-0.5-0.5s-0.5-0.2-0.8-0.2c-0.3,0-0.6,0.1-0.9,0.2
				c-0.3,0.1-0.6,0.4-0.9,0.7L-30.7,298.9L-30.7,298.9z"/>
			<path d="M-24.3,294.3h3.9v6.1h-1v-5.2h-2.8L-24.3,294.3L-24.3,294.3z M-21.1,293c-0.2,0-0.4-0.1-0.6-0.2s-0.2-0.3-0.2-0.6
				c0-0.2,0.1-0.4,0.2-0.6c0.2-0.1,0.4-0.2,0.6-0.2c0.2,0,0.4,0.1,0.6,0.2c0.2,0.1,0.2,0.3,0.2,0.6c0,0.2-0.1,0.4-0.2,0.6
				S-20.8,293-21.1,293z"/>
			<path d="M-17.2,297.3c0-0.5,0.1-0.9,0.2-1.3c0.2-0.4,0.4-0.7,0.6-1c0.3-0.3,0.5-0.5,0.9-0.6c0.3-0.1,0.7-0.2,1-0.2
				c0.4,0,0.7,0.1,1,0.2s0.6,0.3,0.9,0.6l0-1.1v-2.3h1v8.9h-0.9l-0.1-0.8h0c-0.2,0.3-0.5,0.5-0.9,0.7s-0.7,0.3-1.1,0.3
				c-0.4,0-0.8-0.1-1.1-0.2c-0.3-0.1-0.6-0.3-0.8-0.6c-0.2-0.3-0.4-0.6-0.5-1S-17.2,297.8-17.2,297.3z M-16.1,297.3
				c0,0.7,0.2,1.3,0.5,1.7s0.8,0.6,1.3,0.6c0.6,0,1.2-0.3,1.7-0.9v-3c-0.3-0.3-0.5-0.4-0.8-0.5c-0.3-0.1-0.5-0.2-0.8-0.2
				s-0.5,0.1-0.7,0.2c-0.2,0.1-0.4,0.3-0.6,0.5s-0.3,0.4-0.4,0.7C-16.1,296.6-16.1,296.9-16.1,297.3z"/>
			<path d="M-9.3,294.3h3.8v6.1h-1v-5.2h-2.8L-9.3,294.3L-9.3,294.3z M-6.1,293c-0.2,0-0.4-0.1-0.6-0.2s-0.2-0.3-0.2-0.6
				c0-0.2,0.1-0.4,0.2-0.6c0.2-0.1,0.4-0.2,0.6-0.2c0.2,0,0.4,0.1,0.6,0.2c0.2,0.1,0.2,0.3,0.2,0.6c0,0.2-0.1,0.4-0.2,0.6
				S-5.8,293-6.1,293z"/>
			<path d="M-1.1,294.3h0.8l0.1,1.4h0c0.3-0.5,0.7-0.9,1.2-1.2c0.5-0.3,1-0.4,1.5-0.4c0.2,0,0.4,0,0.6,0.1c0.2,0,0.4,0.1,0.6,0.2
				l-0.2,0.9c-0.2-0.1-0.4-0.1-0.5-0.2c-0.1,0-0.3,0-0.6,0c-0.5,0-0.9,0.1-1.3,0.4s-0.8,0.7-1.2,1.3v3.6h-1L-1.1,294.3L-1.1,294.3z"
				/>
			<path d="M5.4,297.3c0-0.5,0.1-0.9,0.3-1.3c0.2-0.4,0.4-0.7,0.7-1c0.3-0.3,0.6-0.5,1-0.6c0.4-0.1,0.8-0.2,1.1-0.2
				c0.4,0,0.8,0.1,1.2,0.2s0.6,0.3,0.9,0.6c0.2,0.2,0.4,0.5,0.5,0.9s0.2,0.7,0.2,1.2c0,0.1,0,0.2,0,0.3c0,0.1,0,0.2,0,0.3H6.5
				c0,0.3,0.1,0.6,0.2,0.9c0.1,0.3,0.3,0.5,0.5,0.7c0.2,0.2,0.4,0.3,0.7,0.4c0.3,0.1,0.6,0.1,0.9,0.1c0.4,0,0.7,0,1-0.1
				s0.6-0.2,0.9-0.4l0.4,0.7c-0.3,0.2-0.6,0.4-1,0.5c-0.4,0.1-0.8,0.2-1.3,0.2c-0.4,0-0.9-0.1-1.3-0.2s-0.7-0.4-1-0.6
				s-0.5-0.6-0.7-1S5.4,297.8,5.4,297.3z M10.3,296.8c0-0.6-0.2-1.1-0.5-1.4s-0.8-0.5-1.3-0.5c-0.2,0-0.5,0-0.7,0.1
				c-0.2,0.1-0.4,0.2-0.6,0.4c-0.2,0.2-0.3,0.4-0.5,0.6s-0.2,0.5-0.2,0.8L10.3,296.8L10.3,296.8z"/>
			<path d="M13.1,297.3c0-0.5,0.1-1,0.3-1.4c0.2-0.4,0.4-0.7,0.7-1c0.3-0.3,0.7-0.5,1.1-0.6c0.4-0.1,0.8-0.2,1.3-0.2
				c0.5,0,0.9,0.1,1.3,0.3c0.4,0.2,0.7,0.4,0.9,0.6l-0.5,0.7c-0.2-0.2-0.5-0.4-0.8-0.5c-0.3-0.1-0.6-0.2-0.9-0.2
				c-0.4,0-0.7,0.1-1,0.2c-0.3,0.1-0.5,0.3-0.7,0.5c-0.2,0.2-0.4,0.5-0.5,0.7c-0.1,0.3-0.2,0.6-0.2,1c0,0.4,0.1,0.7,0.2,1
				s0.3,0.5,0.5,0.7s0.4,0.4,0.7,0.5c0.3,0.1,0.6,0.2,1,0.2c0.4,0,0.7-0.1,1-0.2c0.3-0.1,0.6-0.3,0.9-0.5l0.4,0.7
				c-0.3,0.3-0.7,0.5-1.1,0.7c-0.4,0.2-0.8,0.2-1.3,0.2c-0.5,0-0.9-0.1-1.3-0.2c-0.4-0.1-0.8-0.3-1.1-0.6s-0.5-0.6-0.7-1
				C13.2,298.3,13.1,297.8,13.1,297.3z"/>
			<path d="M22.2,295.1h-1.7v-0.8l1.8-0.1l0.1-1.7h0.9v1.7h3v0.8h-3v2.9c0,0.3,0,0.5,0.1,0.7c0.1,0.2,0.1,0.4,0.2,0.5
				c0.1,0.1,0.3,0.2,0.5,0.3c0.2,0.1,0.4,0.1,0.7,0.1s0.6,0,0.8-0.1s0.5-0.1,0.7-0.2l0.2,0.8c-0.3,0.1-0.6,0.2-0.9,0.3
				c-0.3,0.1-0.7,0.1-1,0.1c-0.4,0-0.8-0.1-1.1-0.2c-0.3-0.1-0.5-0.3-0.7-0.5c-0.2-0.2-0.3-0.5-0.4-0.8c-0.1-0.3-0.1-0.6-0.1-1
				L22.2,295.1L22.2,295.1z"/>
			<path d="M28.2,294.3h3.9v6.1h-1v-5.2h-2.8V294.3z M31.4,293c-0.2,0-0.4-0.1-0.6-0.2s-0.2-0.3-0.2-0.6c0-0.2,0.1-0.4,0.2-0.6
				c0.2-0.1,0.4-0.2,0.6-0.2c0.2,0,0.4,0.1,0.6,0.2c0.2,0.1,0.2,0.3,0.2,0.6c0,0.2-0.1,0.4-0.2,0.6C31.9,292.9,31.7,293,31.4,293z"
				/>
			<path d="M35.3,297.3c0-0.5,0.1-1,0.2-1.4c0.2-0.4,0.4-0.7,0.7-1c0.3-0.3,0.6-0.5,1-0.6s0.7-0.2,1.1-0.2s0.8,0.1,1.1,0.2
				c0.4,0.1,0.7,0.4,1,0.6c0.3,0.3,0.5,0.6,0.7,1c0.2,0.4,0.2,0.8,0.2,1.4c0,0.5-0.1,0.9-0.2,1.3c-0.2,0.4-0.4,0.7-0.7,1
				c-0.3,0.3-0.6,0.5-1,0.6c-0.4,0.1-0.7,0.2-1.1,0.2c-0.4,0-0.8-0.1-1.1-0.2s-0.7-0.3-1-0.6c-0.3-0.3-0.5-0.6-0.7-1
				C35.4,298.3,35.3,297.8,35.3,297.3z M36.4,297.3c0,0.4,0,0.7,0.1,1s0.2,0.5,0.4,0.7s0.4,0.4,0.6,0.5c0.2,0.1,0.5,0.2,0.8,0.2
				s0.6-0.1,0.8-0.2c0.2-0.1,0.4-0.3,0.6-0.5s0.3-0.4,0.4-0.7s0.1-0.6,0.1-1s0-0.7-0.1-1c-0.1-0.3-0.2-0.5-0.4-0.7
				c-0.2-0.2-0.4-0.4-0.6-0.5s-0.5-0.2-0.8-0.2s-0.6,0.1-0.8,0.2c-0.2,0.1-0.4,0.3-0.6,0.5c-0.2,0.2-0.3,0.5-0.4,0.7
				C36.4,296.6,36.4,297,36.4,297.3z"/>
			<path d="M43.2,294.3h0.8l0.1,1h0c0.3-0.3,0.7-0.6,1-0.9c0.4-0.2,0.8-0.3,1.3-0.3c0.7,0,1.3,0.2,1.6,0.6c0.3,0.4,0.5,1,0.5,1.8
				v3.8h-1v-3.6c0-0.6-0.1-1-0.3-1.3s-0.6-0.4-1.1-0.4c-0.2,0-0.4,0-0.5,0.1s-0.3,0.1-0.5,0.2c-0.2,0.1-0.3,0.2-0.5,0.3
				s-0.3,0.3-0.5,0.5v4.2h-1L43.2,294.3L43.2,294.3z"/>
			<path d="M50.6,298.8c0-0.3,0.1-0.6,0.2-0.9c0.2-0.3,0.4-0.5,0.8-0.7c0.4-0.2,0.8-0.3,1.4-0.5c0.6-0.1,1.2-0.2,2-0.3
				c0-0.2,0-0.4-0.1-0.6c-0.1-0.2-0.2-0.3-0.3-0.5s-0.3-0.2-0.5-0.3c-0.2-0.1-0.5-0.1-0.7-0.1c-0.4,0-0.8,0.1-1.2,0.2
				c-0.4,0.2-0.7,0.3-1,0.5l-0.4-0.7c0.2-0.1,0.3-0.2,0.5-0.3s0.4-0.2,0.7-0.3s0.5-0.2,0.7-0.2c0.3-0.1,0.5-0.1,0.8-0.1
				c0.8,0,1.5,0.2,1.9,0.7s0.6,1.1,0.6,1.8v3.7h-0.8l-0.1-0.8h0c-0.3,0.3-0.7,0.5-1.1,0.7c-0.4,0.2-0.8,0.3-1.3,0.3
				c-0.3,0-0.6,0-0.8-0.1s-0.5-0.2-0.7-0.3c-0.2-0.1-0.3-0.3-0.4-0.5S50.6,299,50.6,298.8z M51.6,298.7c0,0.2,0,0.3,0.1,0.4
				s0.2,0.2,0.3,0.3c0.1,0.1,0.3,0.1,0.4,0.2c0.2,0,0.3,0.1,0.5,0.1c0.4,0,0.7-0.1,1-0.2c0.3-0.2,0.7-0.4,1-0.7v-1.6
				c-0.6,0-1.2,0.1-1.6,0.2c-0.4,0.1-0.8,0.2-1,0.3c-0.3,0.1-0.4,0.3-0.6,0.4C51.7,298.3,51.6,298.5,51.6,298.7z"/>
			<path d="M58.1,291.4h3.1v6.9c0,0.5,0.1,0.8,0.3,1c0.2,0.2,0.5,0.3,0.9,0.3c0.3,0,0.7-0.1,1.2-0.3l0.3,0.8
				c-0.3,0.1-0.5,0.2-0.8,0.3c-0.2,0.1-0.5,0.1-0.9,0.1c-0.7,0-1.1-0.2-1.5-0.6c-0.3-0.4-0.5-0.9-0.5-1.6v-6h-2.1L58.1,291.4
				L58.1,291.4z"/>
			<path d="M65.6,291.4h3.1v6.9c0,0.5,0.1,0.8,0.3,1c0.2,0.2,0.5,0.3,0.9,0.3c0.3,0,0.7-0.1,1.2-0.3l0.3,0.8
				c-0.3,0.1-0.5,0.2-0.8,0.3c-0.2,0.1-0.5,0.1-0.9,0.1c-0.7,0-1.1-0.2-1.5-0.6c-0.3-0.4-0.5-0.9-0.5-1.6v-6h-2.1L65.6,291.4
				L65.6,291.4z"/>
			<path d="M73.4,302.1c0.1,0,0.2,0,0.3,0c0.4,0,0.8-0.1,1-0.4s0.5-0.6,0.6-0.9l0.2-0.5l-2.8-6.1h1l1.5,3.4c0.1,0.3,0.2,0.6,0.4,0.9
				c0.1,0.3,0.3,0.6,0.4,0.9H76c0.1-0.3,0.2-0.6,0.3-0.9c0.1-0.3,0.2-0.6,0.3-0.9l1.3-3.4h1l-2.7,6.6c-0.1,0.3-0.2,0.6-0.4,0.8
				c-0.1,0.3-0.3,0.5-0.5,0.7c-0.2,0.2-0.4,0.3-0.7,0.4s-0.6,0.2-0.9,0.2c-0.3,0-0.6,0-0.8-0.1l0.2-0.8
				C73.2,302,73.3,302.1,73.4,302.1z"/>
		</g>
		<g class="st3">
			<path d="M-32.2,314.5c0-0.5,0.1-1,0.2-1.4c0.2-0.4,0.4-0.7,0.7-1c0.3-0.3,0.6-0.5,1-0.6s0.7-0.2,1.1-0.2c0.4,0,0.8,0.1,1.1,0.2
				s0.7,0.4,1,0.6c0.3,0.3,0.5,0.6,0.7,1c0.2,0.4,0.2,0.8,0.2,1.4c0,0.5-0.1,0.9-0.2,1.3c-0.2,0.4-0.4,0.7-0.7,1
				c-0.3,0.3-0.6,0.5-1,0.6c-0.4,0.1-0.7,0.2-1.1,0.2c-0.4,0-0.8-0.1-1.1-0.2s-0.7-0.3-1-0.6c-0.3-0.3-0.5-0.6-0.7-1
				C-32.1,315.4-32.2,315-32.2,314.5z M-31.1,314.5c0,0.4,0,0.7,0.1,1s0.2,0.5,0.4,0.7s0.4,0.4,0.6,0.5c0.2,0.1,0.5,0.2,0.8,0.2
				s0.6-0.1,0.8-0.2c0.2-0.1,0.4-0.3,0.6-0.5s0.3-0.4,0.4-0.7s0.1-0.6,0.1-1s0-0.7-0.1-1c-0.1-0.3-0.2-0.5-0.4-0.7
				c-0.2-0.2-0.4-0.4-0.6-0.5s-0.5-0.2-0.8-0.2s-0.6,0.1-0.8,0.2c-0.2,0.1-0.4,0.3-0.6,0.5c-0.2,0.2-0.3,0.5-0.4,0.7
				C-31.1,313.8-31.1,314.1-31.1,314.5z"/>
			<path d="M-23.6,311.4h0.9l0.1,1.4h0c0.3-0.5,0.7-0.9,1.2-1.2c0.5-0.3,1-0.4,1.5-0.4c0.2,0,0.4,0,0.6,0.1c0.2,0,0.4,0.1,0.6,0.2
				l-0.2,0.9c-0.2-0.1-0.4-0.1-0.5-0.2s-0.3,0-0.6,0c-0.5,0-0.9,0.1-1.3,0.4s-0.8,0.7-1.2,1.3v3.6h-1L-23.6,311.4L-23.6,311.4z"/>
			<path d="M-16.8,311.4h3.9v6.1h-1v-5.2h-2.8L-16.8,311.4L-16.8,311.4z M-13.6,310.2c-0.2,0-0.4-0.1-0.6-0.2s-0.2-0.3-0.2-0.6
				c0-0.2,0.1-0.4,0.2-0.6c0.2-0.1,0.4-0.2,0.6-0.2c0.2,0,0.4,0.1,0.6,0.2c0.2,0.1,0.2,0.3,0.2,0.6c0,0.2-0.1,0.4-0.2,0.6
				S-13.3,310.2-13.6,310.2z"/>
			<path d="M-9.6,314.5c0-0.5,0.1-0.9,0.3-1.3c0.2-0.4,0.4-0.7,0.7-1c0.3-0.3,0.6-0.5,1-0.6c0.4-0.1,0.8-0.2,1.1-0.2
				c0.4,0,0.8,0.1,1.2,0.2s0.6,0.3,0.9,0.6c0.2,0.2,0.4,0.5,0.5,0.9s0.2,0.7,0.2,1.2c0,0.1,0,0.2,0,0.3c0,0.1,0,0.2,0,0.3h-4.8
				c0,0.3,0.1,0.6,0.2,0.9c0.1,0.3,0.3,0.5,0.5,0.7c0.2,0.2,0.4,0.3,0.7,0.4c0.3,0.1,0.6,0.1,0.9,0.1c0.4,0,0.7,0,1-0.1
				s0.6-0.2,0.9-0.4L-4,317c-0.3,0.2-0.6,0.4-1,0.5c-0.4,0.1-0.8,0.2-1.3,0.2c-0.4,0-0.9-0.1-1.3-0.2s-0.7-0.4-1-0.6
				c-0.3-0.3-0.5-0.6-0.7-1S-9.6,315-9.6,314.5z M-4.7,314c0-0.6-0.2-1.1-0.5-1.4s-0.8-0.5-1.3-0.5c-0.2,0-0.5,0-0.7,0.1
				c-0.2,0.1-0.4,0.2-0.6,0.4c-0.2,0.2-0.3,0.4-0.5,0.6s-0.2,0.5-0.2,0.8L-4.7,314L-4.7,314z"/>
			<path d="M-1.8,311.4h0.9l0.1,1h0.1c0.3-0.3,0.7-0.6,1-0.9c0.4-0.2,0.8-0.3,1.3-0.3c0.7,0,1.3,0.2,1.6,0.6c0.3,0.4,0.5,1,0.5,1.8
				v3.8h-1v-3.6c0-0.6-0.1-1-0.3-1.3s-0.6-0.4-1.1-0.4c-0.2,0-0.4,0-0.5,0.1c-0.2,0-0.3,0.1-0.5,0.2c-0.1,0.1-0.3,0.2-0.5,0.3
				s-0.3,0.3-0.5,0.5v4.2h-1L-1.8,311.4L-1.8,311.4z"/>
			<path d="M7.2,312.3H5.4v-0.8l1.8-0.1l0.1-1.7h0.8v1.7h3v0.8h-3v2.9c0,0.3,0,0.5,0.1,0.7s0.1,0.4,0.2,0.5c0.1,0.1,0.3,0.2,0.5,0.3
				c0.2,0.1,0.4,0.1,0.7,0.1c0.3,0,0.6,0,0.8-0.1s0.5-0.1,0.7-0.2l0.2,0.8c-0.3,0.1-0.6,0.2-0.9,0.3c-0.3,0.1-0.7,0.1-1,0.1
				c-0.4,0-0.8-0.1-1.1-0.2s-0.5-0.3-0.7-0.5c-0.2-0.2-0.3-0.5-0.4-0.8c-0.1-0.3-0.1-0.6-0.1-1L7.2,312.3L7.2,312.3z"/>
			<path d="M12.9,314.5c0-0.5,0.1-0.9,0.3-1.3c0.2-0.4,0.4-0.7,0.7-1c0.3-0.3,0.6-0.5,1-0.6c0.4-0.1,0.8-0.2,1.1-0.2
				c0.4,0,0.8,0.1,1.2,0.2s0.6,0.3,0.9,0.6s0.4,0.5,0.5,0.9s0.2,0.7,0.2,1.2c0,0.1,0,0.2,0,0.3c0,0.1,0,0.2,0,0.3H14
				c0,0.3,0.1,0.6,0.2,0.9c0.1,0.3,0.3,0.5,0.5,0.7s0.4,0.3,0.7,0.4c0.3,0.1,0.6,0.1,0.9,0.1c0.4,0,0.7,0,1-0.1
				c0.3-0.1,0.6-0.2,0.9-0.4l0.4,0.7c-0.3,0.2-0.6,0.4-1,0.5s-0.8,0.2-1.3,0.2c-0.4,0-0.9-0.1-1.3-0.2s-0.7-0.4-1-0.6
				c-0.3-0.3-0.5-0.6-0.7-1S12.9,315,12.9,314.5z M17.8,314c0-0.6-0.2-1.1-0.5-1.4c-0.3-0.3-0.8-0.5-1.3-0.5c-0.2,0-0.5,0-0.7,0.1
				c-0.2,0.1-0.4,0.2-0.6,0.4c-0.2,0.2-0.3,0.4-0.5,0.6S14,313.7,14,314L17.8,314L17.8,314z"/>
			<path d="M20.3,314.5c0-0.5,0.1-0.9,0.2-1.3c0.2-0.4,0.4-0.7,0.6-1c0.3-0.3,0.5-0.5,0.9-0.6c0.3-0.1,0.7-0.2,1-0.2
				c0.4,0,0.7,0.1,1,0.2s0.6,0.3,0.9,0.6l0-1.1v-2.3h1v8.9h-0.9l-0.1-0.8h0c-0.2,0.3-0.5,0.5-0.9,0.7s-0.7,0.3-1.1,0.3
				c-0.4,0-0.8-0.1-1.1-0.2c-0.3-0.1-0.6-0.3-0.8-0.6c-0.2-0.3-0.4-0.6-0.5-1S20.3,315,20.3,314.5z M21.4,314.5
				c0,0.7,0.2,1.3,0.5,1.7s0.8,0.6,1.3,0.6c0.6,0,1.2-0.3,1.7-0.9v-3c-0.3-0.3-0.5-0.4-0.8-0.5c-0.3-0.1-0.5-0.2-0.8-0.2
				s-0.5,0.1-0.7,0.2c-0.2,0.1-0.4,0.3-0.6,0.5s-0.3,0.4-0.4,0.7C21.4,313.8,21.4,314.1,21.4,314.5z"/>
		</g>
		<g class="st3">
			<path d="M-31.8,328.6h3.9v6.1h-1v-5.2h-2.8L-31.8,328.6L-31.8,328.6z M-28.6,327.4c-0.2,0-0.4-0.1-0.6-0.2s-0.2-0.3-0.2-0.6
				c0-0.2,0.1-0.4,0.2-0.6c0.2-0.1,0.4-0.2,0.6-0.2c0.2,0,0.4,0.1,0.6,0.2c0.2,0.1,0.2,0.3,0.2,0.6c0,0.2-0.1,0.4-0.2,0.6
				S-28.3,327.4-28.6,327.4z"/>
			<path d="M-24.3,328.6h0.9l0.1,1h0c0.3-0.3,0.7-0.6,1-0.9c0.4-0.2,0.8-0.3,1.3-0.3c0.7,0,1.3,0.2,1.6,0.6c0.3,0.4,0.5,1,0.5,1.8
				v3.8h-1v-3.6c0-0.6-0.1-1-0.3-1.3s-0.6-0.4-1.1-0.4c-0.2,0-0.4,0-0.5,0.1s-0.3,0.1-0.5,0.2c-0.1,0.1-0.3,0.2-0.5,0.3
				s-0.3,0.3-0.5,0.5v4.2h-1L-24.3,328.6L-24.3,328.6z"/>
			<path d="M-15.3,329.5h-1.7v-0.8l1.8-0.1l0.1-1.7h0.9v1.7h3v0.8h-3v2.9c0,0.3,0,0.5,0.1,0.7c0.1,0.2,0.1,0.4,0.2,0.5
				c0.1,0.1,0.3,0.2,0.5,0.3c0.2,0.1,0.4,0.1,0.7,0.1s0.6,0,0.8-0.1s0.5-0.1,0.7-0.2l0.2,0.8c-0.3,0.1-0.6,0.2-0.9,0.3
				c-0.3,0.1-0.7,0.1-1,0.1c-0.4,0-0.8-0.1-1.1-0.2c-0.3-0.1-0.5-0.3-0.7-0.5c-0.2-0.2-0.3-0.5-0.4-0.8c-0.1-0.3-0.1-0.6-0.1-1
				L-15.3,329.5L-15.3,329.5z"/>
			<path d="M-9.6,331.7c0-0.5,0.1-0.9,0.3-1.3c0.2-0.4,0.4-0.7,0.7-1c0.3-0.3,0.6-0.5,1-0.6c0.4-0.1,0.8-0.2,1.1-0.2
				c0.4,0,0.8,0.1,1.2,0.2s0.6,0.3,0.9,0.6c0.2,0.2,0.4,0.5,0.5,0.9s0.2,0.7,0.2,1.2c0,0.1,0,0.2,0,0.3c0,0.1,0,0.2,0,0.3h-4.8
				c0,0.3,0.1,0.6,0.2,0.9c0.1,0.3,0.3,0.5,0.5,0.7c0.2,0.2,0.4,0.3,0.7,0.4c0.3,0.1,0.6,0.1,0.9,0.1c0.4,0,0.7,0,1-0.1
				s0.6-0.2,0.9-0.4l0.4,0.7c-0.3,0.2-0.6,0.4-1,0.5c-0.4,0.1-0.8,0.2-1.3,0.2c-0.4,0-0.9-0.1-1.3-0.2s-0.7-0.4-1-0.6
				c-0.3-0.3-0.5-0.6-0.7-1S-9.6,332.2-9.6,331.7z M-4.7,331.2c0-0.6-0.2-1.1-0.5-1.4s-0.8-0.5-1.3-0.5c-0.2,0-0.5,0-0.7,0.1
				c-0.2,0.1-0.4,0.2-0.6,0.4c-0.2,0.2-0.3,0.4-0.5,0.6s-0.2,0.5-0.2,0.8L-4.7,331.2L-4.7,331.2z"/>
			<path d="M-1.9,325.8h3.1v6.9c0,0.5,0.1,0.8,0.3,1c0.2,0.2,0.5,0.3,0.9,0.3c0.3,0,0.7-0.1,1.1-0.3l0.3,0.8
				c-0.3,0.1-0.5,0.2-0.8,0.3c-0.2,0.1-0.5,0.1-0.9,0.1c-0.6,0-1.1-0.2-1.5-0.6c-0.3-0.4-0.5-0.9-0.5-1.6v-6h-2.1L-1.9,325.8
				L-1.9,325.8z"/>
			<path d="M5.6,325.8h3.1v6.9c0,0.5,0.1,0.8,0.3,1c0.2,0.2,0.5,0.3,0.9,0.3c0.3,0,0.7-0.1,1.1-0.3l0.3,0.8
				c-0.3,0.1-0.5,0.2-0.8,0.3c-0.2,0.1-0.5,0.1-0.9,0.1c-0.6,0-1.1-0.2-1.5-0.6c-0.3-0.4-0.5-0.9-0.5-1.6v-6H5.6V325.8z"/>
			<path d="M13.2,328.6h3.9v6.1h-1v-5.2h-2.8V328.6z M16.4,327.4c-0.2,0-0.4-0.1-0.6-0.2s-0.2-0.3-0.2-0.6c0-0.2,0.1-0.4,0.2-0.6
				c0.2-0.1,0.4-0.2,0.6-0.2c0.2,0,0.4,0.1,0.6,0.2c0.2,0.1,0.2,0.3,0.2,0.6c0,0.2-0.1,0.4-0.2,0.6S16.7,327.4,16.4,327.4z"/>
			<path d="M20.5,335.8c0-0.2,0.1-0.5,0.3-0.7c0.2-0.2,0.4-0.4,0.7-0.6v0c-0.2-0.1-0.3-0.2-0.4-0.4s-0.2-0.4-0.2-0.6
				c0-0.2,0.1-0.4,0.2-0.6s0.3-0.4,0.5-0.5v0c-0.2-0.2-0.4-0.4-0.5-0.6s-0.2-0.6-0.2-0.9c0-0.3,0.1-0.6,0.2-0.9
				c0.1-0.3,0.3-0.5,0.5-0.7s0.5-0.3,0.8-0.4c0.3-0.1,0.6-0.2,0.9-0.2c0.3,0,0.6,0,0.9,0.1h2.5v0.8H25c0.1,0.1,0.3,0.3,0.4,0.5
				c0.1,0.2,0.2,0.5,0.2,0.7c0,0.3-0.1,0.6-0.2,0.9c-0.1,0.3-0.3,0.5-0.5,0.7c-0.2,0.2-0.5,0.3-0.8,0.4c-0.3,0.1-0.6,0.1-0.9,0.1
				c-0.2,0-0.3,0-0.5-0.1c-0.2,0-0.4-0.1-0.5-0.2c-0.3,0.2-0.5,0.4-0.5,0.7c0,0.2,0.1,0.4,0.3,0.5s0.5,0.2,0.9,0.2h1.4
				c0.8,0,1.4,0.1,1.7,0.3c0.4,0.2,0.6,0.6,0.6,1.1c0,0.3-0.1,0.6-0.2,0.8c-0.2,0.3-0.4,0.5-0.7,0.7c-0.3,0.2-0.6,0.3-1.1,0.5
				c-0.4,0.1-0.9,0.2-1.4,0.2c-0.9,0-1.6-0.1-2.1-0.4C20.7,336.8,20.5,336.3,20.5,335.8z M21.4,335.7c0,0.3,0.2,0.6,0.5,0.8
				c0.3,0.2,0.8,0.3,1.5,0.3c0.4,0,0.7,0,1-0.1c0.3-0.1,0.5-0.2,0.7-0.3c0.2-0.1,0.4-0.2,0.5-0.4c0.1-0.1,0.2-0.3,0.2-0.5
				c0-0.3-0.1-0.5-0.3-0.6s-0.6-0.1-1-0.1h-1.2c-0.2,0-0.3,0-0.5,0s-0.3,0-0.4-0.1c-0.3,0.2-0.5,0.3-0.6,0.5
				C21.4,335.4,21.4,335.5,21.4,335.7z M23.2,332.1c0.4,0,0.7-0.1,1-0.4c0.3-0.3,0.4-0.6,0.4-1c0-0.2,0-0.4-0.1-0.6
				c-0.1-0.2-0.2-0.3-0.3-0.5s-0.3-0.2-0.4-0.3c-0.2-0.1-0.4-0.1-0.5-0.1s-0.4,0-0.5,0.1c-0.2,0.1-0.3,0.2-0.4,0.3s-0.2,0.3-0.3,0.5
				c-0.1,0.2-0.1,0.4-0.1,0.6c0,0.4,0.1,0.8,0.4,1C22.5,332,22.8,332.1,23.2,332.1z"/>
			<path d="M27.9,331.7c0-0.5,0.1-0.9,0.3-1.3c0.2-0.4,0.4-0.7,0.7-1c0.3-0.3,0.6-0.5,1-0.6c0.4-0.1,0.8-0.2,1.1-0.2
				c0.4,0,0.8,0.1,1.2,0.2c0.3,0.1,0.6,0.3,0.9,0.6s0.4,0.5,0.5,0.9s0.2,0.7,0.2,1.2c0,0.1,0,0.2,0,0.3c0,0.1,0,0.2,0,0.3H29
				c0,0.3,0.1,0.6,0.2,0.9c0.1,0.3,0.3,0.5,0.5,0.7s0.4,0.3,0.7,0.4c0.3,0.1,0.6,0.1,0.9,0.1c0.4,0,0.7,0,1-0.1
				c0.3-0.1,0.6-0.2,0.9-0.4l0.4,0.7c-0.3,0.2-0.6,0.4-1,0.5c-0.4,0.1-0.8,0.2-1.3,0.2c-0.5,0-0.9-0.1-1.3-0.2
				c-0.4-0.1-0.7-0.4-1-0.6c-0.3-0.3-0.5-0.6-0.7-1S27.9,332.2,27.9,331.7z M32.8,331.2c0-0.6-0.2-1.1-0.5-1.4
				c-0.3-0.3-0.8-0.5-1.3-0.5c-0.2,0-0.5,0-0.7,0.1c-0.2,0.1-0.4,0.2-0.6,0.4c-0.2,0.2-0.3,0.4-0.5,0.6s-0.2,0.5-0.2,0.8L32.8,331.2
				L32.8,331.2z"/>
			<path d="M35.7,328.6h0.8l0.1,1h0c0.3-0.3,0.7-0.6,1-0.9c0.4-0.2,0.8-0.3,1.3-0.3c0.7,0,1.3,0.2,1.6,0.6c0.3,0.4,0.5,1,0.5,1.8
				v3.8h-1v-3.6c0-0.6-0.1-1-0.3-1.3s-0.6-0.4-1.1-0.4c-0.2,0-0.4,0-0.5,0.1s-0.3,0.1-0.5,0.2c-0.2,0.1-0.3,0.2-0.5,0.3
				s-0.3,0.3-0.5,0.5v4.2h-1L35.7,328.6L35.7,328.6z"/>
			<path d="M44.7,329.5h-1.7v-0.8l1.8-0.1l0.1-1.7h0.9v1.7h3v0.8h-3v2.9c0,0.3,0,0.5,0.1,0.7c0.1,0.2,0.1,0.4,0.2,0.5
				c0.1,0.1,0.3,0.2,0.5,0.3c0.2,0.1,0.4,0.1,0.7,0.1s0.6,0,0.8-0.1s0.5-0.1,0.7-0.2l0.2,0.8c-0.3,0.1-0.6,0.2-0.9,0.3
				c-0.3,0.1-0.7,0.1-1,0.1c-0.4,0-0.8-0.1-1.1-0.2c-0.3-0.1-0.5-0.3-0.7-0.5c-0.2-0.2-0.3-0.5-0.4-0.8c-0.1-0.3-0.1-0.6-0.1-1
				L44.7,329.5L44.7,329.5z"/>
		</g>
		<g class="st3">
			<path d="M-31.8,345.8h3.9v6.1h-1v-5.2h-2.8L-31.8,345.8L-31.8,345.8z M-28.6,344.5c-0.2,0-0.4-0.1-0.6-0.2s-0.2-0.3-0.2-0.6
				c0-0.2,0.1-0.4,0.2-0.6c0.2-0.1,0.4-0.2,0.6-0.2c0.2,0,0.4,0.1,0.6,0.2c0.2,0.1,0.2,0.3,0.2,0.6c0,0.2-0.1,0.4-0.2,0.6
				S-28.3,344.5-28.6,344.5z"/>
			<path d="M-24.3,345.8h0.9l0.1,1h0c0.3-0.3,0.7-0.6,1-0.9c0.4-0.2,0.8-0.3,1.3-0.3c0.7,0,1.3,0.2,1.6,0.6c0.3,0.4,0.5,1,0.5,1.8
				v3.8h-1v-3.6c0-0.6-0.1-1-0.3-1.3s-0.6-0.4-1.1-0.4c-0.2,0-0.4,0-0.5,0.1s-0.3,0.1-0.5,0.2c-0.1,0.1-0.3,0.2-0.5,0.3
				s-0.3,0.3-0.5,0.5v4.2h-1L-24.3,345.8L-24.3,345.8z"/>
			<path d="M-15.3,346.6h-1.7v-0.8l1.8-0.1l0.1-1.7h0.9v1.7h3v0.8h-3v2.9c0,0.3,0,0.5,0.1,0.7c0.1,0.2,0.1,0.4,0.2,0.5
				c0.1,0.1,0.3,0.2,0.5,0.3c0.2,0.1,0.4,0.1,0.7,0.1s0.6,0,0.8-0.1s0.5-0.1,0.7-0.2l0.2,0.8c-0.3,0.1-0.6,0.2-0.9,0.3
				c-0.3,0.1-0.7,0.1-1,0.1c-0.4,0-0.8-0.1-1.1-0.2c-0.3-0.1-0.5-0.3-0.7-0.5c-0.2-0.2-0.3-0.5-0.4-0.8c-0.1-0.3-0.1-0.6-0.1-1
				L-15.3,346.6L-15.3,346.6z"/>
			<path d="M-9.6,348.8c0-0.5,0.1-0.9,0.3-1.3c0.2-0.4,0.4-0.7,0.7-1c0.3-0.3,0.6-0.5,1-0.6c0.4-0.1,0.8-0.2,1.1-0.2
				c0.4,0,0.8,0.1,1.2,0.2s0.6,0.3,0.9,0.6c0.2,0.2,0.4,0.5,0.5,0.9s0.2,0.7,0.2,1.2c0,0.1,0,0.2,0,0.3c0,0.1,0,0.2,0,0.3h-4.8
				c0,0.3,0.1,0.6,0.2,0.9c0.1,0.3,0.3,0.5,0.5,0.7c0.2,0.2,0.4,0.3,0.7,0.4c0.3,0.1,0.6,0.1,0.9,0.1c0.4,0,0.7,0,1-0.1
				s0.6-0.2,0.9-0.4l0.4,0.7c-0.3,0.2-0.6,0.4-1,0.5c-0.4,0.1-0.8,0.2-1.3,0.2c-0.4,0-0.9-0.1-1.3-0.2s-0.7-0.4-1-0.6
				c-0.3-0.3-0.5-0.6-0.7-1S-9.6,349.3-9.6,348.8z M-4.7,348.3c0-0.6-0.2-1.1-0.5-1.4s-0.8-0.5-1.3-0.5c-0.2,0-0.5,0-0.7,0.1
				c-0.2,0.1-0.4,0.2-0.6,0.4c-0.2,0.2-0.3,0.4-0.5,0.6s-0.2,0.5-0.2,0.8L-4.7,348.3L-4.7,348.3z"/>
			<path d="M-1.1,345.8h0.8l0.1,1.4h0c0.3-0.5,0.7-0.9,1.2-1.2c0.5-0.3,1-0.4,1.5-0.4c0.2,0,0.4,0,0.6,0.1c0.2,0,0.4,0.1,0.6,0.2
				l-0.2,0.9c-0.2-0.1-0.4-0.1-0.5-0.2c-0.1,0-0.3,0-0.6,0c-0.5,0-0.9,0.1-1.3,0.4s-0.8,0.7-1.2,1.3v3.6h-1L-1.1,345.8L-1.1,345.8z"
				/>
			<path d="M11.6,343.9c-0.2-0.1-0.5-0.2-0.7-0.2c-0.2,0-0.5-0.1-0.7-0.1c-0.6,0-0.9,0.1-1.2,0.4s-0.4,0.7-0.4,1.2v0.5h2.6v0.8H8.6
				v5.2h-1v-5.2H5.9v-0.8l1.7-0.1v-0.5c0-0.7,0.2-1.3,0.6-1.8c0.4-0.5,1-0.7,1.9-0.7c0.6,0,1.2,0.1,1.8,0.4L11.6,343.9z"/>
			<path d="M13.1,350.3c0-0.3,0.1-0.6,0.2-0.9c0.2-0.3,0.4-0.5,0.8-0.7s0.8-0.3,1.4-0.5c0.6-0.1,1.2-0.2,2-0.3c0-0.2,0-0.4-0.1-0.6
				s-0.1-0.3-0.3-0.5s-0.3-0.2-0.5-0.3s-0.5-0.1-0.7-0.1c-0.4,0-0.8,0.1-1.1,0.2c-0.4,0.2-0.7,0.3-1,0.5l-0.4-0.7
				c0.1-0.1,0.3-0.2,0.5-0.3s0.4-0.2,0.6-0.3c0.2-0.1,0.5-0.2,0.7-0.2c0.3-0.1,0.5-0.1,0.8-0.1c0.8,0,1.5,0.2,1.9,0.7
				s0.6,1.1,0.6,1.8v3.7h-0.8l-0.1-0.8h0c-0.3,0.3-0.7,0.5-1.1,0.7c-0.4,0.2-0.8,0.3-1.3,0.3c-0.3,0-0.6,0-0.8-0.1s-0.5-0.2-0.7-0.3
				c-0.2-0.1-0.3-0.3-0.4-0.5S13.1,350.6,13.1,350.3z M14.1,350.2c0,0.2,0,0.3,0.1,0.4s0.2,0.2,0.3,0.3s0.3,0.1,0.4,0.2
				c0.2,0,0.3,0.1,0.5,0.1c0.4,0,0.7-0.1,1-0.2c0.3-0.2,0.7-0.4,1-0.7v-1.6c-0.6,0-1.2,0.1-1.6,0.2c-0.4,0.1-0.8,0.2-1.1,0.3
				c-0.3,0.1-0.4,0.3-0.6,0.4C14.2,349.8,14.1,350,14.1,350.2z"/>
			<path d="M20.6,348.8c0-0.5,0.1-1,0.3-1.4c0.2-0.4,0.4-0.7,0.7-1c0.3-0.3,0.7-0.5,1.1-0.6c0.4-0.1,0.8-0.2,1.3-0.2
				c0.5,0,0.9,0.1,1.3,0.3c0.4,0.2,0.7,0.4,0.9,0.6l-0.5,0.7c-0.2-0.2-0.5-0.4-0.8-0.5c-0.3-0.1-0.6-0.2-0.9-0.2
				c-0.4,0-0.7,0.1-1,0.2c-0.3,0.1-0.5,0.3-0.7,0.5c-0.2,0.2-0.4,0.5-0.5,0.7c-0.1,0.3-0.2,0.6-0.2,1c0,0.4,0.1,0.7,0.2,1
				s0.3,0.5,0.5,0.7s0.5,0.4,0.7,0.5c0.3,0.1,0.6,0.2,1,0.2c0.4,0,0.7-0.1,1-0.2c0.3-0.1,0.6-0.3,0.9-0.5l0.4,0.7
				c-0.3,0.3-0.7,0.5-1.1,0.7c-0.4,0.2-0.8,0.2-1.3,0.2c-0.5,0-0.9-0.1-1.3-0.2c-0.4-0.1-0.8-0.3-1.1-0.6s-0.5-0.6-0.7-1
				C20.7,349.8,20.6,349.3,20.6,348.8z"/>
			<path d="M27.9,348.8c0-0.5,0.1-0.9,0.3-1.3c0.2-0.4,0.4-0.7,0.7-1c0.3-0.3,0.6-0.5,1-0.6c0.4-0.1,0.8-0.2,1.1-0.2
				c0.4,0,0.8,0.1,1.2,0.2c0.3,0.1,0.6,0.3,0.9,0.6s0.4,0.5,0.5,0.9s0.2,0.7,0.2,1.2c0,0.1,0,0.2,0,0.3c0,0.1,0,0.2,0,0.3H29
				c0,0.3,0.1,0.6,0.2,0.9c0.1,0.3,0.3,0.5,0.5,0.7s0.4,0.3,0.7,0.4c0.3,0.1,0.6,0.1,0.9,0.1c0.4,0,0.7,0,1-0.1
				c0.3-0.1,0.6-0.2,0.9-0.4l0.4,0.7c-0.3,0.2-0.6,0.4-1,0.5c-0.4,0.1-0.8,0.2-1.3,0.2c-0.5,0-0.9-0.1-1.3-0.2
				c-0.4-0.1-0.7-0.4-1-0.6c-0.3-0.3-0.5-0.6-0.7-1S27.9,349.3,27.9,348.8z M32.8,348.3c0-0.6-0.2-1.1-0.5-1.4
				c-0.3-0.3-0.8-0.5-1.3-0.5c-0.2,0-0.5,0-0.7,0.1c-0.2,0.1-0.4,0.2-0.6,0.4c-0.2,0.2-0.3,0.4-0.5,0.6S29,348,29,348.3L32.8,348.3
				L32.8,348.3z"/>
			<path d="M35.6,347.4H41v0.8h-5.4V347.4z"/>
			<path d="M43.1,350.3c0-0.3,0.1-0.6,0.2-0.9c0.2-0.3,0.4-0.5,0.8-0.7s0.8-0.3,1.4-0.5c0.6-0.1,1.2-0.2,2-0.3c0-0.2,0-0.4-0.1-0.6
				s-0.1-0.3-0.3-0.5s-0.3-0.2-0.5-0.3s-0.5-0.1-0.7-0.1c-0.4,0-0.8,0.1-1.1,0.2c-0.4,0.2-0.7,0.3-1,0.5l-0.4-0.7
				c0.1-0.1,0.3-0.2,0.5-0.3s0.4-0.2,0.6-0.3c0.2-0.1,0.5-0.2,0.7-0.2c0.3-0.1,0.5-0.1,0.8-0.1c0.8,0,1.5,0.2,1.9,0.7
				s0.6,1.1,0.6,1.8v3.7h-0.8l-0.1-0.8h0c-0.3,0.3-0.7,0.5-1.1,0.7c-0.4,0.2-0.8,0.3-1.3,0.3c-0.3,0-0.5,0-0.8-0.1s-0.5-0.2-0.7-0.3
				c-0.2-0.1-0.3-0.3-0.4-0.5S43.1,350.6,43.1,350.3z M44.1,350.2c0,0.2,0,0.3,0.1,0.4s0.2,0.2,0.3,0.3s0.3,0.1,0.4,0.2
				c0.2,0,0.3,0.1,0.5,0.1c0.3,0,0.7-0.1,1-0.2c0.3-0.2,0.7-0.4,1-0.7v-1.6c-0.7,0-1.2,0.1-1.6,0.2c-0.4,0.1-0.8,0.2-1,0.3
				c-0.3,0.1-0.4,0.3-0.6,0.4C44.2,349.8,44.1,350,44.1,350.2z"/>
			<path d="M50.5,353c0-0.2,0.1-0.5,0.3-0.7s0.4-0.4,0.7-0.6v0c-0.2-0.1-0.3-0.2-0.4-0.4s-0.2-0.4-0.2-0.6c0-0.2,0.1-0.4,0.2-0.6
				s0.3-0.4,0.5-0.5v0c-0.2-0.2-0.4-0.4-0.5-0.6c-0.1-0.3-0.2-0.6-0.2-0.9c0-0.3,0.1-0.6,0.2-0.9s0.3-0.5,0.5-0.7s0.5-0.3,0.8-0.4
				c0.3-0.1,0.6-0.2,0.9-0.2c0.3,0,0.6,0,0.9,0.1h2.5v0.8H55c0.1,0.1,0.3,0.3,0.4,0.5c0.1,0.2,0.2,0.5,0.2,0.7
				c0,0.3-0.1,0.6-0.2,0.9c-0.1,0.3-0.3,0.5-0.5,0.7c-0.2,0.2-0.5,0.3-0.8,0.4c-0.3,0.1-0.6,0.1-0.9,0.1c-0.2,0-0.3,0-0.5-0.1
				c-0.2,0-0.4-0.1-0.5-0.2c-0.3,0.2-0.5,0.4-0.5,0.7c0,0.2,0.1,0.4,0.3,0.5s0.5,0.2,0.9,0.2h1.4c0.8,0,1.4,0.1,1.7,0.3
				s0.6,0.6,0.6,1.1c0,0.3-0.1,0.6-0.2,0.8c-0.2,0.3-0.4,0.5-0.7,0.7s-0.6,0.3-1.1,0.5c-0.4,0.1-0.9,0.2-1.4,0.2
				c-0.9,0-1.6-0.1-2.1-0.4S50.5,353.5,50.5,353z M51.4,352.9c0,0.3,0.2,0.6,0.5,0.8c0.3,0.2,0.8,0.3,1.5,0.3c0.4,0,0.7,0,1-0.1
				c0.3-0.1,0.5-0.2,0.7-0.3c0.2-0.1,0.4-0.2,0.5-0.4c0.1-0.1,0.2-0.3,0.2-0.5c0-0.3-0.1-0.5-0.3-0.6s-0.6-0.1-1-0.1h-1.2
				c-0.2,0-0.3,0-0.5,0s-0.3,0-0.4-0.1c-0.3,0.2-0.5,0.3-0.6,0.5C51.4,352.5,51.4,352.7,51.4,352.9z M53.2,349.3
				c0.4,0,0.7-0.1,1-0.4c0.3-0.3,0.4-0.6,0.4-1c0-0.2,0-0.4-0.1-0.6s-0.2-0.3-0.3-0.5s-0.3-0.2-0.4-0.3c-0.2-0.1-0.4-0.1-0.5-0.1
				c-0.2,0-0.4,0-0.5,0.1c-0.2,0.1-0.3,0.2-0.4,0.3s-0.2,0.3-0.3,0.5s-0.1,0.4-0.1,0.6c0,0.4,0.1,0.8,0.4,1
				C52.5,349.1,52.8,349.3,53.2,349.3z"/>
			<path d="M57.9,348.8c0-0.5,0.1-0.9,0.3-1.3c0.2-0.4,0.4-0.7,0.7-1c0.3-0.3,0.6-0.5,1-0.6c0.4-0.1,0.8-0.2,1.1-0.2
				c0.4,0,0.8,0.1,1.2,0.2s0.6,0.3,0.9,0.6c0.2,0.2,0.4,0.5,0.5,0.9s0.2,0.7,0.2,1.2c0,0.1,0,0.2,0,0.3c0,0.1,0,0.2,0,0.3H59
				c0,0.3,0.1,0.6,0.2,0.9c0.1,0.3,0.3,0.5,0.5,0.7c0.2,0.2,0.4,0.3,0.7,0.4c0.3,0.1,0.6,0.1,0.9,0.1c0.4,0,0.7,0,1-0.1
				s0.6-0.2,0.9-0.4l0.4,0.7c-0.3,0.2-0.6,0.4-1,0.5c-0.4,0.1-0.8,0.2-1.3,0.2c-0.5,0-0.9-0.1-1.3-0.2s-0.7-0.4-1-0.6
				c-0.3-0.3-0.5-0.6-0.7-1S57.9,349.3,57.9,348.8z M62.8,348.3c0-0.6-0.2-1.1-0.5-1.4s-0.8-0.5-1.3-0.5c-0.2,0-0.5,0-0.7,0.1
				c-0.2,0.1-0.4,0.2-0.6,0.4c-0.2,0.2-0.3,0.4-0.5,0.6S59,348,59,348.3L62.8,348.3L62.8,348.3z"/>
			<path d="M65.7,345.8h0.9l0.1,1h0.1c0.3-0.3,0.7-0.6,1-0.9c0.4-0.2,0.8-0.3,1.3-0.3c0.7,0,1.3,0.2,1.6,0.6c0.3,0.4,0.5,1,0.5,1.8
				v3.8h-1v-3.6c0-0.6-0.1-1-0.3-1.3s-0.6-0.4-1.1-0.4c-0.2,0-0.4,0-0.5,0.1c-0.2,0-0.3,0.1-0.5,0.2c-0.1,0.1-0.3,0.2-0.5,0.3
				s-0.3,0.3-0.5,0.5v4.2h-1L65.7,345.8L65.7,345.8z"/>
			<path d="M74.7,346.6h-1.7v-0.8l1.8-0.1l0.1-1.7h0.9v1.7h3v0.8h-3v2.9c0,0.3,0,0.5,0.1,0.7c0.1,0.2,0.1,0.4,0.2,0.5
				c0.1,0.1,0.3,0.2,0.5,0.3c0.2,0.1,0.4,0.1,0.7,0.1s0.6,0,0.8-0.1s0.5-0.1,0.7-0.2l0.2,0.8c-0.3,0.1-0.6,0.2-0.9,0.3
				c-0.3,0.1-0.7,0.1-1,0.1c-0.4,0-0.8-0.1-1.1-0.2c-0.3-0.1-0.5-0.3-0.7-0.5c-0.2-0.2-0.3-0.5-0.4-0.8c-0.1-0.3-0.1-0.6-0.1-1
				L74.7,346.6L74.7,346.6z"/>
		</g>
	</g>
</g>
<g id="Layer_2">
	
		<linearGradient id="XMLID_4_" gradientUnits="userSpaceOnUse" x1="-834.9036" y1="773.9294" x2="-834.9036" y2="631.6201" gradientTransform="matrix(2.244810e-11 1 1 -2.244810e-11 -889.6141 1410.6821)">
		<stop  offset="0" style="stop-color:#000000;stop-opacity:0"/>
		<stop  offset="0.25" style="stop-color:#000000"/>
		<stop  offset="0.5" style="stop-color:#000000"/>
	</linearGradient>
	<polygon id="XMLID_10_" class="st4" points="-115.7,646.9 -115.7,504.6 -258,646.9 -258,504.6 	"/>
	
		<linearGradient id="XMLID_5_" gradientUnits="userSpaceOnUse" x1="-784.7933" y1="682.0184" x2="-784.7933" y2="824.3278" gradientTransform="matrix(2.244810e-11 1 1 -2.244810e-11 -868.8578 1360.5723)">
		<stop  offset="0" style="stop-color:#000000;stop-opacity:0"/>
		<stop  offset="6.576285e-03" style="stop-color:#000000;stop-opacity:2.630514e-02"/>
		<stop  offset="0.25" style="stop-color:#000000"/>
		<stop  offset="0.5" style="stop-color:#000000"/>
	</linearGradient>
	<polygon id="XMLID_8_" class="st5" points="-44.5,646.9 -44.5,504.6 -186.8,646.9 -186.8,504.6 	"/>
	<g>
		<g class="st3">
			<path d="M2205.4,1702.4h11.6v18.2l-0.4,8.6c2.1-2,4.5-3.6,7.2-4.8c2.7-1.2,5.3-1.8,8-1.8c3.2,0,6,0.6,8.5,1.8
				c2.5,1.2,4.6,2.8,6.3,5c1.7,2.2,3,4.8,3.9,7.8c0.9,3.1,1.3,6.5,1.3,10.3c0,4.2-0.6,8-1.8,11.2c-1.2,3.3-2.8,6.1-4.9,8.4
				c-2,2.3-4.4,4-7,5.2c-2.6,1.2-5.4,1.8-8.1,1.8c-2.3,0-4.8-0.6-7.3-1.7c-2.5-1.1-4.9-2.8-7-4.9h-0.3l-1,5.4h-9.1V1702.4z
				 M2217,1760.2c1.8,1.7,3.7,2.8,5.6,3.5c1.9,0.7,3.7,1,5.2,1c3.5,0,6.4-1.4,8.7-4.2c2.3-2.8,3.5-7,3.5-12.6
				c0-4.9-0.9-8.8-2.7-11.5c-1.8-2.7-4.7-4.1-8.7-4.1c-1.9,0-3.8,0.5-5.7,1.4c-1.9,0.9-3.9,2.4-5.9,4.5L2217,1760.2L2217,1760.2z"/>
		</g>
		<g class="st3">
			<path d="M2261.5,1748.5c0-4.1,0.7-7.7,2.1-10.9c1.4-3.2,3.2-5.9,5.4-8.1c2.3-2.2,4.9-3.9,7.9-5.1c3-1.2,6.1-1.8,9.3-1.8
				s6.3,0.6,9.3,1.8c3,1.2,5.6,2.9,7.9,5.1c2.3,2.2,4.1,4.9,5.4,8.1c1.4,3.2,2.1,6.8,2.1,10.9c0,4.1-0.7,7.7-2.1,10.9
				c-1.4,3.2-3.2,5.9-5.4,8.1c-2.3,2.2-4.9,3.9-7.9,5c-3,1.1-6.1,1.7-9.3,1.7s-6.3-0.6-9.3-1.7s-5.6-2.8-7.9-5
				c-2.3-2.2-4.1-4.9-5.4-8.1C2262.2,1756.2,2261.5,1752.5,2261.5,1748.5z M2273.4,1748.5c0,4.9,1.1,8.9,3.4,11.8
				c2.3,3,5.4,4.5,9.4,4.5s7.1-1.5,9.4-4.5c2.3-3,3.4-6.9,3.4-11.8c0-5-1.1-9-3.4-11.9c-2.3-3-5.4-4.5-9.4-4.5s-7.1,1.5-9.4,4.5
				C2274.6,1739.5,2273.4,1743.5,2273.4,1748.5z"/>
		</g>
		<g class="st3">
			<path d="M2315.6,1723.9h32.8v49.1h-11.5v-40h-21.3V1723.9z M2341.8,1715.3c-2.3,0-4.3-0.7-5.9-2.1c-1.6-1.4-2.4-3.3-2.4-5.6
				c0-2.3,0.8-4.2,2.4-5.6c1.6-1.4,3.5-2.1,5.9-2.1c2.4,0,4.4,0.7,5.9,2.1c1.5,1.4,2.3,3.3,2.3,5.6c0,2.3-0.8,4.2-2.3,5.6
				C2346.2,1714.6,2344.2,1715.3,2341.8,1715.3z"/>
		</g>
		<g class="st3">
			<path d="M2361.1,1723.9h32.8v49.1h-11.5v-40h-21.3V1723.9z M2387.3,1715.3c-2.3,0-4.3-0.7-5.9-2.1c-1.6-1.4-2.3-3.3-2.3-5.6
				c0-2.3,0.8-4.2,2.3-5.6c1.6-1.4,3.5-2.1,5.9-2.1c2.4,0,4.4,0.7,5.9,2.1c1.5,1.4,2.3,3.3,2.3,5.6c0,2.3-0.8,4.2-2.3,5.6
				C2391.7,1714.6,2389.7,1715.3,2387.3,1715.3z"/>
		</g>
		<g>
			
				<linearGradient id="SVGID_1_" gradientUnits="userSpaceOnUse" x1="1000.546" y1="-1757.9767" x2="1098.7458" y2="-1757.9767" gradientTransform="matrix(4.489659e-11 1 -1 4.489659e-11 377.8921 674.2104)">
				<stop  offset="0" style="stop-color:#000000"/>
				<stop  offset="0.5" style="stop-color:#000000;stop-opacity:0"/>
				<stop  offset="1" style="stop-color:#000000"/>
			</linearGradient>
			<polygon class="st6" points="2135.9,1773 2135.9,1773 2185,1723.9 2135.9,1674.8 2135.9,1674.8 2086.8,1723.9 			"/>
			<linearGradient id="SVGID_2_" gradientUnits="userSpaceOnUse" x1="2045.3049" y1="1772.9563" x2="2045.3049" y2="1772.9563">
				<stop  offset="0" style="stop-color:#000000;stop-opacity:0"/>
				<stop  offset="6.576285e-03" style="stop-color:#000000;stop-opacity:2.630514e-02"/>
				<stop  offset="0.25" style="stop-color:#000000"/>
				<stop  offset="0.5" style="stop-color:#000000"/>
			</linearGradient>
			<polygon class="st7" points="2045.3,1773 2045.3,1773 2045.3,1773 			"/>
			<g class="st8">
				<polygon class="st9" points="2044.6,1774.2 2080.5,1738.3 2044.6,1702.3 				"/>
				<polygon class="st9" points="2182.5,1702.3 2146.6,1738.3 2182.5,1774.2 				"/>
			</g>
			<linearGradient id="SVGID_3_" gradientUnits="userSpaceOnUse" x1="2116.459" y1="1772.9563" x2="2116.459" y2="1772.9563">
				<stop  offset="0" style="stop-color:#000000;stop-opacity:0"/>
				<stop  offset="6.576285e-03" style="stop-color:#000000;stop-opacity:2.630514e-02"/>
				<stop  offset="0.25" style="stop-color:#000000"/>
				<stop  offset="0.5" style="stop-color:#000000"/>
			</linearGradient>
			<polygon class="st10" points="2116.5,1773 2116.5,1773 2116.5,1773 			"/>
			<g class="st8">
				<linearGradient id="SVGID_4_" gradientUnits="userSpaceOnUse" x1="2080.8821" y1="1737.3793" x2="2116.459" y2="1737.3793">
					<stop  offset="0" style="stop-color:#000000;stop-opacity:0.5"/>
					<stop  offset="1" style="stop-color:#000000;stop-opacity:0"/>
				</linearGradient>
				<polygon class="st11" points="2116.5,1701.8 2080.9,1737.4 2116.5,1773 				"/>
				<linearGradient id="SVGID_5_" gradientUnits="userSpaceOnUse" x1="2080.8821" y1="1808.5333" x2="2116.459" y2="1808.5333">
					<stop  offset="0" style="stop-color:#000000;stop-opacity:0.5"/>
					<stop  offset="1" style="stop-color:#000000;stop-opacity:0"/>
				</linearGradient>
				<polygon class="st12" points="2116.5,1844.1 2116.5,1773 2080.9,1808.5 				"/>
				<linearGradient id="SVGID_6_" gradientUnits="userSpaceOnUse" x1="2045.3051" y1="1808.5333" x2="2080.8821" y2="1808.5333">
					<stop  offset="0" style="stop-color:#000000;stop-opacity:0"/>
					<stop  offset="1" style="stop-color:#000000;stop-opacity:0.5"/>
				</linearGradient>
				<polygon class="st13" points="2045.3,1844.1 2080.9,1808.5 2045.3,1773 				"/>
				<linearGradient id="SVGID_7_" gradientUnits="userSpaceOnUse" x1="2045.3051" y1="1737.3793" x2="2080.8821" y2="1737.3793">
					<stop  offset="0" style="stop-color:#000000;stop-opacity:0"/>
					<stop  offset="1" style="stop-color:#000000;stop-opacity:0.5"/>
				</linearGradient>
				<polygon class="st14" points="2045.3,1701.8 2045.3,1773 2080.9,1737.4 				"/>
			</g>
		</g>
		<text transform="matrix(1 0 0 1 2415.293 1729.8552)" class="st3"><tspan x="0" y="0" class="st15 st24" style="font-family:'SourceCodePro-Regular';">bidirectionally</tspan><tspan x="0" y="14.4" class="st15 st24" style="font-family:'SourceCodePro-Regular';">oriented</tspan><tspan x="0" y="28.8" class="st15 st24" style="font-family:'SourceCodePro-Regular';">intelligent</tspan><tspan x="0" y="43.2" class="st15 st24" style="font-family:'SourceCodePro-Regular';">interface-agent</tspan></text>
	</g>
	<g class="st3">
		<path d="M2949.6,1378.8h11.6v18.2l-0.4,8.6c2.1-2,4.5-3.6,7.2-4.8c2.7-1.2,5.3-1.8,8-1.8c3.2,0,6,0.6,8.5,1.8
			c2.5,1.2,4.6,2.8,6.3,5c1.7,2.2,3.1,4.8,4,7.9c0.9,3.1,1.3,6.5,1.3,10.3c0,4.2-0.6,8-1.8,11.2c-1.2,3.3-2.8,6.1-4.9,8.4
			c-2,2.3-4.4,4-7,5.2c-2.6,1.2-5.4,1.8-8.1,1.8c-2.3,0-4.8-0.6-7.3-1.7c-2.5-1.1-4.9-2.8-7-4.9h-0.3l-1,5.4h-9.1V1378.8z
			 M2961.2,1436.6c1.8,1.7,3.7,2.8,5.6,3.5c1.9,0.7,3.7,1,5.2,1c3.5,0,6.4-1.4,8.7-4.2c2.3-2.8,3.5-7,3.5-12.7
			c0-4.9-0.9-8.8-2.7-11.5c-1.8-2.7-4.7-4.1-8.7-4.1c-1.9,0-3.8,0.5-5.7,1.4c-1.9,0.9-3.9,2.4-5.9,4.5L2961.2,1436.6L2961.2,1436.6z
			"/>
	</g>
	<g class="st3">
		<path d="M3005.7,1424.9c0-4.1,0.7-7.7,2.1-10.9c1.4-3.2,3.2-5.9,5.4-8.1c2.3-2.2,4.9-3.9,7.9-5.1c3-1.2,6.1-1.8,9.3-1.8
			s6.3,0.6,9.3,1.8c3,1.2,5.6,2.8,7.9,5.1c2.3,2.2,4.1,4.9,5.4,8.1c1.4,3.2,2.1,6.8,2.1,10.9c0,4.1-0.7,7.7-2.1,10.9
			c-1.4,3.2-3.2,5.9-5.4,8.1c-2.3,2.2-4.9,3.9-7.9,5c-3,1.1-6.1,1.7-9.3,1.7s-6.3-0.6-9.3-1.7s-5.6-2.8-7.9-5
			c-2.3-2.2-4.1-4.9-5.4-8.1C3006.4,1432.6,3005.7,1428.9,3005.7,1424.9z M3017.6,1424.9c0,4.9,1.1,8.9,3.4,11.8
			c2.3,3,5.4,4.5,9.4,4.5s7.1-1.5,9.4-4.5c2.3-3,3.4-6.9,3.4-11.8c0-5-1.1-9-3.4-12c-2.3-3-5.4-4.4-9.4-4.4s-7.1,1.5-9.4,4.4
			C3018.8,1415.9,3017.6,1419.9,3017.6,1424.9z"/>
	</g>
	<g class="st3">
		<path d="M3059.8,1400.3h32.8v49.1h-11.5v-40h-21.3V1400.3z M3086,1391.7c-2.3,0-4.3-0.7-5.9-2.1c-1.6-1.4-2.4-3.3-2.4-5.6
			c0-2.3,0.8-4.2,2.4-5.6c1.6-1.4,3.5-2.2,5.9-2.2c2.4,0,4.4,0.7,5.9,2.2c1.5,1.4,2.3,3.3,2.3,5.6c0,2.3-0.8,4.2-2.3,5.6
			C3090.4,1391,3088.4,1391.7,3086,1391.7z"/>
	</g>
	<g class="st3">
		<path d="M3105.3,1400.3h32.8v49.1h-11.5v-40h-21.3V1400.3z M3131.5,1391.7c-2.3,0-4.3-0.7-5.9-2.1c-1.6-1.4-2.4-3.3-2.4-5.6
			c0-2.3,0.8-4.2,2.4-5.6c1.6-1.4,3.5-2.2,5.9-2.2c2.4,0,4.4,0.7,5.9,2.2c1.5,1.4,2.3,3.3,2.3,5.6c0,2.3-0.8,4.2-2.3,5.6
			C3135.9,1391,3133.9,1391.7,3131.5,1391.7z"/>
	</g>
	<g>
		
			<linearGradient id="SVGID_8_" gradientUnits="userSpaceOnUse" x1="676.9675" y1="-2502.1926" x2="775.1674" y2="-2502.1926" gradientTransform="matrix(-1 0 0 -1 3606.1523 -1101.9149)">
			<stop  offset="0" style="stop-color:#000000"/>
			<stop  offset="0.5" style="stop-color:#000000;stop-opacity:0"/>
			<stop  offset="1" style="stop-color:#000000"/>
		</linearGradient>
		<polygon class="st16" points="2831,1400.3 2831,1400.3 2880.1,1449.4 2929.2,1400.3 2929.2,1400.3 2880.1,1351.2 		"/>
		<linearGradient id="SVGID_9_" gradientUnits="userSpaceOnUse" x1="2789.521" y1="1449.3778" x2="2789.521" y2="1449.3778">
			<stop  offset="0" style="stop-color:#000000;stop-opacity:0"/>
			<stop  offset="6.576285e-03" style="stop-color:#000000;stop-opacity:2.630514e-02"/>
			<stop  offset="0.25" style="stop-color:#000000"/>
			<stop  offset="0.5" style="stop-color:#000000"/>
		</linearGradient>
		<polygon class="st17" points="2789.5,1449.4 2789.5,1449.4 2789.5,1449.4 		"/>
		<linearGradient id="SVGID_10_" gradientUnits="userSpaceOnUse" x1="2860.675" y1="1449.3778" x2="2860.675" y2="1449.3778">
			<stop  offset="0" style="stop-color:#000000;stop-opacity:0"/>
			<stop  offset="6.576285e-03" style="stop-color:#000000;stop-opacity:2.630514e-02"/>
			<stop  offset="0.25" style="stop-color:#000000"/>
			<stop  offset="0.5" style="stop-color:#000000"/>
		</linearGradient>
		<polygon class="st18" points="2860.7,1449.4 2860.7,1449.4 2860.7,1449.4 		"/>
		<g class="st8">
			<linearGradient id="SVGID_11_" gradientUnits="userSpaceOnUse" x1="2825.0979" y1="1413.8008" x2="2860.675" y2="1413.8008">
				<stop  offset="0" style="stop-color:#000000;stop-opacity:0.5"/>
				<stop  offset="1" style="stop-color:#000000;stop-opacity:0"/>
			</linearGradient>
			<polygon class="st19" points="2860.7,1378.2 2825.1,1413.8 2860.7,1449.4 			"/>
			<linearGradient id="SVGID_12_" gradientUnits="userSpaceOnUse" x1="2825.0979" y1="1484.9547" x2="2860.675" y2="1484.9547">
				<stop  offset="0" style="stop-color:#000000;stop-opacity:0.5"/>
				<stop  offset="1" style="stop-color:#000000;stop-opacity:0"/>
			</linearGradient>
			<polygon class="st20" points="2860.7,1520.5 2860.7,1449.4 2825.1,1485 			"/>
			<linearGradient id="SVGID_13_" gradientUnits="userSpaceOnUse" x1="2789.521" y1="1484.9547" x2="2825.0979" y2="1484.9547">
				<stop  offset="0" style="stop-color:#000000;stop-opacity:0"/>
				<stop  offset="1" style="stop-color:#000000;stop-opacity:0.5"/>
			</linearGradient>
			<polygon class="st21" points="2789.5,1520.5 2825.1,1485 2789.5,1449.4 			"/>
			<linearGradient id="SVGID_14_" gradientUnits="userSpaceOnUse" x1="2789.521" y1="1413.8008" x2="2825.0979" y2="1413.8008">
				<stop  offset="0" style="stop-color:#000000;stop-opacity:0"/>
				<stop  offset="1" style="stop-color:#000000;stop-opacity:0.5"/>
			</linearGradient>
			<polygon class="st22" points="2789.5,1378.2 2789.5,1449.4 2825.1,1413.8 			"/>
		</g>
	</g>
	<text transform="matrix(1 0 0 1 3159.509 1406.2767)" class="st3"><tspan x="0" y="0" class="st15 st24" style="font-family:'SourceCodePro-Regular';">bidirectionally</tspan><tspan x="0" y="14.4" class="st15 st24" style="font-family:'SourceCodePro-Regular';">oriented</tspan><tspan x="0" y="28.8" class="st15 st24" style="font-family:'SourceCodePro-Regular';">intelligent</tspan><tspan x="0" y="43.2" class="st15 st24" style="font-family:'SourceCodePro-Regular';">interface-agent</tspan></text>
	<polyline points="161.2,1697.3 161.2,1746.4 149.7,1746.4 149.7,1706.4 	"/>
	<polyline points="197.5,1705.7 197.5,1754.8 186,1754.8 186,1714.8 	"/>
	<g>
		<g class="st3">
			<path d="M-326.1,1468.7h11.6v18.2l-0.4,8.6c2.1-2,4.5-3.6,7.2-4.8c2.7-1.2,5.3-1.8,8-1.8c3.2,0,6,0.6,8.5,1.8
				c2.5,1.2,4.6,2.8,6.3,5c1.7,2.2,3.1,4.8,4,7.8c0.9,3.1,1.4,6.5,1.4,10.3c0,4.2-0.6,7.9-1.8,11.2c-1.2,3.3-2.8,6.1-4.9,8.4
				c-2,2.3-4.4,4-7,5.2c-2.6,1.2-5.4,1.8-8.1,1.8c-2.3,0-4.8-0.6-7.3-1.7c-2.5-1.1-4.9-2.8-7-4.9h-0.3l-1,5.4h-9.1V1468.7z
				 M-314.5,1526.5c1.8,1.7,3.7,2.8,5.6,3.5c1.9,0.7,3.7,1,5.2,1c3.5,0,6.4-1.4,8.7-4.2c2.3-2.8,3.5-7.1,3.5-12.7
				c0-4.9-0.9-8.8-2.7-11.5c-1.8-2.7-4.7-4.1-8.7-4.1c-1.9,0-3.8,0.5-5.7,1.4c-1.9,0.9-3.9,2.4-5.9,4.5L-314.5,1526.5L-314.5,1526.5
				z"/>
		</g>
		<g class="st3">
			<path d="M-270,1514.8c0-4.1,0.7-7.7,2.1-10.9c1.4-3.2,3.2-5.9,5.4-8.1c2.3-2.2,4.9-3.9,7.9-5.1c3-1.2,6.1-1.8,9.3-1.8
				s6.3,0.6,9.3,1.8c3,1.2,5.6,2.8,7.9,5.1c2.3,2.2,4.1,4.9,5.4,8.1c1.4,3.2,2.1,6.8,2.1,10.9c0,4.1-0.7,7.7-2.1,10.9
				c-1.4,3.2-3.2,5.9-5.4,8.1c-2.3,2.2-4.9,3.9-7.9,5c-3,1.1-6.1,1.7-9.3,1.7c-3.2,0-6.3-0.6-9.3-1.7c-3-1.1-5.6-2.8-7.9-5
				c-2.3-2.2-4.1-4.9-5.4-8.1C-269.4,1522.5-270,1518.8-270,1514.8z M-258.1,1514.8c0,4.9,1.1,8.9,3.4,11.8c2.3,3,5.4,4.4,9.4,4.4
				s7.1-1.5,9.4-4.4c2.3-3,3.4-6.9,3.4-11.8c0-5-1.1-9-3.4-12c-2.3-3-5.4-4.4-9.4-4.4c-4,0-7.1,1.5-9.4,4.4
				C-257,1505.8-258.1,1509.8-258.1,1514.8z"/>
		</g>
		<g class="st3">
			<path d="M-215.9,1490.2h32.8v49.1h-11.5v-40h-21.3V1490.2z M-189.7,1481.6c-2.3,0-4.3-0.7-5.9-2.1c-1.6-1.4-2.3-3.3-2.3-5.6
				c0-2.3,0.8-4.2,2.3-5.6c1.6-1.4,3.5-2.2,5.9-2.2c2.4,0,4.4,0.7,5.9,2.2c1.5,1.4,2.3,3.3,2.3,5.6c0,2.3-0.8,4.2-2.3,5.6
				C-185.4,1480.9-187.3,1481.6-189.7,1481.6z"/>
		</g>
		<g class="st3">
			<path d="M-170.4,1490.2h32.8v49.1h-11.5v-40h-21.3V1490.2z M-144.2,1481.6c-2.3,0-4.3-0.7-5.9-2.1c-1.6-1.4-2.4-3.3-2.4-5.6
				c0-2.3,0.8-4.2,2.4-5.6c1.6-1.4,3.5-2.2,5.9-2.2c2.4,0,4.4,0.7,5.9,2.2c1.5,1.4,2.3,3.3,2.3,5.6c0,2.3-0.8,4.2-2.3,5.6
				C-139.9,1480.9-141.8,1481.6-144.2,1481.6z"/>
		</g>
		<text transform="matrix(1 0 0 1 -115.6427 1496.1757)" class="st3"><tspan x="0" y="0" class="st15 st23 st24">bidirectionally</tspan><tspan x="0" y="14.4" class="st15 st23 st24">oriented</tspan><tspan x="0" y="28.8" class="st15 st23 st24">intelligent</tspan><tspan x="0" y="43.2" class="st15 st23 st24">interface-agent</tspan></text>
	</g>
	
		<linearGradient id="SVGID_15_" gradientUnits="userSpaceOnUse" x1="766.8664" y1="776.1323" x2="865.0662" y2="776.1323" gradientTransform="matrix(4.489659e-11 1 -1 4.489659e-11 377.8921 674.2104)">
		<stop  offset="0" style="stop-color:#000000"/>
		<stop  offset="0.5" style="stop-color:#000000;stop-opacity:0"/>
		<stop  offset="1" style="stop-color:#000000"/>
	</linearGradient>
	<polygon class="st25" points="-398.2,1539.3 -398.2,1539.3 -349.1,1490.2 -398.2,1441.1 -398.2,1441.1 -447.3,1490.2 	"/>
	<polyline class="st26" points="-447.3,1392 -414.5,1392 -414.5,1441.1 -426,1441.1 -426,1401.1 -447.3,1401.1 	"/>
	<polyline class="st26" points="41.7,1506.5 41.7,1539.3 -7.4,1539.3 -7.4,1527.8 32.6,1527.8 32.6,1506.5 	"/>
	<polyline class="st26" points="-447.3,1506.5 -447.3,1539.3 -496.4,1539.3 -496.4,1527.8 -456.4,1527.8 -456.4,1506.5 	"/>
	<polyline class="st26" points="-447.3,1539.3 -414.5,1539.3 -414.5,1588.4 -426,1588.4 -426,1548.4 -447.3,1548.4 	"/>
	<rect x="-496.4" y="1392" class="st27" width="538.1" height="196.4"/>
	<rect x="-447.3" y="1441.1" class="st27" width="439.9" height="98.2"/>
	<g>
		<g>
			<g class="st3">
				<path d="M3023,1774h11.6v18.2l-0.4,8.6c2.1-2,4.5-3.6,7.2-4.8c2.7-1.2,5.3-1.8,8-1.8c3.2,0,6,0.6,8.5,1.8c2.5,1.2,4.6,2.8,6.3,5
					c1.7,2.2,3.1,4.8,4,7.8c0.9,3.1,1.3,6.5,1.3,10.3c0,4.2-0.6,7.9-1.8,11.2c-1.2,3.3-2.8,6.1-4.9,8.4c-2,2.3-4.4,4-7,5.2
					c-2.6,1.2-5.4,1.8-8.1,1.8c-2.3,0-4.8-0.6-7.3-1.7c-2.5-1.1-4.9-2.8-7-4.9h-0.3l-1,5.4h-9.1V1774z M3034.6,1831.8
					c1.8,1.7,3.7,2.8,5.6,3.5c1.9,0.7,3.7,1,5.2,1c3.5,0,6.4-1.4,8.7-4.2c2.3-2.8,3.5-7.1,3.5-12.7c0-4.9-0.9-8.8-2.7-11.5
					c-1.8-2.7-4.7-4.1-8.7-4.1c-1.9,0-3.8,0.5-5.7,1.4c-1.9,0.9-3.9,2.4-5.9,4.5L3034.6,1831.8L3034.6,1831.8z"/>
			</g>
			<g class="st3">
				<path d="M3079.1,1820.1c0-4.1,0.7-7.7,2.1-10.9c1.4-3.2,3.2-5.9,5.4-8.1c2.3-2.2,4.9-3.9,7.9-5.1c3-1.2,6.1-1.8,9.3-1.8
					c3.2,0,6.3,0.6,9.3,1.8c3,1.2,5.6,2.8,7.9,5.1c2.3,2.2,4.1,4.9,5.4,8.1c1.4,3.2,2.1,6.8,2.1,10.9c0,4.1-0.7,7.7-2.1,10.9
					c-1.4,3.2-3.2,5.9-5.4,8.1c-2.3,2.2-4.9,3.9-7.9,5c-3,1.1-6.1,1.7-9.3,1.7c-3.2,0-6.3-0.6-9.3-1.7c-3-1.1-5.6-2.8-7.9-5
					c-2.3-2.2-4.1-4.9-5.4-8.1C3079.8,1827.8,3079.1,1824.2,3079.1,1820.1z M3091,1820.1c0,4.9,1.1,8.9,3.4,11.8
					c2.3,3,5.4,4.4,9.4,4.4s7.1-1.5,9.4-4.4c2.3-3,3.4-6.9,3.4-11.8c0-5-1.1-9-3.4-12c-2.3-3-5.4-4.4-9.4-4.4s-7.1,1.5-9.4,4.4
					C3092.1,1811.1,3091,1815.1,3091,1820.1z"/>
			</g>
			<g class="st3">
				<path d="M3133.2,1795.5h32.8v49.1h-11.5v-40h-21.3V1795.5z M3159.4,1786.9c-2.3,0-4.3-0.7-5.9-2.1c-1.6-1.4-2.4-3.3-2.4-5.6
					c0-2.3,0.8-4.2,2.4-5.6c1.6-1.4,3.5-2.2,5.9-2.2c2.4,0,4.4,0.7,5.9,2.2c1.5,1.4,2.3,3.3,2.3,5.6c0,2.3-0.8,4.2-2.3,5.6
					C3163.8,1786.2,3161.8,1786.9,3159.4,1786.9z"/>
			</g>
			<g class="st3">
				<path d="M3178.7,1795.5h32.8v49.1H3200v-40h-21.3V1795.5z M3204.9,1786.9c-2.3,0-4.3-0.7-5.9-2.1c-1.6-1.4-2.4-3.3-2.4-5.6
					c0-2.3,0.8-4.2,2.4-5.6c1.6-1.4,3.5-2.2,5.9-2.2c2.4,0,4.4,0.7,5.9,2.2c1.5,1.4,2.3,3.3,2.3,5.6c0,2.3-0.8,4.2-2.3,5.6
					C3209.2,1786.2,3207.3,1786.9,3204.9,1786.9z"/>
			</g>
			<text transform="matrix(1 0 0 1 3233.4849 1801.5156)" class="st3"><tspan x="0" y="0" class="st15 st23 st24">bidirectionally</tspan><tspan x="0" y="14.4" class="st15 st23 st24">oriented</tspan><tspan x="0" y="28.8" class="st15 st23 st24">intelligent</tspan><tspan x="0" y="43.2" class="st15 st23 st24">interface-agent</tspan></text>
		</g>
		
			<linearGradient id="SVGID_16_" gradientUnits="userSpaceOnUse" x1="1072.2063" y1="-2572.9951" x2="1170.4061" y2="-2572.9951" gradientTransform="matrix(4.489659e-11 1 -1 4.489659e-11 377.8921 674.2104)">
			<stop  offset="0" style="stop-color:#000000"/>
			<stop  offset="0.5" style="stop-color:#000000;stop-opacity:0"/>
			<stop  offset="1" style="stop-color:#000000"/>
		</linearGradient>
		<polygon class="st28" points="2950.9,1844.6 2950.9,1844.6 3000,1795.5 2950.9,1746.4 2950.9,1746.4 2901.8,1795.5 		"/>
		<polyline points="3001.8,1724.9 3034.6,1724.9 3034.6,1774 3023.1,1774 3023.1,1734 3001.8,1734 		"/>
		<polyline points="2924.7,1697.3 2957.5,1697.3 2957.5,1746.4 2946,1746.4 2946,1706.4 2924.7,1706.4 		"/>
		<polyline points="3390.8,1770.5 3390.8,1803.3 3341.7,1803.3 3341.7,1791.8 3381.7,1791.8 3381.7,1770.5 		"/>
		<polyline points="2901.8,1782.2 2901.8,1815 2852.7,1815 2852.7,1803.5 2892.7,1803.5 2892.7,1782.2 		"/>
		<polyline points="2932.1,1844.6 2964.9,1844.6 2964.9,1893.7 2953.4,1893.7 2953.4,1853.7 2932.1,1853.7 		"/>
		<rect x="2852.7" y="1697.3" class="st2" width="538.1" height="196.4"/>
	</g>
</g>
</svg>
