<?xml version="1.0" encoding="utf-8"?>
<!-- Generator: Adobe Illustrator 19.0.0, SVG Export Plug-In . SVG Version: 6.00 Build 0)  -->
<svg version="1.1" id="Layer_1" xmlns="http://www.w3.org/2000/svg" xmlns:xlink="http://www.w3.org/1999/xlink" x="0px" y="0px"
	 viewBox="0 0 255.36 171.21" enable-background="new 0 0 255.36 171.21" xml:space="preserve">
<g id="XMLID_80_">
	
		<line id="XMLID_127_" fill="none" stroke="#FFFFFF" stroke-width="1.35" stroke-dasharray="10.622,10.622" x1="161.871" y1="36.558" x2="161.871" y2="20.625"/>
	
		<line id="XMLID_126_" fill="none" stroke="#FFFFFF" stroke-width="1.35" stroke-dasharray="12.656,12.656" x1="142.887" y1="10.002" x2="22.657" y2="10.002"/>
	
		<line id="XMLID_125_" fill="none" stroke="#FFFFFF" stroke-width="1.35" stroke-dasharray="12.6,12.6" x1="10.002" y1="28.903" x2="10.002" y2="148.607"/>
	
		<line id="XMLID_124_" fill="none" stroke="#FFFFFF" stroke-width="1.35" stroke-dasharray="12.656,12.656" x1="28.985" y1="161.208" x2="149.215" y2="161.208"/>
	<path id="XMLID_117_" fill="none" stroke="#FFFFFF" stroke-width="1.35" d="M161.871,151.663v-3.182 M155.543,161.207h6.328v-3.181
		 M10.001,154.907v6.3h6.328 M16.329,10.002h-6.328v6.3 M161.871,15.313v-5.311h-6.328 M161.871,52.491V47.18"/>
	<line id="XMLID_116_" fill="none" stroke="#FFFFFF" stroke-width="1.35" x1="107.485" y1="100.829" x2="80.005" y2="100.829"/>
	<polyline id="XMLID_115_" fill="none" stroke="#FFFFFF" stroke-width="1.35" points="84.386,96.755 80.005,100.829 84.386,104.902 
			"/>
	<line id="XMLID_114_" fill="none" stroke="#FFFFFF" stroke-width="0.45" x1="190.99" y1="85.605" x2="162.849" y2="85.605"/>
	<polyline id="XMLID_113_" fill="none" stroke="#FFFFFF" stroke-width="0.45" points="166.262,82.431 162.849,85.605 
		166.262,88.778 	"/>
	<line id="XMLID_112_" fill="none" stroke="#FFFFFF" stroke-width="0.45" x1="218.205" y1="136.669" x2="218.205" y2="93.851"/>
	<line id="XMLID_111_" fill="none" stroke="#FFFFFF" stroke-width="0.45" x1="48.645" y1="136.669" x2="48.645" y2="107.808"/>
	<line id="XMLID_110_" fill="none" stroke="#FFFFFF" stroke-width="0.45" x1="91.411" y1="70.381" x2="91.411" y2="34.541"/>
	<line id="XMLID_109_" fill="none" stroke="#FFFFFF" stroke-width="0.45" x1="107.485" y1="85.605" x2="79.344" y2="85.605"/>
	<polyline id="XMLID_108_" fill="none" stroke="#FFFFFF" stroke-width="0.45" points="82.757,82.431 79.344,85.605 82.757,88.778 	
		"/>
	<line id="XMLID_107_" fill="none" stroke="#FFFFFF" stroke-width="1.35" x1="78.416" y1="70.381" x2="105.896" y2="70.381"/>
	<polyline id="XMLID_106_" fill="none" stroke="#FFFFFF" stroke-width="1.35" points="101.515,74.455 105.896,70.381 
		101.515,66.308 	"/>
	
		<rect id="XMLID_104_" x="191.051" y="78.035" fill="#FFFFFF" stroke="#E17A3F" stroke-width="1.35" width="54.308" height="15.14"/>
	<rect id="XMLID_103_" x="23.939" y="64.078" fill="#FFFFFF" width="54.4" height="43.054"/>
	<g id="XMLID_344_">
		<path id="XMLID_345_" fill="#80A750" d="M32.899,83.4h0.94v3.046c0,1.15,0.438,1.531,1.078,1.531c0.648,0,1.094-0.381,1.094-1.531
			V83.4h0.908v2.974c0,1.742-0.778,2.422-2.001,2.422c-1.231,0-2.018-0.681-2.018-2.422V83.4z"/>
		<path id="XMLID_347_" fill="#80A750" d="M38.18,87.646c0.356,0.275,0.697,0.445,1.102,0.445c0.43,0,0.632-0.202,0.632-0.478
			c0-0.332-0.429-0.478-0.851-0.64c-0.527-0.195-1.118-0.495-1.118-1.159c0-0.697,0.559-1.191,1.45-1.191
			c0.551,0,0.997,0.227,1.321,0.478l-0.429,0.567c-0.275-0.203-0.559-0.34-0.875-0.34c-0.397,0-0.583,0.187-0.583,0.438
			c0,0.308,0.397,0.438,0.826,0.591c0.543,0.203,1.143,0.462,1.143,1.208c0,0.681-0.543,1.231-1.547,1.231
			c-0.543,0-1.118-0.235-1.507-0.551L38.18,87.646z"/>
		<path id="XMLID_349_" fill="#80A750" d="M43.203,84.623c1.077,0,1.645,0.778,1.645,1.888c0,0.178-0.016,0.34-0.041,0.438H42.28
			c0.081,0.721,0.535,1.126,1.175,1.126c0.34,0,0.632-0.105,0.924-0.292l0.316,0.583c-0.381,0.251-0.859,0.429-1.361,0.429
			c-1.102,0-1.961-0.77-1.961-2.082C41.372,85.418,42.271,84.623,43.203,84.623z M44.038,86.357c0-0.632-0.268-1.013-0.811-1.013
			c-0.47,0-0.875,0.349-0.956,1.013H44.038z"/>
		<path id="XMLID_352_" fill="#80A750" d="M45.738,84.72h0.77l0.065,0.705h0.032c0.284-0.519,0.705-0.802,1.126-0.802
			c0.203,0,0.333,0.024,0.454,0.081l-0.162,0.811c-0.138-0.041-0.243-0.065-0.413-0.065c-0.316,0-0.697,0.219-0.94,0.818v2.431
			h-0.932V84.72z"/>
	</g>
	<rect id="XMLID_101_" x="23.939" y="64.078" fill="none" stroke="#E17A3F" stroke-width="1.35" width="54.4" height="43.054"/>
	<g id="XMLID_327_">
		<path id="XMLID_328_" fill="#FFFFFF" d="M19.501,15.507c0.648,0,1.175,0.316,1.507,0.672l-0.519,0.583
			c-0.276-0.268-0.576-0.438-0.98-0.438c-0.867,0-1.491,0.729-1.491,1.92c0,1.208,0.575,1.937,1.458,1.937
			c0.47,0,0.818-0.194,1.118-0.526l0.519,0.575c-0.429,0.494-0.98,0.77-1.653,0.77c-1.345,0-2.406-0.972-2.406-2.73
			C17.055,16.536,18.14,15.507,19.501,15.507z"/>
		<path id="XMLID_330_" fill="#FFFFFF" d="M23.535,16.828c0.997,0,1.896,0.762,1.896,2.091c0,1.32-0.899,2.082-1.896,2.082
			c-0.989,0-1.888-0.762-1.888-2.082C21.647,17.589,22.546,16.828,23.535,16.828z M23.535,20.239c0.583,0,0.94-0.526,0.94-1.32
			c0-0.802-0.357-1.329-0.94-1.329c-0.583,0-0.932,0.527-0.932,1.329C22.603,19.712,22.951,20.239,23.535,20.239z"/>
		<path id="XMLID_333_" fill="#FFFFFF" d="M26.353,16.925h0.77l0.064,0.535h0.033c0.356-0.349,0.762-0.632,1.304-0.632
			c0.851,0,1.224,0.576,1.224,1.58v2.496h-0.932v-2.374c0-0.656-0.187-0.899-0.624-0.899c-0.348,0-0.575,0.17-0.907,0.494v2.779
			h-0.932V16.925z"/>
		<path id="XMLID_335_" fill="#FFFFFF" d="M31.027,17.662H30.46v-0.697l0.616-0.041l0.113-1.085h0.778v1.085h1.013v0.737h-1.013
			v1.896c0,0.47,0.178,0.697,0.559,0.697c0.138,0,0.3-0.04,0.414-0.089l0.162,0.688c-0.219,0.073-0.494,0.146-0.81,0.146
			c-0.924,0-1.264-0.583-1.264-1.442V17.662z"/>
		<path id="XMLID_337_" fill="#FFFFFF" d="M35.386,16.828c1.078,0,1.645,0.778,1.645,1.888c0,0.178-0.016,0.34-0.041,0.438h-2.528
			c0.081,0.721,0.535,1.126,1.175,1.126c0.34,0,0.632-0.105,0.924-0.292l0.316,0.583c-0.381,0.251-0.859,0.429-1.361,0.429
			c-1.102,0-1.961-0.77-1.961-2.082C33.554,17.622,34.453,16.828,35.386,16.828z M36.22,18.562c0-0.632-0.268-1.013-0.811-1.013
			c-0.47,0-0.875,0.349-0.956,1.013H36.22z"/>
		<path id="XMLID_340_" fill="#FFFFFF" d="M38.706,18.829l-1.183-1.904h1.005l0.446,0.754c0.113,0.219,0.243,0.454,0.364,0.672
			h0.033c0.097-0.219,0.21-0.454,0.308-0.672l0.381-0.754h0.964l-1.175,2.01l1.264,1.969h-1.004l-0.486-0.786
			c-0.129-0.235-0.268-0.478-0.405-0.705h-0.032c-0.113,0.227-0.235,0.462-0.349,0.705l-0.421,0.786h-0.973L38.706,18.829z"/>
		<path id="XMLID_342_" fill="#FFFFFF" d="M41.953,17.662h-0.567v-0.697l0.616-0.041l0.113-1.085h0.778v1.085h1.013v0.737h-1.013
			v1.896c0,0.47,0.178,0.697,0.559,0.697c0.138,0,0.3-0.04,0.414-0.089l0.162,0.688c-0.219,0.073-0.494,0.146-0.81,0.146
			c-0.924,0-1.264-0.583-1.264-1.442V17.662z"/>
	</g>
	<rect id="XMLID_97_" x="107.563" y="64.078" fill="#FFFFFF" width="54.308" height="12.607"/>
	<rect id="XMLID_94_" x="191.051" y="136.443" fill="#FFFFFF" width="54.308" height="12.607"/>
	<g id="XMLID_266_">
		<path id="XMLID_267_" fill="#DE3E67" d="M195.664,143.929c0.254,0.238,0.595,0.399,0.924,0.399c0.395,0,0.616-0.178,0.616-0.454
			c0-0.292-0.228-0.383-0.552-0.519l-0.48-0.21c-0.351-0.146-0.713-0.421-0.713-0.94c0-0.562,0.497-0.994,1.183-0.994
			c0.416,0,0.816,0.173,1.092,0.449l-0.324,0.399c-0.222-0.189-0.465-0.302-0.768-0.302c-0.335,0-0.551,0.156-0.551,0.416
			c0,0.275,0.271,0.378,0.562,0.497l0.476,0.2c0.422,0.178,0.713,0.443,0.713,0.956c0,0.572-0.475,1.048-1.269,1.048
			c-0.476,0-0.935-0.189-1.27-0.519L195.664,143.929z"/>
		<path id="XMLID_269_" fill="#DE3E67" d="M199.472,142.093c0.718,0,1.097,0.519,1.097,1.258c0,0.119-0.011,0.227-0.027,0.292
			h-1.686c0.055,0.481,0.356,0.751,0.783,0.751c0.228,0,0.422-0.07,0.616-0.194l0.211,0.389c-0.254,0.167-0.573,0.287-0.908,0.287
			c-0.734,0-1.307-0.513-1.307-1.388C198.251,142.622,198.851,142.093,199.472,142.093z M200.029,143.249
			c0-0.421-0.179-0.675-0.541-0.675c-0.312,0-0.583,0.232-0.637,0.675H200.029z"/>
		<path id="XMLID_272_" fill="#DE3E67" d="M201.161,142.157h0.513l0.043,0.356h0.022c0.237-0.232,0.508-0.421,0.869-0.421
			c0.567,0,0.815,0.383,0.815,1.053v1.664h-0.621v-1.583c0-0.438-0.124-0.6-0.416-0.6c-0.231,0-0.383,0.113-0.604,0.33v1.853h-0.621
			V142.157z"/>
		<path id="XMLID_274_" fill="#DE3E67" d="M205.147,142.093c0.303,0,0.492,0.113,0.697,0.292l-0.021-0.427v-0.961h0.621v3.813
			h-0.514l-0.043-0.286h-0.021c-0.194,0.194-0.465,0.351-0.751,0.351c-0.664,0-1.091-0.513-1.091-1.388
			C204.024,142.622,204.569,142.093,205.147,142.093z M205.266,144.361c0.205,0,0.378-0.092,0.557-0.297v-1.237
			c-0.184-0.162-0.362-0.222-0.54-0.222c-0.341,0-0.616,0.319-0.616,0.875C204.666,144.053,204.882,144.361,205.266,144.361z"/>
		<path id="XMLID_277_" fill="#DE3E67" d="M208.28,142.093c0.719,0,1.097,0.519,1.097,1.258c0,0.119-0.011,0.227-0.027,0.292h-1.686
			c0.055,0.481,0.356,0.751,0.783,0.751c0.228,0,0.422-0.07,0.616-0.194l0.211,0.389c-0.254,0.167-0.573,0.287-0.908,0.287
			c-0.734,0-1.307-0.513-1.307-1.388C207.059,142.622,207.659,142.093,208.28,142.093z M208.836,143.249
			c0-0.421-0.179-0.675-0.541-0.675c-0.312,0-0.583,0.232-0.637,0.675H208.836z"/>
		<path id="XMLID_280_" fill="#DE3E67" d="M209.969,142.157h0.513l0.044,0.47h0.021c0.188-0.346,0.47-0.535,0.75-0.535
			c0.136,0,0.222,0.016,0.303,0.054l-0.107,0.54c-0.092-0.027-0.162-0.043-0.275-0.043c-0.211,0-0.465,0.146-0.627,0.545v1.621
			h-0.621V142.157z"/>
	</g>
	<rect id="XMLID_92_" x="191.051" y="136.443" fill="none" stroke="#E17A3F" stroke-width="0.45" width="54.308" height="12.607"/>
	<rect id="XMLID_91_" x="23.939" y="136.443" fill="#FFFFFF" width="54.308" height="12.607"/>
	<g id="XMLID_244_">
		<path id="XMLID_245_" fill="#80A750" d="M30.356,144.81l-0.761-1.383H29.06v1.383h-0.626v-3.533h1.188
			c0.734,0,1.302,0.259,1.302,1.048c0,0.541-0.281,0.864-0.708,1.01l0.843,1.475H30.356z M29.06,142.93h0.497
			c0.486,0,0.746-0.205,0.746-0.605c0-0.405-0.259-0.545-0.746-0.545H29.06V142.93z"/>
		<path id="XMLID_248_" fill="#80A750" d="M32.651,142.093c0.718,0,1.096,0.519,1.096,1.258c0,0.119-0.011,0.227-0.027,0.292h-1.685
			c0.054,0.481,0.356,0.751,0.783,0.751c0.227,0,0.421-0.07,0.616-0.194l0.21,0.389c-0.254,0.167-0.572,0.287-0.907,0.287
			c-0.735,0-1.307-0.513-1.307-1.388C31.43,142.622,32.03,142.093,32.651,142.093z M33.207,143.249c0-0.421-0.178-0.675-0.54-0.675
			c-0.313,0-0.583,0.232-0.638,0.675H33.207z"/>
		<path id="XMLID_251_" fill="#80A750" d="M35.497,142.093c0.34,0,0.6,0.135,0.778,0.308l-0.297,0.395
			c-0.141-0.125-0.281-0.195-0.449-0.195c-0.427,0-0.724,0.351-0.724,0.886c0,0.529,0.292,0.88,0.708,0.88
			c0.216,0,0.4-0.108,0.545-0.227l0.259,0.395c-0.248,0.221-0.567,0.34-0.87,0.34c-0.724,0-1.28-0.508-1.28-1.388
			C34.168,142.6,34.789,142.093,35.497,142.093z"/>
		<path id="XMLID_253_" fill="#80A750" d="M37.884,142.093c0.718,0,1.096,0.519,1.096,1.258c0,0.119-0.011,0.227-0.027,0.292h-1.685
			c0.054,0.481,0.356,0.751,0.783,0.751c0.227,0,0.421-0.07,0.616-0.194l0.21,0.389c-0.254,0.167-0.572,0.287-0.907,0.287
			c-0.735,0-1.307-0.513-1.307-1.388C36.663,142.622,37.262,142.093,37.884,142.093z M38.44,143.249c0-0.421-0.178-0.675-0.54-0.675
			c-0.313,0-0.583,0.232-0.638,0.675H38.44z"/>
		<path id="XMLID_256_" fill="#80A750" d="M39.503,141.342c0-0.211,0.162-0.356,0.383-0.356c0.222,0,0.384,0.146,0.384,0.356
			c0,0.205-0.162,0.351-0.384,0.351C39.665,141.693,39.503,141.547,39.503,141.342z M39.574,142.157h0.621v2.652h-0.621V142.157z"/>
		<path id="XMLID_259_" fill="#80A750" d="M40.659,142.157h0.632l0.421,1.377c0.07,0.259,0.151,0.529,0.222,0.799h0.021
			c0.076-0.27,0.151-0.54,0.227-0.799l0.421-1.377h0.6l-0.902,2.652h-0.719L40.659,142.157z"/>
		<path id="XMLID_261_" fill="#80A750" d="M44.709,142.093c0.718,0,1.096,0.519,1.096,1.258c0,0.119-0.011,0.227-0.027,0.292h-1.685
			c0.054,0.481,0.356,0.751,0.783,0.751c0.227,0,0.421-0.07,0.616-0.194l0.21,0.389c-0.254,0.167-0.572,0.287-0.907,0.287
			c-0.735,0-1.307-0.513-1.307-1.388C43.489,142.622,44.088,142.093,44.709,142.093z M45.265,143.249
			c0-0.421-0.178-0.675-0.54-0.675c-0.313,0-0.583,0.232-0.637,0.675H45.265z"/>
		<path id="XMLID_264_" fill="#80A750" d="M46.399,142.157h0.513l0.043,0.47h0.021c0.189-0.346,0.47-0.535,0.751-0.535
			c0.135,0,0.222,0.016,0.302,0.054l-0.108,0.54c-0.092-0.027-0.162-0.043-0.275-0.043c-0.21,0-0.464,0.146-0.626,0.545v1.621
			h-0.621V142.157z"/>
	</g>
	<rect id="XMLID_89_" x="23.939" y="136.443" fill="none" stroke="#E17A3F" stroke-width="0.45" width="54.308" height="12.607"/>
	
		<rect id="XMLID_88_" x="79.239" y="22.159" fill="#FFFFFF" stroke="#FFFFFF" stroke-miterlimit="10" width="27.425" height="12.607"/>
	<g id="XMLID_227_">
		<path id="XMLID_228_" fill="#231F20" d="M85.176,26.928c0.432,0,0.783,0.211,1.004,0.449l-0.346,0.389
			c-0.184-0.178-0.383-0.292-0.653-0.292c-0.578,0-0.994,0.486-0.994,1.28c0,0.805,0.384,1.291,0.973,1.291
			c0.313,0,0.545-0.129,0.745-0.351l0.346,0.384c-0.286,0.33-0.653,0.513-1.102,0.513c-0.897,0-1.604-0.648-1.604-1.82
			C83.544,27.614,84.268,26.928,85.176,26.928z"/>
		<path id="XMLID_230_" fill="#231F20" d="M86.779,26.712H87.4v0.983l-0.022,0.513c0.222-0.21,0.486-0.399,0.848-0.399
			c0.567,0,0.816,0.383,0.816,1.053v1.664h-0.621v-1.583c0-0.438-0.125-0.6-0.416-0.6c-0.232,0-0.384,0.113-0.605,0.33v1.853h-0.621
			V26.712z"/>
		<path id="XMLID_232_" fill="#231F20" d="M91.24,28.829c-0.005-0.281-0.124-0.519-0.48-0.519c-0.265,0-0.513,0.119-0.746,0.259
			l-0.227-0.416c0.292-0.184,0.665-0.346,1.086-0.346c0.665,0,0.988,0.405,0.988,1.145v1.572h-0.507l-0.049-0.292h-0.016
			c-0.238,0.2-0.508,0.356-0.821,0.356c-0.464,0-0.789-0.313-0.789-0.778C89.679,29.245,90.154,28.948,91.24,28.829z M90.662,30.104
			c0.216,0,0.383-0.108,0.578-0.292v-0.594c-0.718,0.092-0.956,0.281-0.956,0.545C90.284,30.001,90.44,30.104,90.662,30.104z"/>
		<path id="XMLID_235_" fill="#231F20" d="M92.617,27.873h0.513l0.043,0.356h0.021c0.238-0.232,0.508-0.421,0.87-0.421
			c0.567,0,0.816,0.383,0.816,1.053v1.664h-0.621v-1.583c0-0.438-0.125-0.6-0.416-0.6c-0.232,0-0.384,0.113-0.605,0.33v1.853h-0.621
			V27.873z"/>
		<path id="XMLID_237_" fill="#231F20" d="M95.64,27.873h0.513l0.043,0.356h0.021c0.238-0.232,0.508-0.421,0.87-0.421
			c0.567,0,0.816,0.383,0.816,1.053v1.664h-0.621v-1.583c0-0.438-0.125-0.6-0.416-0.6c-0.232,0-0.384,0.113-0.605,0.33v1.853H95.64
			V27.873z"/>
		<path id="XMLID_239_" fill="#231F20" d="M99.712,27.809c0.718,0,1.096,0.519,1.096,1.258c0,0.119-0.011,0.227-0.027,0.292h-1.685
			c0.054,0.481,0.356,0.751,0.783,0.751c0.227,0,0.421-0.07,0.616-0.194l0.21,0.389c-0.254,0.167-0.572,0.287-0.907,0.287
			c-0.735,0-1.307-0.513-1.307-1.388C98.492,28.338,99.091,27.809,99.712,27.809z M100.268,28.964c0-0.421-0.178-0.675-0.54-0.675
			c-0.313,0-0.583,0.232-0.637,0.675H100.268z"/>
		<path id="XMLID_242_" fill="#231F20" d="M101.402,26.712h0.621v3.165c0,0.151,0.07,0.206,0.135,0.206c0.027,0,0.049,0,0.097-0.011
			l0.081,0.464c-0.075,0.032-0.184,0.054-0.329,0.054c-0.443,0-0.605-0.287-0.605-0.746V26.712z"/>
	</g>
	<rect id="XMLID_86_" x="79.239" y="22.159" fill="none" stroke="#FFFFFF" stroke-width="0.45" width="27.425" height="12.607"/>
	<rect id="XMLID_85_" x="107.563" y="94.525" fill="#FFFFFF" width="54.308" height="12.607"/>
	<rect id="XMLID_82_" x="107.564" y="50.121" stroke="#FFFFFF" stroke-width="1.35" width="54.308" height="98.48"/>
	<g id="XMLID_179_">
		<path id="XMLID_180_" fill="#FFFFFF" d="M117.967,126.005c0.648,0,1.175,0.316,1.507,0.672l-0.519,0.583
			c-0.276-0.268-0.575-0.438-0.98-0.438c-0.867,0-1.491,0.729-1.491,1.92c0,1.208,0.575,1.937,1.458,1.937
			c0.47,0,0.818-0.194,1.118-0.526l0.519,0.575c-0.429,0.494-0.98,0.77-1.653,0.77c-1.345,0-2.406-0.972-2.406-2.73
			C115.52,127.034,116.605,126.005,117.967,126.005z"/>
		<path id="XMLID_182_" fill="#FFFFFF" d="M122,127.326c0.997,0,1.896,0.762,1.896,2.091c0,1.32-0.899,2.082-1.896,2.082
			c-0.989,0-1.888-0.762-1.888-2.082C120.112,128.087,121.012,127.326,122,127.326z M122,130.737c0.583,0,0.94-0.526,0.94-1.32
			c0-0.802-0.357-1.329-0.94-1.329c-0.583,0-0.932,0.527-0.932,1.329C121.068,130.21,121.417,130.737,122,130.737z"/>
		<path id="XMLID_185_" fill="#FFFFFF" d="M124.819,127.423h0.77l0.065,0.543h0.032c0.332-0.356,0.721-0.64,1.215-0.64
			c0.583,0,0.916,0.268,1.102,0.713c0.381-0.405,0.778-0.713,1.28-0.713c0.842,0,1.231,0.576,1.231,1.58v2.496h-0.94v-2.374
			c0-0.656-0.194-0.899-0.608-0.899c-0.251,0-0.526,0.162-0.834,0.494v2.779h-0.932v-2.374c0-0.656-0.194-0.899-0.616-0.899
			c-0.243,0-0.527,0.162-0.834,0.494v2.779h-0.932V127.423z"/>
		<path id="XMLID_187_" fill="#FFFFFF" d="M132.579,131.726v1.248h-0.932v-5.55h0.77l0.065,0.421h0.032
			c0.332-0.283,0.762-0.519,1.199-0.519c0.988,0,1.563,0.794,1.563,2.026c0,1.361-0.818,2.147-1.701,2.147
			c-0.349,0-0.697-0.162-1.021-0.438L132.579,131.726z M133.381,130.729c0.526,0,0.932-0.47,0.932-1.37
			c0-0.794-0.26-1.264-0.859-1.264c-0.291,0-0.567,0.146-0.875,0.445v1.855C132.87,130.64,133.146,130.729,133.381,130.729z"/>
		<path id="XMLID_190_" fill="#FFFFFF" d="M136.174,127.423h0.932v2.374c0,0.657,0.187,0.899,0.616,0.899
			c0.349,0,0.583-0.162,0.883-0.551v-2.723h0.932v3.979h-0.762l-0.072-0.583h-0.024c-0.349,0.414-0.737,0.681-1.28,0.681
			c-0.851,0-1.224-0.575-1.224-1.58V127.423z"/>
		<path id="XMLID_192_" fill="#FFFFFF" d="M140.857,128.16h-0.567v-0.697l0.615-0.041l0.114-1.085h0.777v1.085h1.013v0.737h-1.013
			v1.896c0,0.47,0.179,0.697,0.56,0.697c0.138,0,0.3-0.04,0.413-0.089l0.162,0.688c-0.219,0.073-0.494,0.146-0.811,0.146
			c-0.924,0-1.264-0.583-1.264-1.442V128.16z"/>
		<path id="XMLID_194_" fill="#FFFFFF" d="M145.199,127.326c1.078,0,1.646,0.778,1.646,1.888c0,0.178-0.017,0.34-0.041,0.438h-2.528
			c0.081,0.721,0.535,1.126,1.175,1.126c0.341,0,0.633-0.105,0.924-0.292l0.316,0.583c-0.381,0.251-0.859,0.429-1.361,0.429
			c-1.102,0-1.961-0.77-1.961-2.082C143.367,128.12,144.267,127.326,145.199,127.326z M146.034,129.06
			c0-0.632-0.268-1.013-0.811-1.013c-0.47,0-0.875,0.349-0.956,1.013H146.034z"/>
		<path id="XMLID_197_" fill="#FFFFFF" d="M147.734,127.423h0.77l0.064,0.705h0.032c0.284-0.519,0.705-0.802,1.127-0.802
			c0.202,0,0.332,0.024,0.453,0.081l-0.162,0.811c-0.138-0.041-0.243-0.065-0.413-0.065c-0.315,0-0.696,0.219-0.939,0.818v2.431
			h-0.932V127.423z"/>
	</g>
	<rect id="XMLID_98_" x="107.563" y="78.035" fill="#FFFFFF" stroke="#DE3E67" stroke-width="1.35" width="54.308" height="15.14"/>
	
		<rect id="XMLID_95_" x="107.563" y="64.078" fill="#FFFFFF" stroke="#80A750" stroke-width="1.35" width="54.308" height="12.607"/>
	
		<rect id="XMLID_83_" x="107.563" y="94.525" fill="#FFFFFF" stroke="#344D5C" stroke-width="1.35" width="54.308" height="12.607"/>
	<g id="XMLID_354_">
		<path id="XMLID_355_" fill="#DE3E67" d="M200.043,83.4h1.41c1.62,0,2.585,0.875,2.585,2.625c0,1.758-0.965,2.674-2.536,2.674
			h-1.459V83.4z M201.389,87.937c1.069,0,1.685-0.607,1.685-1.912c0-1.296-0.615-1.864-1.685-1.864h-0.405v3.776H201.389z"/>
		<path id="XMLID_358_" fill="#DE3E67" d="M206.588,84.623c1.078,0,1.646,0.778,1.646,1.888c0,0.178-0.017,0.34-0.041,0.438h-2.528
			c0.081,0.721,0.535,1.126,1.175,1.126c0.341,0,0.633-0.105,0.924-0.292l0.316,0.583c-0.381,0.251-0.859,0.429-1.361,0.429
			c-1.102,0-1.961-0.77-1.961-2.082C204.757,85.418,205.657,84.623,206.588,84.623z M207.423,86.357
			c0-0.632-0.268-1.013-0.811-1.013c-0.47,0-0.875,0.349-0.956,1.013H207.423z"/>
		<path id="XMLID_361_" fill="#DE3E67" d="M209.163,87.646c0.356,0.275,0.697,0.445,1.103,0.445c0.429,0,0.632-0.202,0.632-0.478
			c0-0.332-0.43-0.478-0.851-0.64c-0.527-0.195-1.118-0.495-1.118-1.159c0-0.697,0.559-1.191,1.45-1.191
			c0.551,0,0.996,0.227,1.32,0.478l-0.43,0.567c-0.275-0.203-0.559-0.34-0.875-0.34c-0.396,0-0.583,0.187-0.583,0.438
			c0,0.308,0.396,0.438,0.826,0.591c0.543,0.203,1.143,0.462,1.143,1.208c0,0.681-0.543,1.231-1.548,1.231
			c-0.543,0-1.118-0.235-1.507-0.551L209.163,87.646z"/>
		<path id="XMLID_363_" fill="#DE3E67" d="M212.509,83.497c0-0.316,0.243-0.535,0.575-0.535s0.575,0.219,0.575,0.535
			c0,0.308-0.243,0.526-0.575,0.526S212.509,83.805,212.509,83.497z M212.615,84.72h0.932v3.979h-0.932V84.72z"/>
		<path id="XMLID_366_" fill="#DE3E67" d="M215.036,88.569v-0.033c-0.203-0.129-0.356-0.34-0.356-0.665
			c0-0.308,0.21-0.575,0.438-0.737v-0.032c-0.268-0.203-0.519-0.583-0.519-1.053c0-0.916,0.737-1.426,1.571-1.426
			c0.219,0,0.422,0.041,0.584,0.097h1.426v0.689h-0.729c0.13,0.154,0.227,0.397,0.227,0.672c0,0.883-0.664,1.353-1.507,1.353
			c-0.17,0-0.364-0.032-0.543-0.105c-0.121,0.105-0.194,0.203-0.194,0.381c0,0.227,0.162,0.364,0.648,0.364h0.705
			c0.956,0,1.458,0.292,1.458,0.98c0,0.786-0.826,1.402-2.123,1.402c-0.947,0-1.652-0.34-1.652-1.037
			C214.469,89.088,214.671,88.796,215.036,88.569z M216.268,89.849c0.64,0,1.077-0.3,1.077-0.64c0-0.308-0.251-0.397-0.705-0.397
			h-0.542c-0.219,0-0.39-0.016-0.543-0.057c-0.211,0.162-0.309,0.34-0.309,0.527C215.246,89.639,215.636,89.849,216.268,89.849z
			 M216.859,86.049c0-0.494-0.3-0.786-0.688-0.786s-0.696,0.284-0.696,0.786c0,0.51,0.308,0.802,0.696,0.802
			C216.551,86.852,216.859,86.56,216.859,86.049z"/>
		<path id="XMLID_370_" fill="#DE3E67" d="M218.949,84.72h0.77l0.064,0.535h0.032c0.357-0.349,0.762-0.632,1.305-0.632
			c0.851,0,1.224,0.575,1.224,1.58v2.496h-0.932v-2.374c0-0.656-0.187-0.899-0.624-0.899c-0.349,0-0.575,0.17-0.907,0.494v2.779
			h-0.932V84.72z"/>
		<path id="XMLID_372_" fill="#DE3E67" d="M225.056,84.623c1.078,0,1.646,0.778,1.646,1.888c0,0.178-0.017,0.34-0.041,0.438h-2.528
			c0.081,0.721,0.535,1.126,1.175,1.126c0.341,0,0.633-0.105,0.924-0.292l0.316,0.583c-0.381,0.251-0.859,0.429-1.361,0.429
			c-1.102,0-1.961-0.77-1.961-2.082C223.225,85.418,224.124,84.623,225.056,84.623z M225.891,86.357
			c0-0.632-0.268-1.013-0.811-1.013c-0.47,0-0.875,0.349-0.956,1.013H225.891z"/>
		<path id="XMLID_375_" fill="#DE3E67" d="M227.591,84.72h0.77l0.064,0.705h0.032c0.284-0.519,0.705-0.802,1.127-0.802
			c0.202,0,0.332,0.024,0.453,0.081l-0.162,0.811c-0.138-0.041-0.243-0.065-0.413-0.065c-0.315,0-0.696,0.219-0.939,0.818v2.431
			h-0.932V84.72z"/>
	</g>
	<g id="XMLID_307_">
		<path id="XMLID_308_" fill="#344D5C" d="M116.555,83.401h1.029l0.956,2.609l0.349,1.004h0.032l0.349-1.004l0.932-2.609h1.037V88.7
			h-0.883v-2.423c0-0.494,0.073-1.199,0.122-1.685h-0.032l-0.43,1.207l-0.916,2.407h-0.429l-0.916-2.407l-0.421-1.207H117.3
			c0.041,0.486,0.114,1.191,0.114,1.685V88.7h-0.859V83.401z"/>
		<path id="XMLID_310_" fill="#344D5C" d="M124.064,84.625c1.078,0,1.645,0.778,1.645,1.888c0,0.178-0.016,0.34-0.041,0.438h-2.528
			c0.081,0.721,0.535,1.126,1.175,1.126c0.34,0,0.632-0.105,0.924-0.292l0.316,0.583c-0.381,0.251-0.859,0.429-1.361,0.429
			c-1.102,0-1.961-0.77-1.961-2.082C122.233,85.419,123.132,84.625,124.064,84.625z M124.899,86.358
			c0-0.632-0.268-1.013-0.811-1.013c-0.47,0-0.875,0.349-0.956,1.013H124.899z"/>
		<path id="XMLID_313_" fill="#344D5C" d="M126.639,87.647c0.356,0.275,0.697,0.445,1.102,0.445c0.43,0,0.632-0.202,0.632-0.478
			c0-0.332-0.429-0.478-0.851-0.64c-0.527-0.195-1.118-0.495-1.118-1.159c0-0.697,0.559-1.191,1.45-1.191
			c0.551,0,0.997,0.227,1.321,0.478l-0.429,0.567c-0.276-0.203-0.559-0.34-0.875-0.34c-0.397,0-0.583,0.187-0.583,0.438
			c0,0.308,0.397,0.438,0.826,0.591c0.543,0.203,1.143,0.462,1.143,1.208c0,0.681-0.543,1.231-1.547,1.231
			c-0.543,0-1.118-0.235-1.507-0.551L126.639,87.647z"/>
		<path id="XMLID_315_" fill="#344D5C" d="M130.13,87.647c0.356,0.275,0.697,0.445,1.102,0.445c0.43,0,0.632-0.202,0.632-0.478
			c0-0.332-0.429-0.478-0.851-0.64c-0.527-0.195-1.118-0.495-1.118-1.159c0-0.697,0.559-1.191,1.45-1.191
			c0.551,0,0.997,0.227,1.321,0.478l-0.429,0.567c-0.276-0.203-0.559-0.34-0.875-0.34c-0.397,0-0.583,0.187-0.583,0.438
			c0,0.308,0.397,0.438,0.826,0.591c0.543,0.203,1.143,0.462,1.143,1.208c0,0.681-0.543,1.231-1.547,1.231
			c-0.543,0-1.118-0.235-1.507-0.551L130.13,87.647z"/>
		<path id="XMLID_317_" fill="#344D5C" d="M135.752,86.156c-0.008-0.421-0.187-0.778-0.721-0.778c-0.397,0-0.77,0.178-1.118,0.389
			l-0.341-0.624c0.438-0.275,0.997-0.519,1.629-0.519c0.997,0,1.482,0.608,1.482,1.718V88.7h-0.762l-0.072-0.438h-0.024
			c-0.356,0.3-0.762,0.535-1.231,0.535c-0.697,0-1.184-0.47-1.184-1.167C133.41,86.78,134.124,86.334,135.752,86.156z
			 M134.885,88.068c0.324,0,0.576-0.162,0.867-0.438v-0.892c-1.077,0.138-1.434,0.421-1.434,0.818
			C134.319,87.914,134.553,88.068,134.885,88.068z"/>
		<path id="XMLID_320_" fill="#344D5C" d="M138.117,88.57v-0.032c-0.203-0.129-0.356-0.34-0.356-0.665
			c0-0.308,0.21-0.575,0.438-0.737v-0.032c-0.268-0.203-0.519-0.583-0.519-1.053c0-0.916,0.737-1.426,1.571-1.426
			c0.219,0,0.422,0.041,0.584,0.097h1.426v0.689h-0.729c0.13,0.154,0.227,0.397,0.227,0.672c0,0.883-0.664,1.353-1.507,1.353
			c-0.17,0-0.364-0.032-0.543-0.105c-0.121,0.105-0.194,0.202-0.194,0.381c0,0.227,0.162,0.364,0.648,0.364h0.705
			c0.956,0,1.458,0.292,1.458,0.98c0,0.786-0.826,1.402-2.123,1.402c-0.947,0-1.652-0.34-1.652-1.037
			C137.55,89.089,137.752,88.797,138.117,88.57z M139.349,89.851c0.64,0,1.077-0.3,1.077-0.64c0-0.308-0.251-0.397-0.705-0.397
			h-0.542c-0.219,0-0.39-0.016-0.543-0.057c-0.211,0.162-0.309,0.34-0.309,0.527C138.327,89.64,138.717,89.851,139.349,89.851z
			 M139.94,86.051c0-0.494-0.3-0.786-0.688-0.786s-0.696,0.284-0.696,0.786c0,0.51,0.308,0.802,0.696,0.802
			C139.632,86.853,139.94,86.561,139.94,86.051z"/>
		<path id="XMLID_324_" fill="#344D5C" d="M143.601,84.625c1.078,0,1.646,0.778,1.646,1.888c0,0.178-0.017,0.34-0.041,0.438h-2.528
			c0.081,0.721,0.535,1.126,1.175,1.126c0.341,0,0.633-0.105,0.924-0.292l0.316,0.583c-0.381,0.251-0.859,0.429-1.361,0.429
			c-1.102,0-1.961-0.77-1.961-2.082C141.77,85.419,142.669,84.625,143.601,84.625z M144.436,86.358c0-0.632-0.268-1.013-0.811-1.013
			c-0.47,0-0.875,0.349-0.956,1.013H144.436z"/>
	</g>
	<g id="XMLID_282_">
		<path id="XMLID_283_" fill="#45B19C" d="M112.508,68.911h0.626v3.533h-0.626V68.911z"/>
		<path id="XMLID_285_" fill="#45B19C" d="M113.966,69.792h0.513l0.043,0.356h0.021c0.238-0.232,0.508-0.421,0.87-0.421
			c0.567,0,0.816,0.383,0.816,1.053v1.664h-0.621v-1.583c0-0.438-0.125-0.6-0.416-0.6c-0.232,0-0.384,0.113-0.605,0.33v1.853h-0.621
			V69.792z"/>
		<path id="XMLID_287_" fill="#45B19C" d="M117.611,72.66v0.832h-0.621v-3.7h0.513l0.043,0.281h0.021
			c0.222-0.189,0.508-0.346,0.799-0.346c0.659,0,1.043,0.529,1.043,1.35c0,0.908-0.546,1.432-1.135,1.432
			c-0.232,0-0.464-0.108-0.68-0.292L117.611,72.66z M118.145,71.996c0.351,0,0.621-0.313,0.621-0.913
			c0-0.529-0.173-0.842-0.573-0.842c-0.194,0-0.378,0.097-0.583,0.297v1.237C117.805,71.936,117.989,71.996,118.145,71.996z"/>
		<path id="XMLID_290_" fill="#45B19C" d="M120.008,69.792h0.621v1.583c0,0.438,0.125,0.6,0.411,0.6
			c0.232,0,0.389-0.108,0.589-0.368v-1.815h0.621v2.652h-0.508l-0.048-0.389h-0.016c-0.232,0.276-0.492,0.454-0.854,0.454
			c-0.567,0-0.816-0.384-0.816-1.053V69.792z"/>
		<path id="XMLID_292_" fill="#45B19C" d="M123.13,70.283h-0.378v-0.464l0.411-0.027l0.076-0.724h0.519v0.724h0.675v0.492h-0.675
			v1.264c0,0.313,0.119,0.464,0.373,0.464c0.092,0,0.2-0.027,0.275-0.06l0.108,0.459c-0.146,0.048-0.33,0.097-0.541,0.097
			c-0.616,0-0.842-0.389-0.842-0.961V70.283z"/>
		<path id="XMLID_294_" fill="#45B19C" d="M127.585,68.846c0.432,0,0.783,0.211,1.004,0.449l-0.346,0.389
			c-0.184-0.178-0.383-0.292-0.653-0.292c-0.578,0-0.994,0.486-0.994,1.28c0,0.805,0.384,1.291,0.973,1.291
			c0.313,0,0.545-0.129,0.745-0.351l0.346,0.384c-0.286,0.33-0.653,0.513-1.102,0.513c-0.897,0-1.604-0.648-1.604-1.82
			C125.953,69.532,126.677,68.846,127.585,68.846z"/>
		<path id="XMLID_296_" fill="#45B19C" d="M130.274,69.727c0.665,0,1.264,0.507,1.264,1.394c0,0.88-0.6,1.388-1.264,1.388
			c-0.659,0-1.258-0.508-1.258-1.388C129.015,70.234,129.615,69.727,130.274,69.727z M130.274,72.001
			c0.389,0,0.626-0.351,0.626-0.88c0-0.535-0.237-0.886-0.626-0.886c-0.389,0-0.621,0.352-0.621,0.886
			C129.653,71.65,129.885,72.001,130.274,72.001z"/>
		<path id="XMLID_299_" fill="#45B19C" d="M133.114,69.727c0.303,0,0.492,0.113,0.697,0.292l-0.021-0.427V68.63h0.621v3.813h-0.514
			l-0.043-0.286h-0.021c-0.194,0.194-0.465,0.351-0.751,0.351c-0.664,0-1.091-0.513-1.091-1.388
			C131.991,70.256,132.536,69.727,133.114,69.727z M133.233,71.996c0.205,0,0.378-0.092,0.557-0.297v-1.237
			c-0.184-0.162-0.362-0.221-0.54-0.221c-0.341,0-0.616,0.318-0.616,0.875C132.633,71.688,132.849,71.996,133.233,71.996z"/>
		<path id="XMLID_302_" fill="#45B19C" d="M136.246,69.727c0.719,0,1.097,0.519,1.097,1.258c0,0.119-0.011,0.227-0.027,0.292h-1.686
			c0.055,0.48,0.356,0.75,0.783,0.75c0.228,0,0.422-0.07,0.616-0.194l0.211,0.389c-0.254,0.167-0.573,0.287-0.908,0.287
			c-0.734,0-1.307-0.513-1.307-1.388C135.026,70.256,135.625,69.727,136.246,69.727z M136.803,70.883
			c0-0.421-0.179-0.675-0.541-0.675c-0.312,0-0.583,0.232-0.637,0.675H136.803z"/>
		<path id="XMLID_305_" fill="#45B19C" d="M137.962,71.742c0.238,0.184,0.465,0.297,0.735,0.297c0.286,0,0.421-0.135,0.421-0.318
			c0-0.222-0.286-0.319-0.567-0.427c-0.351-0.13-0.745-0.33-0.745-0.772c0-0.465,0.373-0.794,0.967-0.794
			c0.367,0,0.664,0.151,0.881,0.318l-0.286,0.378c-0.184-0.135-0.373-0.227-0.584-0.227c-0.265,0-0.389,0.124-0.389,0.292
			c0,0.206,0.265,0.292,0.551,0.395c0.362,0.135,0.762,0.308,0.762,0.805c0,0.454-0.362,0.821-1.031,0.821
			c-0.362,0-0.746-0.157-1.005-0.367L137.962,71.742z"/>
	</g>
	<g id="XMLID_199_">
		<path id="XMLID_200_" fill="#E17A3F" d="M112.319,101.108c0-1.14,0.637-1.815,1.561-1.815c0.918,0,1.556,0.675,1.556,1.815
			c0,1.146-0.637,1.848-1.556,1.848C112.956,102.956,112.319,102.254,112.319,101.108z M114.793,101.108
			c0-0.789-0.362-1.269-0.913-1.269c-0.556,0-0.918,0.48-0.918,1.269c0,0.794,0.362,1.302,0.918,1.302
			C114.43,102.41,114.793,101.903,114.793,101.108z"/>
		<path id="XMLID_203_" fill="#E17A3F" d="M116.055,100.239h0.621v1.583c0,0.438,0.125,0.6,0.411,0.6
			c0.232,0,0.389-0.108,0.589-0.368v-1.815h0.621v2.652h-0.508l-0.048-0.389h-0.016c-0.232,0.276-0.492,0.454-0.854,0.454
			c-0.567,0-0.816-0.384-0.816-1.053V100.239z"/>
		<path id="XMLID_205_" fill="#E17A3F" d="M119.177,100.73h-0.378v-0.464l0.411-0.027l0.076-0.724h0.519v0.724h0.675v0.492h-0.675
			v1.264c0,0.313,0.119,0.464,0.373,0.464c0.092,0,0.2-0.027,0.275-0.06l0.108,0.459c-0.146,0.048-0.33,0.097-0.541,0.097
			c-0.616,0-0.842-0.389-0.842-0.961V100.73z"/>
		<path id="XMLID_207_" fill="#E17A3F" d="M121.656,103.107v0.832h-0.621v-3.7h0.513l0.043,0.281h0.021
			c0.222-0.189,0.508-0.346,0.799-0.346c0.659,0,1.043,0.529,1.043,1.35c0,0.908-0.546,1.432-1.135,1.432
			c-0.232,0-0.464-0.108-0.68-0.292L121.656,103.107z M122.19,102.443c0.351,0,0.621-0.313,0.621-0.913
			c0-0.529-0.173-0.842-0.573-0.842c-0.194,0-0.378,0.097-0.583,0.297v1.237C121.85,102.383,122.034,102.443,122.19,102.443z"/>
		<path id="XMLID_210_" fill="#E17A3F" d="M124.053,100.239h0.621v1.583c0,0.438,0.125,0.6,0.411,0.6
			c0.232,0,0.389-0.108,0.589-0.368v-1.815h0.621v2.652h-0.508l-0.048-0.389h-0.016c-0.232,0.276-0.492,0.454-0.854,0.454
			c-0.567,0-0.816-0.384-0.816-1.053V100.239z"/>
		<path id="XMLID_212_" fill="#E17A3F" d="M127.174,100.73h-0.378v-0.464l0.411-0.027l0.076-0.724h0.519v0.724h0.675v0.492h-0.675
			v1.264c0,0.313,0.119,0.464,0.373,0.464c0.092,0,0.2-0.027,0.275-0.06l0.108,0.459c-0.146,0.048-0.33,0.097-0.541,0.097
			c-0.616,0-0.842-0.389-0.842-0.961V100.73z"/>
		<path id="XMLID_214_" fill="#E17A3F" d="M131.629,99.293c0.432,0,0.783,0.211,1.004,0.449l-0.346,0.389
			c-0.184-0.178-0.383-0.292-0.653-0.292c-0.578,0-0.994,0.486-0.994,1.28c0,0.805,0.384,1.291,0.973,1.291
			c0.313,0,0.545-0.129,0.745-0.351l0.346,0.384c-0.286,0.33-0.653,0.513-1.102,0.513c-0.896,0-1.604-0.648-1.604-1.82
			C129.998,99.98,130.721,99.293,131.629,99.293z"/>
		<path id="XMLID_216_" fill="#E17A3F" d="M134.319,100.174c0.664,0,1.264,0.507,1.264,1.394c0,0.88-0.6,1.388-1.264,1.388
			c-0.659,0-1.259-0.508-1.259-1.388C133.06,100.682,133.659,100.174,134.319,100.174z M134.319,102.448
			c0.389,0,0.626-0.351,0.626-0.88c0-0.535-0.237-0.886-0.626-0.886c-0.39,0-0.622,0.352-0.622,0.886
			C133.697,102.097,133.929,102.448,134.319,102.448z"/>
		<path id="XMLID_219_" fill="#E17A3F" d="M137.159,100.174c0.303,0,0.492,0.113,0.697,0.292l-0.021-0.427v-0.961h0.621v3.813
			h-0.514l-0.043-0.286h-0.021c-0.194,0.194-0.465,0.351-0.751,0.351c-0.664,0-1.091-0.513-1.091-1.388
			C136.035,100.704,136.58,100.174,137.159,100.174z M137.278,102.443c0.205,0,0.378-0.092,0.557-0.297v-1.237
			c-0.184-0.162-0.362-0.221-0.54-0.221c-0.341,0-0.616,0.318-0.616,0.875C136.678,102.135,136.894,102.443,137.278,102.443z"/>
		<path id="XMLID_222_" fill="#E17A3F" d="M140.29,100.174c0.718,0,1.097,0.519,1.097,1.258c0,0.119-0.011,0.227-0.027,0.292h-1.686
			c0.055,0.48,0.356,0.75,0.783,0.75c0.228,0,0.422-0.07,0.616-0.194l0.211,0.389c-0.254,0.167-0.573,0.287-0.908,0.287
			c-0.734,0-1.307-0.513-1.307-1.388C139.07,100.704,139.669,100.174,140.29,100.174z M140.847,101.33
			c0-0.421-0.179-0.675-0.541-0.675c-0.312,0-0.583,0.232-0.637,0.675H140.847z"/>
		<path id="XMLID_225_" fill="#E17A3F" d="M142.007,102.189c0.238,0.184,0.465,0.297,0.735,0.297c0.286,0,0.421-0.135,0.421-0.318
			c0-0.222-0.286-0.319-0.567-0.427c-0.351-0.13-0.745-0.33-0.745-0.772c0-0.465,0.373-0.794,0.967-0.794
			c0.367,0,0.664,0.151,0.881,0.318l-0.286,0.378c-0.184-0.135-0.373-0.227-0.584-0.227c-0.265,0-0.389,0.124-0.389,0.292
			c0,0.206,0.265,0.292,0.551,0.395c0.362,0.135,0.762,0.308,0.762,0.805c0,0.454-0.362,0.821-1.031,0.821
			c-0.362,0-0.746-0.157-1.005-0.367L142.007,102.189z"/>
	</g>
</g>
</svg>
