<?xml version="1.0" encoding="utf-8"?>
<!-- Generator: Adobe Illustrator 19.0.0, SVG Export Plug-In . SVG Version: 6.00 Build 0)  -->
<svg version="1.1" id="Layer_1" xmlns="http://www.w3.org/2000/svg" xmlns:xlink="http://www.w3.org/1999/xlink" x="0px" y="0px"
	 viewBox="0 0 548.353 281.353" style="enable-background:new 0 0 548.353 281.353;" xml:space="preserve">
<style type="text/css">
	.st0{fill:none;stroke:#000000;}
	.st1{fill:none;stroke:#000000;stroke-miterlimit:10;}
	.st2{fill:#FFFFFF;stroke:#000000;}
	.st3{fill:none;}
	.st4{font-family:'SourceCodePro-Medium';}
	.st5{font-size:24px;}
	.st6{font-family:'SourceSansPro-Regular';}
	.st7{font-size:20px;}
	.st8{stroke:#000000;}
</style>
<image style="display:none;overflow:visible;" width="572" height="353" xlink:href="../../../../../../../../private/var/folders/z1/rcbld5z95pz1nb44_9p6ss2r0000gn/T/main-qimg-01bca0e9311226703ed213a84790d41c.png"  transform="matrix(1 0 0 1 3.7647 -3.3235)">
</image>
<g>
	<line class="st0" x1="99.549" y1="220.373" x2="55.486" y2="161.867"/>
	<line class="st0" x1="173.622" y1="230.758" x2="58.791" y2="152.701"/>
	<line class="st0" x1="179.866" y1="218.963" x2="150.378" y2="159.639"/>
	<line class="st0" x1="249.597" y1="227.636" x2="156.969" y2="153.395"/>
	<line class="st0" x1="261.739" y1="219.31" x2="247.862" y2="162.762"/>
	<line class="st0" x1="281.167" y1="223.82" x2="334.246" y2="153.048"/>
	<line class="st0" x1="120.543" y1="218.269" x2="135.46" y2="159.639"/>
	<line class="st0" x1="133.032" y1="226.942" x2="223.925" y2="154.783"/>
	<line class="st0" x1="201.375" y1="220.35" x2="230.516" y2="163.456"/>
	<line class="st0" x1="210.395" y1="228.983" x2="324.185" y2="153.742"/>
	<line class="st0" x1="246.822" y1="227.289" x2="56.71" y2="146.803"/>
	<line class="st0" x1="134.42" y1="227.636" x2="324.185" y2="154.436"/>
	<path class="st0" d="M56.363,158.599c53.784,68.664,241.046,70.662,274.067,2.428"/>
	<path class="st0" d="M57.403,154.089c66.956,46.487,121.422,44.059,171.378,9.367"/>
	<path class="st0" d="M60.526,150.966c18.387,12.836,48.916,12.142,58.283,1.041"/>
	<path class="st0" d="M56.71,155.823c41.63,16.305,45.447-47.181-0.347-30.876"/>
	<path class="st0" d="M159.704,155.252c41.63,16.305,45.447-47.181-0.347-30.876"/>
	<path class="st0" d="M261.699,155.946c41.63,16.305,45.447-47.181-0.347-30.876"/>
	<path class="st0" d="M59.485,128.764c19.428-6.938,31.223-12.836,60.017-0.694"/>
	<path class="st0" d="M161.826,127.376c16.305-6.245,40.59-9.367,57.936,0.347"/>
	<path class="st1" d="M263.127,125.641c21.509-6.245,46.834-4.51,58.976,1.735"/>
	<path class="st0" d="M263.474,151.313c14.571,6.245,32.264,12.489,57.936,1.735"/>
	<path class="st1" d="M219.415,152.354c-11.101,4.51-39.896,10.408-64.874,0.694"/>
	<path class="st1" d="M326.266,159.986c-44.059,27.754-94.015,44.406-168.256-3.816"/>
	<path class="st0" d="M154.194,157.211c28.447,23.591,112.402,95.403,173.46,1.041"/>
	<line class="st0" x1="31.037" y1="117.315" x2="105.972" y2="61.461"/>
	<line class="st0" x1="41.445" y1="117.315" x2="176.744" y2="55.91"/>
	<line class="st0" x1="52.2" y1="120.437" x2="261.392" y2="61.808"/>
	<line class="st0" x1="127.481" y1="122.172" x2="113.951" y2="62.155"/>
	<line class="st0" x1="131.991" y1="119.744" x2="181.601" y2="57.298"/>
	<line class="st0" x1="144.133" y1="118.703" x2="269.025" y2="62.155"/>
	<line class="st0" x1="236.414" y1="119.744" x2="125.4" y2="61.114"/>
	<line class="st0" x1="242.659" y1="118.703" x2="186.111" y2="60.42"/>
	<line class="st0" x1="246.475" y1="119.397" x2="273.881" y2="61.808"/>
	<line class="st0" x1="335.98" y1="120.437" x2="129.91" y2="55.91"/>
	<line class="st0" x1="342.919" y1="118.009" x2="195.824" y2="61.808"/>
	<line class="st0" x1="350.204" y1="117.662" x2="278.738" y2="59.033"/>
	<path class="st0" d="M363.346,155.558c41.63,16.305,45.447-47.181-0.347-30.876"/>
</g>
<g>
	<circle class="st2" cx="38.765" cy="140.676" r="27"/>
	<circle class="st2" cx="140.431" cy="140.676" r="27"/>
	<circle class="st2" cx="242.098" cy="140.676" r="27"/>
	<circle class="st2" cx="343.765" cy="140.676" r="27"/>
</g>
<g>
	<circle class="st2" cx="114.765" cy="242.676" r="27"/>
	<circle class="st2" cx="191.265" cy="242.676" r="27"/>
	<circle class="st2" cx="267.765" cy="242.676" r="27"/>
</g>
<g>
	<circle class="st2" cx="114.765" cy="38.676" r="27"/>
	<circle class="st2" cx="191.265" cy="38.676" r="27"/>
	<circle class="st2" cx="267.765" cy="38.676" r="27"/>
</g>
<rect x="85.853" y="232.618" class="st3" width="56.435" height="24.265"/>
<text transform="matrix(1 0 0 1 92.4714 249.6337)" class="st4 st5">in1</text>
<rect x="87.765" y="26.544" class="st3" width="54.524" height="24.265"/>
<text transform="matrix(1 0 0 1 100.6267 43.5601)" class="st4 st5">o1</text>
<rect x="165.122" y="26.544" class="st3" width="54.293" height="24.265"/>
<text transform="matrix(1 0 0 1 177.8686 43.5601)" class="st4 st5">o2</text>
<rect x="240.995" y="26.544" class="st3" width="53.77" height="24.265"/>
<text transform="matrix(1 0 0 1 253.4801 43.5601)" class="st4 st5">o3</text>
<rect x="28.004" y="128.544" class="st3" width="30.882" height="24.265"/>
<text transform="matrix(1 0 0 1 28.0038 145.5602)" class="st4 st5">h1</text>
<rect x="129.692" y="128.544" class="st3" width="30.882" height="24.265"/>
<text transform="matrix(1 0 0 1 129.6921 145.5602)" class="st4 st5">h2</text>
<rect x="231.217" y="128.544" class="st3" width="30.882" height="24.265"/>
<text transform="matrix(1 0 0 1 231.2174 145.5602)" class="st4 st5">h3</text>
<rect x="332.429" y="128.544" class="st3" width="30.882" height="24.265"/>
<text transform="matrix(1 0 0 1 332.4294 145.5602)" class="st4 st5">h4</text>
<rect x="166.333" y="232.618" class="st3" width="53.082" height="24.265"/>
<text transform="matrix(1 0 0 1 171.2746 249.6337)" class="st4 st5">in2</text>
<rect x="240.724" y="232.618" class="st3" width="54.04" height="24.265"/>
<text transform="matrix(1 0 0 1 246.1451 249.6337)" class="st4 st5">in3</text>
<rect x="427.029" y="22.118" class="st3" width="136.765" height="32.353"/>
<text transform="matrix(1 0 0 1 427.0294 36.3576)" class="st6 st7">Output layer</text>
<rect x="427.029" y="129.5" class="st3" width="136.765" height="32.353"/>
<text transform="matrix(1 0 0 1 427.0294 143.74)" class="st6 st7">Hidden layer</text>
<rect x="427.029" y="230.618" class="st3" width="136.765" height="32.353"/>
<text transform="matrix(1 0 0 1 427.0294 244.8576)" class="st6 st7">Input layer</text>
<line class="st8" x1="342.919" y1="82.088" x2="462.324" y2="82.088"/>
<line class="st8" x1="342.919" y1="195.324" x2="462.324" y2="195.324"/>
</svg>
