<?xml version="1.0" encoding="utf-8"?>
<!-- Generator: Adobe Illustrator 19.0.0, SVG Export Plug-In . SVG Version: 6.00 Build 0)  -->
<svg version="1.1" id="Layer_1" xmlns="http://www.w3.org/2000/svg" xmlns:xlink="http://www.w3.org/1999/xlink" x="0px" y="0px"
	 viewBox="0 0 548.353 281.353" style="enable-background:new 0 0 548.353 281.353;" xml:space="preserve">
<style type="text/css">
	.st0{fill:none;stroke:#000000;}
	.st1{fill:none;stroke:#000000;stroke-miterlimit:10;}
	.st2{fill:#FFFFFF;stroke:#000000;}
	.st3{stroke:#000000;}
</style>
<image style="display:none;overflow:visible;" width="572" height="353" xlink:href="../../../../../../../../private/var/folders/z1/rcbld5z95pz1nb44_9p6ss2r0000gn/T/main-qimg-01bca0e9311226703ed213a84790d41c.png"  transform="matrix(1 0 0 1 3.7647 -3.3235)">
</image>
<g>
	<line class="st0" x1="99.549" y1="220.373" x2="55.486" y2="161.867"/>
	<line class="st0" x1="173.622" y1="230.758" x2="58.791" y2="152.701"/>
	<line class="st0" x1="179.866" y1="218.963" x2="150.378" y2="159.639"/>
	<line class="st0" x1="249.597" y1="227.636" x2="156.969" y2="153.395"/>
	<line class="st0" x1="261.739" y1="219.31" x2="247.862" y2="162.762"/>
	<line class="st0" x1="281.167" y1="223.82" x2="334.246" y2="153.048"/>
	<line class="st0" x1="120.543" y1="218.269" x2="135.46" y2="159.639"/>
	<line class="st0" x1="133.032" y1="226.942" x2="223.925" y2="154.783"/>
	<line class="st0" x1="201.375" y1="220.35" x2="230.516" y2="163.456"/>
	<line class="st0" x1="210.395" y1="228.983" x2="324.185" y2="153.742"/>
	<line class="st0" x1="246.822" y1="227.289" x2="56.71" y2="146.803"/>
	<line class="st0" x1="134.42" y1="227.636" x2="324.185" y2="154.436"/>
	<path class="st0" d="M56.363,158.599c53.784,68.664,241.046,70.662,274.067,2.428"/>
	<path class="st0" d="M57.403,154.089c66.956,46.487,121.422,44.059,171.378,9.367"/>
	<path class="st0" d="M60.526,150.966c18.387,12.836,48.916,12.142,58.283,1.041"/>
	<path class="st0" d="M56.71,155.823c41.63,16.305,45.447-47.181-0.347-30.876"/>
	<path class="st0" d="M159.704,155.252c41.63,16.305,45.447-47.181-0.347-30.876"/>
	<path class="st0" d="M261.699,155.946c41.63,16.305,45.447-47.181-0.347-30.876"/>
	<path class="st0" d="M59.485,128.764c19.428-6.938,31.223-12.836,60.017-0.694"/>
	<path class="st0" d="M161.826,127.376c16.305-6.245,40.59-9.367,57.936,0.347"/>
	<path class="st1" d="M263.127,125.641c21.509-6.245,46.834-4.51,58.976,1.735"/>
	<path class="st0" d="M263.474,151.313c14.571,6.245,32.264,12.489,57.936,1.735"/>
	<path class="st1" d="M219.415,152.354c-11.101,4.51-39.896,10.408-64.874,0.694"/>
	<path class="st1" d="M326.266,159.986c-44.059,27.754-94.015,44.406-168.256-3.816"/>
	<path class="st0" d="M154.194,157.211c28.447,23.591,112.402,95.403,173.46,1.041"/>
	<line class="st0" x1="31.037" y1="117.315" x2="105.972" y2="61.461"/>
	<line class="st0" x1="41.445" y1="117.315" x2="176.744" y2="55.91"/>
	<line class="st0" x1="52.2" y1="120.437" x2="261.392" y2="61.808"/>
	<line class="st0" x1="127.481" y1="122.172" x2="113.951" y2="62.155"/>
	<line class="st0" x1="131.991" y1="119.744" x2="181.601" y2="57.298"/>
	<line class="st0" x1="144.133" y1="118.703" x2="269.025" y2="62.155"/>
	<line class="st0" x1="236.414" y1="119.744" x2="125.4" y2="61.114"/>
	<line class="st0" x1="242.659" y1="118.703" x2="186.111" y2="60.42"/>
	<line class="st0" x1="246.475" y1="119.397" x2="273.881" y2="61.808"/>
	<line class="st0" x1="335.98" y1="120.437" x2="129.91" y2="55.91"/>
	<line class="st0" x1="342.919" y1="118.009" x2="195.824" y2="61.808"/>
	<line class="st0" x1="350.204" y1="117.662" x2="278.738" y2="59.033"/>
	<path class="st0" d="M363.346,155.558c41.63,16.305,45.447-47.181-0.347-30.876"/>
</g>
<g>
	<circle class="st2" cx="38.765" cy="140.676" r="27"/>
	<circle class="st2" cx="140.431" cy="140.676" r="27"/>
	<circle class="st2" cx="242.098" cy="140.676" r="27"/>
	<circle class="st2" cx="343.765" cy="140.676" r="27"/>
</g>
<g>
	<circle class="st2" cx="114.765" cy="242.676" r="27"/>
	<circle class="st2" cx="191.265" cy="242.676" r="27"/>
	<circle class="st2" cx="267.765" cy="242.676" r="27"/>
</g>
<g>
	<circle class="st2" cx="114.765" cy="38.676" r="27"/>
	<circle class="st2" cx="191.265" cy="38.676" r="27"/>
	<circle class="st2" cx="267.765" cy="38.676" r="27"/>
</g>
<g>
	<path d="M94.559,237.897h7.632v11.736h-2.376v-9.816h-5.256V237.897z M100.799,235.666c-0.512,0-0.936-0.152-1.272-0.456
		s-0.504-0.712-0.504-1.225c0-0.512,0.168-0.924,0.504-1.235c0.336-0.312,0.76-0.468,1.272-0.468c0.512,0,0.936,0.155,1.272,0.468
		c0.336,0.312,0.504,0.724,0.504,1.235c0,0.513-0.168,0.921-0.504,1.225S101.311,235.666,100.799,235.666z"/>
	<path d="M108.983,237.897h1.944l0.192,1.896h0.096c0.591-0.608,1.231-1.124,1.92-1.548c0.688-0.424,1.488-0.637,2.4-0.637
		c1.376,0,2.384,0.408,3.024,1.225c0.64,0.815,0.96,1.992,0.96,3.527v7.272h-2.376v-6.96c0-1.023-0.184-1.78-0.552-2.268
		c-0.369-0.488-1-0.732-1.896-0.732c-0.624,0-1.185,0.156-1.68,0.468c-0.496,0.312-1.048,0.78-1.656,1.404v8.088h-2.376V237.897z"/>
	<path d="M128.135,248.265h-1.944v-1.128c0.56-0.08,1-0.18,1.32-0.3c0.32-0.12,0.656-0.292,1.008-0.516h1.416v7.367h-1.8V248.265z"
		/>
</g>
<g>
	<path d="M101.971,37.704c0-0.976,0.16-1.848,0.48-2.615c0.32-0.769,0.751-1.416,1.296-1.944c0.543-0.528,1.167-0.928,1.872-1.2
		c0.704-0.271,1.44-0.408,2.208-0.408c0.768,0,1.503,0.137,2.208,0.408c0.704,0.272,1.328,0.672,1.872,1.2s0.976,1.176,1.296,1.944
		c0.32,0.768,0.48,1.64,0.48,2.615c0,0.977-0.16,1.845-0.48,2.604c-0.32,0.76-0.752,1.404-1.296,1.932
		c-0.544,0.528-1.168,0.929-1.872,1.2c-0.705,0.272-1.44,0.408-2.208,0.408c-0.768,0-1.504-0.136-2.208-0.408
		c-0.705-0.271-1.329-0.672-1.872-1.2c-0.544-0.527-0.976-1.172-1.296-1.932C102.13,39.549,101.971,38.68,101.971,37.704z
		 M104.419,37.704c0,1.265,0.304,2.28,0.912,3.049c0.608,0.768,1.44,1.151,2.496,1.151c1.056,0,1.888-0.384,2.496-1.151
		c0.608-0.769,0.912-1.784,0.912-3.049c0-1.264-0.304-2.279-0.912-3.048c-0.608-0.768-1.44-1.151-2.496-1.151
		c-1.056,0-1.888,0.384-2.496,1.151C104.722,35.425,104.419,36.44,104.419,37.704z"/>
	<path d="M121.89,42.192h-1.944v-1.128c0.56-0.08,1-0.18,1.32-0.3c0.32-0.12,0.656-0.292,1.008-0.516h1.416v7.367h-1.8V42.192z"/>
</g>
<g>
	<path d="M179.213,37.704c0-0.976,0.16-1.848,0.48-2.615c0.32-0.769,0.751-1.416,1.296-1.944c0.543-0.528,1.167-0.928,1.872-1.2
		c0.704-0.271,1.44-0.408,2.208-0.408c0.768,0,1.503,0.137,2.208,0.408c0.704,0.272,1.328,0.672,1.872,1.2s0.976,1.176,1.296,1.944
		c0.32,0.768,0.48,1.64,0.48,2.615c0,0.977-0.16,1.845-0.48,2.604c-0.32,0.76-0.752,1.404-1.296,1.932
		c-0.544,0.528-1.168,0.929-1.872,1.2c-0.705,0.272-1.44,0.408-2.208,0.408c-0.768,0-1.504-0.136-2.208-0.408
		c-0.705-0.271-1.329-0.672-1.872-1.2c-0.544-0.527-0.976-1.172-1.296-1.932C179.373,39.549,179.213,38.68,179.213,37.704z
		 M181.661,37.704c0,1.265,0.304,2.28,0.912,3.049c0.608,0.768,1.44,1.151,2.496,1.151c1.056,0,1.888-0.384,2.496-1.151
		c0.608-0.769,0.912-1.784,0.912-3.049c0-1.264-0.304-2.279-0.912-3.048c-0.608-0.768-1.44-1.151-2.496-1.151
		c-1.056,0-1.888,0.384-2.496,1.151C181.964,35.425,181.661,36.44,181.661,37.704z"/>
	<path d="M196.613,46.633c1.184-0.881,2.107-1.624,2.772-2.232c0.664-0.608,0.996-1.168,0.996-1.68c0-0.4-0.116-0.716-0.348-0.948
		c-0.232-0.231-0.564-0.348-0.996-0.348c-0.304,0-0.592,0.088-0.864,0.264c-0.272,0.177-0.52,0.408-0.744,0.696l-1.08-0.937
		c0.368-0.432,0.796-0.787,1.284-1.067c0.488-0.28,1.036-0.42,1.644-0.42c0.88,0,1.576,0.22,2.088,0.659
		c0.512,0.44,0.768,1.061,0.768,1.86c0,0.624-0.26,1.224-0.78,1.8c-0.52,0.576-1.148,1.192-1.884,1.849h3v1.487h-5.856V46.633z"/>
</g>
<g>
	<path d="M254.824,37.704c0-0.976,0.16-1.848,0.48-2.615c0.32-0.769,0.751-1.416,1.296-1.944c0.543-0.528,1.167-0.928,1.872-1.2
		c0.704-0.271,1.44-0.408,2.208-0.408c0.768,0,1.503,0.137,2.208,0.408c0.704,0.272,1.328,0.672,1.872,1.2s0.976,1.176,1.296,1.944
		c0.32,0.768,0.48,1.64,0.48,2.615c0,0.977-0.16,1.845-0.48,2.604c-0.32,0.76-0.752,1.404-1.296,1.932
		c-0.544,0.528-1.168,0.929-1.872,1.2c-0.705,0.272-1.44,0.408-2.208,0.408c-0.768,0-1.504-0.136-2.208-0.408
		c-0.705-0.271-1.329-0.672-1.872-1.2c-0.544-0.527-0.976-1.172-1.296-1.932C254.984,39.549,254.824,38.68,254.824,37.704z
		 M257.272,37.704c0,1.265,0.304,2.28,0.912,3.049c0.608,0.768,1.44,1.151,2.496,1.151c1.056,0,1.888-0.384,2.496-1.151
		c0.608-0.769,0.912-1.784,0.912-3.049c0-1.264-0.304-2.279-0.912-3.048c-0.608-0.768-1.44-1.151-2.496-1.151
		c-1.056,0-1.888,0.384-2.496,1.151C257.576,35.425,257.272,36.44,257.272,37.704z"/>
	<path d="M272.776,45.576c0.256,0.272,0.572,0.5,0.948,0.685c0.375,0.184,0.771,0.275,1.188,0.275c0.399,0,0.728-0.08,0.984-0.239
		c0.256-0.16,0.384-0.425,0.384-0.792c0-0.753-0.72-1.128-2.16-1.128v-1.009c1.215,0,1.824-0.367,1.824-1.104
		c0-0.288-0.1-0.516-0.3-0.685c-0.2-0.168-0.508-0.252-0.924-0.252c-0.272,0-0.564,0.072-0.876,0.217
		c-0.312,0.144-0.588,0.328-0.828,0.552l-0.816-1.08c0.32-0.32,0.736-0.576,1.248-0.768c0.512-0.192,1.056-0.288,1.632-0.288
		c0.768,0,1.396,0.184,1.884,0.552c0.488,0.368,0.732,0.864,0.732,1.488c0,0.464-0.104,0.832-0.312,1.104
		c-0.208,0.272-0.544,0.496-1.008,0.672c0.528,0.128,0.939,0.349,1.236,0.66c0.296,0.312,0.444,0.708,0.444,1.188
		c0,0.72-0.288,1.279-0.864,1.68c-0.576,0.399-1.28,0.6-2.112,0.6c-0.544,0-1.088-0.1-1.632-0.3s-1.04-0.508-1.488-0.924
		L272.776,45.576z"/>
</g>
<g>
	<path d="M30.116,128.545h2.376v4.512l-0.144,2.64c0.591-0.607,1.231-1.119,1.92-1.536c0.688-0.415,1.488-0.624,2.4-0.624
		c1.376,0,2.384,0.408,3.024,1.225c0.64,0.815,0.96,1.992,0.96,3.527v7.272h-2.376v-6.96c0-1.023-0.184-1.78-0.552-2.268
		c-0.369-0.488-1-0.732-1.896-0.732c-0.624,0-1.185,0.156-1.68,0.468c-0.496,0.312-1.048,0.78-1.656,1.404v8.088h-2.376V128.545z"/>
	<path d="M49.268,144.192h-1.944v-1.128c0.56-0.08,1-0.18,1.32-0.3c0.32-0.12,0.656-0.292,1.008-0.516h1.416v7.367h-1.8V144.192z"/>
</g>
<g>
	<path d="M131.804,128.545h2.376v4.512l-0.144,2.64c0.591-0.607,1.231-1.119,1.92-1.536c0.688-0.415,1.488-0.624,2.4-0.624
		c1.376,0,2.384,0.408,3.024,1.225c0.64,0.815,0.96,1.992,0.96,3.527v7.272h-2.376v-6.96c0-1.023-0.184-1.78-0.552-2.268
		c-0.369-0.488-1-0.732-1.896-0.732c-0.624,0-1.185,0.156-1.68,0.468c-0.496,0.312-1.048,0.78-1.656,1.404v8.088h-2.376V128.545z"/>
	<path d="M148.436,148.633c1.184-0.881,2.107-1.624,2.772-2.232c0.664-0.608,0.996-1.168,0.996-1.68c0-0.4-0.116-0.716-0.348-0.948
		c-0.232-0.231-0.564-0.348-0.996-0.348c-0.304,0-0.592,0.088-0.864,0.264c-0.272,0.177-0.52,0.408-0.744,0.696l-1.08-0.937
		c0.368-0.432,0.796-0.787,1.284-1.067c0.488-0.28,1.036-0.42,1.644-0.42c0.88,0,1.576,0.22,2.088,0.659
		c0.512,0.44,0.768,1.061,0.768,1.86c0,0.624-0.26,1.224-0.78,1.8c-0.52,0.576-1.148,1.192-1.884,1.849h3v1.487h-5.856V148.633z"/>
</g>
<g>
	<path d="M233.329,128.545h2.376v4.512l-0.144,2.64c0.591-0.607,1.231-1.119,1.92-1.536c0.688-0.415,1.488-0.624,2.4-0.624
		c1.376,0,2.384,0.408,3.024,1.225c0.64,0.815,0.96,1.992,0.96,3.527v7.272h-2.376v-6.96c0-1.023-0.184-1.78-0.552-2.268
		c-0.369-0.488-1-0.732-1.896-0.732c-0.624,0-1.185,0.156-1.68,0.468c-0.496,0.312-1.048,0.78-1.656,1.404v8.088h-2.376V128.545z"/>
	<path d="M250.513,147.576c0.256,0.272,0.572,0.5,0.948,0.685c0.375,0.184,0.771,0.275,1.188,0.275c0.399,0,0.728-0.08,0.984-0.239
		c0.256-0.16,0.384-0.425,0.384-0.792c0-0.753-0.72-1.128-2.16-1.128v-1.009c1.215,0,1.824-0.367,1.824-1.104
		c0-0.288-0.1-0.516-0.3-0.685c-0.2-0.168-0.508-0.252-0.924-0.252c-0.272,0-0.564,0.072-0.876,0.217
		c-0.312,0.144-0.588,0.328-0.828,0.552l-0.816-1.08c0.32-0.32,0.736-0.576,1.248-0.768c0.512-0.192,1.056-0.288,1.632-0.288
		c0.768,0,1.396,0.184,1.884,0.552c0.488,0.368,0.732,0.864,0.732,1.488c0,0.464-0.104,0.832-0.312,1.104
		c-0.208,0.272-0.544,0.496-1.008,0.672c0.528,0.128,0.939,0.349,1.236,0.66c0.296,0.312,0.444,0.708,0.444,1.188
		c0,0.72-0.288,1.279-0.864,1.68c-0.576,0.399-1.28,0.6-2.112,0.6c-0.544,0-1.088-0.1-1.632-0.3s-1.04-0.508-1.488-0.924
		L250.513,147.576z"/>
</g>
<g>
	<path d="M334.541,128.545h2.376v4.512l-0.144,2.64c0.592-0.607,1.231-1.119,1.92-1.536c0.688-0.415,1.488-0.624,2.4-0.624
		c1.376,0,2.384,0.408,3.023,1.225c0.64,0.815,0.96,1.992,0.96,3.527v7.272h-2.376v-6.96c0-1.023-0.184-1.78-0.552-2.268
		c-0.368-0.488-1-0.732-1.896-0.732c-0.624,0-1.185,0.156-1.681,0.468c-0.496,0.312-1.048,0.78-1.656,1.404v8.088h-2.376V128.545z"
		/>
	<path d="M357.581,147.936h-1.224v1.68h-1.608v-1.68h-3.863v-0.864l3.384-4.823h2.088v4.512h1.224V147.936z M354.749,146.76v-1.128
		l0.12-2.064h-0.072l-1.008,1.512l-1.176,1.681H354.749z"/>
</g>
<g>
	<path d="M173.362,237.897h7.632v11.736h-2.376v-9.816h-5.256V237.897z M179.603,235.666c-0.512,0-0.936-0.152-1.272-0.456
		s-0.504-0.712-0.504-1.225c0-0.512,0.168-0.924,0.504-1.235c0.336-0.312,0.76-0.468,1.272-0.468c0.512,0,0.936,0.155,1.272,0.468
		c0.336,0.312,0.504,0.724,0.504,1.235c0,0.513-0.168,0.921-0.504,1.225S180.114,235.666,179.603,235.666z"/>
	<path d="M187.786,237.897h1.944l0.192,1.896h0.096c0.591-0.608,1.231-1.124,1.92-1.548c0.688-0.424,1.488-0.637,2.4-0.637
		c1.376,0,2.384,0.408,3.024,1.225c0.64,0.815,0.96,1.992,0.96,3.527v7.272h-2.376v-6.96c0-1.023-0.184-1.78-0.552-2.268
		c-0.369-0.488-1-0.732-1.896-0.732c-0.624,0-1.185,0.156-1.68,0.468c-0.496,0.312-1.048,0.78-1.656,1.404v8.088h-2.376V237.897z"/>
	<path d="M204.419,252.706c1.184-0.881,2.107-1.624,2.772-2.232c0.664-0.608,0.996-1.168,0.996-1.68c0-0.4-0.116-0.716-0.348-0.948
		c-0.232-0.231-0.564-0.348-0.996-0.348c-0.304,0-0.592,0.088-0.864,0.264c-0.272,0.177-0.52,0.408-0.744,0.696l-1.08-0.937
		c0.368-0.432,0.796-0.787,1.284-1.067c0.488-0.28,1.036-0.42,1.644-0.42c0.88,0,1.576,0.22,2.088,0.659
		c0.512,0.44,0.768,1.061,0.768,1.86c0,0.624-0.26,1.224-0.78,1.8c-0.52,0.576-1.148,1.192-1.884,1.849h3v1.487h-5.856V252.706z"/>
</g>
<g>
	<path d="M248.233,237.897h7.632v11.736h-2.376v-9.816h-5.256V237.897z M254.473,235.666c-0.512,0-0.936-0.152-1.272-0.456
		s-0.504-0.712-0.504-1.225c0-0.512,0.168-0.924,0.504-1.235c0.336-0.312,0.76-0.468,1.272-0.468c0.512,0,0.936,0.155,1.272,0.468
		c0.336,0.312,0.504,0.724,0.504,1.235c0,0.513-0.168,0.921-0.504,1.225S254.985,235.666,254.473,235.666z"/>
	<path d="M262.657,237.897h1.944l0.192,1.896h0.096c0.591-0.608,1.231-1.124,1.92-1.548c0.688-0.424,1.488-0.637,2.4-0.637
		c1.376,0,2.384,0.408,3.024,1.225c0.64,0.815,0.96,1.992,0.96,3.527v7.272h-2.376v-6.96c0-1.023-0.184-1.78-0.552-2.268
		c-0.369-0.488-1-0.732-1.896-0.732c-0.624,0-1.185,0.156-1.68,0.468c-0.496,0.312-1.048,0.78-1.656,1.404v8.088h-2.376V237.897z"/>
	<path d="M279.841,251.649c0.256,0.272,0.572,0.5,0.948,0.685c0.375,0.184,0.771,0.275,1.188,0.275c0.399,0,0.728-0.08,0.984-0.239
		c0.256-0.16,0.384-0.425,0.384-0.792c0-0.753-0.72-1.128-2.16-1.128v-1.009c1.215,0,1.824-0.367,1.824-1.104
		c0-0.288-0.1-0.516-0.3-0.685c-0.2-0.168-0.508-0.252-0.924-0.252c-0.272,0-0.564,0.072-0.876,0.217
		c-0.312,0.144-0.588,0.328-0.828,0.552l-0.816-1.08c0.32-0.32,0.736-0.576,1.248-0.768c0.512-0.192,1.056-0.288,1.632-0.288
		c0.768,0,1.396,0.184,1.884,0.552c0.488,0.368,0.732,0.864,0.732,1.488c0,0.464-0.104,0.832-0.312,1.104
		c-0.208,0.272-0.544,0.496-1.008,0.672c0.528,0.128,0.939,0.349,1.236,0.66c0.296,0.312,0.444,0.708,0.444,1.188
		c0,0.72-0.288,1.279-0.864,1.68c-0.576,0.399-1.28,0.6-2.112,0.6c-0.544,0-1.088-0.1-1.632-0.3s-1.04-0.508-1.488-0.924
		L279.841,251.649z"/>
</g>
<g>
	<path d="M428.01,29.736c0-4.201,2.32-6.741,5.621-6.741c3.28,0,5.601,2.561,5.601,6.741c0,4.221-2.32,6.862-5.601,6.862
		C430.33,36.598,428.01,33.957,428.01,29.736z M437.512,29.736c0-3.261-1.54-5.281-3.881-5.281c-2.36,0-3.901,2.02-3.901,5.281
		c0,3.281,1.541,5.401,3.901,5.401C435.972,35.137,437.512,33.017,437.512,29.736z"/>
	<path d="M441.709,26.635h1.661v5.941c0,1.82,0.54,2.601,1.82,2.601c1,0,1.7-0.5,2.62-1.641v-6.901h1.641v9.722h-1.36l-0.141-1.521
		h-0.06c-0.9,1.061-1.86,1.761-3.2,1.761c-2.061,0-2.981-1.32-2.981-3.801V26.635z"/>
	<path d="M453.009,27.976h-1.439v-1.24l1.52-0.1l0.2-2.721h1.381v2.721h2.62v1.34h-2.62v5.401c0,1.2,0.38,1.88,1.5,1.88
		c0.34,0,0.78-0.14,1.101-0.26l0.319,1.24c-0.54,0.18-1.2,0.36-1.8,0.36c-2.081,0-2.781-1.32-2.781-3.241V27.976z"/>
	<path d="M461.129,37.178v3.281h-1.64V26.635h1.36l0.14,1.12h0.061c0.88-0.74,1.96-1.36,3.101-1.36c2.5,0,3.841,1.94,3.841,4.961
		c0,3.301-1.98,5.241-4.201,5.241c-0.9,0-1.801-0.42-2.701-1.121L461.129,37.178z M463.51,35.217c1.601,0,2.78-1.46,2.78-3.861
		c0-2.141-0.72-3.581-2.561-3.581c-0.819,0-1.64,0.46-2.601,1.32v5.101C462.01,34.937,462.87,35.217,463.51,35.217z"/>
	<path d="M470.448,26.635h1.661v5.941c0,1.82,0.54,2.601,1.82,2.601c1,0,1.7-0.5,2.62-1.641v-6.901h1.641v9.722h-1.36l-0.141-1.521
		h-0.06c-0.9,1.061-1.86,1.761-3.201,1.761c-2.06,0-2.98-1.32-2.98-3.801V26.635z"/>
	<path d="M481.749,27.976h-1.44v-1.24l1.52-0.1l0.2-2.721h1.381v2.721h2.62v1.34h-2.62v5.401c0,1.2,0.38,1.88,1.5,1.88
		c0.34,0,0.78-0.14,1.101-0.26l0.319,1.24c-0.54,0.18-1.2,0.36-1.8,0.36c-2.081,0-2.78-1.32-2.78-3.241V27.976z"/>
	<path d="M492.269,22.114h1.64v12.403c0,0.52,0.221,0.72,0.461,0.72c0.1,0,0.18,0,0.359-0.04l0.221,1.24
		c-0.221,0.1-0.5,0.16-0.94,0.16c-1.24,0-1.74-0.78-1.74-2.201V22.114z"/>
	<path d="M502.869,30.196c0-1.24-0.42-2.441-2.001-2.441c-1.14,0-2.14,0.521-2.9,1.041l-0.66-1.14c0.9-0.58,2.261-1.26,3.821-1.26
		c2.38,0,3.381,1.58,3.381,4v5.961h-1.36l-0.141-1.16h-0.04c-0.939,0.76-2.021,1.4-3.221,1.4c-1.64,0-2.86-1.021-2.86-2.761
		C496.888,31.717,498.729,30.656,502.869,30.196z M500.208,35.278c0.94,0,1.721-0.46,2.661-1.3v-2.701
		c-3.261,0.4-4.361,1.2-4.361,2.44C498.508,34.817,499.248,35.278,500.208,35.278z"/>
	<path d="M507.689,39.178c1.1,0,1.8-0.88,2.2-2.081l0.22-0.72l-3.9-9.742h1.7l1.98,5.381c0.3,0.84,0.64,1.84,0.94,2.741h0.08
		c0.279-0.88,0.56-1.881,0.82-2.741l1.74-5.381h1.6l-3.66,10.522c-0.681,1.92-1.681,3.38-3.641,3.38c-0.44,0-0.82-0.08-1.141-0.2
		l0.32-1.3C507.148,39.098,507.448,39.178,507.689,39.178z"/>
	<path d="M520.509,26.396c2.48,0,3.881,1.78,3.881,4.561c0,0.34-0.021,0.66-0.061,0.9h-6.561c0.119,2.101,1.38,3.421,3.24,3.421
		c0.92,0,1.7-0.3,2.421-0.76l0.58,1.08c-0.841,0.54-1.881,1-3.201,1c-2.601,0-4.661-1.9-4.661-5.081S518.288,26.396,520.509,26.396z
		 M522.949,30.777c0-1.98-0.88-3.081-2.4-3.081c-1.36,0-2.601,1.12-2.801,3.081H522.949z"/>
	<path d="M526.788,26.635h1.36l0.14,1.76h0.061c0.659-1.22,1.66-2,2.76-2c0.421,0,0.721,0.06,1.041,0.2l-0.32,1.44
		c-0.32-0.1-0.54-0.16-0.94-0.16c-0.82,0-1.801,0.6-2.461,2.241v6.241h-1.64V26.635z"/>
</g>
<g>
	<path d="M428.77,130.617h1.681v5.501h6.102v-5.501h1.66v13.123h-1.66v-6.181h-6.102v6.181h-1.681V130.617z"/>
	<path d="M441.309,130.957c0-0.64,0.501-1.06,1.141-1.06c0.641,0,1.141,0.42,1.141,1.06c0,0.62-0.5,1.06-1.141,1.06
		C441.81,132.017,441.309,131.577,441.309,130.957z M441.609,134.018h1.64v9.722h-1.64V134.018z"/>
	<path d="M450.05,133.778c1.12,0,1.86,0.42,2.721,1.12l-0.08-1.661v-3.741h1.66v14.243h-1.36l-0.14-1.14h-0.061
		c-0.76,0.74-1.8,1.38-2.94,1.38c-2.44,0-4.021-1.84-4.021-5.081C445.829,135.738,447.829,133.778,450.05,133.778z M450.21,142.6
		c0.9,0,1.681-0.44,2.48-1.34v-5.081c-0.82-0.74-1.561-1.021-2.36-1.021c-1.561,0-2.801,1.5-2.801,3.721
		C447.529,141.199,448.51,142.6,450.21,142.6z"/>
	<path d="M461.149,133.778c1.12,0,1.86,0.42,2.721,1.12l-0.08-1.661v-3.741h1.66v14.243h-1.36l-0.14-1.14h-0.061
		c-0.76,0.74-1.8,1.38-2.94,1.38c-2.44,0-4.021-1.84-4.021-5.081C456.929,135.738,458.929,133.778,461.149,133.778z M461.31,142.6
		c0.9,0,1.681-0.44,2.48-1.34v-5.081c-0.82-0.74-1.561-1.021-2.36-1.021c-1.561,0-2.801,1.5-2.801,3.721
		C458.629,141.199,459.609,142.6,461.31,142.6z"/>
	<path d="M472.369,133.778c2.48,0,3.881,1.78,3.881,4.561c0,0.34-0.021,0.66-0.061,0.9h-6.561c0.119,2.101,1.38,3.421,3.24,3.421
		c0.92,0,1.7-0.3,2.421-0.76l0.58,1.08c-0.841,0.54-1.881,1-3.201,1c-2.601,0-4.661-1.9-4.661-5.081
		S470.148,133.778,472.369,133.778z M474.81,138.159c0-1.98-0.88-3.081-2.4-3.081c-1.36,0-2.601,1.12-2.801,3.081H474.81z"/>
	<path d="M478.648,134.018h1.36l0.14,1.4h0.06c0.921-0.92,1.921-1.64,3.261-1.64c2.041,0,2.961,1.32,2.961,3.801v6.161h-1.641
		v-5.941c0-1.82-0.56-2.601-1.84-2.601c-1,0-1.681,0.521-2.661,1.5v7.042h-1.64V134.018z"/>
	<path d="M493.629,129.497h1.64V141.9c0,0.52,0.221,0.72,0.461,0.72c0.1,0,0.18,0,0.359-0.04l0.221,1.24
		c-0.221,0.1-0.5,0.16-0.94,0.16c-1.24,0-1.74-0.78-1.74-2.201V129.497z"/>
	<path d="M504.23,137.579c0-1.24-0.42-2.441-2.001-2.441c-1.14,0-2.14,0.521-2.9,1.041l-0.66-1.14c0.9-0.58,2.261-1.26,3.821-1.26
		c2.38,0,3.381,1.58,3.381,4v5.961h-1.36l-0.141-1.16h-0.04c-0.939,0.76-2.021,1.4-3.221,1.4c-1.64,0-2.86-1.021-2.86-2.761
		C498.248,139.099,500.089,138.039,504.23,137.579z M501.569,142.66c0.939,0,1.72-0.46,2.66-1.3v-2.701
		c-3.261,0.4-4.361,1.2-4.361,2.44C499.868,142.199,500.608,142.66,501.569,142.66z"/>
	<path d="M509.049,146.561c1.1,0,1.8-0.88,2.2-2.081l0.22-0.72l-3.9-9.742h1.7l1.98,5.381c0.3,0.84,0.64,1.84,0.94,2.741h0.08
		c0.279-0.88,0.56-1.881,0.819-2.741l1.741-5.381h1.6l-3.66,10.522c-0.681,1.92-1.681,3.38-3.641,3.38c-0.44,0-0.82-0.08-1.141-0.2
		l0.32-1.3C508.509,146.481,508.809,146.561,509.049,146.561z"/>
	<path d="M521.869,133.778c2.48,0,3.881,1.78,3.881,4.561c0,0.34-0.021,0.66-0.061,0.9h-6.561c0.119,2.101,1.38,3.421,3.24,3.421
		c0.92,0,1.7-0.3,2.421-0.76l0.58,1.08c-0.841,0.54-1.881,1-3.201,1c-2.601,0-4.661-1.9-4.661-5.081
		S519.648,133.778,521.869,133.778z M524.31,138.159c0-1.98-0.88-3.081-2.4-3.081c-1.36,0-2.601,1.12-2.801,3.081H524.31z"/>
	<path d="M528.148,134.018h1.36l0.14,1.76h0.06c0.66-1.22,1.661-2,2.761-2c0.421,0,0.721,0.06,1.041,0.2l-0.32,1.44
		c-0.32-0.1-0.54-0.16-0.94-0.16c-0.82,0-1.801,0.6-2.461,2.241v6.241h-1.64V134.018z"/>
</g>
<g>
	<path d="M428.77,231.735h1.681v13.123h-1.681V231.735z"/>
	<path d="M433.83,235.135h1.36l0.14,1.4h0.06c0.921-0.92,1.921-1.641,3.261-1.641c2.041,0,2.961,1.32,2.961,3.801v6.162h-1.641
		v-5.941c0-1.82-0.56-2.602-1.84-2.602c-1,0-1.681,0.521-2.661,1.501v7.042h-1.64V235.135z"/>
	<path d="M446.41,245.678v3.28h-1.64v-13.823h1.36l0.14,1.12h0.061c0.88-0.739,1.96-1.36,3.101-1.36c2.5,0,3.841,1.941,3.841,4.961
		c0,3.301-1.98,5.242-4.201,5.242c-0.9,0-1.801-0.421-2.701-1.121L446.41,245.678z M448.791,243.717c1.601,0,2.78-1.461,2.78-3.861
		c0-2.141-0.72-3.58-2.561-3.58c-0.819,0-1.64,0.46-2.601,1.32v5.101C447.291,243.437,448.151,243.717,448.791,243.717z"/>
	<path d="M455.73,235.135h1.661v5.941c0,1.82,0.54,2.601,1.82,2.601c1,0,1.7-0.5,2.62-1.641v-6.901h1.641v9.723h-1.36l-0.141-1.521
		h-0.06c-0.9,1.061-1.86,1.762-3.201,1.762c-2.06,0-2.98-1.32-2.98-3.801V235.135z"/>
	<path d="M467.03,236.475h-1.44v-1.24l1.52-0.1l0.2-2.721h1.381v2.721h2.62v1.34h-2.62v5.402c0,1.199,0.38,1.88,1.5,1.88
		c0.34,0,0.78-0.14,1.101-0.261l0.319,1.24c-0.54,0.181-1.2,0.361-1.8,0.361c-2.081,0-2.78-1.32-2.78-3.241V236.475z"/>
	<path d="M477.55,230.614h1.64v12.403c0,0.521,0.221,0.72,0.461,0.72c0.1,0,0.18,0,0.359-0.039l0.221,1.24
		c-0.221,0.1-0.5,0.16-0.94,0.16c-1.24,0-1.74-0.781-1.74-2.201V230.614z"/>
	<path d="M488.15,238.696c0-1.24-0.42-2.44-2.001-2.44c-1.14,0-2.14,0.521-2.9,1.04l-0.66-1.14c0.9-0.58,2.261-1.261,3.821-1.261
		c2.38,0,3.381,1.58,3.381,4.001v5.962h-1.36l-0.141-1.16h-0.04c-0.939,0.76-2.021,1.4-3.221,1.4c-1.64,0-2.86-1.021-2.86-2.762
		C482.169,240.217,484.01,239.157,488.15,238.696z M485.489,243.778c0.94,0,1.721-0.461,2.661-1.301v-2.701
		c-3.261,0.4-4.361,1.201-4.361,2.441C483.789,243.317,484.529,243.778,485.489,243.778z"/>
	<path d="M492.97,247.678c1.1,0,1.8-0.881,2.2-2.08l0.22-0.721l-3.9-9.742h1.7l1.98,5.381c0.3,0.84,0.64,1.841,0.94,2.741h0.08
		c0.279-0.88,0.56-1.881,0.82-2.741l1.74-5.381h1.6l-3.66,10.522c-0.681,1.921-1.681,3.38-3.641,3.38
		c-0.44,0-0.82-0.079-1.141-0.199l0.32-1.301C492.43,247.598,492.73,247.678,492.97,247.678z"/>
	<path d="M505.79,234.895c2.48,0,3.881,1.781,3.881,4.561c0,0.341-0.021,0.66-0.061,0.9h-6.561c0.119,2.102,1.38,3.422,3.24,3.422
		c0.92,0,1.7-0.301,2.421-0.761l0.58,1.08c-0.841,0.54-1.881,1.001-3.201,1.001c-2.601,0-4.661-1.9-4.661-5.082
		C501.429,236.837,503.569,234.895,505.79,234.895z M508.231,239.276c0-1.98-0.88-3.08-2.4-3.08c-1.36,0-2.601,1.12-2.801,3.08
		H508.231z"/>
	<path d="M512.069,235.135h1.36l0.14,1.76h0.061c0.659-1.22,1.66-2,2.76-2c0.421,0,0.721,0.061,1.041,0.2l-0.32,1.44
		c-0.32-0.1-0.54-0.16-0.94-0.16c-0.82,0-1.801,0.6-2.461,2.24v6.242h-1.64V235.135z"/>
</g>
<line class="st3" x1="342.919" y1="82.088" x2="462.324" y2="82.088"/>
<line class="st3" x1="342.919" y1="195.324" x2="462.324" y2="195.324"/>
</svg>
